%TF.GenerationSoftware,KiCad,Pcbnew,(5.99.0-11012-g5d9c1dd75a)*%
%TF.CreationDate,2021-06-14T21:45:01+02:00*%
%TF.ProjectId,Power-Supply,506f7765-722d-4537-9570-706c792e6b69,rev?*%
%TF.SameCoordinates,Original*%
%TF.FileFunction,Soldermask,Bot*%
%TF.FilePolarity,Negative*%
%FSLAX46Y46*%
G04 Gerber Fmt 4.6, Leading zero omitted, Abs format (unit mm)*
G04 Created by KiCad (PCBNEW (5.99.0-11012-g5d9c1dd75a)) date 2021-06-14 21:45:01*
%MOMM*%
%LPD*%
G01*
G04 APERTURE LIST*
G04 Aperture macros list*
%AMRoundRect*
0 Rectangle with rounded corners*
0 $1 Rounding radius*
0 $2 $3 $4 $5 $6 $7 $8 $9 X,Y pos of 4 corners*
0 Add a 4 corners polygon primitive as box body*
4,1,4,$2,$3,$4,$5,$6,$7,$8,$9,$2,$3,0*
0 Add four circle primitives for the rounded corners*
1,1,$1+$1,$2,$3*
1,1,$1+$1,$4,$5*
1,1,$1+$1,$6,$7*
1,1,$1+$1,$8,$9*
0 Add four rect primitives between the rounded corners*
20,1,$1+$1,$2,$3,$4,$5,0*
20,1,$1+$1,$4,$5,$6,$7,0*
20,1,$1+$1,$6,$7,$8,$9,0*
20,1,$1+$1,$8,$9,$2,$3,0*%
G04 Aperture macros list end*
%ADD10O,3.600000X3.600000*%
%ADD11RoundRect,0.050000X0.900000X0.900000X-0.900000X0.900000X-0.900000X-0.900000X0.900000X-0.900000X0*%
%ADD12O,1.900000X1.900000*%
%ADD13C,5.700000*%
%ADD14RoundRect,0.259260X1.140740X1.140740X-1.140740X1.140740X-1.140740X-1.140740X1.140740X-1.140740X0*%
%ADD15C,2.800000*%
%ADD16RoundRect,0.259260X1.140740X-1.140740X1.140740X1.140740X-1.140740X1.140740X-1.140740X-1.140740X0*%
%ADD17RoundRect,0.050000X0.800000X0.800000X-0.800000X0.800000X-0.800000X-0.800000X0.800000X-0.800000X0*%
%ADD18C,1.700000*%
%ADD19RoundRect,0.259260X-1.140740X1.140740X-1.140740X-1.140740X1.140740X-1.140740X1.140740X1.140740X0*%
%ADD20C,1.448000*%
%ADD21C,1.500000*%
%ADD22RoundRect,0.050000X0.850000X-0.850000X0.850000X0.850000X-0.850000X0.850000X-0.850000X-0.850000X0*%
%ADD23O,1.800000X1.800000*%
%ADD24RoundRect,0.264368X0.880632X-0.655632X0.880632X0.655632X-0.880632X0.655632X-0.880632X-0.655632X0*%
%ADD25O,2.290000X1.840000*%
%ADD26RoundRect,0.050000X-0.850000X-0.850000X0.850000X-0.850000X0.850000X0.850000X-0.850000X0.850000X0*%
%ADD27C,1.090600*%
G04 APERTURE END LIST*
D10*
%TO.C,U1*%
X182385000Y-149040000D03*
D11*
X186195000Y-130340000D03*
D12*
X184925000Y-134140000D03*
X183655000Y-130340000D03*
X182385000Y-134140000D03*
X181115000Y-130340000D03*
X179845000Y-134140000D03*
X178575000Y-130340000D03*
%TD*%
D10*
%TO.C,U3*%
X117615000Y-149180000D03*
D11*
X121425000Y-130480000D03*
D12*
X120155000Y-134280000D03*
X118885000Y-130480000D03*
X117615000Y-134280000D03*
X116345000Y-130480000D03*
X115075000Y-134280000D03*
X113805000Y-130480000D03*
%TD*%
D13*
%TO.C,H1*%
X104000000Y-66500000D03*
%TD*%
%TO.C,H2*%
X196000000Y-66500000D03*
%TD*%
%TO.C,H4*%
X196000000Y-133500000D03*
%TD*%
D14*
%TO.C,J5*%
X172000000Y-68000000D03*
D15*
X168040000Y-68000000D03*
X164080000Y-68000000D03*
X160120000Y-68000000D03*
%TD*%
D14*
%TO.C,J4*%
X190000000Y-68000000D03*
D15*
X186040000Y-68000000D03*
X182080000Y-68000000D03*
X178120000Y-68000000D03*
%TD*%
D16*
%TO.C,J3*%
X194450000Y-87940000D03*
D15*
X194450000Y-83980000D03*
X194450000Y-80020000D03*
X194450000Y-76060000D03*
%TD*%
D13*
%TO.C,H3*%
X104000000Y-133500000D03*
%TD*%
D16*
%TO.C,J6*%
X194500000Y-123940000D03*
D15*
X194500000Y-119980000D03*
X194500000Y-116020000D03*
X194500000Y-112060000D03*
%TD*%
D17*
%TO.C,C15*%
X185942651Y-121590000D03*
D18*
X182442651Y-121590000D03*
%TD*%
D17*
%TO.C,C17*%
X106185000Y-114605000D03*
D18*
X102685000Y-114605000D03*
%TD*%
D15*
%TO.C,J9*%
X105500000Y-107220000D03*
X105500000Y-103260000D03*
X105500000Y-99300000D03*
X105500000Y-95340000D03*
X105500000Y-91380000D03*
X105500000Y-87420000D03*
X105500000Y-83460000D03*
D19*
X105500000Y-79500000D03*
%TD*%
D17*
%TO.C,C14*%
X185942651Y-112700000D03*
D18*
X182442651Y-112700000D03*
%TD*%
D17*
%TO.C,C16*%
X106185000Y-123495000D03*
D18*
X102685000Y-123495000D03*
%TD*%
D20*
%TO.C,H5*%
X196000000Y-71000000D03*
%TD*%
%TO.C,H6*%
X102000000Y-100317500D03*
%TD*%
%TO.C,H7*%
X196000000Y-129000000D03*
%TD*%
D14*
%TO.C,J8*%
X140000000Y-68000000D03*
D15*
X136040000Y-68000000D03*
X132080000Y-68000000D03*
X128120000Y-68000000D03*
%TD*%
D14*
%TO.C,J7*%
X122000000Y-68050000D03*
D15*
X118040000Y-68050000D03*
X114080000Y-68050000D03*
X110120000Y-68050000D03*
%TD*%
D16*
%TO.C,J2*%
X194450000Y-105940000D03*
D15*
X194450000Y-101980000D03*
X194450000Y-98020000D03*
X194450000Y-94060000D03*
%TD*%
D18*
%TO.C,K3*%
X114655000Y-78592086D03*
X122275000Y-78592086D03*
D21*
X132435000Y-78592086D03*
X129895000Y-78592086D03*
%TD*%
D22*
%TO.C,J22*%
X132230000Y-103810000D03*
D23*
X134770000Y-103810000D03*
X137310000Y-103810000D03*
X139850000Y-103810000D03*
%TD*%
D24*
%TO.C,J10*%
X176690000Y-80950000D03*
D25*
X176690000Y-78410000D03*
X176690000Y-75870000D03*
%TD*%
D24*
%TO.C,J11*%
X169070000Y-80950000D03*
D25*
X169070000Y-78410000D03*
X169070000Y-75870000D03*
%TD*%
D18*
%TO.C,K1*%
X169867086Y-135345000D03*
X169867086Y-127725000D03*
D21*
X169867086Y-117565000D03*
X169867086Y-120105000D03*
%TD*%
D24*
%TO.C,J14*%
X161450000Y-90475000D03*
D25*
X161450000Y-87935000D03*
X161450000Y-85395000D03*
%TD*%
D26*
%TO.C,J18*%
X134755000Y-93665000D03*
D23*
X137295000Y-93665000D03*
X134755000Y-96205000D03*
X137295000Y-96205000D03*
X134755000Y-98745000D03*
X137295000Y-98745000D03*
%TD*%
D24*
%TO.C,J16*%
X184310000Y-90475000D03*
D25*
X184310000Y-87935000D03*
X184310000Y-85395000D03*
%TD*%
D24*
%TO.C,J13*%
X176690000Y-90475000D03*
D25*
X176690000Y-87935000D03*
X176690000Y-85395000D03*
%TD*%
D24*
%TO.C,J12*%
X184290000Y-80950000D03*
D25*
X184290000Y-78410000D03*
X184290000Y-75870000D03*
%TD*%
D18*
%TO.C,K2*%
X131767086Y-135345000D03*
X131767086Y-127725000D03*
D21*
X131767086Y-117565000D03*
X131767086Y-120105000D03*
%TD*%
D27*
%TO.C,J1*%
X144141000Y-94415000D03*
X143125000Y-89335000D03*
X142109000Y-94415000D03*
%TD*%
D24*
%TO.C,J17*%
X153830000Y-80950000D03*
D25*
X153830000Y-78410000D03*
X153830000Y-75870000D03*
%TD*%
D24*
%TO.C,J19*%
X153830000Y-90475000D03*
D25*
X153830000Y-87935000D03*
X153830000Y-85395000D03*
%TD*%
D24*
%TO.C,J21*%
X144940000Y-78410000D03*
D25*
X144940000Y-75870000D03*
%TD*%
D24*
%TO.C,J20*%
X169070000Y-90475000D03*
D25*
X169070000Y-87935000D03*
X169070000Y-85395000D03*
%TD*%
D24*
%TO.C,J15*%
X161450000Y-80950000D03*
D25*
X161450000Y-78410000D03*
X161450000Y-75870000D03*
%TD*%
M02*
