%TF.GenerationSoftware,KiCad,Pcbnew,(5.99.0-11012-g5d9c1dd75a)*%
%TF.CreationDate,2021-06-14T21:45:00+02:00*%
%TF.ProjectId,Power-Supply,506f7765-722d-4537-9570-706c792e6b69,rev?*%
%TF.SameCoordinates,Original*%
%TF.FileFunction,Paste,Top*%
%TF.FilePolarity,Positive*%
%FSLAX46Y46*%
G04 Gerber Fmt 4.6, Leading zero omitted, Abs format (unit mm)*
G04 Created by KiCad (PCBNEW (5.99.0-11012-g5d9c1dd75a)) date 2021-06-14 21:45:00*
%MOMM*%
%LPD*%
G01*
G04 APERTURE LIST*
G04 Aperture macros list*
%AMRoundRect*
0 Rectangle with rounded corners*
0 $1 Rounding radius*
0 $2 $3 $4 $5 $6 $7 $8 $9 X,Y pos of 4 corners*
0 Add a 4 corners polygon primitive as box body*
4,1,4,$2,$3,$4,$5,$6,$7,$8,$9,$2,$3,0*
0 Add four circle primitives for the rounded corners*
1,1,$1+$1,$2,$3*
1,1,$1+$1,$4,$5*
1,1,$1+$1,$6,$7*
1,1,$1+$1,$8,$9*
0 Add four rect primitives between the rounded corners*
20,1,$1+$1,$2,$3,$4,$5,0*
20,1,$1+$1,$4,$5,$6,$7,0*
20,1,$1+$1,$6,$7,$8,$9,0*
20,1,$1+$1,$8,$9,$2,$3,0*%
G04 Aperture macros list end*
%ADD10RoundRect,0.250000X0.450000X-0.262500X0.450000X0.262500X-0.450000X0.262500X-0.450000X-0.262500X0*%
%ADD11RoundRect,0.250000X-0.450000X0.262500X-0.450000X-0.262500X0.450000X-0.262500X0.450000X0.262500X0*%
%ADD12RoundRect,0.250000X0.475000X-0.250000X0.475000X0.250000X-0.475000X0.250000X-0.475000X-0.250000X0*%
%ADD13RoundRect,0.250000X-0.650000X0.325000X-0.650000X-0.325000X0.650000X-0.325000X0.650000X0.325000X0*%
%ADD14RoundRect,0.250000X0.262500X0.450000X-0.262500X0.450000X-0.262500X-0.450000X0.262500X-0.450000X0*%
%ADD15RoundRect,0.250000X-0.262500X-0.450000X0.262500X-0.450000X0.262500X0.450000X-0.262500X0.450000X0*%
%ADD16RoundRect,0.125000X0.625000X-0.125000X0.625000X0.125000X-0.625000X0.125000X-0.625000X-0.125000X0*%
%ADD17RoundRect,0.125000X0.125000X-0.625000X0.125000X0.625000X-0.125000X0.625000X-0.125000X-0.625000X0*%
%ADD18RoundRect,0.218750X-0.218750X-0.381250X0.218750X-0.381250X0.218750X0.381250X-0.218750X0.381250X0*%
%ADD19RoundRect,0.218750X0.218750X0.381250X-0.218750X0.381250X-0.218750X-0.381250X0.218750X-0.381250X0*%
%ADD20R,1.700000X1.300000*%
%ADD21R,1.300000X1.700000*%
%ADD22RoundRect,0.243750X-0.456250X0.243750X-0.456250X-0.243750X0.456250X-0.243750X0.456250X0.243750X0*%
%ADD23RoundRect,0.250000X-0.250000X-0.475000X0.250000X-0.475000X0.250000X0.475000X-0.250000X0.475000X0*%
%ADD24RoundRect,0.150000X0.512500X0.150000X-0.512500X0.150000X-0.512500X-0.150000X0.512500X-0.150000X0*%
%ADD25RoundRect,0.218750X-0.381250X0.218750X-0.381250X-0.218750X0.381250X-0.218750X0.381250X0.218750X0*%
%ADD26RoundRect,0.237500X-0.237500X0.287500X-0.237500X-0.287500X0.237500X-0.287500X0.237500X0.287500X0*%
%ADD27R,0.650000X1.220000*%
%ADD28RoundRect,0.250000X-0.475000X0.250000X-0.475000X-0.250000X0.475000X-0.250000X0.475000X0.250000X0*%
%ADD29RoundRect,0.225000X-0.225000X-0.250000X0.225000X-0.250000X0.225000X0.250000X-0.225000X0.250000X0*%
%ADD30RoundRect,0.237500X0.237500X-0.287500X0.237500X0.287500X-0.237500X0.287500X-0.237500X-0.287500X0*%
%ADD31RoundRect,0.225000X0.250000X-0.225000X0.250000X0.225000X-0.250000X0.225000X-0.250000X-0.225000X0*%
%ADD32RoundRect,0.150000X-0.150000X0.512500X-0.150000X-0.512500X0.150000X-0.512500X0.150000X0.512500X0*%
%ADD33R,1.220000X0.650000*%
%ADD34RoundRect,0.150000X-0.825000X-0.150000X0.825000X-0.150000X0.825000X0.150000X-0.825000X0.150000X0*%
%ADD35RoundRect,0.225000X0.225000X0.250000X-0.225000X0.250000X-0.225000X-0.250000X0.225000X-0.250000X0*%
%ADD36R,0.900000X1.700000*%
%ADD37RoundRect,0.250000X0.250000X0.475000X-0.250000X0.475000X-0.250000X-0.475000X0.250000X-0.475000X0*%
%ADD38RoundRect,0.250000X0.625000X-0.312500X0.625000X0.312500X-0.625000X0.312500X-0.625000X-0.312500X0*%
%ADD39RoundRect,0.150000X-0.150000X0.825000X-0.150000X-0.825000X0.150000X-0.825000X0.150000X0.825000X0*%
G04 APERTURE END LIST*
D10*
%TO.C,R14*%
X154445000Y-119645000D03*
X154445000Y-117820000D03*
%TD*%
D11*
%TO.C,R38*%
X147142500Y-81307500D03*
X147142500Y-83132500D03*
%TD*%
D10*
%TO.C,R36*%
X149365000Y-92975000D03*
X149365000Y-91150000D03*
%TD*%
D12*
%TO.C,C4*%
X191275000Y-135240000D03*
X191275000Y-133340000D03*
%TD*%
D13*
%TO.C,C6*%
X108090000Y-127735000D03*
X108090000Y-130685000D03*
%TD*%
D12*
%TO.C,C8*%
X108725000Y-134605000D03*
X108725000Y-132705000D03*
%TD*%
D11*
%TO.C,R1*%
X172860000Y-128932500D03*
X172860000Y-130757500D03*
%TD*%
D14*
%TO.C,R2*%
X190917500Y-131115000D03*
X189092500Y-131115000D03*
%TD*%
D10*
%TO.C,R5*%
X163970000Y-130757500D03*
X163970000Y-128932500D03*
%TD*%
D15*
%TO.C,R6*%
X184012500Y-127940000D03*
X185837500Y-127940000D03*
%TD*%
%TO.C,R8*%
X119242500Y-127940000D03*
X121067500Y-127940000D03*
%TD*%
D14*
%TO.C,R10*%
X120432500Y-125400000D03*
X118607500Y-125400000D03*
%TD*%
D16*
%TO.C,U2*%
X145825000Y-102800000D03*
X145825000Y-102000000D03*
X145825000Y-101200000D03*
X145825000Y-100400000D03*
X145825000Y-99600000D03*
X145825000Y-98800000D03*
X145825000Y-98000000D03*
X145825000Y-97200000D03*
D17*
X147200000Y-95825000D03*
X148000000Y-95825000D03*
X148800000Y-95825000D03*
X149600000Y-95825000D03*
X150400000Y-95825000D03*
X151200000Y-95825000D03*
X152000000Y-95825000D03*
X152800000Y-95825000D03*
D16*
X154175000Y-97200000D03*
X154175000Y-98000000D03*
X154175000Y-98800000D03*
X154175000Y-99600000D03*
X154175000Y-100400000D03*
X154175000Y-101200000D03*
X154175000Y-102000000D03*
X154175000Y-102800000D03*
D17*
X152800000Y-104175000D03*
X152000000Y-104175000D03*
X151200000Y-104175000D03*
X150400000Y-104175000D03*
X149600000Y-104175000D03*
X148800000Y-104175000D03*
X148000000Y-104175000D03*
X147200000Y-104175000D03*
%TD*%
D13*
%TO.C,C1*%
X175400000Y-132815000D03*
X175400000Y-135765000D03*
%TD*%
D15*
%TO.C,R3*%
X179567500Y-127940000D03*
X181392500Y-127940000D03*
%TD*%
D10*
%TO.C,R4*%
X188735000Y-135202500D03*
X188735000Y-133377500D03*
%TD*%
D14*
%TO.C,R7*%
X115987500Y-127940000D03*
X114162500Y-127940000D03*
%TD*%
D10*
%TO.C,R17*%
X111265000Y-134567500D03*
X111265000Y-132742500D03*
%TD*%
D13*
%TO.C,C7*%
X124600000Y-131545000D03*
X124600000Y-134495000D03*
%TD*%
D18*
%TO.C,L2*%
X178147500Y-117145000D03*
X180272500Y-117145000D03*
%TD*%
D19*
%TO.C,L3*%
X111057500Y-110795000D03*
X108932500Y-110795000D03*
%TD*%
D13*
%TO.C,C3*%
X175400000Y-127735000D03*
X175400000Y-130685000D03*
%TD*%
D20*
%TO.C,D2*%
X134760000Y-120800000D03*
X134760000Y-117300000D03*
%TD*%
D21*
%TO.C,D3*%
X129200000Y-81585000D03*
X132700000Y-81585000D03*
%TD*%
D22*
%TO.C,D4*%
X139205000Y-127335000D03*
X139205000Y-129210000D03*
%TD*%
%TO.C,D5*%
X142380000Y-127335000D03*
X142380000Y-129210000D03*
%TD*%
D15*
%TO.C,R11*%
X176392500Y-125400000D03*
X178217500Y-125400000D03*
%TD*%
D14*
%TO.C,R12*%
X115987500Y-125400000D03*
X114162500Y-125400000D03*
%TD*%
%TO.C,R13*%
X112812500Y-95872500D03*
X110987500Y-95872500D03*
%TD*%
D15*
%TO.C,R24*%
X110987500Y-100317500D03*
X112812500Y-100317500D03*
%TD*%
D13*
%TO.C,C2*%
X172860000Y-132815000D03*
X172860000Y-135765000D03*
%TD*%
D20*
%TO.C,D1*%
X172860000Y-120800000D03*
X172860000Y-117300000D03*
%TD*%
D13*
%TO.C,C5*%
X110630000Y-127735000D03*
X110630000Y-130685000D03*
%TD*%
D10*
%TO.C,R31*%
X111582500Y-88212500D03*
X111582500Y-86387500D03*
%TD*%
D23*
%TO.C,C22*%
X117935000Y-117780000D03*
X119835000Y-117780000D03*
%TD*%
D24*
%TO.C,U8*%
X115577500Y-93965000D03*
X115577500Y-93015000D03*
X115577500Y-92065000D03*
X113302500Y-92065000D03*
X113302500Y-93965000D03*
%TD*%
D15*
%TO.C,R32*%
X113527500Y-86500000D03*
X115352500Y-86500000D03*
%TD*%
D20*
%TO.C,D12*%
X139840000Y-78890000D03*
X139840000Y-75390000D03*
%TD*%
D15*
%TO.C,R30*%
X117655000Y-81585000D03*
X119480000Y-81585000D03*
%TD*%
%TO.C,R25*%
X114162500Y-122860000D03*
X115987500Y-122860000D03*
%TD*%
D25*
%TO.C,L4*%
X117615000Y-91952500D03*
X117615000Y-94077500D03*
%TD*%
D23*
%TO.C,C28*%
X109680000Y-75235000D03*
X111580000Y-75235000D03*
%TD*%
D26*
%TO.C,F4*%
X149365000Y-87060000D03*
X149365000Y-88810000D03*
%TD*%
D22*
%TO.C,D6*%
X144920000Y-127335000D03*
X144920000Y-129210000D03*
%TD*%
D11*
%TO.C,R16*%
X170955000Y-113057500D03*
X170955000Y-114882500D03*
%TD*%
D22*
%TO.C,D8*%
X150635000Y-127335000D03*
X150635000Y-129210000D03*
%TD*%
D27*
%TO.C,Q2*%
X130630000Y-112660000D03*
X128730000Y-112660000D03*
X129680000Y-115280000D03*
%TD*%
D28*
%TO.C,C25*%
X114757500Y-95875000D03*
X114757500Y-97775000D03*
%TD*%
%TO.C,C29*%
X123330000Y-87620000D03*
X123330000Y-89520000D03*
%TD*%
D29*
%TO.C,C30*%
X147320000Y-110477500D03*
X148870000Y-110477500D03*
%TD*%
D12*
%TO.C,C23*%
X111265000Y-93965000D03*
X111265000Y-92065000D03*
%TD*%
D29*
%TO.C,C31*%
X143827500Y-104445000D03*
X145377500Y-104445000D03*
%TD*%
D15*
%TO.C,R9*%
X172582500Y-125400000D03*
X174407500Y-125400000D03*
%TD*%
D28*
%TO.C,C27*%
X119202500Y-95875000D03*
X119202500Y-97775000D03*
%TD*%
D22*
%TO.C,D10*%
X156350000Y-127335000D03*
X156350000Y-129210000D03*
%TD*%
D30*
%TO.C,F3*%
X111265000Y-104685000D03*
X111265000Y-102935000D03*
%TD*%
D14*
%TO.C,R35*%
X136942500Y-79680000D03*
X135117500Y-79680000D03*
%TD*%
D11*
%TO.C,R23*%
X132855000Y-113057500D03*
X132855000Y-114882500D03*
%TD*%
D31*
%TO.C,C33*%
X150952500Y-106845000D03*
X150952500Y-108395000D03*
%TD*%
D14*
%TO.C,R34*%
X126782500Y-81585000D03*
X124957500Y-81585000D03*
%TD*%
D32*
%TO.C,U9*%
X115707500Y-81717500D03*
X114757500Y-81717500D03*
X113807500Y-81717500D03*
X113807500Y-83992500D03*
X115707500Y-83992500D03*
%TD*%
D33*
%TO.C,Q4*%
X144960000Y-83170000D03*
X144960000Y-81270000D03*
X142340000Y-82220000D03*
%TD*%
D22*
%TO.C,D9*%
X153810000Y-127335000D03*
X153810000Y-129210000D03*
%TD*%
D11*
%TO.C,R28*%
X125870000Y-120677500D03*
X125870000Y-122502500D03*
%TD*%
D10*
%TO.C,R39*%
X139840000Y-83132500D03*
X139840000Y-81307500D03*
%TD*%
D28*
%TO.C,C34*%
X152857500Y-106670000D03*
X152857500Y-108570000D03*
%TD*%
%TO.C,C20*%
X134760000Y-133975000D03*
X134760000Y-135875000D03*
%TD*%
%TO.C,C19*%
X163970000Y-133975000D03*
X163970000Y-135875000D03*
%TD*%
D22*
%TO.C,D7*%
X148095000Y-129195000D03*
X148095000Y-127320000D03*
%TD*%
D14*
%TO.C,R18*%
X111542500Y-125400000D03*
X109717500Y-125400000D03*
%TD*%
D10*
%TO.C,R15*%
X163970000Y-118692500D03*
X163970000Y-116867500D03*
%TD*%
D30*
%TO.C,F2*%
X111265000Y-108735000D03*
X111265000Y-106985000D03*
%TD*%
D34*
%TO.C,U7*%
X118315000Y-119685000D03*
X118315000Y-120955000D03*
X118315000Y-122225000D03*
X118315000Y-123495000D03*
X123265000Y-123495000D03*
X123265000Y-122225000D03*
X123265000Y-120955000D03*
X123265000Y-119685000D03*
%TD*%
D35*
%TO.C,C32*%
X156172500Y-95555000D03*
X154622500Y-95555000D03*
%TD*%
D36*
%TO.C,SW1*%
X145760000Y-107620000D03*
X149160000Y-107620000D03*
%TD*%
D37*
%TO.C,C24*%
X112850000Y-98095000D03*
X110950000Y-98095000D03*
%TD*%
D11*
%TO.C,R33*%
X115710000Y-88292500D03*
X115710000Y-90117500D03*
%TD*%
D33*
%TO.C,Q3*%
X137340000Y-77455000D03*
X137340000Y-75555000D03*
X134720000Y-76505000D03*
%TD*%
D38*
%TO.C,R29*%
X111582500Y-84317500D03*
X111582500Y-81392500D03*
%TD*%
D39*
%TO.C,U10*%
X121425000Y-84190000D03*
X120155000Y-84190000D03*
X118885000Y-84190000D03*
X117615000Y-84190000D03*
X117615000Y-89140000D03*
X118885000Y-89140000D03*
X120155000Y-89140000D03*
X121425000Y-89140000D03*
%TD*%
D10*
%TO.C,R22*%
X125870000Y-118692500D03*
X125870000Y-116867500D03*
%TD*%
D28*
%TO.C,C26*%
X116980000Y-95875000D03*
X116980000Y-97775000D03*
%TD*%
D39*
%TO.C,U4*%
X152540000Y-116575000D03*
X151270000Y-116575000D03*
X150000000Y-116575000D03*
X148730000Y-116575000D03*
X147460000Y-116575000D03*
X146190000Y-116575000D03*
X144920000Y-116575000D03*
X143650000Y-116575000D03*
X143650000Y-121525000D03*
X144920000Y-121525000D03*
X146190000Y-121525000D03*
X147460000Y-121525000D03*
X148730000Y-121525000D03*
X150000000Y-121525000D03*
X151270000Y-121525000D03*
X152540000Y-121525000D03*
%TD*%
D23*
%TO.C,C21*%
X121745000Y-117780000D03*
X123645000Y-117780000D03*
%TD*%
D22*
%TO.C,D11*%
X159525000Y-127335000D03*
X159525000Y-129210000D03*
%TD*%
D27*
%TO.C,Q1*%
X168730000Y-112660000D03*
X166830000Y-112660000D03*
X167780000Y-115280000D03*
%TD*%
D30*
%TO.C,F1*%
X111265000Y-79285000D03*
X111265000Y-77535000D03*
%TD*%
D14*
%TO.C,R27*%
X115987500Y-120320000D03*
X114162500Y-120320000D03*
%TD*%
D25*
%TO.C,L5*%
X154762500Y-106557500D03*
X154762500Y-108682500D03*
%TD*%
D14*
%TO.C,R26*%
X124242500Y-125400000D03*
X122417500Y-125400000D03*
%TD*%
M02*
