%TF.GenerationSoftware,KiCad,Pcbnew,(5.99.0-11012-g5d9c1dd75a)*%
%TF.CreationDate,2021-06-14T21:45:01+02:00*%
%TF.ProjectId,Power-Supply,506f7765-722d-4537-9570-706c792e6b69,rev?*%
%TF.SameCoordinates,Original*%
%TF.FileFunction,Soldermask,Top*%
%TF.FilePolarity,Negative*%
%FSLAX46Y46*%
G04 Gerber Fmt 4.6, Leading zero omitted, Abs format (unit mm)*
G04 Created by KiCad (PCBNEW (5.99.0-11012-g5d9c1dd75a)) date 2021-06-14 21:45:01*
%MOMM*%
%LPD*%
G01*
G04 APERTURE LIST*
G04 Aperture macros list*
%AMRoundRect*
0 Rectangle with rounded corners*
0 $1 Rounding radius*
0 $2 $3 $4 $5 $6 $7 $8 $9 X,Y pos of 4 corners*
0 Add a 4 corners polygon primitive as box body*
4,1,4,$2,$3,$4,$5,$6,$7,$8,$9,$2,$3,0*
0 Add four circle primitives for the rounded corners*
1,1,$1+$1,$2,$3*
1,1,$1+$1,$4,$5*
1,1,$1+$1,$6,$7*
1,1,$1+$1,$8,$9*
0 Add four rect primitives between the rounded corners*
20,1,$1+$1,$2,$3,$4,$5,0*
20,1,$1+$1,$4,$5,$6,$7,0*
20,1,$1+$1,$6,$7,$8,$9,0*
20,1,$1+$1,$8,$9,$2,$3,0*%
%AMFreePoly0*
4,1,37,0.535355,0.785355,0.550000,0.750000,0.550000,-0.750000,0.535355,-0.785355,0.500000,-0.800000,0.000000,-0.800000,-0.012524,-0.794812,-0.080857,-0.793560,-0.094851,-0.791293,-0.230166,-0.749018,-0.242962,-0.742915,-0.360972,-0.664360,-0.371540,-0.654911,-0.462760,-0.546392,-0.470252,-0.534356,-0.527347,-0.404597,-0.531159,-0.390943,-0.548742,-0.256483,-0.547388,-0.256306,-0.550000,-0.250000,
-0.550000,0.250000,-0.549522,0.251153,-0.549368,0.263802,-0.527557,0.403879,-0.523412,0.417435,-0.463164,0.545760,-0.455381,0.557609,-0.361537,0.663867,-0.350741,0.673055,-0.230846,0.748703,-0.217905,0.754492,-0.081598,0.793449,-0.067552,0.795373,-0.011991,0.795033,0.000000,0.800000,0.500000,0.800000,0.535355,0.785355,0.535355,0.785355,$1*%
%AMFreePoly1*
4,1,37,0.012350,0.794884,0.074210,0.794507,0.088231,0.792412,0.224052,0.751793,0.236921,0.745846,0.355883,0.668739,0.366566,0.659420,0.459104,0.552023,0.466742,0.540080,0.525419,0.411028,0.529398,0.397421,0.549495,0.257088,0.550000,0.250000,0.550000,-0.250000,0.549996,-0.250610,0.549847,-0.262826,0.549158,-0.270511,0.525638,-0.410312,0.521328,-0.423818,0.459516,-0.551397,
0.451589,-0.563150,0.356454,-0.668254,0.345546,-0.677309,0.224736,-0.751486,0.211726,-0.757116,0.074953,-0.794405,0.060885,-0.796158,0.011462,-0.795252,0.000000,-0.800000,-0.500000,-0.800000,-0.535355,-0.785355,-0.550000,-0.750000,-0.550000,0.750000,-0.535355,0.785355,-0.500000,0.800000,0.000000,0.800000,0.012350,0.794884,0.012350,0.794884,$1*%
G04 Aperture macros list end*
%ADD10RoundRect,0.274390X0.475610X-0.288110X0.475610X0.288110X-0.475610X0.288110X-0.475610X-0.288110X0*%
%ADD11RoundRect,0.274390X-0.475610X0.288110X-0.475610X-0.288110X0.475610X-0.288110X0.475610X0.288110X0*%
%ADD12RoundRect,0.275000X0.500000X-0.275000X0.500000X0.275000X-0.500000X0.275000X-0.500000X-0.275000X0*%
%ADD13RoundRect,0.271739X-0.678261X0.353261X-0.678261X-0.353261X0.678261X-0.353261X0.678261X0.353261X0*%
%ADD14RoundRect,0.274390X0.288110X0.475610X-0.288110X0.475610X-0.288110X-0.475610X0.288110X-0.475610X0*%
%ADD15RoundRect,0.274390X-0.288110X-0.475610X0.288110X-0.475610X0.288110X0.475610X-0.288110X0.475610X0*%
%ADD16O,3.600000X3.600000*%
%ADD17RoundRect,0.050000X0.900000X0.900000X-0.900000X0.900000X-0.900000X-0.900000X0.900000X-0.900000X0*%
%ADD18O,1.900000X1.900000*%
%ADD19RoundRect,0.150000X0.650000X-0.150000X0.650000X0.150000X-0.650000X0.150000X-0.650000X-0.150000X0*%
%ADD20RoundRect,0.150000X0.150000X-0.650000X0.150000X0.650000X-0.150000X0.650000X-0.150000X-0.650000X0*%
%ADD21C,5.700000*%
%ADD22RoundRect,0.259260X1.140740X1.140740X-1.140740X1.140740X-1.140740X-1.140740X1.140740X-1.140740X0*%
%ADD23C,2.800000*%
%ADD24RoundRect,0.259260X1.140740X-1.140740X1.140740X1.140740X-1.140740X1.140740X-1.140740X-1.140740X0*%
%ADD25C,2.100000*%
%ADD26C,1.600000*%
%ADD27FreePoly0,270.000000*%
%ADD28FreePoly1,270.000000*%
%ADD29RoundRect,0.243750X-0.243750X-0.406250X0.243750X-0.406250X0.243750X0.406250X-0.243750X0.406250X0*%
%ADD30RoundRect,0.243750X0.243750X0.406250X-0.243750X0.406250X-0.243750X-0.406250X0.243750X-0.406250X0*%
%ADD31RoundRect,0.050000X0.800000X0.800000X-0.800000X0.800000X-0.800000X-0.800000X0.800000X-0.800000X0*%
%ADD32C,1.700000*%
%ADD33RoundRect,0.259260X-1.140740X1.140740X-1.140740X-1.140740X1.140740X-1.140740X1.140740X1.140740X0*%
%ADD34RoundRect,0.050000X0.850000X-0.650000X0.850000X0.650000X-0.850000X0.650000X-0.850000X-0.650000X0*%
%ADD35RoundRect,0.050000X-0.650000X-0.850000X0.650000X-0.850000X0.650000X0.850000X-0.650000X0.850000X0*%
%ADD36RoundRect,0.268750X-0.481250X0.268750X-0.481250X-0.268750X0.481250X-0.268750X0.481250X0.268750X0*%
%ADD37C,1.448000*%
%ADD38C,1.500000*%
%ADD39RoundRect,0.275000X-0.275000X-0.500000X0.275000X-0.500000X0.275000X0.500000X-0.275000X0.500000X0*%
%ADD40RoundRect,0.175000X0.537500X0.175000X-0.537500X0.175000X-0.537500X-0.175000X0.537500X-0.175000X0*%
%ADD41RoundRect,0.243750X-0.406250X0.243750X-0.406250X-0.243750X0.406250X-0.243750X0.406250X0.243750X0*%
%ADD42RoundRect,0.262500X-0.262500X0.312500X-0.262500X-0.312500X0.262500X-0.312500X0.262500X0.312500X0*%
%ADD43RoundRect,0.050000X0.850000X-0.850000X0.850000X0.850000X-0.850000X0.850000X-0.850000X-0.850000X0*%
%ADD44O,1.800000X1.800000*%
%ADD45RoundRect,0.050000X-0.325000X0.610000X-0.325000X-0.610000X0.325000X-0.610000X0.325000X0.610000X0*%
%ADD46RoundRect,0.275000X-0.500000X0.275000X-0.500000X-0.275000X0.500000X-0.275000X0.500000X0.275000X0*%
%ADD47RoundRect,0.264368X0.880632X-0.655632X0.880632X0.655632X-0.880632X0.655632X-0.880632X-0.655632X0*%
%ADD48O,2.290000X1.840000*%
%ADD49RoundRect,0.250000X-0.250000X-0.275000X0.250000X-0.275000X0.250000X0.275000X-0.250000X0.275000X0*%
%ADD50RoundRect,0.262500X0.262500X-0.312500X0.262500X0.312500X-0.262500X0.312500X-0.262500X-0.312500X0*%
%ADD51RoundRect,0.050000X-0.850000X-0.850000X0.850000X-0.850000X0.850000X0.850000X-0.850000X0.850000X0*%
%ADD52RoundRect,0.250000X0.275000X-0.250000X0.275000X0.250000X-0.275000X0.250000X-0.275000X-0.250000X0*%
%ADD53RoundRect,0.175000X-0.175000X0.537500X-0.175000X-0.537500X0.175000X-0.537500X0.175000X0.537500X0*%
%ADD54RoundRect,0.050000X0.610000X0.325000X-0.610000X0.325000X-0.610000X-0.325000X0.610000X-0.325000X0*%
%ADD55RoundRect,0.175000X-0.850000X-0.175000X0.850000X-0.175000X0.850000X0.175000X-0.850000X0.175000X0*%
%ADD56RoundRect,0.250000X0.250000X0.275000X-0.250000X0.275000X-0.250000X-0.275000X0.250000X-0.275000X0*%
%ADD57RoundRect,0.050000X-0.450000X-0.850000X0.450000X-0.850000X0.450000X0.850000X-0.450000X0.850000X0*%
%ADD58RoundRect,0.275000X0.275000X0.500000X-0.275000X0.500000X-0.275000X-0.500000X0.275000X-0.500000X0*%
%ADD59C,1.090600*%
%ADD60C,0.887400*%
%ADD61RoundRect,0.272222X0.652778X-0.340278X0.652778X0.340278X-0.652778X0.340278X-0.652778X-0.340278X0*%
%ADD62RoundRect,0.175000X-0.175000X0.850000X-0.175000X-0.850000X0.175000X-0.850000X0.175000X0.850000X0*%
G04 APERTURE END LIST*
D10*
%TO.C,R14*%
X154445000Y-119645000D03*
X154445000Y-117820000D03*
%TD*%
D11*
%TO.C,R38*%
X147142500Y-81307500D03*
X147142500Y-83132500D03*
%TD*%
D10*
%TO.C,R36*%
X149365000Y-92975000D03*
X149365000Y-91150000D03*
%TD*%
D12*
%TO.C,C4*%
X191275000Y-135240000D03*
X191275000Y-133340000D03*
%TD*%
D13*
%TO.C,C6*%
X108090000Y-127735000D03*
X108090000Y-130685000D03*
%TD*%
D12*
%TO.C,C8*%
X108725000Y-134605000D03*
X108725000Y-132705000D03*
%TD*%
D11*
%TO.C,R1*%
X172860000Y-128932500D03*
X172860000Y-130757500D03*
%TD*%
D14*
%TO.C,R2*%
X190917500Y-131115000D03*
X189092500Y-131115000D03*
%TD*%
D10*
%TO.C,R5*%
X163970000Y-130757500D03*
X163970000Y-128932500D03*
%TD*%
D15*
%TO.C,R6*%
X184012500Y-127940000D03*
X185837500Y-127940000D03*
%TD*%
%TO.C,R8*%
X119242500Y-127940000D03*
X121067500Y-127940000D03*
%TD*%
D14*
%TO.C,R10*%
X120432500Y-125400000D03*
X118607500Y-125400000D03*
%TD*%
D16*
%TO.C,U1*%
X182385000Y-149040000D03*
D17*
X186195000Y-130340000D03*
D18*
X184925000Y-134140000D03*
X183655000Y-130340000D03*
X182385000Y-134140000D03*
X181115000Y-130340000D03*
X179845000Y-134140000D03*
X178575000Y-130340000D03*
%TD*%
D19*
%TO.C,U2*%
X145825000Y-102800000D03*
X145825000Y-102000000D03*
X145825000Y-101200000D03*
X145825000Y-100400000D03*
X145825000Y-99600000D03*
X145825000Y-98800000D03*
X145825000Y-98000000D03*
X145825000Y-97200000D03*
D20*
X147200000Y-95825000D03*
X148000000Y-95825000D03*
X148800000Y-95825000D03*
X149600000Y-95825000D03*
X150400000Y-95825000D03*
X151200000Y-95825000D03*
X152000000Y-95825000D03*
X152800000Y-95825000D03*
D19*
X154175000Y-97200000D03*
X154175000Y-98000000D03*
X154175000Y-98800000D03*
X154175000Y-99600000D03*
X154175000Y-100400000D03*
X154175000Y-101200000D03*
X154175000Y-102000000D03*
X154175000Y-102800000D03*
D20*
X152800000Y-104175000D03*
X152000000Y-104175000D03*
X151200000Y-104175000D03*
X150400000Y-104175000D03*
X149600000Y-104175000D03*
X148800000Y-104175000D03*
X148000000Y-104175000D03*
X147200000Y-104175000D03*
%TD*%
D16*
%TO.C,U3*%
X117615000Y-149180000D03*
D17*
X121425000Y-130480000D03*
D18*
X120155000Y-134280000D03*
X118885000Y-130480000D03*
X117615000Y-134280000D03*
X116345000Y-130480000D03*
X115075000Y-134280000D03*
X113805000Y-130480000D03*
%TD*%
D21*
%TO.C,H1*%
X104000000Y-66500000D03*
%TD*%
%TO.C,H2*%
X196000000Y-66500000D03*
%TD*%
%TO.C,H4*%
X196000000Y-133500000D03*
%TD*%
D13*
%TO.C,C1*%
X175400000Y-132815000D03*
X175400000Y-135765000D03*
%TD*%
D15*
%TO.C,R3*%
X179567500Y-127940000D03*
X181392500Y-127940000D03*
%TD*%
D10*
%TO.C,R4*%
X188735000Y-135202500D03*
X188735000Y-133377500D03*
%TD*%
D22*
%TO.C,J5*%
X172000000Y-68000000D03*
D23*
X168040000Y-68000000D03*
X164080000Y-68000000D03*
X160120000Y-68000000D03*
%TD*%
D22*
%TO.C,J4*%
X190000000Y-68000000D03*
D23*
X186040000Y-68000000D03*
X182080000Y-68000000D03*
X178120000Y-68000000D03*
%TD*%
D24*
%TO.C,J3*%
X194450000Y-87940000D03*
D23*
X194450000Y-83980000D03*
X194450000Y-80020000D03*
X194450000Y-76060000D03*
%TD*%
D14*
%TO.C,R7*%
X115987500Y-127940000D03*
X114162500Y-127940000D03*
%TD*%
D25*
%TO.C,TP2*%
X163335000Y-125082500D03*
%TD*%
D26*
%TO.C,TP3*%
X122060000Y-95872500D03*
%TD*%
D25*
%TO.C,TP4*%
X116027500Y-112700000D03*
%TD*%
%TO.C,TP6*%
X135395000Y-125082500D03*
%TD*%
D10*
%TO.C,R17*%
X111265000Y-134567500D03*
X111265000Y-132742500D03*
%TD*%
D21*
%TO.C,H3*%
X104000000Y-133500000D03*
%TD*%
D24*
%TO.C,J6*%
X194500000Y-123940000D03*
D23*
X194500000Y-119980000D03*
X194500000Y-116020000D03*
X194500000Y-112060000D03*
%TD*%
D27*
%TO.C,JP1*%
X101500000Y-70350000D03*
D28*
X101500000Y-71650000D03*
%TD*%
D13*
%TO.C,C7*%
X124600000Y-131545000D03*
X124600000Y-134495000D03*
%TD*%
D25*
%TO.C,TP1*%
X116027500Y-104445000D03*
%TD*%
D29*
%TO.C,L2*%
X178147500Y-117145000D03*
X180272500Y-117145000D03*
%TD*%
D30*
%TO.C,L3*%
X111057500Y-110795000D03*
X108932500Y-110795000D03*
%TD*%
D31*
%TO.C,C15*%
X185942651Y-121590000D03*
D32*
X182442651Y-121590000D03*
%TD*%
D31*
%TO.C,C17*%
X106185000Y-114605000D03*
D32*
X102685000Y-114605000D03*
%TD*%
D23*
%TO.C,J9*%
X105500000Y-107220000D03*
X105500000Y-103260000D03*
X105500000Y-99300000D03*
X105500000Y-95340000D03*
X105500000Y-91380000D03*
X105500000Y-87420000D03*
X105500000Y-83460000D03*
D33*
X105500000Y-79500000D03*
%TD*%
D31*
%TO.C,C14*%
X185942651Y-112700000D03*
D32*
X182442651Y-112700000D03*
%TD*%
D31*
%TO.C,C16*%
X106185000Y-123495000D03*
D32*
X102685000Y-123495000D03*
%TD*%
D13*
%TO.C,C3*%
X175400000Y-127735000D03*
X175400000Y-130685000D03*
%TD*%
D34*
%TO.C,D2*%
X134760000Y-120800000D03*
X134760000Y-117300000D03*
%TD*%
D35*
%TO.C,D3*%
X129200000Y-81585000D03*
X132700000Y-81585000D03*
%TD*%
D36*
%TO.C,D4*%
X139205000Y-127335000D03*
X139205000Y-129210000D03*
%TD*%
%TO.C,D5*%
X142380000Y-127335000D03*
X142380000Y-129210000D03*
%TD*%
D15*
%TO.C,R11*%
X176392500Y-125400000D03*
X178217500Y-125400000D03*
%TD*%
D14*
%TO.C,R12*%
X115987500Y-125400000D03*
X114162500Y-125400000D03*
%TD*%
%TO.C,R13*%
X112812500Y-95872500D03*
X110987500Y-95872500D03*
%TD*%
D15*
%TO.C,R24*%
X110987500Y-100317500D03*
X112812500Y-100317500D03*
%TD*%
D13*
%TO.C,C2*%
X172860000Y-132815000D03*
X172860000Y-135765000D03*
%TD*%
D34*
%TO.C,D1*%
X172860000Y-120800000D03*
X172860000Y-117300000D03*
%TD*%
D13*
%TO.C,C5*%
X110630000Y-127735000D03*
X110630000Y-130685000D03*
%TD*%
D37*
%TO.C,H5*%
X196000000Y-71000000D03*
%TD*%
%TO.C,H6*%
X102000000Y-100317500D03*
%TD*%
%TO.C,H7*%
X196000000Y-129000000D03*
%TD*%
D22*
%TO.C,J8*%
X140000000Y-68000000D03*
D23*
X136040000Y-68000000D03*
X132080000Y-68000000D03*
X128120000Y-68000000D03*
%TD*%
D25*
%TO.C,TP5*%
X116027500Y-108572500D03*
%TD*%
D22*
%TO.C,J7*%
X122000000Y-68050000D03*
D23*
X118040000Y-68050000D03*
X114080000Y-68050000D03*
X110120000Y-68050000D03*
%TD*%
D24*
%TO.C,J2*%
X194450000Y-105940000D03*
D23*
X194450000Y-101980000D03*
X194450000Y-98020000D03*
X194450000Y-94060000D03*
%TD*%
D32*
%TO.C,K3*%
X114655000Y-78592086D03*
X122275000Y-78592086D03*
D38*
X132435000Y-78592086D03*
X129895000Y-78592086D03*
%TD*%
D10*
%TO.C,R31*%
X111582500Y-88212500D03*
X111582500Y-86387500D03*
%TD*%
D39*
%TO.C,C22*%
X117935000Y-117780000D03*
X119835000Y-117780000D03*
%TD*%
D40*
%TO.C,U8*%
X115577500Y-93965000D03*
X115577500Y-93015000D03*
X115577500Y-92065000D03*
X113302500Y-92065000D03*
X113302500Y-93965000D03*
%TD*%
D15*
%TO.C,R32*%
X113527500Y-86500000D03*
X115352500Y-86500000D03*
%TD*%
D34*
%TO.C,D12*%
X139840000Y-78890000D03*
X139840000Y-75390000D03*
%TD*%
D15*
%TO.C,R30*%
X117655000Y-81585000D03*
X119480000Y-81585000D03*
%TD*%
%TO.C,R25*%
X114162500Y-122860000D03*
X115987500Y-122860000D03*
%TD*%
D41*
%TO.C,L4*%
X117615000Y-91952500D03*
X117615000Y-94077500D03*
%TD*%
D39*
%TO.C,C28*%
X109680000Y-75235000D03*
X111580000Y-75235000D03*
%TD*%
D42*
%TO.C,F4*%
X149365000Y-87060000D03*
X149365000Y-88810000D03*
%TD*%
D43*
%TO.C,J22*%
X132230000Y-103810000D03*
D44*
X134770000Y-103810000D03*
X137310000Y-103810000D03*
X139850000Y-103810000D03*
%TD*%
D36*
%TO.C,D6*%
X144920000Y-127335000D03*
X144920000Y-129210000D03*
%TD*%
D11*
%TO.C,R16*%
X170955000Y-113057500D03*
X170955000Y-114882500D03*
%TD*%
D36*
%TO.C,D8*%
X150635000Y-127335000D03*
X150635000Y-129210000D03*
%TD*%
D45*
%TO.C,Q2*%
X130630000Y-112660000D03*
X128730000Y-112660000D03*
X129680000Y-115280000D03*
%TD*%
D46*
%TO.C,C25*%
X114757500Y-95875000D03*
X114757500Y-97775000D03*
%TD*%
%TO.C,C29*%
X123330000Y-87620000D03*
X123330000Y-89520000D03*
%TD*%
D47*
%TO.C,J10*%
X176690000Y-80950000D03*
D48*
X176690000Y-78410000D03*
X176690000Y-75870000D03*
%TD*%
D49*
%TO.C,C30*%
X147320000Y-110477500D03*
X148870000Y-110477500D03*
%TD*%
D47*
%TO.C,J11*%
X169070000Y-80950000D03*
D48*
X169070000Y-78410000D03*
X169070000Y-75870000D03*
%TD*%
D12*
%TO.C,C23*%
X111265000Y-93965000D03*
X111265000Y-92065000D03*
%TD*%
D49*
%TO.C,C31*%
X143827500Y-104445000D03*
X145377500Y-104445000D03*
%TD*%
D15*
%TO.C,R9*%
X172582500Y-125400000D03*
X174407500Y-125400000D03*
%TD*%
D32*
%TO.C,K1*%
X169867086Y-135345000D03*
X169867086Y-127725000D03*
D38*
X169867086Y-117565000D03*
X169867086Y-120105000D03*
%TD*%
D46*
%TO.C,C27*%
X119202500Y-95875000D03*
X119202500Y-97775000D03*
%TD*%
D47*
%TO.C,J14*%
X161450000Y-90475000D03*
D48*
X161450000Y-87935000D03*
X161450000Y-85395000D03*
%TD*%
D36*
%TO.C,D10*%
X156350000Y-127335000D03*
X156350000Y-129210000D03*
%TD*%
D50*
%TO.C,F3*%
X111265000Y-104685000D03*
X111265000Y-102935000D03*
%TD*%
D51*
%TO.C,J18*%
X134755000Y-93665000D03*
D44*
X137295000Y-93665000D03*
X134755000Y-96205000D03*
X137295000Y-96205000D03*
X134755000Y-98745000D03*
X137295000Y-98745000D03*
%TD*%
D14*
%TO.C,R35*%
X136942500Y-79680000D03*
X135117500Y-79680000D03*
%TD*%
D11*
%TO.C,R23*%
X132855000Y-113057500D03*
X132855000Y-114882500D03*
%TD*%
D52*
%TO.C,C33*%
X150952500Y-106845000D03*
X150952500Y-108395000D03*
%TD*%
D14*
%TO.C,R34*%
X126782500Y-81585000D03*
X124957500Y-81585000D03*
%TD*%
D47*
%TO.C,J16*%
X184310000Y-90475000D03*
D48*
X184310000Y-87935000D03*
X184310000Y-85395000D03*
%TD*%
D53*
%TO.C,U9*%
X115707500Y-81717500D03*
X114757500Y-81717500D03*
X113807500Y-81717500D03*
X113807500Y-83992500D03*
X115707500Y-83992500D03*
%TD*%
D54*
%TO.C,Q4*%
X144960000Y-83170000D03*
X144960000Y-81270000D03*
X142340000Y-82220000D03*
%TD*%
D36*
%TO.C,D9*%
X153810000Y-127335000D03*
X153810000Y-129210000D03*
%TD*%
D11*
%TO.C,R28*%
X125870000Y-120677500D03*
X125870000Y-122502500D03*
%TD*%
D10*
%TO.C,R39*%
X139840000Y-83132500D03*
X139840000Y-81307500D03*
%TD*%
D46*
%TO.C,C34*%
X152857500Y-106670000D03*
X152857500Y-108570000D03*
%TD*%
%TO.C,C20*%
X134760000Y-133975000D03*
X134760000Y-135875000D03*
%TD*%
%TO.C,C19*%
X163970000Y-133975000D03*
X163970000Y-135875000D03*
%TD*%
D36*
%TO.C,D7*%
X148095000Y-129195000D03*
X148095000Y-127320000D03*
%TD*%
D14*
%TO.C,R18*%
X111542500Y-125400000D03*
X109717500Y-125400000D03*
%TD*%
D47*
%TO.C,J13*%
X176690000Y-90475000D03*
D48*
X176690000Y-87935000D03*
X176690000Y-85395000D03*
%TD*%
D10*
%TO.C,R15*%
X163970000Y-118692500D03*
X163970000Y-116867500D03*
%TD*%
D47*
%TO.C,J12*%
X184290000Y-80950000D03*
D48*
X184290000Y-78410000D03*
X184290000Y-75870000D03*
%TD*%
D50*
%TO.C,F2*%
X111265000Y-108735000D03*
X111265000Y-106985000D03*
%TD*%
D55*
%TO.C,U7*%
X118315000Y-119685000D03*
X118315000Y-120955000D03*
X118315000Y-122225000D03*
X118315000Y-123495000D03*
X123265000Y-123495000D03*
X123265000Y-122225000D03*
X123265000Y-120955000D03*
X123265000Y-119685000D03*
%TD*%
D56*
%TO.C,C32*%
X156172500Y-95555000D03*
X154622500Y-95555000D03*
%TD*%
D57*
%TO.C,SW1*%
X145760000Y-107620000D03*
X149160000Y-107620000D03*
%TD*%
D32*
%TO.C,K2*%
X131767086Y-135345000D03*
X131767086Y-127725000D03*
D38*
X131767086Y-117565000D03*
X131767086Y-120105000D03*
%TD*%
D58*
%TO.C,C24*%
X112850000Y-98095000D03*
X110950000Y-98095000D03*
%TD*%
D59*
%TO.C,J1*%
X144141000Y-94415000D03*
X143125000Y-89335000D03*
X142109000Y-94415000D03*
D60*
X142490000Y-90605000D03*
X143760000Y-90605000D03*
X142490000Y-91875000D03*
X143760000Y-91875000D03*
X142490000Y-93145000D03*
X143760000Y-93145000D03*
%TD*%
D47*
%TO.C,J17*%
X153830000Y-80950000D03*
D48*
X153830000Y-78410000D03*
X153830000Y-75870000D03*
%TD*%
D11*
%TO.C,R33*%
X115710000Y-88292500D03*
X115710000Y-90117500D03*
%TD*%
D54*
%TO.C,Q3*%
X137340000Y-77455000D03*
X137340000Y-75555000D03*
X134720000Y-76505000D03*
%TD*%
D61*
%TO.C,R29*%
X111582500Y-84317500D03*
X111582500Y-81392500D03*
%TD*%
D62*
%TO.C,U10*%
X121425000Y-84190000D03*
X120155000Y-84190000D03*
X118885000Y-84190000D03*
X117615000Y-84190000D03*
X117615000Y-89140000D03*
X118885000Y-89140000D03*
X120155000Y-89140000D03*
X121425000Y-89140000D03*
%TD*%
D47*
%TO.C,J19*%
X153830000Y-90475000D03*
D48*
X153830000Y-87935000D03*
X153830000Y-85395000D03*
%TD*%
D47*
%TO.C,J21*%
X144940000Y-78410000D03*
D48*
X144940000Y-75870000D03*
%TD*%
D10*
%TO.C,R22*%
X125870000Y-118692500D03*
X125870000Y-116867500D03*
%TD*%
D25*
%TO.C,TP7*%
X124600000Y-84760000D03*
%TD*%
D46*
%TO.C,C26*%
X116980000Y-95875000D03*
X116980000Y-97775000D03*
%TD*%
D47*
%TO.C,J20*%
X169070000Y-90475000D03*
D48*
X169070000Y-87935000D03*
X169070000Y-85395000D03*
%TD*%
D62*
%TO.C,U4*%
X152540000Y-116575000D03*
X151270000Y-116575000D03*
X150000000Y-116575000D03*
X148730000Y-116575000D03*
X147460000Y-116575000D03*
X146190000Y-116575000D03*
X144920000Y-116575000D03*
X143650000Y-116575000D03*
X143650000Y-121525000D03*
X144920000Y-121525000D03*
X146190000Y-121525000D03*
X147460000Y-121525000D03*
X148730000Y-121525000D03*
X150000000Y-121525000D03*
X151270000Y-121525000D03*
X152540000Y-121525000D03*
%TD*%
D39*
%TO.C,C21*%
X121745000Y-117780000D03*
X123645000Y-117780000D03*
%TD*%
D36*
%TO.C,D11*%
X159525000Y-127335000D03*
X159525000Y-129210000D03*
%TD*%
D47*
%TO.C,J15*%
X161450000Y-80950000D03*
D48*
X161450000Y-78410000D03*
X161450000Y-75870000D03*
%TD*%
D45*
%TO.C,Q1*%
X168730000Y-112660000D03*
X166830000Y-112660000D03*
X167780000Y-115280000D03*
%TD*%
D50*
%TO.C,F1*%
X111265000Y-79285000D03*
X111265000Y-77535000D03*
%TD*%
D14*
%TO.C,R27*%
X115987500Y-120320000D03*
X114162500Y-120320000D03*
%TD*%
D41*
%TO.C,L5*%
X154762500Y-106557500D03*
X154762500Y-108682500D03*
%TD*%
D14*
%TO.C,R26*%
X124242500Y-125400000D03*
X122417500Y-125400000D03*
%TD*%
M02*
