%TF.GenerationSoftware,KiCad,Pcbnew,(5.1.9-0-10_14)*%
%TF.CreationDate,2021-03-28T17:01:51+02:00*%
%TF.ProjectId,Power-Supply,506f7765-722d-4537-9570-706c792e6b69,rev?*%
%TF.SameCoordinates,Original*%
%TF.FileFunction,Legend,Bot*%
%TF.FilePolarity,Positive*%
%FSLAX46Y46*%
G04 Gerber Fmt 4.6, Leading zero omitted, Abs format (unit mm)*
G04 Created by KiCad (PCBNEW (5.1.9-0-10_14)) date 2021-03-28 17:01:51*
%MOMM*%
%LPD*%
G01*
G04 APERTURE LIST*
%ADD10C,0.150000*%
G04 APERTURE END LIST*
D10*
X148802380Y-95166666D02*
X147802380Y-95166666D01*
X147802380Y-95547619D01*
X147850000Y-95642857D01*
X147897619Y-95690476D01*
X147992857Y-95738095D01*
X148135714Y-95738095D01*
X148230952Y-95690476D01*
X148278571Y-95642857D01*
X148326190Y-95547619D01*
X148326190Y-95166666D01*
X148802380Y-96309523D02*
X148754761Y-96214285D01*
X148707142Y-96166666D01*
X148611904Y-96119047D01*
X148326190Y-96119047D01*
X148230952Y-96166666D01*
X148183333Y-96214285D01*
X148135714Y-96309523D01*
X148135714Y-96452380D01*
X148183333Y-96547619D01*
X148230952Y-96595238D01*
X148326190Y-96642857D01*
X148611904Y-96642857D01*
X148707142Y-96595238D01*
X148754761Y-96547619D01*
X148802380Y-96452380D01*
X148802380Y-96309523D01*
X148135714Y-96976190D02*
X148802380Y-97166666D01*
X148326190Y-97357142D01*
X148802380Y-97547619D01*
X148135714Y-97738095D01*
X148754761Y-98500000D02*
X148802380Y-98404761D01*
X148802380Y-98214285D01*
X148754761Y-98119047D01*
X148659523Y-98071428D01*
X148278571Y-98071428D01*
X148183333Y-98119047D01*
X148135714Y-98214285D01*
X148135714Y-98404761D01*
X148183333Y-98500000D01*
X148278571Y-98547619D01*
X148373809Y-98547619D01*
X148469047Y-98071428D01*
X148802380Y-98976190D02*
X148135714Y-98976190D01*
X148326190Y-98976190D02*
X148230952Y-99023809D01*
X148183333Y-99071428D01*
X148135714Y-99166666D01*
X148135714Y-99261904D01*
X148754761Y-100309523D02*
X148802380Y-100452380D01*
X148802380Y-100690476D01*
X148754761Y-100785714D01*
X148707142Y-100833333D01*
X148611904Y-100880952D01*
X148516666Y-100880952D01*
X148421428Y-100833333D01*
X148373809Y-100785714D01*
X148326190Y-100690476D01*
X148278571Y-100500000D01*
X148230952Y-100404761D01*
X148183333Y-100357142D01*
X148088095Y-100309523D01*
X147992857Y-100309523D01*
X147897619Y-100357142D01*
X147850000Y-100404761D01*
X147802380Y-100500000D01*
X147802380Y-100738095D01*
X147850000Y-100880952D01*
X148135714Y-101738095D02*
X148802380Y-101738095D01*
X148135714Y-101309523D02*
X148659523Y-101309523D01*
X148754761Y-101357142D01*
X148802380Y-101452380D01*
X148802380Y-101595238D01*
X148754761Y-101690476D01*
X148707142Y-101738095D01*
X148135714Y-102214285D02*
X149135714Y-102214285D01*
X148183333Y-102214285D02*
X148135714Y-102309523D01*
X148135714Y-102500000D01*
X148183333Y-102595238D01*
X148230952Y-102642857D01*
X148326190Y-102690476D01*
X148611904Y-102690476D01*
X148707142Y-102642857D01*
X148754761Y-102595238D01*
X148802380Y-102500000D01*
X148802380Y-102309523D01*
X148754761Y-102214285D01*
X148135714Y-103119047D02*
X149135714Y-103119047D01*
X148183333Y-103119047D02*
X148135714Y-103214285D01*
X148135714Y-103404761D01*
X148183333Y-103500000D01*
X148230952Y-103547619D01*
X148326190Y-103595238D01*
X148611904Y-103595238D01*
X148707142Y-103547619D01*
X148754761Y-103500000D01*
X148802380Y-103404761D01*
X148802380Y-103214285D01*
X148754761Y-103119047D01*
X148802380Y-104166666D02*
X148754761Y-104071428D01*
X148659523Y-104023809D01*
X147802380Y-104023809D01*
X148135714Y-104452380D02*
X148802380Y-104690476D01*
X148135714Y-104928571D02*
X148802380Y-104690476D01*
X149040476Y-104595238D01*
X149088095Y-104547619D01*
X149135714Y-104452380D01*
X150452380Y-92738095D02*
X149976190Y-92404761D01*
X150452380Y-92166666D02*
X149452380Y-92166666D01*
X149452380Y-92547619D01*
X149500000Y-92642857D01*
X149547619Y-92690476D01*
X149642857Y-92738095D01*
X149785714Y-92738095D01*
X149880952Y-92690476D01*
X149928571Y-92642857D01*
X149976190Y-92547619D01*
X149976190Y-92166666D01*
X150404761Y-93547619D02*
X150452380Y-93452380D01*
X150452380Y-93261904D01*
X150404761Y-93166666D01*
X150309523Y-93119047D01*
X149928571Y-93119047D01*
X149833333Y-93166666D01*
X149785714Y-93261904D01*
X149785714Y-93452380D01*
X149833333Y-93547619D01*
X149928571Y-93595238D01*
X150023809Y-93595238D01*
X150119047Y-93119047D01*
X149785714Y-93928571D02*
X150452380Y-94166666D01*
X149785714Y-94404761D01*
X150357142Y-94785714D02*
X150404761Y-94833333D01*
X150452380Y-94785714D01*
X150404761Y-94738095D01*
X150357142Y-94785714D01*
X150452380Y-94785714D01*
X149547619Y-95976190D02*
X149500000Y-96023809D01*
X149452380Y-96119047D01*
X149452380Y-96357142D01*
X149500000Y-96452380D01*
X149547619Y-96500000D01*
X149642857Y-96547619D01*
X149738095Y-96547619D01*
X149880952Y-96500000D01*
X150452380Y-95928571D01*
X150452380Y-96547619D01*
X150404761Y-97023809D02*
X150452380Y-97023809D01*
X150547619Y-96976190D01*
X150595238Y-96928571D01*
X149547619Y-98166666D02*
X149500000Y-98214285D01*
X149452380Y-98309523D01*
X149452380Y-98547619D01*
X149500000Y-98642857D01*
X149547619Y-98690476D01*
X149642857Y-98738095D01*
X149738095Y-98738095D01*
X149880952Y-98690476D01*
X150452380Y-98119047D01*
X150452380Y-98738095D01*
X149452380Y-99357142D02*
X149452380Y-99452380D01*
X149500000Y-99547619D01*
X149547619Y-99595238D01*
X149642857Y-99642857D01*
X149833333Y-99690476D01*
X150071428Y-99690476D01*
X150261904Y-99642857D01*
X150357142Y-99595238D01*
X150404761Y-99547619D01*
X150452380Y-99452380D01*
X150452380Y-99357142D01*
X150404761Y-99261904D01*
X150357142Y-99214285D01*
X150261904Y-99166666D01*
X150071428Y-99119047D01*
X149833333Y-99119047D01*
X149642857Y-99166666D01*
X149547619Y-99214285D01*
X149500000Y-99261904D01*
X149452380Y-99357142D01*
X149547619Y-100071428D02*
X149500000Y-100119047D01*
X149452380Y-100214285D01*
X149452380Y-100452380D01*
X149500000Y-100547619D01*
X149547619Y-100595238D01*
X149642857Y-100642857D01*
X149738095Y-100642857D01*
X149880952Y-100595238D01*
X150452380Y-100023809D01*
X150452380Y-100642857D01*
X150452380Y-101595238D02*
X150452380Y-101023809D01*
X150452380Y-101309523D02*
X149452380Y-101309523D01*
X149595238Y-101214285D01*
X149690476Y-101119047D01*
X149738095Y-101023809D01*
X150071428Y-102023809D02*
X150071428Y-102785714D01*
X149452380Y-103452380D02*
X149452380Y-103547619D01*
X149500000Y-103642857D01*
X149547619Y-103690476D01*
X149642857Y-103738095D01*
X149833333Y-103785714D01*
X150071428Y-103785714D01*
X150261904Y-103738095D01*
X150357142Y-103690476D01*
X150404761Y-103642857D01*
X150452380Y-103547619D01*
X150452380Y-103452380D01*
X150404761Y-103357142D01*
X150357142Y-103309523D01*
X150261904Y-103261904D01*
X150071428Y-103214285D01*
X149833333Y-103214285D01*
X149642857Y-103261904D01*
X149547619Y-103309523D01*
X149500000Y-103357142D01*
X149452380Y-103452380D01*
X149452380Y-104119047D02*
X149452380Y-104738095D01*
X149833333Y-104404761D01*
X149833333Y-104547619D01*
X149880952Y-104642857D01*
X149928571Y-104690476D01*
X150023809Y-104738095D01*
X150261904Y-104738095D01*
X150357142Y-104690476D01*
X150404761Y-104642857D01*
X150452380Y-104547619D01*
X150452380Y-104261904D01*
X150404761Y-104166666D01*
X150357142Y-104119047D01*
X150071428Y-105166666D02*
X150071428Y-105928571D01*
X149547619Y-106357142D02*
X149500000Y-106404761D01*
X149452380Y-106500000D01*
X149452380Y-106738095D01*
X149500000Y-106833333D01*
X149547619Y-106880952D01*
X149642857Y-106928571D01*
X149738095Y-106928571D01*
X149880952Y-106880952D01*
X150452380Y-106309523D01*
X150452380Y-106928571D01*
X149547619Y-107309523D02*
X149500000Y-107357142D01*
X149452380Y-107452380D01*
X149452380Y-107690476D01*
X149500000Y-107785714D01*
X149547619Y-107833333D01*
X149642857Y-107880952D01*
X149738095Y-107880952D01*
X149880952Y-107833333D01*
X150452380Y-107261904D01*
X150452380Y-107880952D01*
X151102380Y-90833333D02*
X151102380Y-91404761D01*
X152102380Y-91119047D02*
X151102380Y-91119047D01*
X152102380Y-91880952D02*
X152054761Y-91785714D01*
X152007142Y-91738095D01*
X151911904Y-91690476D01*
X151626190Y-91690476D01*
X151530952Y-91738095D01*
X151483333Y-91785714D01*
X151435714Y-91880952D01*
X151435714Y-92023809D01*
X151483333Y-92119047D01*
X151530952Y-92166666D01*
X151626190Y-92214285D01*
X151911904Y-92214285D01*
X152007142Y-92166666D01*
X152054761Y-92119047D01*
X152102380Y-92023809D01*
X152102380Y-91880952D01*
X152102380Y-92642857D02*
X151102380Y-92642857D01*
X151483333Y-92642857D02*
X151435714Y-92738095D01*
X151435714Y-92928571D01*
X151483333Y-93023809D01*
X151530952Y-93071428D01*
X151626190Y-93119047D01*
X151911904Y-93119047D01*
X152007142Y-93071428D01*
X152054761Y-93023809D01*
X152102380Y-92928571D01*
X152102380Y-92738095D01*
X152054761Y-92642857D01*
X152102380Y-93547619D02*
X151435714Y-93547619D01*
X151102380Y-93547619D02*
X151150000Y-93500000D01*
X151197619Y-93547619D01*
X151150000Y-93595238D01*
X151102380Y-93547619D01*
X151197619Y-93547619D01*
X152102380Y-94452380D02*
X151578571Y-94452380D01*
X151483333Y-94404761D01*
X151435714Y-94309523D01*
X151435714Y-94119047D01*
X151483333Y-94023809D01*
X152054761Y-94452380D02*
X152102380Y-94357142D01*
X152102380Y-94119047D01*
X152054761Y-94023809D01*
X151959523Y-93976190D01*
X151864285Y-93976190D01*
X151769047Y-94023809D01*
X151721428Y-94119047D01*
X151721428Y-94357142D01*
X151673809Y-94452380D01*
X152054761Y-94880952D02*
X152102380Y-94976190D01*
X152102380Y-95166666D01*
X152054761Y-95261904D01*
X151959523Y-95309523D01*
X151911904Y-95309523D01*
X151816666Y-95261904D01*
X151769047Y-95166666D01*
X151769047Y-95023809D01*
X151721428Y-94928571D01*
X151626190Y-94880952D01*
X151578571Y-94880952D01*
X151483333Y-94928571D01*
X151435714Y-95023809D01*
X151435714Y-95166666D01*
X151483333Y-95261904D01*
X152102380Y-96500000D02*
X151102380Y-96500000D01*
X151816666Y-96833333D01*
X151102380Y-97166666D01*
X152102380Y-97166666D01*
X151435714Y-98071428D02*
X152102380Y-98071428D01*
X151435714Y-97642857D02*
X151959523Y-97642857D01*
X152054761Y-97690476D01*
X152102380Y-97785714D01*
X152102380Y-97928571D01*
X152054761Y-98023809D01*
X152007142Y-98071428D01*
X151102380Y-97690476D02*
X151150000Y-97738095D01*
X151197619Y-97690476D01*
X151150000Y-97642857D01*
X151102380Y-97690476D01*
X151197619Y-97690476D01*
X151102380Y-98071428D02*
X151150000Y-98119047D01*
X151197619Y-98071428D01*
X151150000Y-98023809D01*
X151102380Y-98071428D01*
X151197619Y-98071428D01*
X152102380Y-98690476D02*
X152054761Y-98595238D01*
X151959523Y-98547619D01*
X151102380Y-98547619D01*
X152102380Y-99214285D02*
X152054761Y-99119047D01*
X151959523Y-99071428D01*
X151102380Y-99071428D01*
X152054761Y-99976190D02*
X152102380Y-99880952D01*
X152102380Y-99690476D01*
X152054761Y-99595238D01*
X151959523Y-99547619D01*
X151578571Y-99547619D01*
X151483333Y-99595238D01*
X151435714Y-99690476D01*
X151435714Y-99880952D01*
X151483333Y-99976190D01*
X151578571Y-100023809D01*
X151673809Y-100023809D01*
X151769047Y-99547619D01*
X152102380Y-100452380D02*
X151435714Y-100452380D01*
X151626190Y-100452380D02*
X151530952Y-100500000D01*
X151483333Y-100547619D01*
X151435714Y-100642857D01*
X151435714Y-100738095D01*
X152054761Y-101119047D02*
X152102380Y-101119047D01*
X152197619Y-101071428D01*
X152245238Y-101023809D01*
X151435714Y-102166666D02*
X151435714Y-102547619D01*
X151102380Y-102309523D02*
X151959523Y-102309523D01*
X152054761Y-102357142D01*
X152102380Y-102452380D01*
X152102380Y-102547619D01*
X151435714Y-102785714D02*
X152102380Y-102976190D01*
X151626190Y-103166666D01*
X152102380Y-103357142D01*
X151435714Y-103547619D01*
X152102380Y-104357142D02*
X151578571Y-104357142D01*
X151483333Y-104309523D01*
X151435714Y-104214285D01*
X151435714Y-104023809D01*
X151483333Y-103928571D01*
X152054761Y-104357142D02*
X152102380Y-104261904D01*
X152102380Y-104023809D01*
X152054761Y-103928571D01*
X151959523Y-103880952D01*
X151864285Y-103880952D01*
X151769047Y-103928571D01*
X151721428Y-104023809D01*
X151721428Y-104261904D01*
X151673809Y-104357142D01*
X152102380Y-104833333D02*
X151435714Y-104833333D01*
X151530952Y-104833333D02*
X151483333Y-104880952D01*
X151435714Y-104976190D01*
X151435714Y-105119047D01*
X151483333Y-105214285D01*
X151578571Y-105261904D01*
X152102380Y-105261904D01*
X151578571Y-105261904D02*
X151483333Y-105309523D01*
X151435714Y-105404761D01*
X151435714Y-105547619D01*
X151483333Y-105642857D01*
X151578571Y-105690476D01*
X152102380Y-105690476D01*
X152007142Y-106166666D02*
X152054761Y-106214285D01*
X152102380Y-106166666D01*
X152054761Y-106119047D01*
X152007142Y-106166666D01*
X152102380Y-106166666D01*
X152102380Y-106642857D02*
X151435714Y-106642857D01*
X151102380Y-106642857D02*
X151150000Y-106595238D01*
X151197619Y-106642857D01*
X151150000Y-106690476D01*
X151102380Y-106642857D01*
X151197619Y-106642857D01*
X151435714Y-107119047D02*
X152102380Y-107119047D01*
X151530952Y-107119047D02*
X151483333Y-107166666D01*
X151435714Y-107261904D01*
X151435714Y-107404761D01*
X151483333Y-107500000D01*
X151578571Y-107547619D01*
X152102380Y-107547619D01*
X151435714Y-107880952D02*
X151435714Y-108261904D01*
X152102380Y-108023809D02*
X151245238Y-108023809D01*
X151150000Y-108071428D01*
X151102380Y-108166666D01*
X151102380Y-108261904D01*
X152102380Y-108738095D02*
X152054761Y-108642857D01*
X152007142Y-108595238D01*
X151911904Y-108547619D01*
X151626190Y-108547619D01*
X151530952Y-108595238D01*
X151483333Y-108642857D01*
X151435714Y-108738095D01*
X151435714Y-108880952D01*
X151483333Y-108976190D01*
X151530952Y-109023809D01*
X151626190Y-109071428D01*
X151911904Y-109071428D01*
X152007142Y-109023809D01*
X152054761Y-108976190D01*
X152102380Y-108880952D01*
X152102380Y-108738095D01*
M02*
