%TF.GenerationSoftware,KiCad,Pcbnew,(5.99.0-11012-g5d9c1dd75a)*%
%TF.CreationDate,2021-06-14T21:45:01+02:00*%
%TF.ProjectId,Power-Supply,506f7765-722d-4537-9570-706c792e6b69,rev?*%
%TF.SameCoordinates,Original*%
%TF.FileFunction,Legend,Bot*%
%TF.FilePolarity,Positive*%
%FSLAX46Y46*%
G04 Gerber Fmt 4.6, Leading zero omitted, Abs format (unit mm)*
G04 Created by KiCad (PCBNEW (5.99.0-11012-g5d9c1dd75a)) date 2021-06-14 21:45:01*
%MOMM*%
%LPD*%
G01*
G04 APERTURE LIST*
%ADD10C,0.150000*%
G04 APERTURE END LIST*
D10*
X154833333Y-98842380D02*
X154833333Y-97842380D01*
X154452380Y-97842380D01*
X154357142Y-97890000D01*
X154309523Y-97937619D01*
X154261904Y-98032857D01*
X154261904Y-98175714D01*
X154309523Y-98270952D01*
X154357142Y-98318571D01*
X154452380Y-98366190D01*
X154833333Y-98366190D01*
X153690476Y-98842380D02*
X153785714Y-98794761D01*
X153833333Y-98747142D01*
X153880952Y-98651904D01*
X153880952Y-98366190D01*
X153833333Y-98270952D01*
X153785714Y-98223333D01*
X153690476Y-98175714D01*
X153547619Y-98175714D01*
X153452380Y-98223333D01*
X153404761Y-98270952D01*
X153357142Y-98366190D01*
X153357142Y-98651904D01*
X153404761Y-98747142D01*
X153452380Y-98794761D01*
X153547619Y-98842380D01*
X153690476Y-98842380D01*
X153023809Y-98175714D02*
X152833333Y-98842380D01*
X152642857Y-98366190D01*
X152452380Y-98842380D01*
X152261904Y-98175714D01*
X151500000Y-98794761D02*
X151595238Y-98842380D01*
X151785714Y-98842380D01*
X151880952Y-98794761D01*
X151928571Y-98699523D01*
X151928571Y-98318571D01*
X151880952Y-98223333D01*
X151785714Y-98175714D01*
X151595238Y-98175714D01*
X151500000Y-98223333D01*
X151452380Y-98318571D01*
X151452380Y-98413809D01*
X151928571Y-98509047D01*
X151023809Y-98842380D02*
X151023809Y-98175714D01*
X151023809Y-98366190D02*
X150976190Y-98270952D01*
X150928571Y-98223333D01*
X150833333Y-98175714D01*
X150738095Y-98175714D01*
X149690476Y-98794761D02*
X149547619Y-98842380D01*
X149309523Y-98842380D01*
X149214285Y-98794761D01*
X149166666Y-98747142D01*
X149119047Y-98651904D01*
X149119047Y-98556666D01*
X149166666Y-98461428D01*
X149214285Y-98413809D01*
X149309523Y-98366190D01*
X149500000Y-98318571D01*
X149595238Y-98270952D01*
X149642857Y-98223333D01*
X149690476Y-98128095D01*
X149690476Y-98032857D01*
X149642857Y-97937619D01*
X149595238Y-97890000D01*
X149500000Y-97842380D01*
X149261904Y-97842380D01*
X149119047Y-97890000D01*
X148261904Y-98175714D02*
X148261904Y-98842380D01*
X148690476Y-98175714D02*
X148690476Y-98699523D01*
X148642857Y-98794761D01*
X148547619Y-98842380D01*
X148404761Y-98842380D01*
X148309523Y-98794761D01*
X148261904Y-98747142D01*
X147785714Y-98175714D02*
X147785714Y-99175714D01*
X147785714Y-98223333D02*
X147690476Y-98175714D01*
X147500000Y-98175714D01*
X147404761Y-98223333D01*
X147357142Y-98270952D01*
X147309523Y-98366190D01*
X147309523Y-98651904D01*
X147357142Y-98747142D01*
X147404761Y-98794761D01*
X147500000Y-98842380D01*
X147690476Y-98842380D01*
X147785714Y-98794761D01*
X146880952Y-98175714D02*
X146880952Y-99175714D01*
X146880952Y-98223333D02*
X146785714Y-98175714D01*
X146595238Y-98175714D01*
X146500000Y-98223333D01*
X146452380Y-98270952D01*
X146404761Y-98366190D01*
X146404761Y-98651904D01*
X146452380Y-98747142D01*
X146500000Y-98794761D01*
X146595238Y-98842380D01*
X146785714Y-98842380D01*
X146880952Y-98794761D01*
X145833333Y-98842380D02*
X145928571Y-98794761D01*
X145976190Y-98699523D01*
X145976190Y-97842380D01*
X145547619Y-98175714D02*
X145309523Y-98842380D01*
X145071428Y-98175714D02*
X145309523Y-98842380D01*
X145404761Y-99080476D01*
X145452380Y-99128095D01*
X145547619Y-99175714D01*
X157261904Y-100452380D02*
X157595238Y-99976190D01*
X157833333Y-100452380D02*
X157833333Y-99452380D01*
X157452380Y-99452380D01*
X157357142Y-99500000D01*
X157309523Y-99547619D01*
X157261904Y-99642857D01*
X157261904Y-99785714D01*
X157309523Y-99880952D01*
X157357142Y-99928571D01*
X157452380Y-99976190D01*
X157833333Y-99976190D01*
X156452380Y-100404761D02*
X156547619Y-100452380D01*
X156738095Y-100452380D01*
X156833333Y-100404761D01*
X156880952Y-100309523D01*
X156880952Y-99928571D01*
X156833333Y-99833333D01*
X156738095Y-99785714D01*
X156547619Y-99785714D01*
X156452380Y-99833333D01*
X156404761Y-99928571D01*
X156404761Y-100023809D01*
X156880952Y-100119047D01*
X156071428Y-99785714D02*
X155833333Y-100452380D01*
X155595238Y-99785714D01*
X155214285Y-100357142D02*
X155166666Y-100404761D01*
X155214285Y-100452380D01*
X155261904Y-100404761D01*
X155214285Y-100357142D01*
X155214285Y-100452380D01*
X154071428Y-99452380D02*
X153452380Y-99452380D01*
X153785714Y-99833333D01*
X153642857Y-99833333D01*
X153547619Y-99880952D01*
X153500000Y-99928571D01*
X153452380Y-100023809D01*
X153452380Y-100261904D01*
X153500000Y-100357142D01*
X153547619Y-100404761D01*
X153642857Y-100452380D01*
X153928571Y-100452380D01*
X154023809Y-100404761D01*
X154071428Y-100357142D01*
X152976190Y-100404761D02*
X152976190Y-100452380D01*
X153023809Y-100547619D01*
X153071428Y-100595238D01*
X151833333Y-99547619D02*
X151785714Y-99500000D01*
X151690476Y-99452380D01*
X151452380Y-99452380D01*
X151357142Y-99500000D01*
X151309523Y-99547619D01*
X151261904Y-99642857D01*
X151261904Y-99738095D01*
X151309523Y-99880952D01*
X151880952Y-100452380D01*
X151261904Y-100452380D01*
X150642857Y-99452380D02*
X150547619Y-99452380D01*
X150452380Y-99500000D01*
X150404761Y-99547619D01*
X150357142Y-99642857D01*
X150309523Y-99833333D01*
X150309523Y-100071428D01*
X150357142Y-100261904D01*
X150404761Y-100357142D01*
X150452380Y-100404761D01*
X150547619Y-100452380D01*
X150642857Y-100452380D01*
X150738095Y-100404761D01*
X150785714Y-100357142D01*
X150833333Y-100261904D01*
X150880952Y-100071428D01*
X150880952Y-99833333D01*
X150833333Y-99642857D01*
X150785714Y-99547619D01*
X150738095Y-99500000D01*
X150642857Y-99452380D01*
X149928571Y-99547619D02*
X149880952Y-99500000D01*
X149785714Y-99452380D01*
X149547619Y-99452380D01*
X149452380Y-99500000D01*
X149404761Y-99547619D01*
X149357142Y-99642857D01*
X149357142Y-99738095D01*
X149404761Y-99880952D01*
X149976190Y-100452380D01*
X149357142Y-100452380D01*
X148404761Y-100452380D02*
X148976190Y-100452380D01*
X148690476Y-100452380D02*
X148690476Y-99452380D01*
X148785714Y-99595238D01*
X148880952Y-99690476D01*
X148976190Y-99738095D01*
X147976190Y-100071428D02*
X147214285Y-100071428D01*
X146547619Y-99452380D02*
X146452380Y-99452380D01*
X146357142Y-99500000D01*
X146309523Y-99547619D01*
X146261904Y-99642857D01*
X146214285Y-99833333D01*
X146214285Y-100071428D01*
X146261904Y-100261904D01*
X146309523Y-100357142D01*
X146357142Y-100404761D01*
X146452380Y-100452380D01*
X146547619Y-100452380D01*
X146642857Y-100404761D01*
X146690476Y-100357142D01*
X146738095Y-100261904D01*
X146785714Y-100071428D01*
X146785714Y-99833333D01*
X146738095Y-99642857D01*
X146690476Y-99547619D01*
X146642857Y-99500000D01*
X146547619Y-99452380D01*
X145357142Y-99452380D02*
X145547619Y-99452380D01*
X145642857Y-99500000D01*
X145690476Y-99547619D01*
X145785714Y-99690476D01*
X145833333Y-99880952D01*
X145833333Y-100261904D01*
X145785714Y-100357142D01*
X145738095Y-100404761D01*
X145642857Y-100452380D01*
X145452380Y-100452380D01*
X145357142Y-100404761D01*
X145309523Y-100357142D01*
X145261904Y-100261904D01*
X145261904Y-100023809D01*
X145309523Y-99928571D01*
X145357142Y-99880952D01*
X145452380Y-99833333D01*
X145642857Y-99833333D01*
X145738095Y-99880952D01*
X145785714Y-99928571D01*
X145833333Y-100023809D01*
X144833333Y-100071428D02*
X144071428Y-100071428D01*
X143071428Y-100452380D02*
X143642857Y-100452380D01*
X143357142Y-100452380D02*
X143357142Y-99452380D01*
X143452380Y-99595238D01*
X143547619Y-99690476D01*
X143642857Y-99738095D01*
X142214285Y-99785714D02*
X142214285Y-100452380D01*
X142452380Y-99404761D02*
X142690476Y-100119047D01*
X142071428Y-100119047D01*
X159166666Y-101062380D02*
X158595238Y-101062380D01*
X158880952Y-102062380D02*
X158880952Y-101062380D01*
X158119047Y-102062380D02*
X158214285Y-102014761D01*
X158261904Y-101967142D01*
X158309523Y-101871904D01*
X158309523Y-101586190D01*
X158261904Y-101490952D01*
X158214285Y-101443333D01*
X158119047Y-101395714D01*
X157976190Y-101395714D01*
X157880952Y-101443333D01*
X157833333Y-101490952D01*
X157785714Y-101586190D01*
X157785714Y-101871904D01*
X157833333Y-101967142D01*
X157880952Y-102014761D01*
X157976190Y-102062380D01*
X158119047Y-102062380D01*
X157357142Y-102062380D02*
X157357142Y-101062380D01*
X157357142Y-101443333D02*
X157261904Y-101395714D01*
X157071428Y-101395714D01*
X156976190Y-101443333D01*
X156928571Y-101490952D01*
X156880952Y-101586190D01*
X156880952Y-101871904D01*
X156928571Y-101967142D01*
X156976190Y-102014761D01*
X157071428Y-102062380D01*
X157261904Y-102062380D01*
X157357142Y-102014761D01*
X156452380Y-102062380D02*
X156452380Y-101395714D01*
X156452380Y-101062380D02*
X156500000Y-101110000D01*
X156452380Y-101157619D01*
X156404761Y-101110000D01*
X156452380Y-101062380D01*
X156452380Y-101157619D01*
X155547619Y-102062380D02*
X155547619Y-101538571D01*
X155595238Y-101443333D01*
X155690476Y-101395714D01*
X155880952Y-101395714D01*
X155976190Y-101443333D01*
X155547619Y-102014761D02*
X155642857Y-102062380D01*
X155880952Y-102062380D01*
X155976190Y-102014761D01*
X156023809Y-101919523D01*
X156023809Y-101824285D01*
X155976190Y-101729047D01*
X155880952Y-101681428D01*
X155642857Y-101681428D01*
X155547619Y-101633809D01*
X155119047Y-102014761D02*
X155023809Y-102062380D01*
X154833333Y-102062380D01*
X154738095Y-102014761D01*
X154690476Y-101919523D01*
X154690476Y-101871904D01*
X154738095Y-101776666D01*
X154833333Y-101729047D01*
X154976190Y-101729047D01*
X155071428Y-101681428D01*
X155119047Y-101586190D01*
X155119047Y-101538571D01*
X155071428Y-101443333D01*
X154976190Y-101395714D01*
X154833333Y-101395714D01*
X154738095Y-101443333D01*
X153500000Y-102062380D02*
X153500000Y-101062380D01*
X153166666Y-101776666D01*
X152833333Y-101062380D01*
X152833333Y-102062380D01*
X151928571Y-101395714D02*
X151928571Y-102062380D01*
X152357142Y-101395714D02*
X152357142Y-101919523D01*
X152309523Y-102014761D01*
X152214285Y-102062380D01*
X152071428Y-102062380D01*
X151976190Y-102014761D01*
X151928571Y-101967142D01*
X152309523Y-101062380D02*
X152261904Y-101110000D01*
X152309523Y-101157619D01*
X152357142Y-101110000D01*
X152309523Y-101062380D01*
X152309523Y-101157619D01*
X151928571Y-101062380D02*
X151880952Y-101110000D01*
X151928571Y-101157619D01*
X151976190Y-101110000D01*
X151928571Y-101062380D01*
X151928571Y-101157619D01*
X151309523Y-102062380D02*
X151404761Y-102014761D01*
X151452380Y-101919523D01*
X151452380Y-101062380D01*
X150785714Y-102062380D02*
X150880952Y-102014761D01*
X150928571Y-101919523D01*
X150928571Y-101062380D01*
X150023809Y-102014761D02*
X150119047Y-102062380D01*
X150309523Y-102062380D01*
X150404761Y-102014761D01*
X150452380Y-101919523D01*
X150452380Y-101538571D01*
X150404761Y-101443333D01*
X150309523Y-101395714D01*
X150119047Y-101395714D01*
X150023809Y-101443333D01*
X149976190Y-101538571D01*
X149976190Y-101633809D01*
X150452380Y-101729047D01*
X149547619Y-102062380D02*
X149547619Y-101395714D01*
X149547619Y-101586190D02*
X149500000Y-101490952D01*
X149452380Y-101443333D01*
X149357142Y-101395714D01*
X149261904Y-101395714D01*
X148880952Y-102014761D02*
X148880952Y-102062380D01*
X148928571Y-102157619D01*
X148976190Y-102205238D01*
X147833333Y-101395714D02*
X147452380Y-101395714D01*
X147690476Y-101062380D02*
X147690476Y-101919523D01*
X147642857Y-102014761D01*
X147547619Y-102062380D01*
X147452380Y-102062380D01*
X147214285Y-101395714D02*
X147023809Y-102062380D01*
X146833333Y-101586190D01*
X146642857Y-102062380D01*
X146452380Y-101395714D01*
X145642857Y-102062380D02*
X145642857Y-101538571D01*
X145690476Y-101443333D01*
X145785714Y-101395714D01*
X145976190Y-101395714D01*
X146071428Y-101443333D01*
X145642857Y-102014761D02*
X145738095Y-102062380D01*
X145976190Y-102062380D01*
X146071428Y-102014761D01*
X146119047Y-101919523D01*
X146119047Y-101824285D01*
X146071428Y-101729047D01*
X145976190Y-101681428D01*
X145738095Y-101681428D01*
X145642857Y-101633809D01*
X145166666Y-102062380D02*
X145166666Y-101395714D01*
X145166666Y-101490952D02*
X145119047Y-101443333D01*
X145023809Y-101395714D01*
X144880952Y-101395714D01*
X144785714Y-101443333D01*
X144738095Y-101538571D01*
X144738095Y-102062380D01*
X144738095Y-101538571D02*
X144690476Y-101443333D01*
X144595238Y-101395714D01*
X144452380Y-101395714D01*
X144357142Y-101443333D01*
X144309523Y-101538571D01*
X144309523Y-102062380D01*
X143833333Y-101967142D02*
X143785714Y-102014761D01*
X143833333Y-102062380D01*
X143880952Y-102014761D01*
X143833333Y-101967142D01*
X143833333Y-102062380D01*
X143357142Y-102062380D02*
X143357142Y-101395714D01*
X143357142Y-101062380D02*
X143404761Y-101110000D01*
X143357142Y-101157619D01*
X143309523Y-101110000D01*
X143357142Y-101062380D01*
X143357142Y-101157619D01*
X142880952Y-101395714D02*
X142880952Y-102062380D01*
X142880952Y-101490952D02*
X142833333Y-101443333D01*
X142738095Y-101395714D01*
X142595238Y-101395714D01*
X142500000Y-101443333D01*
X142452380Y-101538571D01*
X142452380Y-102062380D01*
X142119047Y-101395714D02*
X141738095Y-101395714D01*
X141976190Y-102062380D02*
X141976190Y-101205238D01*
X141928571Y-101110000D01*
X141833333Y-101062380D01*
X141738095Y-101062380D01*
X141261904Y-102062380D02*
X141357142Y-102014761D01*
X141404761Y-101967142D01*
X141452380Y-101871904D01*
X141452380Y-101586190D01*
X141404761Y-101490952D01*
X141357142Y-101443333D01*
X141261904Y-101395714D01*
X141119047Y-101395714D01*
X141023809Y-101443333D01*
X140976190Y-101490952D01*
X140928571Y-101586190D01*
X140928571Y-101871904D01*
X140976190Y-101967142D01*
X141023809Y-102014761D01*
X141119047Y-102062380D01*
X141261904Y-102062380D01*
M02*
