%TF.GenerationSoftware,KiCad,Pcbnew,(5.99.0-11012-g5d9c1dd75a)*%
%TF.CreationDate,2021-06-14T21:45:00+02:00*%
%TF.ProjectId,Power-Supply,506f7765-722d-4537-9570-706c792e6b69,rev?*%
%TF.SameCoordinates,Original*%
%TF.FileFunction,Copper,L4,Bot*%
%TF.FilePolarity,Positive*%
%FSLAX46Y46*%
G04 Gerber Fmt 4.6, Leading zero omitted, Abs format (unit mm)*
G04 Created by KiCad (PCBNEW (5.99.0-11012-g5d9c1dd75a)) date 2021-06-14 21:45:00*
%MOMM*%
%LPD*%
G01*
G04 APERTURE LIST*
G04 Aperture macros list*
%AMRoundRect*
0 Rectangle with rounded corners*
0 $1 Rounding radius*
0 $2 $3 $4 $5 $6 $7 $8 $9 X,Y pos of 4 corners*
0 Add a 4 corners polygon primitive as box body*
4,1,4,$2,$3,$4,$5,$6,$7,$8,$9,$2,$3,0*
0 Add four circle primitives for the rounded corners*
1,1,$1+$1,$2,$3*
1,1,$1+$1,$4,$5*
1,1,$1+$1,$6,$7*
1,1,$1+$1,$8,$9*
0 Add four rect primitives between the rounded corners*
20,1,$1+$1,$2,$3,$4,$5,0*
20,1,$1+$1,$4,$5,$6,$7,0*
20,1,$1+$1,$6,$7,$8,$9,0*
20,1,$1+$1,$8,$9,$2,$3,0*%
G04 Aperture macros list end*
%TA.AperFunction,ComponentPad*%
%ADD10R,1.800000X1.800000*%
%TD*%
%TA.AperFunction,ComponentPad*%
%ADD11O,1.800000X1.800000*%
%TD*%
%TA.AperFunction,ComponentPad*%
%ADD12C,5.600000*%
%TD*%
%TA.AperFunction,ComponentPad*%
%ADD13RoundRect,0.250001X1.099999X1.099999X-1.099999X1.099999X-1.099999X-1.099999X1.099999X-1.099999X0*%
%TD*%
%TA.AperFunction,ComponentPad*%
%ADD14C,2.700000*%
%TD*%
%TA.AperFunction,ComponentPad*%
%ADD15RoundRect,0.250001X1.099999X-1.099999X1.099999X1.099999X-1.099999X1.099999X-1.099999X-1.099999X0*%
%TD*%
%TA.AperFunction,ComponentPad*%
%ADD16R,1.600000X1.600000*%
%TD*%
%TA.AperFunction,ComponentPad*%
%ADD17C,1.600000*%
%TD*%
%TA.AperFunction,ComponentPad*%
%ADD18RoundRect,0.250001X-1.099999X1.099999X-1.099999X-1.099999X1.099999X-1.099999X1.099999X1.099999X0*%
%TD*%
%TA.AperFunction,ComponentPad*%
%ADD19C,1.400000*%
%TD*%
%TA.AperFunction,ComponentPad*%
%ADD20R,1.700000X1.700000*%
%TD*%
%TA.AperFunction,ComponentPad*%
%ADD21O,1.700000X1.700000*%
%TD*%
%TA.AperFunction,ComponentPad*%
%ADD22RoundRect,0.250000X0.845000X-0.620000X0.845000X0.620000X-0.845000X0.620000X-0.845000X-0.620000X0*%
%TD*%
%TA.AperFunction,ComponentPad*%
%ADD23O,2.190000X1.740000*%
%TD*%
%TA.AperFunction,ViaPad*%
%ADD24C,0.600000*%
%TD*%
%TA.AperFunction,Conductor*%
%ADD25C,0.200000*%
%TD*%
G04 APERTURE END LIST*
D10*
%TO.P,U1,1,ILIM*%
%TO.N,Net-(R2-Pad2)*%
X186195000Y-130340000D03*
D11*
%TO.P,U1,2,SET*%
%TO.N,Net-(C4-Pad2)*%
X184925000Y-134140000D03*
%TO.P,U1,3,IMON*%
%TO.N,/Microcontroller/ADC_I_13V5*%
X183655000Y-130340000D03*
%TO.P,U1,4,OUT*%
%TO.N,/Positive Supply/13V5_OUT*%
X182385000Y-134140000D03*
%TO.P,U1,5,TEMP*%
%TO.N,/Microcontroller/ADC_T_13V5*%
X181115000Y-130340000D03*
%TO.P,U1,6,IN*%
%TO.N,/Positive Supply/13V5_IN*%
X179845000Y-134140000D03*
%TO.P,U1,7,NC*%
%TO.N,unconnected-(U1-Pad7)*%
X178575000Y-130340000D03*
%TD*%
D10*
%TO.P,U3,1,ILIM*%
%TO.N,Net-(R8-Pad2)*%
X121425000Y-130480000D03*
D11*
%TO.P,U3,2,IMONN*%
%TO.N,/Negative Supply/~{ADC_I_-13V5}*%
X120155000Y-134280000D03*
%TO.P,U3,3,~SHDN*%
%TO.N,/Negative Supply/-13V5_IN*%
X118885000Y-130480000D03*
%TO.P,U3,4,IN*%
X117615000Y-134280000D03*
%TO.P,U3,5,SET*%
%TO.N,Net-(C8-Pad2)*%
X116345000Y-130480000D03*
%TO.P,U3,6,GND*%
%TO.N,GND*%
X115075000Y-134280000D03*
%TO.P,U3,7,OUT*%
%TO.N,/Negative Supply/-13V5_OUT*%
X113805000Y-130480000D03*
%TD*%
D12*
%TO.P,H1,1,1*%
%TO.N,Earth*%
X104000000Y-66500000D03*
%TD*%
%TO.P,H2,1,1*%
%TO.N,Earth*%
X196000000Y-66500000D03*
%TD*%
%TO.P,H4,1,1*%
%TO.N,Earth*%
X196000000Y-133500000D03*
%TD*%
D13*
%TO.P,J5,1,Pin_1*%
%TO.N,/Positive Supply/13V5*%
X172000000Y-68000000D03*
D14*
%TO.P,J5,2,Pin_2*%
%TO.N,/Negative Supply/-13V5*%
X168040000Y-68000000D03*
%TO.P,J5,3,Pin_3*%
%TO.N,GND*%
X164080000Y-68000000D03*
%TO.P,J5,4,Pin_4*%
%TO.N,/Digital Supply/5V0*%
X160120000Y-68000000D03*
%TD*%
D13*
%TO.P,J4,1,Pin_1*%
%TO.N,/Positive Supply/13V5*%
X190000000Y-68000000D03*
D14*
%TO.P,J4,2,Pin_2*%
%TO.N,/Negative Supply/-13V5*%
X186040000Y-68000000D03*
%TO.P,J4,3,Pin_3*%
%TO.N,GND*%
X182080000Y-68000000D03*
%TO.P,J4,4,Pin_4*%
%TO.N,/Digital Supply/5V0*%
X178120000Y-68000000D03*
%TD*%
D15*
%TO.P,J3,1,Pin_1*%
%TO.N,/Positive Supply/13V5*%
X194450000Y-87940000D03*
D14*
%TO.P,J3,2,Pin_2*%
%TO.N,/Negative Supply/-13V5*%
X194450000Y-83980000D03*
%TO.P,J3,3,Pin_3*%
%TO.N,GND*%
X194450000Y-80020000D03*
%TO.P,J3,4,Pin_4*%
%TO.N,/Digital Supply/5V0*%
X194450000Y-76060000D03*
%TD*%
D12*
%TO.P,H3,1,1*%
%TO.N,Earth*%
X104000000Y-133500000D03*
%TD*%
D15*
%TO.P,J6,1,Pin_1*%
%TO.N,/Positive Supply/13V5*%
X194500000Y-123940000D03*
D14*
%TO.P,J6,2,Pin_2*%
%TO.N,/Negative Supply/-13V5*%
X194500000Y-119980000D03*
%TO.P,J6,3,Pin_3*%
%TO.N,GND*%
X194500000Y-116020000D03*
%TO.P,J6,4,Pin_4*%
%TO.N,/Digital Supply/5V0*%
X194500000Y-112060000D03*
%TD*%
D16*
%TO.P,C15,1*%
%TO.N,/Positive Supply/13V5_IN*%
X185942651Y-121590000D03*
D17*
%TO.P,C15,2*%
%TO.N,GND*%
X182442651Y-121590000D03*
%TD*%
D16*
%TO.P,C17,1*%
%TO.N,GND*%
X106185000Y-114605000D03*
D17*
%TO.P,C17,2*%
%TO.N,/Negative Supply/-13V5_IN*%
X102685000Y-114605000D03*
%TD*%
D14*
%TO.P,J9,8,Pin_8*%
%TO.N,Net-(F2-Pad2)*%
X105500000Y-107220000D03*
%TO.P,J9,7,Pin_7*%
%TO.N,Net-(F3-Pad2)*%
X105500000Y-103260000D03*
%TO.P,J9,6,Pin_6*%
X105500000Y-99300000D03*
%TO.P,J9,5,Pin_5*%
%TO.N,GND*%
X105500000Y-95340000D03*
%TO.P,J9,4,Pin_4*%
X105500000Y-91380000D03*
%TO.P,J9,3,Pin_3*%
X105500000Y-87420000D03*
%TO.P,J9,2,Pin_2*%
%TO.N,Net-(F1-Pad2)*%
X105500000Y-83460000D03*
D18*
%TO.P,J9,1,Pin_1*%
X105500000Y-79500000D03*
%TD*%
D16*
%TO.P,C14,1*%
%TO.N,/Positive Supply/13V5_IN*%
X185942651Y-112700000D03*
D17*
%TO.P,C14,2*%
%TO.N,GND*%
X182442651Y-112700000D03*
%TD*%
D16*
%TO.P,C16,1*%
%TO.N,GND*%
X106185000Y-123495000D03*
D17*
%TO.P,C16,2*%
%TO.N,/Negative Supply/-13V5_IN*%
X102685000Y-123495000D03*
%TD*%
D13*
%TO.P,J8,1,Pin_1*%
%TO.N,/Digital Supply/5V0*%
X140000000Y-68000000D03*
D14*
%TO.P,J8,2,Pin_2*%
X136040000Y-68000000D03*
%TO.P,J8,3,Pin_3*%
%TO.N,GND*%
X132080000Y-68000000D03*
%TO.P,J8,4,Pin_4*%
X128120000Y-68000000D03*
%TD*%
D13*
%TO.P,J7,1,Pin_1*%
%TO.N,/Digital Supply/5V0*%
X122000000Y-68050000D03*
D14*
%TO.P,J7,2,Pin_2*%
X118040000Y-68050000D03*
%TO.P,J7,3,Pin_3*%
%TO.N,GND*%
X114080000Y-68050000D03*
%TO.P,J7,4,Pin_4*%
X110120000Y-68050000D03*
%TD*%
D15*
%TO.P,J2,1,Pin_1*%
%TO.N,/Positive Supply/13V5*%
X194450000Y-105940000D03*
D14*
%TO.P,J2,2,Pin_2*%
%TO.N,/Negative Supply/-13V5*%
X194450000Y-101980000D03*
%TO.P,J2,3,Pin_3*%
%TO.N,GND*%
X194450000Y-98020000D03*
%TO.P,J2,4,Pin_4*%
%TO.N,/Digital Supply/5V0*%
X194450000Y-94060000D03*
%TD*%
D17*
%TO.P,K3,11*%
%TO.N,/Digital Supply/5V0*%
X114655000Y-78592086D03*
%TO.P,K3,14*%
%TO.N,Net-(K3-Pad14)*%
X122275000Y-78592086D03*
D19*
%TO.P,K3,A1*%
%TO.N,Net-(D3-Pad2)*%
X132435000Y-78592086D03*
%TO.P,K3,A2*%
%TO.N,Net-(D3-Pad1)*%
X129895000Y-78592086D03*
%TD*%
D20*
%TO.P,J22,1,Pin_1*%
%TO.N,/Digital Supply/3V3*%
X132230000Y-103810000D03*
D21*
%TO.P,J22,2,Pin_2*%
%TO.N,/Microcontroller/UART_TX*%
X134770000Y-103810000D03*
%TO.P,J22,3,Pin_3*%
%TO.N,/Microcontroller/UART_RX*%
X137310000Y-103810000D03*
%TO.P,J22,4,Pin_4*%
%TO.N,GND*%
X139850000Y-103810000D03*
%TD*%
D22*
%TO.P,J10,1,Pin_1*%
%TO.N,Net-(F4-Pad1)*%
X176690000Y-80950000D03*
D23*
%TO.P,J10,2,Pin_2*%
%TO.N,/Microcontroller/ONEWIRE*%
X176690000Y-78410000D03*
%TO.P,J10,3,Pin_3*%
%TO.N,GND*%
X176690000Y-75870000D03*
%TD*%
D22*
%TO.P,J11,1,Pin_1*%
%TO.N,Net-(F4-Pad1)*%
X169070000Y-80950000D03*
D23*
%TO.P,J11,2,Pin_2*%
%TO.N,/Microcontroller/ONEWIRE*%
X169070000Y-78410000D03*
%TO.P,J11,3,Pin_3*%
%TO.N,GND*%
X169070000Y-75870000D03*
%TD*%
D17*
%TO.P,K1,11*%
%TO.N,/Positive Supply/13V5*%
X169867086Y-135345000D03*
%TO.P,K1,14*%
%TO.N,/Positive Supply/13V5_PRE_RELAIS*%
X169867086Y-127725000D03*
D19*
%TO.P,K1,A1*%
%TO.N,Net-(D1-Pad2)*%
X169867086Y-117565000D03*
%TO.P,K1,A2*%
%TO.N,Net-(D1-Pad1)*%
X169867086Y-120105000D03*
%TD*%
D22*
%TO.P,J14,1,Pin_1*%
%TO.N,Net-(F4-Pad1)*%
X161450000Y-90475000D03*
D23*
%TO.P,J14,2,Pin_2*%
%TO.N,/Microcontroller/ONEWIRE*%
X161450000Y-87935000D03*
%TO.P,J14,3,Pin_3*%
%TO.N,GND*%
X161450000Y-85395000D03*
%TD*%
D20*
%TO.P,J18,1,Pin_1*%
%TO.N,/Digital Supply/3V3*%
X134755000Y-93665000D03*
D21*
%TO.P,J18,2,Pin_2*%
%TO.N,/Microcontroller/SPI_NSS*%
X137295000Y-93665000D03*
%TO.P,J18,3,Pin_3*%
%TO.N,/Microcontroller/SPI1_MISO*%
X134755000Y-96205000D03*
%TO.P,J18,4,Pin_4*%
%TO.N,/Microcontroller/SPI_SCK*%
X137295000Y-96205000D03*
%TO.P,J18,5,Pin_5*%
%TO.N,/Microcontroller/SPI1_MOSI*%
X134755000Y-98745000D03*
%TO.P,J18,6,Pin_6*%
%TO.N,GND*%
X137295000Y-98745000D03*
%TD*%
D22*
%TO.P,J16,1,Pin_1*%
%TO.N,Net-(F4-Pad1)*%
X184310000Y-90475000D03*
D23*
%TO.P,J16,2,Pin_2*%
%TO.N,/Microcontroller/ONEWIRE*%
X184310000Y-87935000D03*
%TO.P,J16,3,Pin_3*%
%TO.N,GND*%
X184310000Y-85395000D03*
%TD*%
D22*
%TO.P,J13,1,Pin_1*%
%TO.N,Net-(F4-Pad1)*%
X176690000Y-90475000D03*
D23*
%TO.P,J13,2,Pin_2*%
%TO.N,/Microcontroller/ONEWIRE*%
X176690000Y-87935000D03*
%TO.P,J13,3,Pin_3*%
%TO.N,GND*%
X176690000Y-85395000D03*
%TD*%
D22*
%TO.P,J12,1,Pin_1*%
%TO.N,Net-(F4-Pad1)*%
X184290000Y-80950000D03*
D23*
%TO.P,J12,2,Pin_2*%
%TO.N,/Microcontroller/ONEWIRE*%
X184290000Y-78410000D03*
%TO.P,J12,3,Pin_3*%
%TO.N,GND*%
X184290000Y-75870000D03*
%TD*%
D17*
%TO.P,K2,11*%
%TO.N,/Negative Supply/-13V5*%
X131767086Y-135345000D03*
%TO.P,K2,14*%
%TO.N,/Negative Supply/-13V5_PRE_RELAIS*%
X131767086Y-127725000D03*
D19*
%TO.P,K2,A1*%
%TO.N,Net-(D2-Pad2)*%
X131767086Y-117565000D03*
%TO.P,K2,A2*%
%TO.N,Net-(D2-Pad1)*%
X131767086Y-120105000D03*
%TD*%
D22*
%TO.P,J17,1,Pin_1*%
%TO.N,Net-(F4-Pad1)*%
X153830000Y-80950000D03*
D23*
%TO.P,J17,2,Pin_2*%
%TO.N,/Microcontroller/ONEWIRE*%
X153830000Y-78410000D03*
%TO.P,J17,3,Pin_3*%
%TO.N,GND*%
X153830000Y-75870000D03*
%TD*%
D22*
%TO.P,J19,1,Pin_1*%
%TO.N,Net-(F4-Pad1)*%
X153830000Y-90475000D03*
D23*
%TO.P,J19,2,Pin_2*%
%TO.N,/Microcontroller/ONEWIRE*%
X153830000Y-87935000D03*
%TO.P,J19,3,Pin_3*%
%TO.N,GND*%
X153830000Y-85395000D03*
%TD*%
D22*
%TO.P,J21,1,Pin_1*%
%TO.N,Net-(D12-Pad1)*%
X144940000Y-78410000D03*
D23*
%TO.P,J21,2,Pin_2*%
%TO.N,Net-(D12-Pad2)*%
X144940000Y-75870000D03*
%TD*%
D22*
%TO.P,J20,1,Pin_1*%
%TO.N,Net-(F4-Pad1)*%
X169070000Y-90475000D03*
D23*
%TO.P,J20,2,Pin_2*%
%TO.N,/Microcontroller/ONEWIRE*%
X169070000Y-87935000D03*
%TO.P,J20,3,Pin_3*%
%TO.N,GND*%
X169070000Y-85395000D03*
%TD*%
D22*
%TO.P,J15,1,Pin_1*%
%TO.N,Net-(F4-Pad1)*%
X161450000Y-80950000D03*
D23*
%TO.P,J15,2,Pin_2*%
%TO.N,/Microcontroller/ONEWIRE*%
X161450000Y-78410000D03*
%TO.P,J15,3,Pin_3*%
%TO.N,GND*%
X161450000Y-75870000D03*
%TD*%
D24*
%TO.N,/Digital Supply/3V3*%
X140750000Y-90661152D03*
%TO.N,GND*%
X140750000Y-93145000D03*
X116027500Y-112700000D03*
%TO.N,/Digital Supply/ADC_I_5V0*%
X120790000Y-85712500D03*
%TO.N,/Digital Supply/ADC_U_5V0*%
X115710000Y-89178500D03*
%TO.N,/Digital Supply/ADC_I_5V0*%
X148400000Y-99600000D03*
%TO.N,/Digital Supply/ADC_U_5V0*%
X148000000Y-100400000D03*
%TO.N,/Digital Supply/ENABLE_5V0*%
X137935000Y-79680000D03*
%TO.N,/Microcontroller/FAN*%
X148412500Y-81267500D03*
%TO.N,/Digital Supply/ENABLE_5V0*%
X155600000Y-98800000D03*
%TO.N,/Microcontroller/FAN*%
X155400000Y-99600000D03*
%TO.N,/Microcontroller/ADC_I_13V5*%
X183020000Y-127940000D03*
%TO.N,/Microcontroller/ADC_T_13V5*%
X180506500Y-127940000D03*
%TO.N,/Microcontroller/ADC_U_13V5*%
X175400000Y-125400000D03*
%TO.N,/Microcontroller/ADC_I_13V5*%
X155800000Y-102000000D03*
%TO.N,/Microcontroller/ADC_T_13V5*%
X155400000Y-102800000D03*
%TO.N,/Microcontroller/ADC_U_13V5*%
X152800000Y-105400000D03*
%TO.N,GND*%
X146507500Y-110477500D03*
X152857500Y-109525000D03*
%TO.N,/Microcontroller/ADC_I_-13V5*%
X124600000Y-120955000D03*
%TO.N,/Microcontroller/ADC_U_-13V5*%
X115075000Y-119050000D03*
X148400000Y-101200000D03*
%TO.N,/Microcontroller/ADC_I_-13V5*%
X148000000Y-102000000D03*
%TO.N,/Digital Supply/3V3*%
X156032500Y-113544000D03*
%TO.N,GND*%
X143967500Y-81267500D03*
X147142500Y-84125000D03*
X152540000Y-118097500D03*
%TO.N,/Microcontroller/~{LED_OE}*%
X148730000Y-120002500D03*
%TO.N,/Microcontroller/LED_SDI*%
X151270000Y-114922500D03*
%TO.N,/Microcontroller/LED_LE*%
X148730000Y-114922500D03*
%TO.N,/Microcontroller/LED_CLK*%
X150000000Y-114922500D03*
%TO.N,/Microcontroller/LED_LE*%
X149600000Y-97200000D03*
%TO.N,/Microcontroller/~{LED_OE}*%
X152000000Y-97000000D03*
%TO.N,/Microcontroller/LED_SDI*%
X151200000Y-97300000D03*
%TO.N,/Microcontroller/LED_CLK*%
X150400000Y-97000000D03*
%TO.N,GND*%
X144400000Y-102400000D03*
X152857500Y-97200000D03*
X154445000Y-116827500D03*
%TO.N,/Digital Supply/3V3*%
X154762500Y-107937500D03*
%TO.N,GND*%
X144920000Y-107620000D03*
X143015000Y-104445000D03*
X156985000Y-95555000D03*
%TO.N,/Digital Supply/3V3*%
X153810000Y-95555000D03*
X146190000Y-104445000D03*
%TO.N,GND*%
X152540000Y-115240000D03*
X101500000Y-72500000D03*
X163970000Y-127940000D03*
X110632500Y-93332500D03*
X172225000Y-134925000D03*
X128727500Y-111430000D03*
X111265000Y-135560000D03*
X123330000Y-86665000D03*
X176035000Y-134925000D03*
X108725000Y-129845000D03*
X136347500Y-75552500D03*
X186830000Y-127940000D03*
X132855000Y-115875000D03*
X125235000Y-132385000D03*
X107455000Y-129845000D03*
X120790000Y-117780000D03*
X118885000Y-87617500D03*
X108725000Y-135560000D03*
X122060000Y-123495000D03*
X174765000Y-128575000D03*
X166827500Y-111430000D03*
X114757500Y-98730000D03*
X119520000Y-122225000D03*
X170955000Y-115875000D03*
X163970000Y-133020000D03*
X108725000Y-75235000D03*
X134760000Y-133020000D03*
X119202500Y-98730000D03*
X109995000Y-129845000D03*
X188735000Y-136195000D03*
X134125000Y-79680000D03*
X178575000Y-127940000D03*
X111265000Y-129845000D03*
X114757500Y-80632500D03*
X117615000Y-85712500D03*
X116980000Y-98730000D03*
X179210000Y-125400000D03*
X191275000Y-136195000D03*
X111900000Y-93332500D03*
X117615000Y-125400000D03*
X173495000Y-134925000D03*
X176035000Y-128575000D03*
X113805000Y-100317500D03*
X123965000Y-132385000D03*
X116662500Y-93015000D03*
X108725000Y-125400000D03*
X114440000Y-90157500D03*
X174765000Y-134925000D03*
X120155000Y-81585000D03*
%TO.N,Earth*%
X101000000Y-69000000D03*
%TO.N,/Positive Supply/13V5*%
X166000000Y-135000000D03*
X168000000Y-135000000D03*
X166000000Y-136000000D03*
X168000000Y-136000000D03*
X167000000Y-135000000D03*
X167000000Y-136000000D03*
%TO.N,/Negative Supply/-13V5*%
X128000000Y-135000000D03*
X129000000Y-136000000D03*
X129000000Y-135000000D03*
X130000000Y-136000000D03*
X128000000Y-136000000D03*
X130000000Y-135000000D03*
%TO.N,/Digital Supply/15V*%
X126505000Y-115875000D03*
X123965000Y-116510000D03*
X140475613Y-82222906D03*
X113500000Y-104000000D03*
X177000000Y-117000000D03*
X112500000Y-105000000D03*
X125235000Y-115875000D03*
X139204387Y-82222906D03*
X123965000Y-82220000D03*
X163335000Y-115875000D03*
X176000000Y-116000000D03*
X164605000Y-115875000D03*
X123965000Y-80950000D03*
X177000000Y-116000000D03*
X113500000Y-105000000D03*
X176000000Y-117000000D03*
X112500000Y-104000000D03*
%TO.N,/Digital Supply/3V3*%
X115710000Y-85077500D03*
X149365000Y-89840000D03*
X119000000Y-93500000D03*
X120000000Y-94500000D03*
X120000000Y-93500000D03*
X117615000Y-87617500D03*
X119000000Y-94500000D03*
X121425000Y-87617500D03*
%TO.N,Net-(F4-Pad1)*%
X149365000Y-86030000D03*
%TO.N,Net-(K3-Pad14)*%
X113000000Y-88000000D03*
X113000000Y-89000000D03*
X114000000Y-89000000D03*
X114000000Y-88000000D03*
%TO.N,/Negative Supply/~{ADC_I_-13V5}*%
X121425000Y-125400000D03*
%TO.N,/Negative Supply/-13V5_IN*%
X109360000Y-111430000D03*
X108090000Y-111430000D03*
X123965000Y-133655000D03*
X109360000Y-110160000D03*
X108090000Y-110160000D03*
X125235000Y-133655000D03*
%TD*%
D25*
%TO.N,/Digital Supply/ADC_I_5V0*%
X120790000Y-85712500D02*
X120790000Y-88570000D01*
X120790000Y-88570000D02*
X121425000Y-89205000D01*
X121425000Y-89205000D02*
X121425000Y-99047500D01*
X121425000Y-99047500D02*
X122199011Y-99821511D01*
X122199011Y-99821511D02*
X122834011Y-99821511D01*
%TO.N,/Digital Supply/ADC_U_5V0*%
X115710000Y-89178500D02*
X120446000Y-89178500D01*
X120446000Y-89178500D02*
X120790000Y-89522500D01*
X120790000Y-99365000D02*
X121825000Y-100400000D01*
X120790000Y-89522500D02*
X120790000Y-99365000D01*
X121825000Y-100400000D02*
X148000000Y-100400000D01*
%TO.N,/Digital Supply/ADC_I_5V0*%
X148400000Y-99600000D02*
X148178489Y-99821511D01*
X148178489Y-99821511D02*
X122834011Y-99821511D01*
%TO.N,/Microcontroller/FAN*%
X154963750Y-99163750D02*
X154963750Y-95121250D01*
X154963750Y-95121250D02*
X151270000Y-91427500D01*
X151270000Y-81585000D02*
X151270000Y-91427500D01*
X154963750Y-99163750D02*
X155400000Y-99600000D01*
%TO.N,/Digital Supply/ENABLE_5V0*%
X155600000Y-98800000D02*
X155600000Y-95122500D01*
X155600000Y-95122500D02*
X151905000Y-91427500D01*
%TO.N,/Microcontroller/FAN*%
X148412500Y-81267500D02*
X150952500Y-81267500D01*
X150952500Y-81267500D02*
X151270000Y-81585000D01*
%TO.N,/Digital Supply/ENABLE_5V0*%
X137935000Y-79680000D02*
X151587500Y-79680000D01*
X151587500Y-79680000D02*
X151905000Y-79997500D01*
X151905000Y-79997500D02*
X151905000Y-91427500D01*
%TO.N,/Microcontroller/ADC_I_13V5*%
X155800000Y-102000000D02*
X180575000Y-102000000D01*
X180575000Y-102000000D02*
X181115000Y-102540000D01*
X181115000Y-102540000D02*
X181115000Y-126035000D01*
X181115000Y-126035000D02*
X183020000Y-127940000D01*
%TO.N,/Microcontroller/ADC_T_13V5*%
X155400000Y-102800000D02*
X179787500Y-102800000D01*
X180506500Y-127940000D02*
X180506500Y-114314000D01*
X180506500Y-103519000D02*
X180506500Y-114314000D01*
X179787500Y-102800000D02*
X180506500Y-103519000D01*
%TO.N,/Microcontroller/ADC_U_13V5*%
X152800000Y-105400000D02*
X174450000Y-105400000D01*
X174450000Y-105400000D02*
X175082500Y-106032500D01*
X175082500Y-106032500D02*
X175082500Y-125082500D01*
X175082500Y-125082500D02*
X175400000Y-125400000D01*
%TO.N,/Microcontroller/ADC_U_-13V5*%
X115075000Y-119050000D02*
X115075000Y-101587500D01*
X147000000Y-101200000D02*
X148400000Y-101200000D01*
X115075000Y-101587500D02*
X115457900Y-101204600D01*
X115457900Y-101204600D02*
X147000000Y-101204600D01*
X147000000Y-101204600D02*
X147000000Y-101200000D01*
%TO.N,/Microcontroller/ADC_I_-13V5*%
X124600000Y-120955000D02*
X124600000Y-102540000D01*
X125266511Y-101873489D02*
X147873489Y-101873489D01*
X124600000Y-102540000D02*
X125266511Y-101873489D01*
X147873489Y-101873489D02*
X148000000Y-102000000D01*
%TO.N,/Microcontroller/~{LED_OE}*%
X152000000Y-97000000D02*
X152000000Y-116732500D01*
X152000000Y-116732500D02*
X148730000Y-120002500D01*
%TO.N,/Microcontroller/LED_SDI*%
X151200000Y-97300000D02*
X151200000Y-114852500D01*
X151200000Y-114852500D02*
X151270000Y-114922500D01*
%TO.N,/Microcontroller/LED_CLK*%
X150400000Y-97000000D02*
X150400000Y-114522500D01*
X150400000Y-114522500D02*
X150000000Y-114922500D01*
%TO.N,/Microcontroller/LED_LE*%
X149600000Y-97200000D02*
X149600000Y-114052500D01*
X149600000Y-114052500D02*
X148730000Y-114922500D01*
%TO.N,/Microcontroller/~{LED_OE}*%
X152000000Y-97000000D02*
X152114011Y-97114011D01*
%TO.N,/Microcontroller/LED_SDI*%
X151200000Y-97300000D02*
X151200000Y-97400000D01*
%TO.N,/Negative Supply/~{ADC_I_-13V5}*%
X120155000Y-126670000D02*
X121425000Y-125400000D01*
X120155000Y-134280000D02*
X120155000Y-126670000D01*
%TD*%
%TA.AperFunction,Conductor*%
%TO.N,Earth*%
G36*
X195987033Y-62756421D02*
G01*
X195994689Y-62757944D01*
X195994694Y-62757945D01*
X196000000Y-62759000D01*
X196005409Y-62759133D01*
X196005411Y-62759133D01*
X196086466Y-62761123D01*
X196178931Y-62763392D01*
X196188178Y-62763961D01*
X196527410Y-62797372D01*
X196542756Y-62798884D01*
X196554987Y-62800698D01*
X196902926Y-62869907D01*
X196914912Y-62872910D01*
X197020048Y-62904803D01*
X197254376Y-62975886D01*
X197266018Y-62980051D01*
X197593766Y-63115808D01*
X197604944Y-63121095D01*
X197917799Y-63288319D01*
X197928405Y-63294676D01*
X198223364Y-63491761D01*
X198233296Y-63499127D01*
X198507523Y-63724180D01*
X198516684Y-63732484D01*
X198767516Y-63983316D01*
X198775820Y-63992477D01*
X199000873Y-64266704D01*
X199008239Y-64276636D01*
X199205324Y-64571595D01*
X199211681Y-64582201D01*
X199378905Y-64895056D01*
X199384192Y-64906234D01*
X199519949Y-65233982D01*
X199524114Y-65245624D01*
X199627089Y-65585083D01*
X199630094Y-65597078D01*
X199699302Y-65945013D01*
X199701116Y-65957244D01*
X199736039Y-66311816D01*
X199736608Y-66321069D01*
X199741000Y-66500000D01*
X199742055Y-66505306D01*
X199742056Y-66505311D01*
X199743579Y-66512967D01*
X199746000Y-66537547D01*
X199746000Y-133462453D01*
X199743579Y-133487033D01*
X199741000Y-133500000D01*
X199740867Y-133505409D01*
X199740867Y-133505411D01*
X199736608Y-133678926D01*
X199736039Y-133688178D01*
X199715282Y-133898926D01*
X199701116Y-134042756D01*
X199699302Y-134054987D01*
X199649718Y-134304267D01*
X199630094Y-134402922D01*
X199627090Y-134414912D01*
X199611724Y-134465567D01*
X199524114Y-134754376D01*
X199519949Y-134766018D01*
X199384192Y-135093766D01*
X199378905Y-135104944D01*
X199211681Y-135417799D01*
X199205325Y-135428403D01*
X199157337Y-135500222D01*
X199008239Y-135723364D01*
X199000873Y-135733296D01*
X198775820Y-136007523D01*
X198767516Y-136016684D01*
X198516684Y-136267516D01*
X198507523Y-136275820D01*
X198233296Y-136500873D01*
X198223364Y-136508239D01*
X197928405Y-136705324D01*
X197917801Y-136711680D01*
X197841361Y-136752538D01*
X197604944Y-136878905D01*
X197593766Y-136884192D01*
X197266018Y-137019949D01*
X197254376Y-137024114D01*
X197020048Y-137095197D01*
X196914912Y-137127090D01*
X196902926Y-137130093D01*
X196565030Y-137197304D01*
X196554987Y-137199302D01*
X196542756Y-137201116D01*
X196188178Y-137236039D01*
X196178931Y-137236608D01*
X196086466Y-137238877D01*
X196005411Y-137240867D01*
X196005409Y-137240867D01*
X196000000Y-137241000D01*
X195994694Y-137242055D01*
X195994689Y-137242056D01*
X195987033Y-137243579D01*
X195962453Y-137246000D01*
X104037547Y-137246000D01*
X104012967Y-137243579D01*
X104005311Y-137242056D01*
X104005306Y-137242055D01*
X104000000Y-137241000D01*
X103994591Y-137240867D01*
X103994589Y-137240867D01*
X103913534Y-137238877D01*
X103821069Y-137236608D01*
X103811822Y-137236039D01*
X103457244Y-137201116D01*
X103445013Y-137199302D01*
X103434970Y-137197304D01*
X103097074Y-137130093D01*
X103085088Y-137127090D01*
X102979952Y-137095197D01*
X102745624Y-137024114D01*
X102733982Y-137019949D01*
X102406234Y-136884192D01*
X102395056Y-136878905D01*
X102158639Y-136752538D01*
X102082199Y-136711680D01*
X102071595Y-136705324D01*
X101776636Y-136508239D01*
X101766704Y-136500873D01*
X101492477Y-136275820D01*
X101483316Y-136267516D01*
X101232484Y-136016684D01*
X101224180Y-136007523D01*
X100999127Y-135733296D01*
X100991761Y-135723364D01*
X100842663Y-135500222D01*
X100794675Y-135428403D01*
X100788319Y-135417799D01*
X100621095Y-135104944D01*
X100615808Y-135093766D01*
X100480051Y-134766018D01*
X100475886Y-134754376D01*
X100388276Y-134465567D01*
X100372910Y-134414912D01*
X100369906Y-134402922D01*
X100350283Y-134304267D01*
X100300698Y-134054987D01*
X100298884Y-134042756D01*
X100284718Y-133898926D01*
X100263961Y-133688178D01*
X100263392Y-133678926D01*
X100259133Y-133505411D01*
X100259133Y-133505409D01*
X100259000Y-133500000D01*
X100256421Y-133487033D01*
X100254000Y-133462453D01*
X100254000Y-72570124D01*
X100944912Y-72570124D01*
X100984218Y-72716815D01*
X100988588Y-72724205D01*
X100990155Y-72727932D01*
X101000000Y-72776758D01*
X101000000Y-130500000D01*
X107000000Y-136500000D01*
X127727803Y-136500000D01*
X127787341Y-136514954D01*
X127804974Y-136524409D01*
X127813356Y-136526283D01*
X127813357Y-136526283D01*
X127944797Y-136555664D01*
X127944799Y-136555664D01*
X127953182Y-136557538D01*
X128048885Y-136552522D01*
X128096257Y-136550040D01*
X128096258Y-136550040D01*
X128104840Y-136549590D01*
X128232638Y-136506581D01*
X128272827Y-136500000D01*
X128727803Y-136500000D01*
X128787341Y-136514954D01*
X128804974Y-136524409D01*
X128813356Y-136526283D01*
X128813357Y-136526283D01*
X128944797Y-136555664D01*
X128944799Y-136555664D01*
X128953182Y-136557538D01*
X129048885Y-136552522D01*
X129096257Y-136550040D01*
X129096258Y-136550040D01*
X129104840Y-136549590D01*
X129232638Y-136506581D01*
X129272827Y-136500000D01*
X129727803Y-136500000D01*
X129787341Y-136514954D01*
X129804974Y-136524409D01*
X129813356Y-136526283D01*
X129813357Y-136526283D01*
X129944797Y-136555664D01*
X129944799Y-136555664D01*
X129953182Y-136557538D01*
X130048885Y-136552522D01*
X130096257Y-136550040D01*
X130096258Y-136550040D01*
X130104840Y-136549590D01*
X130232638Y-136506581D01*
X130272827Y-136500000D01*
X165727803Y-136500000D01*
X165787341Y-136514954D01*
X165804974Y-136524409D01*
X165813356Y-136526283D01*
X165813357Y-136526283D01*
X165944797Y-136555664D01*
X165944799Y-136555664D01*
X165953182Y-136557538D01*
X166048885Y-136552522D01*
X166096257Y-136550040D01*
X166096258Y-136550040D01*
X166104840Y-136549590D01*
X166232638Y-136506581D01*
X166272827Y-136500000D01*
X166727803Y-136500000D01*
X166787341Y-136514954D01*
X166804974Y-136524409D01*
X166813356Y-136526283D01*
X166813357Y-136526283D01*
X166944797Y-136555664D01*
X166944799Y-136555664D01*
X166953182Y-136557538D01*
X167048885Y-136552522D01*
X167096257Y-136550040D01*
X167096258Y-136550040D01*
X167104840Y-136549590D01*
X167232638Y-136506581D01*
X167272827Y-136500000D01*
X167727803Y-136500000D01*
X167787341Y-136514954D01*
X167804974Y-136524409D01*
X167813356Y-136526283D01*
X167813357Y-136526283D01*
X167944797Y-136555664D01*
X167944799Y-136555664D01*
X167953182Y-136557538D01*
X168048885Y-136552522D01*
X168096257Y-136550040D01*
X168096258Y-136550040D01*
X168104840Y-136549590D01*
X168232638Y-136506581D01*
X168272827Y-136500000D01*
X188203391Y-136500000D01*
X188271512Y-136520002D01*
X188296462Y-136542597D01*
X188296524Y-136542532D01*
X188302725Y-136548479D01*
X188302727Y-136548481D01*
X188312172Y-136557538D01*
X188406134Y-136647645D01*
X188539974Y-136719409D01*
X188548356Y-136721283D01*
X188548357Y-136721283D01*
X188679797Y-136750664D01*
X188679799Y-136750664D01*
X188688182Y-136752538D01*
X188783885Y-136747522D01*
X188831257Y-136745040D01*
X188831258Y-136745040D01*
X188839840Y-136744590D01*
X188983773Y-136696151D01*
X188990878Y-136691322D01*
X188990881Y-136691321D01*
X189102275Y-136615618D01*
X189102276Y-136615617D01*
X189109379Y-136610790D01*
X189165252Y-136544672D01*
X189224497Y-136505553D01*
X189261490Y-136500000D01*
X190743391Y-136500000D01*
X190811512Y-136520002D01*
X190836462Y-136542597D01*
X190836524Y-136542532D01*
X190842725Y-136548479D01*
X190842727Y-136548481D01*
X190852172Y-136557538D01*
X190946134Y-136647645D01*
X191079974Y-136719409D01*
X191088356Y-136721283D01*
X191088357Y-136721283D01*
X191219797Y-136750664D01*
X191219799Y-136750664D01*
X191228182Y-136752538D01*
X191323885Y-136747522D01*
X191371257Y-136745040D01*
X191371258Y-136745040D01*
X191379840Y-136744590D01*
X191523773Y-136696151D01*
X191530878Y-136691322D01*
X191530881Y-136691321D01*
X191642275Y-136615618D01*
X191642276Y-136615617D01*
X191649379Y-136610790D01*
X191705252Y-136544672D01*
X191764497Y-136505553D01*
X191801490Y-136500000D01*
X193000000Y-136500000D01*
X199000000Y-130500000D01*
X199000000Y-69500000D01*
X193000000Y-63500000D01*
X107000000Y-63500000D01*
X101000000Y-69500000D01*
X101000000Y-72223519D01*
X100989985Y-72270635D01*
X100988871Y-72272431D01*
X100946502Y-72418267D01*
X100944912Y-72570124D01*
X100254000Y-72570124D01*
X100254000Y-66537547D01*
X100256421Y-66512967D01*
X100257944Y-66505311D01*
X100257945Y-66505306D01*
X100259000Y-66500000D01*
X100263392Y-66321069D01*
X100263961Y-66311816D01*
X100298884Y-65957244D01*
X100300698Y-65945013D01*
X100369906Y-65597078D01*
X100372911Y-65585083D01*
X100475886Y-65245624D01*
X100480051Y-65233982D01*
X100615808Y-64906234D01*
X100621095Y-64895056D01*
X100788319Y-64582201D01*
X100794676Y-64571595D01*
X100991761Y-64276636D01*
X100999127Y-64266704D01*
X101224180Y-63992477D01*
X101232484Y-63983316D01*
X101483316Y-63732484D01*
X101492477Y-63724180D01*
X101766704Y-63499127D01*
X101776636Y-63491761D01*
X102071595Y-63294676D01*
X102082201Y-63288319D01*
X102395056Y-63121095D01*
X102406234Y-63115808D01*
X102733982Y-62980051D01*
X102745624Y-62975886D01*
X102979952Y-62904803D01*
X103085088Y-62872910D01*
X103097074Y-62869907D01*
X103445013Y-62800698D01*
X103457244Y-62798884D01*
X103472590Y-62797372D01*
X103811822Y-62763961D01*
X103821069Y-62763392D01*
X103913534Y-62761123D01*
X103994589Y-62759133D01*
X103994591Y-62759133D01*
X104000000Y-62759000D01*
X104005306Y-62757945D01*
X104005311Y-62757944D01*
X104012967Y-62756421D01*
X104037547Y-62754000D01*
X195962453Y-62754000D01*
X195987033Y-62756421D01*
G37*
%TD.AperFunction*%
%TD*%
M02*
