M48
; DRILL file {KiCad (5.1.9-0-10_14)} date Sunday, March 28, 2021 at 05:01:52 PM
; FORMAT={-:-/ absolute / inch / decimal}
; #@! TF.CreationDate,2021-03-28T17:01:52+02:00
; #@! TF.GenerationSoftware,Kicad,Pcbnew,(5.1.9-0-10_14)
FMAT,2
INCH
T1C0.0118
T2C0.0157
T3C0.0315
T4C0.0433
T5C0.0669
T6C0.1260
T7C0.0454
%
G90
G05
T1
X4.443Y-2.8245
X4.543Y-4.687
X4.568Y-2.8245
X4.7055Y-4.364
X4.768Y-4.412
X4.843Y-4.364
X4.893Y-4.962
X4.918Y-4.412
X4.9805Y-4.364
X5.368Y-3.737
X5.368Y-4.337
X5.3805Y-3.037
X5.443Y-2.962
X5.4555Y-3.737
X5.4555Y-4.337
X5.468Y-3.037
X5.5055Y-2.5495
X5.568Y-2.887
X5.568Y-3.1995
X5.668Y-3.8995
X5.7055Y-3.1995
X5.7305Y-3.2495
X5.7305Y-3.3245
X5.743Y-2.7495
X5.743Y-3.4495
X5.7805Y-2.937
X5.7805Y-3.387
X5.793Y-2.787
X5.793Y-3.587
X5.8305Y-2.787
X5.8305Y-3.587
X5.893Y-3.287
X6.043Y-4.962
X6.09Y-5.3026
X6.2055Y-5.3026
X6.2555Y-4.2245
X6.2555Y-4.337
X6.3055Y-4.162
X6.3555Y-5.1215
X6.3555Y-5.212
X6.368Y-4.162
X6.3805Y-3.1745
X6.3805Y-3.3995
X6.3805Y-4.437
X6.4055Y-5.087
X6.418Y-4.2245
X6.418Y-4.337
X6.543Y-3.2495
X6.543Y-4.087
X6.543Y-4.187
X6.568Y-4.2745
X6.568Y-4.312
X6.6055Y-4.2745
X6.6055Y-4.312
X6.6055Y-4.362
X6.9305Y-4.2745
X6.9305Y-4.312
X6.968Y-4.2745
X6.968Y-4.312
X7.0055Y-4.2745
X7.0055Y-4.312
T2
X6.018Y-4.237
T3
X5.1321Y-3.087
X5.1321Y-3.387
X5.1321Y-3.687
X5.1446Y-4.0995
X5.1471Y-4.397
X5.2305Y-3.087
X5.2305Y-3.387
X5.2305Y-3.687
X5.243Y-4.0995
X5.2455Y-4.397
T4
X4.6799Y-4.8622
X4.7799Y-4.8622
X4.9799Y-4.8622
X5.0799Y-4.8622
X5.1799Y-4.8622
X5.2299Y-4.8071
X5.3299Y-4.8071
X5.8299Y-4.8071
X5.9299Y-4.8071
X6.0299Y-4.8071
X6.1799Y-4.8622
X6.2799Y-4.8622
X6.3799Y-4.8622
X6.4799Y-4.8622
X6.5799Y-4.8622
T5
X4.6457Y-2.9921
X4.6457Y-3.148
X4.6457Y-3.3039
X4.6457Y-3.4598
X4.6457Y-3.6157
X4.6457Y-3.7717
X4.6457Y-3.9276
X4.6457Y-4.0835
X4.8819Y-5.1969
X4.8866Y-2.6772
X5.0378Y-5.1969
X5.0425Y-2.6772
X5.1937Y-5.1969
X5.1984Y-2.6772
X5.3496Y-5.1969
X5.3543Y-2.6772
X5.5055Y-5.1969
X5.6614Y-5.1969
X6.811Y-2.8937
X6.811Y-3.4055
X6.811Y-3.9173
X6.811Y-4.4291
X6.811Y-4.9409
X6.9669Y-2.8937
X6.9669Y-3.4055
X6.9669Y-3.9173
X6.9669Y-4.4291
X6.9669Y-4.9409
X7.1228Y-2.8937
X7.1228Y-3.4055
X7.1228Y-3.9173
X7.1228Y-4.4291
X7.1228Y-4.9409
X7.2787Y-2.8937
X7.2787Y-3.4055
X7.2787Y-3.9173
X7.2787Y-4.4291
X7.2787Y-4.9409
T6
X4.5669Y-2.5945
X4.5669Y-5.2795
X7.2441Y-2.5945
X7.2441Y-5.2795
T7
X4.7441Y-3.5433
X7.2441Y-2.7756
X7.2441Y-5.0995
T0
M30
