%TF.GenerationSoftware,KiCad,Pcbnew,(5.1.9-0-10_14)*%
%TF.CreationDate,2021-03-28T17:01:51+02:00*%
%TF.ProjectId,Power-Supply,506f7765-722d-4537-9570-706c792e6b69,rev?*%
%TF.SameCoordinates,Original*%
%TF.FileFunction,Legend,Top*%
%TF.FilePolarity,Positive*%
%FSLAX46Y46*%
G04 Gerber Fmt 4.6, Leading zero omitted, Abs format (unit mm)*
G04 Created by KiCad (PCBNEW (5.1.9-0-10_14)) date 2021-03-28 17:01:51*
%MOMM*%
%LPD*%
G01*
G04 APERTURE LIST*
%ADD10C,0.150000*%
%ADD11C,0.120000*%
G04 APERTURE END LIST*
D10*
X139649523Y-63257380D02*
X139173333Y-63257380D01*
X139125714Y-63733571D01*
X139173333Y-63685952D01*
X139268571Y-63638333D01*
X139506666Y-63638333D01*
X139601904Y-63685952D01*
X139649523Y-63733571D01*
X139697142Y-63828809D01*
X139697142Y-64066904D01*
X139649523Y-64162142D01*
X139601904Y-64209761D01*
X139506666Y-64257380D01*
X139268571Y-64257380D01*
X139173333Y-64209761D01*
X139125714Y-64162142D01*
X139982857Y-63257380D02*
X140316190Y-64257380D01*
X140649523Y-63257380D01*
X165065595Y-114041428D02*
X165827500Y-114041428D01*
X166827500Y-114422380D02*
X166256071Y-114422380D01*
X166541785Y-114422380D02*
X166541785Y-113422380D01*
X166446547Y-113565238D01*
X166351309Y-113660476D01*
X166256071Y-113708095D01*
X167684642Y-113755714D02*
X167684642Y-114422380D01*
X167446547Y-113374761D02*
X167208452Y-114089047D01*
X167827500Y-114089047D01*
X168065595Y-113422380D02*
X168398928Y-114422380D01*
X168732261Y-113422380D01*
X165573452Y-79179880D02*
X165002023Y-79179880D01*
X165287738Y-79179880D02*
X165287738Y-78179880D01*
X165192500Y-78322738D01*
X165097261Y-78417976D01*
X165002023Y-78465595D01*
X166430595Y-78513214D02*
X166430595Y-79179880D01*
X166192500Y-78132261D02*
X165954404Y-78846547D01*
X166573452Y-78846547D01*
X166811547Y-78179880D02*
X167144880Y-79179880D01*
X167478214Y-78179880D01*
X161223809Y-127709880D02*
X161842857Y-127709880D01*
X161509523Y-128090833D01*
X161652380Y-128090833D01*
X161747619Y-128138452D01*
X161795238Y-128186071D01*
X161842857Y-128281309D01*
X161842857Y-128519404D01*
X161795238Y-128614642D01*
X161747619Y-128662261D01*
X161652380Y-128709880D01*
X161366666Y-128709880D01*
X161271428Y-128662261D01*
X161223809Y-128614642D01*
X162271428Y-128614642D02*
X162319047Y-128662261D01*
X162271428Y-128709880D01*
X162223809Y-128662261D01*
X162271428Y-128614642D01*
X162271428Y-128709880D01*
X162652380Y-127709880D02*
X163271428Y-127709880D01*
X162938095Y-128090833D01*
X163080952Y-128090833D01*
X163176190Y-128138452D01*
X163223809Y-128186071D01*
X163271428Y-128281309D01*
X163271428Y-128519404D01*
X163223809Y-128614642D01*
X163176190Y-128662261D01*
X163080952Y-128709880D01*
X162795238Y-128709880D01*
X162700000Y-128662261D01*
X162652380Y-128614642D01*
X163557142Y-127709880D02*
X163890476Y-128709880D01*
X164223809Y-127709880D01*
X113702023Y-117549880D02*
X114035357Y-118549880D01*
X114368690Y-117549880D01*
X115178214Y-118549880D02*
X114702023Y-118549880D01*
X114702023Y-117549880D01*
X115511547Y-118026071D02*
X115844880Y-118026071D01*
X115987738Y-118549880D02*
X115511547Y-118549880D01*
X115511547Y-117549880D01*
X115987738Y-117549880D01*
X116416309Y-118549880D02*
X116416309Y-117549880D01*
X116654404Y-117549880D01*
X116797261Y-117597500D01*
X116892500Y-117692738D01*
X116940119Y-117787976D01*
X116987738Y-117978452D01*
X116987738Y-118121309D01*
X116940119Y-118311785D01*
X116892500Y-118407023D01*
X116797261Y-118502261D01*
X116654404Y-118549880D01*
X116416309Y-118549880D01*
D11*
X129970000Y-128190000D02*
X129970000Y-126035000D01*
X133950000Y-128190000D02*
X133950000Y-126035000D01*
X121940000Y-126035000D02*
X145872500Y-126035000D01*
X121940000Y-129890000D02*
X121940000Y-126035000D01*
X145860000Y-129890000D02*
X145872500Y-126035000D01*
D10*
X130360000Y-127044642D02*
X130969523Y-127044642D01*
X130664761Y-127349404D02*
X130664761Y-126739880D01*
X131274285Y-126549404D02*
X131769523Y-126549404D01*
X131502857Y-126854166D01*
X131617142Y-126854166D01*
X131693333Y-126892261D01*
X131731428Y-126930357D01*
X131769523Y-127006547D01*
X131769523Y-127197023D01*
X131731428Y-127273214D01*
X131693333Y-127311309D01*
X131617142Y-127349404D01*
X131388571Y-127349404D01*
X131312380Y-127311309D01*
X131274285Y-127273214D01*
X132112380Y-127273214D02*
X132150476Y-127311309D01*
X132112380Y-127349404D01*
X132074285Y-127311309D01*
X132112380Y-127273214D01*
X132112380Y-127349404D01*
X132417142Y-126549404D02*
X132912380Y-126549404D01*
X132645714Y-126854166D01*
X132760000Y-126854166D01*
X132836190Y-126892261D01*
X132874285Y-126930357D01*
X132912380Y-127006547D01*
X132912380Y-127197023D01*
X132874285Y-127273214D01*
X132836190Y-127311309D01*
X132760000Y-127349404D01*
X132531428Y-127349404D01*
X132455238Y-127311309D01*
X132417142Y-127273214D01*
X133140952Y-126549404D02*
X133407619Y-127349404D01*
X133674285Y-126549404D01*
X139040476Y-126587500D02*
X138964285Y-126549404D01*
X138850000Y-126549404D01*
X138735714Y-126587500D01*
X138659523Y-126663690D01*
X138621428Y-126739880D01*
X138583333Y-126892261D01*
X138583333Y-127006547D01*
X138621428Y-127158928D01*
X138659523Y-127235119D01*
X138735714Y-127311309D01*
X138850000Y-127349404D01*
X138926190Y-127349404D01*
X139040476Y-127311309D01*
X139078571Y-127273214D01*
X139078571Y-127006547D01*
X138926190Y-127006547D01*
X139421428Y-127349404D02*
X139421428Y-126549404D01*
X139878571Y-127349404D01*
X139878571Y-126549404D01*
X140259523Y-127349404D02*
X140259523Y-126549404D01*
X140450000Y-126549404D01*
X140564285Y-126587500D01*
X140640476Y-126663690D01*
X140678571Y-126739880D01*
X140716666Y-126892261D01*
X140716666Y-127006547D01*
X140678571Y-127158928D01*
X140640476Y-127235119D01*
X140564285Y-127311309D01*
X140450000Y-127349404D01*
X140259523Y-127349404D01*
X124390000Y-127044642D02*
X124999523Y-127044642D01*
X124694761Y-127349404D02*
X124694761Y-126739880D01*
X125304285Y-126549404D02*
X125799523Y-126549404D01*
X125532857Y-126854166D01*
X125647142Y-126854166D01*
X125723333Y-126892261D01*
X125761428Y-126930357D01*
X125799523Y-127006547D01*
X125799523Y-127197023D01*
X125761428Y-127273214D01*
X125723333Y-127311309D01*
X125647142Y-127349404D01*
X125418571Y-127349404D01*
X125342380Y-127311309D01*
X125304285Y-127273214D01*
X126142380Y-127273214D02*
X126180476Y-127311309D01*
X126142380Y-127349404D01*
X126104285Y-127311309D01*
X126142380Y-127273214D01*
X126142380Y-127349404D01*
X126447142Y-126549404D02*
X126942380Y-126549404D01*
X126675714Y-126854166D01*
X126790000Y-126854166D01*
X126866190Y-126892261D01*
X126904285Y-126930357D01*
X126942380Y-127006547D01*
X126942380Y-127197023D01*
X126904285Y-127273214D01*
X126866190Y-127311309D01*
X126790000Y-127349404D01*
X126561428Y-127349404D01*
X126485238Y-127311309D01*
X126447142Y-127273214D01*
X127170952Y-126549404D02*
X127437619Y-127349404D01*
X127704285Y-126549404D01*
D11*
X130030000Y-71810000D02*
X130030000Y-73647500D01*
X138060000Y-73647500D02*
X138060000Y-70110000D01*
X122060000Y-73647500D02*
X138060000Y-73647500D01*
X122060000Y-70110000D02*
X122060000Y-73647500D01*
D10*
X132981428Y-72752142D02*
X133590952Y-72752142D01*
X133286190Y-73056904D02*
X133286190Y-72447380D01*
X134352857Y-72256904D02*
X133971904Y-72256904D01*
X133933809Y-72637857D01*
X133971904Y-72599761D01*
X134048095Y-72561666D01*
X134238571Y-72561666D01*
X134314761Y-72599761D01*
X134352857Y-72637857D01*
X134390952Y-72714047D01*
X134390952Y-72904523D01*
X134352857Y-72980714D01*
X134314761Y-73018809D01*
X134238571Y-73056904D01*
X134048095Y-73056904D01*
X133971904Y-73018809D01*
X133933809Y-72980714D01*
X134619523Y-72256904D02*
X134886190Y-73056904D01*
X135152857Y-72256904D01*
X125440476Y-72295000D02*
X125364285Y-72256904D01*
X125250000Y-72256904D01*
X125135714Y-72295000D01*
X125059523Y-72371190D01*
X125021428Y-72447380D01*
X124983333Y-72599761D01*
X124983333Y-72714047D01*
X125021428Y-72866428D01*
X125059523Y-72942619D01*
X125135714Y-73018809D01*
X125250000Y-73056904D01*
X125326190Y-73056904D01*
X125440476Y-73018809D01*
X125478571Y-72980714D01*
X125478571Y-72714047D01*
X125326190Y-72714047D01*
X125821428Y-73056904D02*
X125821428Y-72256904D01*
X126278571Y-73056904D01*
X126278571Y-72256904D01*
X126659523Y-73056904D02*
X126659523Y-72256904D01*
X126850000Y-72256904D01*
X126964285Y-72295000D01*
X127040476Y-72371190D01*
X127078571Y-72447380D01*
X127116666Y-72599761D01*
X127116666Y-72714047D01*
X127078571Y-72866428D01*
X127040476Y-72942619D01*
X126964285Y-73018809D01*
X126850000Y-73056904D01*
X126659523Y-73056904D01*
D11*
X171010000Y-65710000D02*
X178970000Y-65710000D01*
X186930000Y-71500000D02*
X186930000Y-130400000D01*
X182950000Y-69700000D02*
X182950000Y-130400000D01*
X178970000Y-65710000D02*
X178970000Y-130400000D01*
X174990000Y-65710000D02*
X174990000Y-130400000D01*
X171010000Y-65710000D02*
X171010000Y-130400000D01*
X127140000Y-106985000D02*
X127140000Y-74020000D01*
X120110000Y-106985000D02*
X120110000Y-105715000D01*
X120110000Y-106985000D02*
X127140000Y-106985000D01*
X121850000Y-101740000D02*
X127140000Y-101740000D01*
X121850000Y-93820000D02*
X127140000Y-93820000D01*
X120155000Y-74020000D02*
X127140000Y-74020000D01*
X121850000Y-81940000D02*
X127140000Y-81940000D01*
D10*
X114527380Y-94459047D02*
X115241666Y-94459047D01*
X115384523Y-94506666D01*
X115479761Y-94601904D01*
X115527380Y-94744761D01*
X115527380Y-94840000D01*
X115527380Y-93506666D02*
X115527380Y-93982857D01*
X114527380Y-93982857D01*
X115432142Y-92601904D02*
X115479761Y-92649523D01*
X115527380Y-92792380D01*
X115527380Y-92887619D01*
X115479761Y-93030476D01*
X115384523Y-93125714D01*
X115289285Y-93173333D01*
X115098809Y-93220952D01*
X114955952Y-93220952D01*
X114765476Y-93173333D01*
X114670238Y-93125714D01*
X114575000Y-93030476D01*
X114527380Y-92887619D01*
X114527380Y-92792380D01*
X114575000Y-92649523D01*
X114622619Y-92601904D01*
X114527380Y-91887619D02*
X115241666Y-91887619D01*
X115384523Y-91935238D01*
X115479761Y-92030476D01*
X115527380Y-92173333D01*
X115527380Y-92268571D01*
X115527380Y-90935238D02*
X115527380Y-91411428D01*
X114527380Y-91411428D01*
X115432142Y-90030476D02*
X115479761Y-90078095D01*
X115527380Y-90220952D01*
X115527380Y-90316190D01*
X115479761Y-90459047D01*
X115384523Y-90554285D01*
X115289285Y-90601904D01*
X115098809Y-90649523D01*
X114955952Y-90649523D01*
X114765476Y-90601904D01*
X114670238Y-90554285D01*
X114575000Y-90459047D01*
X114527380Y-90316190D01*
X114527380Y-90220952D01*
X114575000Y-90078095D01*
X114622619Y-90030476D01*
X114527380Y-89316190D02*
X115241666Y-89316190D01*
X115384523Y-89363809D01*
X115479761Y-89459047D01*
X115527380Y-89601904D01*
X115527380Y-89697142D01*
X115527380Y-88363809D02*
X115527380Y-88840000D01*
X114527380Y-88840000D01*
X115432142Y-87459047D02*
X115479761Y-87506666D01*
X115527380Y-87649523D01*
X115527380Y-87744761D01*
X115479761Y-87887619D01*
X115384523Y-87982857D01*
X115289285Y-88030476D01*
X115098809Y-88078095D01*
X114955952Y-88078095D01*
X114765476Y-88030476D01*
X114670238Y-87982857D01*
X114575000Y-87887619D01*
X114527380Y-87744761D01*
X114527380Y-87649523D01*
X114575000Y-87506666D01*
X114622619Y-87459047D01*
X114527380Y-86744761D02*
X115241666Y-86744761D01*
X115384523Y-86792380D01*
X115479761Y-86887619D01*
X115527380Y-87030476D01*
X115527380Y-87125714D01*
X115527380Y-85792380D02*
X115527380Y-86268571D01*
X114527380Y-86268571D01*
X115432142Y-84887619D02*
X115479761Y-84935238D01*
X115527380Y-85078095D01*
X115527380Y-85173333D01*
X115479761Y-85316190D01*
X115384523Y-85411428D01*
X115289285Y-85459047D01*
X115098809Y-85506666D01*
X114955952Y-85506666D01*
X114765476Y-85459047D01*
X114670238Y-85411428D01*
X114575000Y-85316190D01*
X114527380Y-85173333D01*
X114527380Y-85078095D01*
X114575000Y-84935238D01*
X114622619Y-84887619D01*
X171590476Y-80372142D02*
X172200000Y-80372142D01*
X171895238Y-80676904D02*
X171895238Y-80067380D01*
X173000000Y-80676904D02*
X172542857Y-80676904D01*
X172771428Y-80676904D02*
X172771428Y-79876904D01*
X172695238Y-79991190D01*
X172619047Y-80067380D01*
X172542857Y-80105476D01*
X173685714Y-80143571D02*
X173685714Y-80676904D01*
X173495238Y-79838809D02*
X173304761Y-80410238D01*
X173800000Y-80410238D01*
X173990476Y-79876904D02*
X174257142Y-80676904D01*
X174523809Y-79876904D01*
X175550476Y-80372142D02*
X176160000Y-80372142D01*
X176960000Y-80676904D02*
X176502857Y-80676904D01*
X176731428Y-80676904D02*
X176731428Y-79876904D01*
X176655238Y-79991190D01*
X176579047Y-80067380D01*
X176502857Y-80105476D01*
X177645714Y-80143571D02*
X177645714Y-80676904D01*
X177455238Y-79838809D02*
X177264761Y-80410238D01*
X177760000Y-80410238D01*
X177950476Y-79876904D02*
X178217142Y-80676904D01*
X178483809Y-79876904D01*
X184727619Y-79876904D02*
X184346666Y-79876904D01*
X184308571Y-80257857D01*
X184346666Y-80219761D01*
X184422857Y-80181666D01*
X184613333Y-80181666D01*
X184689523Y-80219761D01*
X184727619Y-80257857D01*
X184765714Y-80334047D01*
X184765714Y-80524523D01*
X184727619Y-80600714D01*
X184689523Y-80638809D01*
X184613333Y-80676904D01*
X184422857Y-80676904D01*
X184346666Y-80638809D01*
X184308571Y-80600714D01*
X184994285Y-79876904D02*
X185260952Y-80676904D01*
X185527619Y-79876904D01*
X180310476Y-79915000D02*
X180234285Y-79876904D01*
X180120000Y-79876904D01*
X180005714Y-79915000D01*
X179929523Y-79991190D01*
X179891428Y-80067380D01*
X179853333Y-80219761D01*
X179853333Y-80334047D01*
X179891428Y-80486428D01*
X179929523Y-80562619D01*
X180005714Y-80638809D01*
X180120000Y-80676904D01*
X180196190Y-80676904D01*
X180310476Y-80638809D01*
X180348571Y-80600714D01*
X180348571Y-80334047D01*
X180196190Y-80334047D01*
X180691428Y-80676904D02*
X180691428Y-79876904D01*
X181148571Y-80676904D01*
X181148571Y-79876904D01*
X181529523Y-80676904D02*
X181529523Y-79876904D01*
X181720000Y-79876904D01*
X181834285Y-79915000D01*
X181910476Y-79991190D01*
X181948571Y-80067380D01*
X181986666Y-80219761D01*
X181986666Y-80334047D01*
X181948571Y-80486428D01*
X181910476Y-80562619D01*
X181834285Y-80638809D01*
X181720000Y-80676904D01*
X181529523Y-80676904D01*
X123890476Y-89757500D02*
X123814285Y-89719404D01*
X123700000Y-89719404D01*
X123585714Y-89757500D01*
X123509523Y-89833690D01*
X123471428Y-89909880D01*
X123433333Y-90062261D01*
X123433333Y-90176547D01*
X123471428Y-90328928D01*
X123509523Y-90405119D01*
X123585714Y-90481309D01*
X123700000Y-90519404D01*
X123776190Y-90519404D01*
X123890476Y-90481309D01*
X123928571Y-90443214D01*
X123928571Y-90176547D01*
X123776190Y-90176547D01*
X124271428Y-90519404D02*
X124271428Y-89719404D01*
X124728571Y-90519404D01*
X124728571Y-89719404D01*
X125109523Y-90519404D02*
X125109523Y-89719404D01*
X125300000Y-89719404D01*
X125414285Y-89757500D01*
X125490476Y-89833690D01*
X125528571Y-89909880D01*
X125566666Y-90062261D01*
X125566666Y-90176547D01*
X125528571Y-90328928D01*
X125490476Y-90405119D01*
X125414285Y-90481309D01*
X125300000Y-90519404D01*
X125109523Y-90519404D01*
X123471428Y-78467142D02*
X124080952Y-78467142D01*
X123776190Y-78771904D02*
X123776190Y-78162380D01*
X124842857Y-77971904D02*
X124461904Y-77971904D01*
X124423809Y-78352857D01*
X124461904Y-78314761D01*
X124538095Y-78276666D01*
X124728571Y-78276666D01*
X124804761Y-78314761D01*
X124842857Y-78352857D01*
X124880952Y-78429047D01*
X124880952Y-78619523D01*
X124842857Y-78695714D01*
X124804761Y-78733809D01*
X124728571Y-78771904D01*
X124538095Y-78771904D01*
X124461904Y-78733809D01*
X124423809Y-78695714D01*
X125109523Y-77971904D02*
X125376190Y-78771904D01*
X125642857Y-77971904D01*
X123090476Y-98152142D02*
X123700000Y-98152142D01*
X123395238Y-98456904D02*
X123395238Y-97847380D01*
X124500000Y-98456904D02*
X124042857Y-98456904D01*
X124271428Y-98456904D02*
X124271428Y-97656904D01*
X124195238Y-97771190D01*
X124119047Y-97847380D01*
X124042857Y-97885476D01*
X125223809Y-97656904D02*
X124842857Y-97656904D01*
X124804761Y-98037857D01*
X124842857Y-97999761D01*
X124919047Y-97961666D01*
X125109523Y-97961666D01*
X125185714Y-97999761D01*
X125223809Y-98037857D01*
X125261904Y-98114047D01*
X125261904Y-98304523D01*
X125223809Y-98380714D01*
X125185714Y-98418809D01*
X125109523Y-98456904D01*
X124919047Y-98456904D01*
X124842857Y-98418809D01*
X124804761Y-98380714D01*
X125490476Y-97656904D02*
X125757142Y-98456904D01*
X126023809Y-97656904D01*
X123090476Y-106089642D02*
X123700000Y-106089642D01*
X124500000Y-106394404D02*
X124042857Y-106394404D01*
X124271428Y-106394404D02*
X124271428Y-105594404D01*
X124195238Y-105708690D01*
X124119047Y-105784880D01*
X124042857Y-105822976D01*
X125223809Y-105594404D02*
X124842857Y-105594404D01*
X124804761Y-105975357D01*
X124842857Y-105937261D01*
X124919047Y-105899166D01*
X125109523Y-105899166D01*
X125185714Y-105937261D01*
X125223809Y-105975357D01*
X125261904Y-106051547D01*
X125261904Y-106242023D01*
X125223809Y-106318214D01*
X125185714Y-106356309D01*
X125109523Y-106394404D01*
X124919047Y-106394404D01*
X124842857Y-106356309D01*
X124804761Y-106318214D01*
X125490476Y-105594404D02*
X125757142Y-106394404D01*
X126023809Y-105594404D01*
D11*
%TO.C,R2*%
X152142258Y-84012500D02*
X151667742Y-84012500D01*
X152142258Y-82967500D02*
X151667742Y-82967500D01*
%TO.C,C13*%
X138493748Y-78050000D02*
X139916252Y-78050000D01*
X138493748Y-76230000D02*
X139916252Y-76230000D01*
%TO.C,R4*%
X146905242Y-82015000D02*
X147379758Y-82015000D01*
X146905242Y-83060000D02*
X147379758Y-83060000D01*
%TO.C,R10*%
X160240242Y-112177500D02*
X160714758Y-112177500D01*
X160240242Y-113222500D02*
X160714758Y-113222500D01*
%TO.C,C6*%
X165163748Y-107260000D02*
X166586252Y-107260000D01*
X165163748Y-105440000D02*
X166586252Y-105440000D01*
%TO.C,R24*%
X139317500Y-69757258D02*
X139317500Y-69282742D01*
X140362500Y-69757258D02*
X140362500Y-69282742D01*
%TO.C,R14*%
X162177500Y-134209758D02*
X162177500Y-133735242D01*
X163222500Y-134209758D02*
X163222500Y-133735242D01*
%TO.C,R13*%
X114870000Y-124049758D02*
X114870000Y-123575242D01*
X115915000Y-124049758D02*
X115915000Y-123575242D01*
%TO.C,R12*%
X165445000Y-111192742D02*
X165445000Y-111667258D01*
X164400000Y-111192742D02*
X164400000Y-111667258D01*
%TO.C,R11*%
X163765000Y-81187258D02*
X163765000Y-80712742D01*
X164810000Y-81187258D02*
X164810000Y-80712742D01*
%TO.C,D5*%
X140575000Y-67145000D02*
X140575000Y-64860000D01*
X140575000Y-64860000D02*
X139105000Y-64860000D01*
X139105000Y-64860000D02*
X139105000Y-67145000D01*
%TO.C,D4*%
X163435000Y-131597500D02*
X163435000Y-129312500D01*
X163435000Y-129312500D02*
X161965000Y-129312500D01*
X161965000Y-129312500D02*
X161965000Y-131597500D01*
%TO.C,D3*%
X116127500Y-121437500D02*
X116127500Y-119152500D01*
X116127500Y-119152500D02*
X114657500Y-119152500D01*
X114657500Y-119152500D02*
X114657500Y-121437500D01*
%TO.C,D2*%
X166092500Y-110630000D02*
X166092500Y-112915000D01*
X166092500Y-112915000D02*
X167562500Y-112915000D01*
X167562500Y-112915000D02*
X167562500Y-110630000D01*
%TO.C,D1*%
X165457500Y-80150000D02*
X165457500Y-82435000D01*
X165457500Y-82435000D02*
X166927500Y-82435000D01*
X166927500Y-82435000D02*
X166927500Y-80150000D01*
%TO.C,C7*%
X138176248Y-111070000D02*
X139598752Y-111070000D01*
X138176248Y-109250000D02*
X139598752Y-109250000D01*
%TO.C,C18*%
X134875000Y-86030000D02*
G75*
G03*
X134875000Y-86030000I-3270000J0D01*
G01*
X131605000Y-89260000D02*
X131605000Y-82800000D01*
X131565000Y-89260000D02*
X131565000Y-82800000D01*
X131525000Y-89260000D02*
X131525000Y-82800000D01*
X131485000Y-89258000D02*
X131485000Y-82802000D01*
X131445000Y-89257000D02*
X131445000Y-82803000D01*
X131405000Y-89254000D02*
X131405000Y-82806000D01*
X131365000Y-89252000D02*
X131365000Y-87070000D01*
X131365000Y-84990000D02*
X131365000Y-82808000D01*
X131325000Y-89248000D02*
X131325000Y-87070000D01*
X131325000Y-84990000D02*
X131325000Y-82812000D01*
X131285000Y-89245000D02*
X131285000Y-87070000D01*
X131285000Y-84990000D02*
X131285000Y-82815000D01*
X131245000Y-89241000D02*
X131245000Y-87070000D01*
X131245000Y-84990000D02*
X131245000Y-82819000D01*
X131205000Y-89236000D02*
X131205000Y-87070000D01*
X131205000Y-84990000D02*
X131205000Y-82824000D01*
X131165000Y-89231000D02*
X131165000Y-87070000D01*
X131165000Y-84990000D02*
X131165000Y-82829000D01*
X131125000Y-89225000D02*
X131125000Y-87070000D01*
X131125000Y-84990000D02*
X131125000Y-82835000D01*
X131085000Y-89219000D02*
X131085000Y-87070000D01*
X131085000Y-84990000D02*
X131085000Y-82841000D01*
X131045000Y-89212000D02*
X131045000Y-87070000D01*
X131045000Y-84990000D02*
X131045000Y-82848000D01*
X131005000Y-89205000D02*
X131005000Y-87070000D01*
X131005000Y-84990000D02*
X131005000Y-82855000D01*
X130965000Y-89197000D02*
X130965000Y-87070000D01*
X130965000Y-84990000D02*
X130965000Y-82863000D01*
X130925000Y-89189000D02*
X130925000Y-87070000D01*
X130925000Y-84990000D02*
X130925000Y-82871000D01*
X130884000Y-89180000D02*
X130884000Y-87070000D01*
X130884000Y-84990000D02*
X130884000Y-82880000D01*
X130844000Y-89171000D02*
X130844000Y-87070000D01*
X130844000Y-84990000D02*
X130844000Y-82889000D01*
X130804000Y-89161000D02*
X130804000Y-87070000D01*
X130804000Y-84990000D02*
X130804000Y-82899000D01*
X130764000Y-89151000D02*
X130764000Y-87070000D01*
X130764000Y-84990000D02*
X130764000Y-82909000D01*
X130724000Y-89140000D02*
X130724000Y-87070000D01*
X130724000Y-84990000D02*
X130724000Y-82920000D01*
X130684000Y-89128000D02*
X130684000Y-87070000D01*
X130684000Y-84990000D02*
X130684000Y-82932000D01*
X130644000Y-89116000D02*
X130644000Y-87070000D01*
X130644000Y-84990000D02*
X130644000Y-82944000D01*
X130604000Y-89104000D02*
X130604000Y-87070000D01*
X130604000Y-84990000D02*
X130604000Y-82956000D01*
X130564000Y-89091000D02*
X130564000Y-87070000D01*
X130564000Y-84990000D02*
X130564000Y-82969000D01*
X130524000Y-89077000D02*
X130524000Y-87070000D01*
X130524000Y-84990000D02*
X130524000Y-82983000D01*
X130484000Y-89063000D02*
X130484000Y-87070000D01*
X130484000Y-84990000D02*
X130484000Y-82997000D01*
X130444000Y-89048000D02*
X130444000Y-87070000D01*
X130444000Y-84990000D02*
X130444000Y-83012000D01*
X130404000Y-89032000D02*
X130404000Y-87070000D01*
X130404000Y-84990000D02*
X130404000Y-83028000D01*
X130364000Y-89016000D02*
X130364000Y-87070000D01*
X130364000Y-84990000D02*
X130364000Y-83044000D01*
X130324000Y-89000000D02*
X130324000Y-87070000D01*
X130324000Y-84990000D02*
X130324000Y-83060000D01*
X130284000Y-88982000D02*
X130284000Y-87070000D01*
X130284000Y-84990000D02*
X130284000Y-83078000D01*
X130244000Y-88964000D02*
X130244000Y-87070000D01*
X130244000Y-84990000D02*
X130244000Y-83096000D01*
X130204000Y-88946000D02*
X130204000Y-87070000D01*
X130204000Y-84990000D02*
X130204000Y-83114000D01*
X130164000Y-88926000D02*
X130164000Y-87070000D01*
X130164000Y-84990000D02*
X130164000Y-83134000D01*
X130124000Y-88906000D02*
X130124000Y-87070000D01*
X130124000Y-84990000D02*
X130124000Y-83154000D01*
X130084000Y-88886000D02*
X130084000Y-87070000D01*
X130084000Y-84990000D02*
X130084000Y-83174000D01*
X130044000Y-88864000D02*
X130044000Y-87070000D01*
X130044000Y-84990000D02*
X130044000Y-83196000D01*
X130004000Y-88842000D02*
X130004000Y-87070000D01*
X130004000Y-84990000D02*
X130004000Y-83218000D01*
X129964000Y-88820000D02*
X129964000Y-87070000D01*
X129964000Y-84990000D02*
X129964000Y-83240000D01*
X129924000Y-88796000D02*
X129924000Y-87070000D01*
X129924000Y-84990000D02*
X129924000Y-83264000D01*
X129884000Y-88772000D02*
X129884000Y-87070000D01*
X129884000Y-84990000D02*
X129884000Y-83288000D01*
X129844000Y-88746000D02*
X129844000Y-87070000D01*
X129844000Y-84990000D02*
X129844000Y-83314000D01*
X129804000Y-88720000D02*
X129804000Y-87070000D01*
X129804000Y-84990000D02*
X129804000Y-83340000D01*
X129764000Y-88694000D02*
X129764000Y-87070000D01*
X129764000Y-84990000D02*
X129764000Y-83366000D01*
X129724000Y-88666000D02*
X129724000Y-87070000D01*
X129724000Y-84990000D02*
X129724000Y-83394000D01*
X129684000Y-88637000D02*
X129684000Y-87070000D01*
X129684000Y-84990000D02*
X129684000Y-83423000D01*
X129644000Y-88608000D02*
X129644000Y-87070000D01*
X129644000Y-84990000D02*
X129644000Y-83452000D01*
X129604000Y-88578000D02*
X129604000Y-87070000D01*
X129604000Y-84990000D02*
X129604000Y-83482000D01*
X129564000Y-88546000D02*
X129564000Y-87070000D01*
X129564000Y-84990000D02*
X129564000Y-83514000D01*
X129524000Y-88514000D02*
X129524000Y-87070000D01*
X129524000Y-84990000D02*
X129524000Y-83546000D01*
X129484000Y-88480000D02*
X129484000Y-87070000D01*
X129484000Y-84990000D02*
X129484000Y-83580000D01*
X129444000Y-88446000D02*
X129444000Y-87070000D01*
X129444000Y-84990000D02*
X129444000Y-83614000D01*
X129404000Y-88410000D02*
X129404000Y-87070000D01*
X129404000Y-84990000D02*
X129404000Y-83650000D01*
X129364000Y-88373000D02*
X129364000Y-87070000D01*
X129364000Y-84990000D02*
X129364000Y-83687000D01*
X129324000Y-88335000D02*
X129324000Y-87070000D01*
X129324000Y-84990000D02*
X129324000Y-83725000D01*
X129284000Y-88295000D02*
X129284000Y-83765000D01*
X129244000Y-88254000D02*
X129244000Y-83806000D01*
X129204000Y-88212000D02*
X129204000Y-83848000D01*
X129164000Y-88167000D02*
X129164000Y-83893000D01*
X129124000Y-88122000D02*
X129124000Y-83938000D01*
X129084000Y-88074000D02*
X129084000Y-83986000D01*
X129044000Y-88025000D02*
X129044000Y-84035000D01*
X129004000Y-87974000D02*
X129004000Y-84086000D01*
X128964000Y-87920000D02*
X128964000Y-84140000D01*
X128924000Y-87864000D02*
X128924000Y-84196000D01*
X128884000Y-87806000D02*
X128884000Y-84254000D01*
X128844000Y-87744000D02*
X128844000Y-84316000D01*
X128804000Y-87680000D02*
X128804000Y-84380000D01*
X128764000Y-87611000D02*
X128764000Y-84449000D01*
X128724000Y-87539000D02*
X128724000Y-84521000D01*
X128684000Y-87462000D02*
X128684000Y-84598000D01*
X128644000Y-87380000D02*
X128644000Y-84680000D01*
X128604000Y-87292000D02*
X128604000Y-84768000D01*
X128564000Y-87195000D02*
X128564000Y-84865000D01*
X128524000Y-87089000D02*
X128524000Y-84971000D01*
X128484000Y-86970000D02*
X128484000Y-85090000D01*
X128444000Y-86832000D02*
X128444000Y-85228000D01*
X128404000Y-86663000D02*
X128404000Y-85397000D01*
X128364000Y-86432000D02*
X128364000Y-85628000D01*
X135105241Y-87869000D02*
X134475241Y-87869000D01*
X134790241Y-88184000D02*
X134790241Y-87554000D01*
%TO.C,C17*%
X135256000Y-111684000D02*
G75*
G03*
X135256000Y-111684000I-3270000J0D01*
G01*
X131986000Y-114914000D02*
X131986000Y-108454000D01*
X131946000Y-114914000D02*
X131946000Y-108454000D01*
X131906000Y-114914000D02*
X131906000Y-108454000D01*
X131866000Y-114912000D02*
X131866000Y-108456000D01*
X131826000Y-114911000D02*
X131826000Y-108457000D01*
X131786000Y-114908000D02*
X131786000Y-108460000D01*
X131746000Y-114906000D02*
X131746000Y-112724000D01*
X131746000Y-110644000D02*
X131746000Y-108462000D01*
X131706000Y-114902000D02*
X131706000Y-112724000D01*
X131706000Y-110644000D02*
X131706000Y-108466000D01*
X131666000Y-114899000D02*
X131666000Y-112724000D01*
X131666000Y-110644000D02*
X131666000Y-108469000D01*
X131626000Y-114895000D02*
X131626000Y-112724000D01*
X131626000Y-110644000D02*
X131626000Y-108473000D01*
X131586000Y-114890000D02*
X131586000Y-112724000D01*
X131586000Y-110644000D02*
X131586000Y-108478000D01*
X131546000Y-114885000D02*
X131546000Y-112724000D01*
X131546000Y-110644000D02*
X131546000Y-108483000D01*
X131506000Y-114879000D02*
X131506000Y-112724000D01*
X131506000Y-110644000D02*
X131506000Y-108489000D01*
X131466000Y-114873000D02*
X131466000Y-112724000D01*
X131466000Y-110644000D02*
X131466000Y-108495000D01*
X131426000Y-114866000D02*
X131426000Y-112724000D01*
X131426000Y-110644000D02*
X131426000Y-108502000D01*
X131386000Y-114859000D02*
X131386000Y-112724000D01*
X131386000Y-110644000D02*
X131386000Y-108509000D01*
X131346000Y-114851000D02*
X131346000Y-112724000D01*
X131346000Y-110644000D02*
X131346000Y-108517000D01*
X131306000Y-114843000D02*
X131306000Y-112724000D01*
X131306000Y-110644000D02*
X131306000Y-108525000D01*
X131265000Y-114834000D02*
X131265000Y-112724000D01*
X131265000Y-110644000D02*
X131265000Y-108534000D01*
X131225000Y-114825000D02*
X131225000Y-112724000D01*
X131225000Y-110644000D02*
X131225000Y-108543000D01*
X131185000Y-114815000D02*
X131185000Y-112724000D01*
X131185000Y-110644000D02*
X131185000Y-108553000D01*
X131145000Y-114805000D02*
X131145000Y-112724000D01*
X131145000Y-110644000D02*
X131145000Y-108563000D01*
X131105000Y-114794000D02*
X131105000Y-112724000D01*
X131105000Y-110644000D02*
X131105000Y-108574000D01*
X131065000Y-114782000D02*
X131065000Y-112724000D01*
X131065000Y-110644000D02*
X131065000Y-108586000D01*
X131025000Y-114770000D02*
X131025000Y-112724000D01*
X131025000Y-110644000D02*
X131025000Y-108598000D01*
X130985000Y-114758000D02*
X130985000Y-112724000D01*
X130985000Y-110644000D02*
X130985000Y-108610000D01*
X130945000Y-114745000D02*
X130945000Y-112724000D01*
X130945000Y-110644000D02*
X130945000Y-108623000D01*
X130905000Y-114731000D02*
X130905000Y-112724000D01*
X130905000Y-110644000D02*
X130905000Y-108637000D01*
X130865000Y-114717000D02*
X130865000Y-112724000D01*
X130865000Y-110644000D02*
X130865000Y-108651000D01*
X130825000Y-114702000D02*
X130825000Y-112724000D01*
X130825000Y-110644000D02*
X130825000Y-108666000D01*
X130785000Y-114686000D02*
X130785000Y-112724000D01*
X130785000Y-110644000D02*
X130785000Y-108682000D01*
X130745000Y-114670000D02*
X130745000Y-112724000D01*
X130745000Y-110644000D02*
X130745000Y-108698000D01*
X130705000Y-114654000D02*
X130705000Y-112724000D01*
X130705000Y-110644000D02*
X130705000Y-108714000D01*
X130665000Y-114636000D02*
X130665000Y-112724000D01*
X130665000Y-110644000D02*
X130665000Y-108732000D01*
X130625000Y-114618000D02*
X130625000Y-112724000D01*
X130625000Y-110644000D02*
X130625000Y-108750000D01*
X130585000Y-114600000D02*
X130585000Y-112724000D01*
X130585000Y-110644000D02*
X130585000Y-108768000D01*
X130545000Y-114580000D02*
X130545000Y-112724000D01*
X130545000Y-110644000D02*
X130545000Y-108788000D01*
X130505000Y-114560000D02*
X130505000Y-112724000D01*
X130505000Y-110644000D02*
X130505000Y-108808000D01*
X130465000Y-114540000D02*
X130465000Y-112724000D01*
X130465000Y-110644000D02*
X130465000Y-108828000D01*
X130425000Y-114518000D02*
X130425000Y-112724000D01*
X130425000Y-110644000D02*
X130425000Y-108850000D01*
X130385000Y-114496000D02*
X130385000Y-112724000D01*
X130385000Y-110644000D02*
X130385000Y-108872000D01*
X130345000Y-114474000D02*
X130345000Y-112724000D01*
X130345000Y-110644000D02*
X130345000Y-108894000D01*
X130305000Y-114450000D02*
X130305000Y-112724000D01*
X130305000Y-110644000D02*
X130305000Y-108918000D01*
X130265000Y-114426000D02*
X130265000Y-112724000D01*
X130265000Y-110644000D02*
X130265000Y-108942000D01*
X130225000Y-114400000D02*
X130225000Y-112724000D01*
X130225000Y-110644000D02*
X130225000Y-108968000D01*
X130185000Y-114374000D02*
X130185000Y-112724000D01*
X130185000Y-110644000D02*
X130185000Y-108994000D01*
X130145000Y-114348000D02*
X130145000Y-112724000D01*
X130145000Y-110644000D02*
X130145000Y-109020000D01*
X130105000Y-114320000D02*
X130105000Y-112724000D01*
X130105000Y-110644000D02*
X130105000Y-109048000D01*
X130065000Y-114291000D02*
X130065000Y-112724000D01*
X130065000Y-110644000D02*
X130065000Y-109077000D01*
X130025000Y-114262000D02*
X130025000Y-112724000D01*
X130025000Y-110644000D02*
X130025000Y-109106000D01*
X129985000Y-114232000D02*
X129985000Y-112724000D01*
X129985000Y-110644000D02*
X129985000Y-109136000D01*
X129945000Y-114200000D02*
X129945000Y-112724000D01*
X129945000Y-110644000D02*
X129945000Y-109168000D01*
X129905000Y-114168000D02*
X129905000Y-112724000D01*
X129905000Y-110644000D02*
X129905000Y-109200000D01*
X129865000Y-114134000D02*
X129865000Y-112724000D01*
X129865000Y-110644000D02*
X129865000Y-109234000D01*
X129825000Y-114100000D02*
X129825000Y-112724000D01*
X129825000Y-110644000D02*
X129825000Y-109268000D01*
X129785000Y-114064000D02*
X129785000Y-112724000D01*
X129785000Y-110644000D02*
X129785000Y-109304000D01*
X129745000Y-114027000D02*
X129745000Y-112724000D01*
X129745000Y-110644000D02*
X129745000Y-109341000D01*
X129705000Y-113989000D02*
X129705000Y-112724000D01*
X129705000Y-110644000D02*
X129705000Y-109379000D01*
X129665000Y-113949000D02*
X129665000Y-109419000D01*
X129625000Y-113908000D02*
X129625000Y-109460000D01*
X129585000Y-113866000D02*
X129585000Y-109502000D01*
X129545000Y-113821000D02*
X129545000Y-109547000D01*
X129505000Y-113776000D02*
X129505000Y-109592000D01*
X129465000Y-113728000D02*
X129465000Y-109640000D01*
X129425000Y-113679000D02*
X129425000Y-109689000D01*
X129385000Y-113628000D02*
X129385000Y-109740000D01*
X129345000Y-113574000D02*
X129345000Y-109794000D01*
X129305000Y-113518000D02*
X129305000Y-109850000D01*
X129265000Y-113460000D02*
X129265000Y-109908000D01*
X129225000Y-113398000D02*
X129225000Y-109970000D01*
X129185000Y-113334000D02*
X129185000Y-110034000D01*
X129145000Y-113265000D02*
X129145000Y-110103000D01*
X129105000Y-113193000D02*
X129105000Y-110175000D01*
X129065000Y-113116000D02*
X129065000Y-110252000D01*
X129025000Y-113034000D02*
X129025000Y-110334000D01*
X128985000Y-112946000D02*
X128985000Y-110422000D01*
X128945000Y-112849000D02*
X128945000Y-110519000D01*
X128905000Y-112743000D02*
X128905000Y-110625000D01*
X128865000Y-112624000D02*
X128865000Y-110744000D01*
X128825000Y-112486000D02*
X128825000Y-110882000D01*
X128785000Y-112317000D02*
X128785000Y-111051000D01*
X128745000Y-112086000D02*
X128745000Y-111282000D01*
X135486241Y-113523000D02*
X134856241Y-113523000D01*
X135171241Y-113838000D02*
X135171241Y-113208000D01*
%TO.C,C16*%
X135192500Y-104127500D02*
G75*
G03*
X135192500Y-104127500I-3270000J0D01*
G01*
X131922500Y-107357500D02*
X131922500Y-100897500D01*
X131882500Y-107357500D02*
X131882500Y-100897500D01*
X131842500Y-107357500D02*
X131842500Y-100897500D01*
X131802500Y-107355500D02*
X131802500Y-100899500D01*
X131762500Y-107354500D02*
X131762500Y-100900500D01*
X131722500Y-107351500D02*
X131722500Y-100903500D01*
X131682500Y-107349500D02*
X131682500Y-105167500D01*
X131682500Y-103087500D02*
X131682500Y-100905500D01*
X131642500Y-107345500D02*
X131642500Y-105167500D01*
X131642500Y-103087500D02*
X131642500Y-100909500D01*
X131602500Y-107342500D02*
X131602500Y-105167500D01*
X131602500Y-103087500D02*
X131602500Y-100912500D01*
X131562500Y-107338500D02*
X131562500Y-105167500D01*
X131562500Y-103087500D02*
X131562500Y-100916500D01*
X131522500Y-107333500D02*
X131522500Y-105167500D01*
X131522500Y-103087500D02*
X131522500Y-100921500D01*
X131482500Y-107328500D02*
X131482500Y-105167500D01*
X131482500Y-103087500D02*
X131482500Y-100926500D01*
X131442500Y-107322500D02*
X131442500Y-105167500D01*
X131442500Y-103087500D02*
X131442500Y-100932500D01*
X131402500Y-107316500D02*
X131402500Y-105167500D01*
X131402500Y-103087500D02*
X131402500Y-100938500D01*
X131362500Y-107309500D02*
X131362500Y-105167500D01*
X131362500Y-103087500D02*
X131362500Y-100945500D01*
X131322500Y-107302500D02*
X131322500Y-105167500D01*
X131322500Y-103087500D02*
X131322500Y-100952500D01*
X131282500Y-107294500D02*
X131282500Y-105167500D01*
X131282500Y-103087500D02*
X131282500Y-100960500D01*
X131242500Y-107286500D02*
X131242500Y-105167500D01*
X131242500Y-103087500D02*
X131242500Y-100968500D01*
X131201500Y-107277500D02*
X131201500Y-105167500D01*
X131201500Y-103087500D02*
X131201500Y-100977500D01*
X131161500Y-107268500D02*
X131161500Y-105167500D01*
X131161500Y-103087500D02*
X131161500Y-100986500D01*
X131121500Y-107258500D02*
X131121500Y-105167500D01*
X131121500Y-103087500D02*
X131121500Y-100996500D01*
X131081500Y-107248500D02*
X131081500Y-105167500D01*
X131081500Y-103087500D02*
X131081500Y-101006500D01*
X131041500Y-107237500D02*
X131041500Y-105167500D01*
X131041500Y-103087500D02*
X131041500Y-101017500D01*
X131001500Y-107225500D02*
X131001500Y-105167500D01*
X131001500Y-103087500D02*
X131001500Y-101029500D01*
X130961500Y-107213500D02*
X130961500Y-105167500D01*
X130961500Y-103087500D02*
X130961500Y-101041500D01*
X130921500Y-107201500D02*
X130921500Y-105167500D01*
X130921500Y-103087500D02*
X130921500Y-101053500D01*
X130881500Y-107188500D02*
X130881500Y-105167500D01*
X130881500Y-103087500D02*
X130881500Y-101066500D01*
X130841500Y-107174500D02*
X130841500Y-105167500D01*
X130841500Y-103087500D02*
X130841500Y-101080500D01*
X130801500Y-107160500D02*
X130801500Y-105167500D01*
X130801500Y-103087500D02*
X130801500Y-101094500D01*
X130761500Y-107145500D02*
X130761500Y-105167500D01*
X130761500Y-103087500D02*
X130761500Y-101109500D01*
X130721500Y-107129500D02*
X130721500Y-105167500D01*
X130721500Y-103087500D02*
X130721500Y-101125500D01*
X130681500Y-107113500D02*
X130681500Y-105167500D01*
X130681500Y-103087500D02*
X130681500Y-101141500D01*
X130641500Y-107097500D02*
X130641500Y-105167500D01*
X130641500Y-103087500D02*
X130641500Y-101157500D01*
X130601500Y-107079500D02*
X130601500Y-105167500D01*
X130601500Y-103087500D02*
X130601500Y-101175500D01*
X130561500Y-107061500D02*
X130561500Y-105167500D01*
X130561500Y-103087500D02*
X130561500Y-101193500D01*
X130521500Y-107043500D02*
X130521500Y-105167500D01*
X130521500Y-103087500D02*
X130521500Y-101211500D01*
X130481500Y-107023500D02*
X130481500Y-105167500D01*
X130481500Y-103087500D02*
X130481500Y-101231500D01*
X130441500Y-107003500D02*
X130441500Y-105167500D01*
X130441500Y-103087500D02*
X130441500Y-101251500D01*
X130401500Y-106983500D02*
X130401500Y-105167500D01*
X130401500Y-103087500D02*
X130401500Y-101271500D01*
X130361500Y-106961500D02*
X130361500Y-105167500D01*
X130361500Y-103087500D02*
X130361500Y-101293500D01*
X130321500Y-106939500D02*
X130321500Y-105167500D01*
X130321500Y-103087500D02*
X130321500Y-101315500D01*
X130281500Y-106917500D02*
X130281500Y-105167500D01*
X130281500Y-103087500D02*
X130281500Y-101337500D01*
X130241500Y-106893500D02*
X130241500Y-105167500D01*
X130241500Y-103087500D02*
X130241500Y-101361500D01*
X130201500Y-106869500D02*
X130201500Y-105167500D01*
X130201500Y-103087500D02*
X130201500Y-101385500D01*
X130161500Y-106843500D02*
X130161500Y-105167500D01*
X130161500Y-103087500D02*
X130161500Y-101411500D01*
X130121500Y-106817500D02*
X130121500Y-105167500D01*
X130121500Y-103087500D02*
X130121500Y-101437500D01*
X130081500Y-106791500D02*
X130081500Y-105167500D01*
X130081500Y-103087500D02*
X130081500Y-101463500D01*
X130041500Y-106763500D02*
X130041500Y-105167500D01*
X130041500Y-103087500D02*
X130041500Y-101491500D01*
X130001500Y-106734500D02*
X130001500Y-105167500D01*
X130001500Y-103087500D02*
X130001500Y-101520500D01*
X129961500Y-106705500D02*
X129961500Y-105167500D01*
X129961500Y-103087500D02*
X129961500Y-101549500D01*
X129921500Y-106675500D02*
X129921500Y-105167500D01*
X129921500Y-103087500D02*
X129921500Y-101579500D01*
X129881500Y-106643500D02*
X129881500Y-105167500D01*
X129881500Y-103087500D02*
X129881500Y-101611500D01*
X129841500Y-106611500D02*
X129841500Y-105167500D01*
X129841500Y-103087500D02*
X129841500Y-101643500D01*
X129801500Y-106577500D02*
X129801500Y-105167500D01*
X129801500Y-103087500D02*
X129801500Y-101677500D01*
X129761500Y-106543500D02*
X129761500Y-105167500D01*
X129761500Y-103087500D02*
X129761500Y-101711500D01*
X129721500Y-106507500D02*
X129721500Y-105167500D01*
X129721500Y-103087500D02*
X129721500Y-101747500D01*
X129681500Y-106470500D02*
X129681500Y-105167500D01*
X129681500Y-103087500D02*
X129681500Y-101784500D01*
X129641500Y-106432500D02*
X129641500Y-105167500D01*
X129641500Y-103087500D02*
X129641500Y-101822500D01*
X129601500Y-106392500D02*
X129601500Y-101862500D01*
X129561500Y-106351500D02*
X129561500Y-101903500D01*
X129521500Y-106309500D02*
X129521500Y-101945500D01*
X129481500Y-106264500D02*
X129481500Y-101990500D01*
X129441500Y-106219500D02*
X129441500Y-102035500D01*
X129401500Y-106171500D02*
X129401500Y-102083500D01*
X129361500Y-106122500D02*
X129361500Y-102132500D01*
X129321500Y-106071500D02*
X129321500Y-102183500D01*
X129281500Y-106017500D02*
X129281500Y-102237500D01*
X129241500Y-105961500D02*
X129241500Y-102293500D01*
X129201500Y-105903500D02*
X129201500Y-102351500D01*
X129161500Y-105841500D02*
X129161500Y-102413500D01*
X129121500Y-105777500D02*
X129121500Y-102477500D01*
X129081500Y-105708500D02*
X129081500Y-102546500D01*
X129041500Y-105636500D02*
X129041500Y-102618500D01*
X129001500Y-105559500D02*
X129001500Y-102695500D01*
X128961500Y-105477500D02*
X128961500Y-102777500D01*
X128921500Y-105389500D02*
X128921500Y-102865500D01*
X128881500Y-105292500D02*
X128881500Y-102962500D01*
X128841500Y-105186500D02*
X128841500Y-103068500D01*
X128801500Y-105067500D02*
X128801500Y-103187500D01*
X128761500Y-104929500D02*
X128761500Y-103325500D01*
X128721500Y-104760500D02*
X128721500Y-103494500D01*
X128681500Y-104529500D02*
X128681500Y-103725500D01*
X135422741Y-105966500D02*
X134792741Y-105966500D01*
X135107741Y-106281500D02*
X135107741Y-105651500D01*
%TO.C,C15*%
X134875000Y-78410000D02*
G75*
G03*
X134875000Y-78410000I-3270000J0D01*
G01*
X131605000Y-81640000D02*
X131605000Y-75180000D01*
X131565000Y-81640000D02*
X131565000Y-75180000D01*
X131525000Y-81640000D02*
X131525000Y-75180000D01*
X131485000Y-81638000D02*
X131485000Y-75182000D01*
X131445000Y-81637000D02*
X131445000Y-75183000D01*
X131405000Y-81634000D02*
X131405000Y-75186000D01*
X131365000Y-81632000D02*
X131365000Y-79450000D01*
X131365000Y-77370000D02*
X131365000Y-75188000D01*
X131325000Y-81628000D02*
X131325000Y-79450000D01*
X131325000Y-77370000D02*
X131325000Y-75192000D01*
X131285000Y-81625000D02*
X131285000Y-79450000D01*
X131285000Y-77370000D02*
X131285000Y-75195000D01*
X131245000Y-81621000D02*
X131245000Y-79450000D01*
X131245000Y-77370000D02*
X131245000Y-75199000D01*
X131205000Y-81616000D02*
X131205000Y-79450000D01*
X131205000Y-77370000D02*
X131205000Y-75204000D01*
X131165000Y-81611000D02*
X131165000Y-79450000D01*
X131165000Y-77370000D02*
X131165000Y-75209000D01*
X131125000Y-81605000D02*
X131125000Y-79450000D01*
X131125000Y-77370000D02*
X131125000Y-75215000D01*
X131085000Y-81599000D02*
X131085000Y-79450000D01*
X131085000Y-77370000D02*
X131085000Y-75221000D01*
X131045000Y-81592000D02*
X131045000Y-79450000D01*
X131045000Y-77370000D02*
X131045000Y-75228000D01*
X131005000Y-81585000D02*
X131005000Y-79450000D01*
X131005000Y-77370000D02*
X131005000Y-75235000D01*
X130965000Y-81577000D02*
X130965000Y-79450000D01*
X130965000Y-77370000D02*
X130965000Y-75243000D01*
X130925000Y-81569000D02*
X130925000Y-79450000D01*
X130925000Y-77370000D02*
X130925000Y-75251000D01*
X130884000Y-81560000D02*
X130884000Y-79450000D01*
X130884000Y-77370000D02*
X130884000Y-75260000D01*
X130844000Y-81551000D02*
X130844000Y-79450000D01*
X130844000Y-77370000D02*
X130844000Y-75269000D01*
X130804000Y-81541000D02*
X130804000Y-79450000D01*
X130804000Y-77370000D02*
X130804000Y-75279000D01*
X130764000Y-81531000D02*
X130764000Y-79450000D01*
X130764000Y-77370000D02*
X130764000Y-75289000D01*
X130724000Y-81520000D02*
X130724000Y-79450000D01*
X130724000Y-77370000D02*
X130724000Y-75300000D01*
X130684000Y-81508000D02*
X130684000Y-79450000D01*
X130684000Y-77370000D02*
X130684000Y-75312000D01*
X130644000Y-81496000D02*
X130644000Y-79450000D01*
X130644000Y-77370000D02*
X130644000Y-75324000D01*
X130604000Y-81484000D02*
X130604000Y-79450000D01*
X130604000Y-77370000D02*
X130604000Y-75336000D01*
X130564000Y-81471000D02*
X130564000Y-79450000D01*
X130564000Y-77370000D02*
X130564000Y-75349000D01*
X130524000Y-81457000D02*
X130524000Y-79450000D01*
X130524000Y-77370000D02*
X130524000Y-75363000D01*
X130484000Y-81443000D02*
X130484000Y-79450000D01*
X130484000Y-77370000D02*
X130484000Y-75377000D01*
X130444000Y-81428000D02*
X130444000Y-79450000D01*
X130444000Y-77370000D02*
X130444000Y-75392000D01*
X130404000Y-81412000D02*
X130404000Y-79450000D01*
X130404000Y-77370000D02*
X130404000Y-75408000D01*
X130364000Y-81396000D02*
X130364000Y-79450000D01*
X130364000Y-77370000D02*
X130364000Y-75424000D01*
X130324000Y-81380000D02*
X130324000Y-79450000D01*
X130324000Y-77370000D02*
X130324000Y-75440000D01*
X130284000Y-81362000D02*
X130284000Y-79450000D01*
X130284000Y-77370000D02*
X130284000Y-75458000D01*
X130244000Y-81344000D02*
X130244000Y-79450000D01*
X130244000Y-77370000D02*
X130244000Y-75476000D01*
X130204000Y-81326000D02*
X130204000Y-79450000D01*
X130204000Y-77370000D02*
X130204000Y-75494000D01*
X130164000Y-81306000D02*
X130164000Y-79450000D01*
X130164000Y-77370000D02*
X130164000Y-75514000D01*
X130124000Y-81286000D02*
X130124000Y-79450000D01*
X130124000Y-77370000D02*
X130124000Y-75534000D01*
X130084000Y-81266000D02*
X130084000Y-79450000D01*
X130084000Y-77370000D02*
X130084000Y-75554000D01*
X130044000Y-81244000D02*
X130044000Y-79450000D01*
X130044000Y-77370000D02*
X130044000Y-75576000D01*
X130004000Y-81222000D02*
X130004000Y-79450000D01*
X130004000Y-77370000D02*
X130004000Y-75598000D01*
X129964000Y-81200000D02*
X129964000Y-79450000D01*
X129964000Y-77370000D02*
X129964000Y-75620000D01*
X129924000Y-81176000D02*
X129924000Y-79450000D01*
X129924000Y-77370000D02*
X129924000Y-75644000D01*
X129884000Y-81152000D02*
X129884000Y-79450000D01*
X129884000Y-77370000D02*
X129884000Y-75668000D01*
X129844000Y-81126000D02*
X129844000Y-79450000D01*
X129844000Y-77370000D02*
X129844000Y-75694000D01*
X129804000Y-81100000D02*
X129804000Y-79450000D01*
X129804000Y-77370000D02*
X129804000Y-75720000D01*
X129764000Y-81074000D02*
X129764000Y-79450000D01*
X129764000Y-77370000D02*
X129764000Y-75746000D01*
X129724000Y-81046000D02*
X129724000Y-79450000D01*
X129724000Y-77370000D02*
X129724000Y-75774000D01*
X129684000Y-81017000D02*
X129684000Y-79450000D01*
X129684000Y-77370000D02*
X129684000Y-75803000D01*
X129644000Y-80988000D02*
X129644000Y-79450000D01*
X129644000Y-77370000D02*
X129644000Y-75832000D01*
X129604000Y-80958000D02*
X129604000Y-79450000D01*
X129604000Y-77370000D02*
X129604000Y-75862000D01*
X129564000Y-80926000D02*
X129564000Y-79450000D01*
X129564000Y-77370000D02*
X129564000Y-75894000D01*
X129524000Y-80894000D02*
X129524000Y-79450000D01*
X129524000Y-77370000D02*
X129524000Y-75926000D01*
X129484000Y-80860000D02*
X129484000Y-79450000D01*
X129484000Y-77370000D02*
X129484000Y-75960000D01*
X129444000Y-80826000D02*
X129444000Y-79450000D01*
X129444000Y-77370000D02*
X129444000Y-75994000D01*
X129404000Y-80790000D02*
X129404000Y-79450000D01*
X129404000Y-77370000D02*
X129404000Y-76030000D01*
X129364000Y-80753000D02*
X129364000Y-79450000D01*
X129364000Y-77370000D02*
X129364000Y-76067000D01*
X129324000Y-80715000D02*
X129324000Y-79450000D01*
X129324000Y-77370000D02*
X129324000Y-76105000D01*
X129284000Y-80675000D02*
X129284000Y-76145000D01*
X129244000Y-80634000D02*
X129244000Y-76186000D01*
X129204000Y-80592000D02*
X129204000Y-76228000D01*
X129164000Y-80547000D02*
X129164000Y-76273000D01*
X129124000Y-80502000D02*
X129124000Y-76318000D01*
X129084000Y-80454000D02*
X129084000Y-76366000D01*
X129044000Y-80405000D02*
X129044000Y-76415000D01*
X129004000Y-80354000D02*
X129004000Y-76466000D01*
X128964000Y-80300000D02*
X128964000Y-76520000D01*
X128924000Y-80244000D02*
X128924000Y-76576000D01*
X128884000Y-80186000D02*
X128884000Y-76634000D01*
X128844000Y-80124000D02*
X128844000Y-76696000D01*
X128804000Y-80060000D02*
X128804000Y-76760000D01*
X128764000Y-79991000D02*
X128764000Y-76829000D01*
X128724000Y-79919000D02*
X128724000Y-76901000D01*
X128684000Y-79842000D02*
X128684000Y-76978000D01*
X128644000Y-79760000D02*
X128644000Y-77060000D01*
X128604000Y-79672000D02*
X128604000Y-77148000D01*
X128564000Y-79575000D02*
X128564000Y-77245000D01*
X128524000Y-79469000D02*
X128524000Y-77351000D01*
X128484000Y-79350000D02*
X128484000Y-77470000D01*
X128444000Y-79212000D02*
X128444000Y-77608000D01*
X128404000Y-79043000D02*
X128404000Y-77777000D01*
X128364000Y-78812000D02*
X128364000Y-78008000D01*
X135105241Y-80249000D02*
X134475241Y-80249000D01*
X134790241Y-80564000D02*
X134790241Y-79934000D01*
%TO.C,L2*%
X128010378Y-97535000D02*
X128809622Y-97535000D01*
X128010378Y-98655000D02*
X128809622Y-98655000D01*
%TO.C,L3*%
X128010378Y-99440000D02*
X128809622Y-99440000D01*
X128010378Y-100560000D02*
X128809622Y-100560000D01*
%TO.C,C14*%
X134875000Y-93650000D02*
G75*
G03*
X134875000Y-93650000I-3270000J0D01*
G01*
X131605000Y-96880000D02*
X131605000Y-90420000D01*
X131565000Y-96880000D02*
X131565000Y-90420000D01*
X131525000Y-96880000D02*
X131525000Y-90420000D01*
X131485000Y-96878000D02*
X131485000Y-90422000D01*
X131445000Y-96877000D02*
X131445000Y-90423000D01*
X131405000Y-96874000D02*
X131405000Y-90426000D01*
X131365000Y-96872000D02*
X131365000Y-94690000D01*
X131365000Y-92610000D02*
X131365000Y-90428000D01*
X131325000Y-96868000D02*
X131325000Y-94690000D01*
X131325000Y-92610000D02*
X131325000Y-90432000D01*
X131285000Y-96865000D02*
X131285000Y-94690000D01*
X131285000Y-92610000D02*
X131285000Y-90435000D01*
X131245000Y-96861000D02*
X131245000Y-94690000D01*
X131245000Y-92610000D02*
X131245000Y-90439000D01*
X131205000Y-96856000D02*
X131205000Y-94690000D01*
X131205000Y-92610000D02*
X131205000Y-90444000D01*
X131165000Y-96851000D02*
X131165000Y-94690000D01*
X131165000Y-92610000D02*
X131165000Y-90449000D01*
X131125000Y-96845000D02*
X131125000Y-94690000D01*
X131125000Y-92610000D02*
X131125000Y-90455000D01*
X131085000Y-96839000D02*
X131085000Y-94690000D01*
X131085000Y-92610000D02*
X131085000Y-90461000D01*
X131045000Y-96832000D02*
X131045000Y-94690000D01*
X131045000Y-92610000D02*
X131045000Y-90468000D01*
X131005000Y-96825000D02*
X131005000Y-94690000D01*
X131005000Y-92610000D02*
X131005000Y-90475000D01*
X130965000Y-96817000D02*
X130965000Y-94690000D01*
X130965000Y-92610000D02*
X130965000Y-90483000D01*
X130925000Y-96809000D02*
X130925000Y-94690000D01*
X130925000Y-92610000D02*
X130925000Y-90491000D01*
X130884000Y-96800000D02*
X130884000Y-94690000D01*
X130884000Y-92610000D02*
X130884000Y-90500000D01*
X130844000Y-96791000D02*
X130844000Y-94690000D01*
X130844000Y-92610000D02*
X130844000Y-90509000D01*
X130804000Y-96781000D02*
X130804000Y-94690000D01*
X130804000Y-92610000D02*
X130804000Y-90519000D01*
X130764000Y-96771000D02*
X130764000Y-94690000D01*
X130764000Y-92610000D02*
X130764000Y-90529000D01*
X130724000Y-96760000D02*
X130724000Y-94690000D01*
X130724000Y-92610000D02*
X130724000Y-90540000D01*
X130684000Y-96748000D02*
X130684000Y-94690000D01*
X130684000Y-92610000D02*
X130684000Y-90552000D01*
X130644000Y-96736000D02*
X130644000Y-94690000D01*
X130644000Y-92610000D02*
X130644000Y-90564000D01*
X130604000Y-96724000D02*
X130604000Y-94690000D01*
X130604000Y-92610000D02*
X130604000Y-90576000D01*
X130564000Y-96711000D02*
X130564000Y-94690000D01*
X130564000Y-92610000D02*
X130564000Y-90589000D01*
X130524000Y-96697000D02*
X130524000Y-94690000D01*
X130524000Y-92610000D02*
X130524000Y-90603000D01*
X130484000Y-96683000D02*
X130484000Y-94690000D01*
X130484000Y-92610000D02*
X130484000Y-90617000D01*
X130444000Y-96668000D02*
X130444000Y-94690000D01*
X130444000Y-92610000D02*
X130444000Y-90632000D01*
X130404000Y-96652000D02*
X130404000Y-94690000D01*
X130404000Y-92610000D02*
X130404000Y-90648000D01*
X130364000Y-96636000D02*
X130364000Y-94690000D01*
X130364000Y-92610000D02*
X130364000Y-90664000D01*
X130324000Y-96620000D02*
X130324000Y-94690000D01*
X130324000Y-92610000D02*
X130324000Y-90680000D01*
X130284000Y-96602000D02*
X130284000Y-94690000D01*
X130284000Y-92610000D02*
X130284000Y-90698000D01*
X130244000Y-96584000D02*
X130244000Y-94690000D01*
X130244000Y-92610000D02*
X130244000Y-90716000D01*
X130204000Y-96566000D02*
X130204000Y-94690000D01*
X130204000Y-92610000D02*
X130204000Y-90734000D01*
X130164000Y-96546000D02*
X130164000Y-94690000D01*
X130164000Y-92610000D02*
X130164000Y-90754000D01*
X130124000Y-96526000D02*
X130124000Y-94690000D01*
X130124000Y-92610000D02*
X130124000Y-90774000D01*
X130084000Y-96506000D02*
X130084000Y-94690000D01*
X130084000Y-92610000D02*
X130084000Y-90794000D01*
X130044000Y-96484000D02*
X130044000Y-94690000D01*
X130044000Y-92610000D02*
X130044000Y-90816000D01*
X130004000Y-96462000D02*
X130004000Y-94690000D01*
X130004000Y-92610000D02*
X130004000Y-90838000D01*
X129964000Y-96440000D02*
X129964000Y-94690000D01*
X129964000Y-92610000D02*
X129964000Y-90860000D01*
X129924000Y-96416000D02*
X129924000Y-94690000D01*
X129924000Y-92610000D02*
X129924000Y-90884000D01*
X129884000Y-96392000D02*
X129884000Y-94690000D01*
X129884000Y-92610000D02*
X129884000Y-90908000D01*
X129844000Y-96366000D02*
X129844000Y-94690000D01*
X129844000Y-92610000D02*
X129844000Y-90934000D01*
X129804000Y-96340000D02*
X129804000Y-94690000D01*
X129804000Y-92610000D02*
X129804000Y-90960000D01*
X129764000Y-96314000D02*
X129764000Y-94690000D01*
X129764000Y-92610000D02*
X129764000Y-90986000D01*
X129724000Y-96286000D02*
X129724000Y-94690000D01*
X129724000Y-92610000D02*
X129724000Y-91014000D01*
X129684000Y-96257000D02*
X129684000Y-94690000D01*
X129684000Y-92610000D02*
X129684000Y-91043000D01*
X129644000Y-96228000D02*
X129644000Y-94690000D01*
X129644000Y-92610000D02*
X129644000Y-91072000D01*
X129604000Y-96198000D02*
X129604000Y-94690000D01*
X129604000Y-92610000D02*
X129604000Y-91102000D01*
X129564000Y-96166000D02*
X129564000Y-94690000D01*
X129564000Y-92610000D02*
X129564000Y-91134000D01*
X129524000Y-96134000D02*
X129524000Y-94690000D01*
X129524000Y-92610000D02*
X129524000Y-91166000D01*
X129484000Y-96100000D02*
X129484000Y-94690000D01*
X129484000Y-92610000D02*
X129484000Y-91200000D01*
X129444000Y-96066000D02*
X129444000Y-94690000D01*
X129444000Y-92610000D02*
X129444000Y-91234000D01*
X129404000Y-96030000D02*
X129404000Y-94690000D01*
X129404000Y-92610000D02*
X129404000Y-91270000D01*
X129364000Y-95993000D02*
X129364000Y-94690000D01*
X129364000Y-92610000D02*
X129364000Y-91307000D01*
X129324000Y-95955000D02*
X129324000Y-94690000D01*
X129324000Y-92610000D02*
X129324000Y-91345000D01*
X129284000Y-95915000D02*
X129284000Y-91385000D01*
X129244000Y-95874000D02*
X129244000Y-91426000D01*
X129204000Y-95832000D02*
X129204000Y-91468000D01*
X129164000Y-95787000D02*
X129164000Y-91513000D01*
X129124000Y-95742000D02*
X129124000Y-91558000D01*
X129084000Y-95694000D02*
X129084000Y-91606000D01*
X129044000Y-95645000D02*
X129044000Y-91655000D01*
X129004000Y-95594000D02*
X129004000Y-91706000D01*
X128964000Y-95540000D02*
X128964000Y-91760000D01*
X128924000Y-95484000D02*
X128924000Y-91816000D01*
X128884000Y-95426000D02*
X128884000Y-91874000D01*
X128844000Y-95364000D02*
X128844000Y-91936000D01*
X128804000Y-95300000D02*
X128804000Y-92000000D01*
X128764000Y-95231000D02*
X128764000Y-92069000D01*
X128724000Y-95159000D02*
X128724000Y-92141000D01*
X128684000Y-95082000D02*
X128684000Y-92218000D01*
X128644000Y-95000000D02*
X128644000Y-92300000D01*
X128604000Y-94912000D02*
X128604000Y-92388000D01*
X128564000Y-94815000D02*
X128564000Y-92485000D01*
X128524000Y-94709000D02*
X128524000Y-92591000D01*
X128484000Y-94590000D02*
X128484000Y-92710000D01*
X128444000Y-94452000D02*
X128444000Y-92848000D01*
X128404000Y-94283000D02*
X128404000Y-93017000D01*
X128364000Y-94052000D02*
X128364000Y-93248000D01*
X135105241Y-95489000D02*
X134475241Y-95489000D01*
X134790241Y-95804000D02*
X134790241Y-95174000D01*
%TO.C,C12*%
X119597500Y-110632500D02*
X119597500Y-114842500D01*
X119597500Y-114842500D02*
X122617500Y-114842500D01*
X122617500Y-114842500D02*
X122617500Y-110632500D01*
%TO.C,C11*%
X123407500Y-110632500D02*
X123407500Y-114842500D01*
X123407500Y-114842500D02*
X126427500Y-114842500D01*
X126427500Y-114842500D02*
X126427500Y-110632500D01*
%TO.C,C5*%
X165163748Y-104720000D02*
X166586252Y-104720000D01*
X165163748Y-102900000D02*
X166586252Y-102900000D01*
%TO.C,C3*%
X138176248Y-95830000D02*
X139598752Y-95830000D01*
X138176248Y-94010000D02*
X139598752Y-94010000D01*
%TO.C,C2*%
X161155000Y-85318748D02*
X161155000Y-86741252D01*
X162975000Y-85318748D02*
X162975000Y-86741252D01*
%TO.C,C1*%
X162975000Y-81661252D02*
X162975000Y-80238748D01*
X161155000Y-81661252D02*
X161155000Y-80238748D01*
%TO.C,J8*%
X121140000Y-131700000D02*
X121740000Y-132000000D01*
X121140000Y-132300000D02*
X121140000Y-131700000D01*
X121740000Y-132000000D02*
X121140000Y-132300000D01*
X145860000Y-136910000D02*
X121940000Y-136910000D01*
X145860000Y-129890000D02*
X145860000Y-136910000D01*
X144660000Y-129890000D02*
X145860000Y-129890000D01*
X144660000Y-128190000D02*
X144660000Y-129890000D01*
X123140000Y-128190000D02*
X144660000Y-128190000D01*
X123140000Y-129890000D02*
X123140000Y-128190000D01*
X121940000Y-129890000D02*
X123140000Y-129890000D01*
X121940000Y-136910000D02*
X121940000Y-129890000D01*
%TO.C,JP1*%
X113040000Y-72042500D02*
X113040000Y-71442500D01*
X115140000Y-72742500D02*
X113740000Y-72742500D01*
X115840000Y-71442500D02*
X115840000Y-72042500D01*
X113740000Y-70742500D02*
X115140000Y-70742500D01*
X113040000Y-71442500D02*
G75*
G02*
X113740000Y-70742500I700000J0D01*
G01*
X113740000Y-72742500D02*
G75*
G02*
X113040000Y-72042500I0J700000D01*
G01*
X115840000Y-72042500D02*
G75*
G02*
X115140000Y-72742500I-700000J0D01*
G01*
X115140000Y-70742500D02*
G75*
G02*
X115840000Y-71442500I0J-700000D01*
G01*
%TO.C,J9*%
X118300000Y-73140000D02*
X118000000Y-73740000D01*
X117700000Y-73140000D02*
X118300000Y-73140000D01*
X118000000Y-73740000D02*
X117700000Y-73140000D01*
X113090000Y-105780000D02*
X113090000Y-73940000D01*
X120110000Y-105780000D02*
X113090000Y-105780000D01*
X120110000Y-104580000D02*
X120110000Y-105780000D01*
X121810000Y-104580000D02*
X120110000Y-104580000D01*
X121810000Y-75140000D02*
X121810000Y-104580000D01*
X120110000Y-75140000D02*
X121810000Y-75140000D01*
X120110000Y-73940000D02*
X120110000Y-75140000D01*
X113090000Y-73940000D02*
X120110000Y-73940000D01*
%TO.C,U6*%
X131340000Y-116300000D02*
X131340000Y-122900000D01*
X131340000Y-122900000D02*
X154740000Y-122900000D01*
X154740000Y-122900000D02*
X154740000Y-116300000D01*
X154740000Y-116300000D02*
X131340000Y-116300000D01*
%TO.C,U4*%
X117600000Y-124500000D02*
X168400000Y-124500000D01*
X117600000Y-124500000D02*
X117600000Y-116100000D01*
X168400000Y-116100000D02*
X117600000Y-116100000D01*
X168400000Y-124500000D02*
X168400000Y-116100000D01*
%TO.C,R21*%
X151667742Y-125512500D02*
X152142258Y-125512500D01*
X151667742Y-126557500D02*
X152142258Y-126557500D01*
%TO.C,R20*%
X122457742Y-125512500D02*
X122932258Y-125512500D01*
X122457742Y-126557500D02*
X122932258Y-126557500D01*
%TO.C,R19*%
X119282742Y-125512500D02*
X119757258Y-125512500D01*
X119282742Y-126557500D02*
X119757258Y-126557500D01*
%TO.C,L1*%
X116270000Y-112092878D02*
X116270000Y-112892122D01*
X115150000Y-112092878D02*
X115150000Y-112892122D01*
%TO.C,U5*%
X151090000Y-128975000D02*
X151090000Y-130235000D01*
X151090000Y-135795000D02*
X151090000Y-134535000D01*
X154850000Y-128975000D02*
X151090000Y-128975000D01*
X157100000Y-135795000D02*
X151090000Y-135795000D01*
%TO.C,C10*%
X159263748Y-131650000D02*
X159786252Y-131650000D01*
X159263748Y-133120000D02*
X159786252Y-133120000D01*
%TO.C,C9*%
X159263748Y-129350000D02*
X159786252Y-129350000D01*
X159263748Y-130820000D02*
X159786252Y-130820000D01*
%TO.C,R17*%
X162270000Y-107065242D02*
X162270000Y-107539758D01*
X161225000Y-107065242D02*
X161225000Y-107539758D01*
%TO.C,TP6*%
X178160000Y-67615000D02*
G75*
G03*
X178160000Y-67615000I-1200000J0D01*
G01*
%TO.C,TP5*%
X125700000Y-103720000D02*
G75*
G03*
X125700000Y-103720000I-1200000J0D01*
G01*
%TO.C,TP4*%
X125700000Y-87880000D02*
G75*
G03*
X125700000Y-87880000I-1200000J0D01*
G01*
%TO.C,TP3*%
X125700000Y-76000000D02*
G75*
G03*
X125700000Y-76000000I-1200000J0D01*
G01*
%TO.C,TP2*%
X174200000Y-67615000D02*
G75*
G03*
X174200000Y-67615000I-1200000J0D01*
G01*
%TO.C,TP1*%
X125700000Y-95800000D02*
G75*
G03*
X125700000Y-95800000I-1200000J0D01*
G01*
%TO.C,R7*%
X165159758Y-109095000D02*
X164685242Y-109095000D01*
X165159758Y-108050000D02*
X164685242Y-108050000D01*
%TO.C,J7*%
X138860000Y-68300000D02*
X138260000Y-68000000D01*
X138860000Y-67700000D02*
X138860000Y-68300000D01*
X138260000Y-68000000D02*
X138860000Y-67700000D01*
X122060000Y-63090000D02*
X138060000Y-63090000D01*
X122060000Y-70110000D02*
X122060000Y-63090000D01*
X123260000Y-70110000D02*
X122060000Y-70110000D01*
X123260000Y-71810000D02*
X123260000Y-70110000D01*
X136860000Y-71810000D02*
X123260000Y-71810000D01*
X136860000Y-70110000D02*
X136860000Y-71810000D01*
X138060000Y-70110000D02*
X136860000Y-70110000D01*
X138060000Y-63090000D02*
X138060000Y-70110000D01*
%TO.C,R5*%
X145317742Y-98525000D02*
X145792258Y-98525000D01*
X145317742Y-99570000D02*
X145792258Y-99570000D01*
%TO.C,C4*%
X147001920Y-83932500D02*
X147283080Y-83932500D01*
X147001920Y-84952500D02*
X147283080Y-84952500D01*
%TO.C,U2*%
X148550000Y-87180000D02*
X147050000Y-87180000D01*
X147050000Y-87180000D02*
X147050000Y-87870000D01*
X147050000Y-87870000D02*
X141925000Y-87870000D01*
X148550000Y-97580000D02*
X147050000Y-97580000D01*
X147050000Y-97580000D02*
X147050000Y-96890000D01*
X147050000Y-96890000D02*
X145950000Y-96890000D01*
%TO.C,J6*%
X170140000Y-73200000D02*
X170740000Y-73500000D01*
X170140000Y-73800000D02*
X170140000Y-73200000D01*
X170740000Y-73500000D02*
X170140000Y-73800000D01*
X186940000Y-78410000D02*
X170940000Y-78410000D01*
X186940000Y-71390000D02*
X186940000Y-78410000D01*
X185740000Y-71390000D02*
X186940000Y-71390000D01*
X185740000Y-69690000D02*
X185740000Y-71390000D01*
X172140000Y-69690000D02*
X185740000Y-69690000D01*
X172140000Y-71390000D02*
X172140000Y-69690000D01*
X170940000Y-71390000D02*
X172140000Y-71390000D01*
X170940000Y-78410000D02*
X170940000Y-71390000D01*
%TO.C,J5*%
X170140000Y-86200000D02*
X170740000Y-86500000D01*
X170140000Y-86800000D02*
X170140000Y-86200000D01*
X170740000Y-86500000D02*
X170140000Y-86800000D01*
X186940000Y-91410000D02*
X170940000Y-91410000D01*
X186940000Y-84390000D02*
X186940000Y-91410000D01*
X185740000Y-84390000D02*
X186940000Y-84390000D01*
X185740000Y-82690000D02*
X185740000Y-84390000D01*
X172140000Y-82690000D02*
X185740000Y-82690000D01*
X172140000Y-84390000D02*
X172140000Y-82690000D01*
X170940000Y-84390000D02*
X172140000Y-84390000D01*
X170940000Y-91410000D02*
X170940000Y-84390000D01*
%TO.C,J4*%
X170140000Y-99200000D02*
X170740000Y-99500000D01*
X170140000Y-99800000D02*
X170140000Y-99200000D01*
X170740000Y-99500000D02*
X170140000Y-99800000D01*
X186940000Y-104410000D02*
X170940000Y-104410000D01*
X186940000Y-97390000D02*
X186940000Y-104410000D01*
X185740000Y-97390000D02*
X186940000Y-97390000D01*
X185740000Y-95690000D02*
X185740000Y-97390000D01*
X172140000Y-95690000D02*
X185740000Y-95690000D01*
X172140000Y-97390000D02*
X172140000Y-95690000D01*
X170940000Y-97390000D02*
X172140000Y-97390000D01*
X170940000Y-104410000D02*
X170940000Y-97390000D01*
%TO.C,J3*%
X170140000Y-112200000D02*
X170740000Y-112500000D01*
X170140000Y-112800000D02*
X170140000Y-112200000D01*
X170740000Y-112500000D02*
X170140000Y-112800000D01*
X186940000Y-117410000D02*
X170940000Y-117410000D01*
X186940000Y-110390000D02*
X186940000Y-117410000D01*
X185740000Y-110390000D02*
X186940000Y-110390000D01*
X185740000Y-108690000D02*
X185740000Y-110390000D01*
X172140000Y-108690000D02*
X185740000Y-108690000D01*
X172140000Y-110390000D02*
X172140000Y-108690000D01*
X170940000Y-110390000D02*
X172140000Y-110390000D01*
X170940000Y-117410000D02*
X170940000Y-110390000D01*
%TO.C,J2*%
X170140000Y-125200000D02*
X170740000Y-125500000D01*
X170140000Y-125800000D02*
X170140000Y-125200000D01*
X170740000Y-125500000D02*
X170140000Y-125800000D01*
X186940000Y-130410000D02*
X170940000Y-130410000D01*
X186940000Y-123390000D02*
X186940000Y-130410000D01*
X185740000Y-123390000D02*
X186940000Y-123390000D01*
X185740000Y-121690000D02*
X185740000Y-123390000D01*
X172140000Y-121690000D02*
X185740000Y-121690000D01*
X172140000Y-123390000D02*
X172140000Y-121690000D01*
X170940000Y-123390000D02*
X172140000Y-123390000D01*
X170940000Y-130410000D02*
X170940000Y-123390000D01*
%TO.C,U3*%
X151450000Y-115360000D02*
X152950000Y-115360000D01*
X152950000Y-115360000D02*
X152950000Y-114670000D01*
X152950000Y-114670000D02*
X158075000Y-114670000D01*
X151450000Y-104960000D02*
X152950000Y-104960000D01*
X152950000Y-104960000D02*
X152950000Y-105650000D01*
X152950000Y-105650000D02*
X154050000Y-105650000D01*
%TO.C,U1*%
X148550000Y-69400000D02*
X147050000Y-69400000D01*
X147050000Y-69400000D02*
X147050000Y-70090000D01*
X147050000Y-70090000D02*
X141925000Y-70090000D01*
X148550000Y-79800000D02*
X147050000Y-79800000D01*
X147050000Y-79800000D02*
X147050000Y-79110000D01*
X147050000Y-79110000D02*
X145950000Y-79110000D01*
%TO.C,R8*%
X160714758Y-114810000D02*
X160240242Y-114810000D01*
X160714758Y-113765000D02*
X160240242Y-113765000D01*
%TO.C,R6*%
X142967742Y-80745000D02*
X143442258Y-80745000D01*
X142967742Y-81790000D02*
X143442258Y-81790000D01*
%TO.C,R3*%
X139602742Y-74712500D02*
X140077258Y-74712500D01*
X139602742Y-75757500D02*
X140077258Y-75757500D01*
%TO.C,R1*%
X165159758Y-84012500D02*
X164685242Y-84012500D01*
X165159758Y-82967500D02*
X164685242Y-82967500D01*
%TO.C,C8*%
X160670000Y-107161920D02*
X160670000Y-107443080D01*
X159650000Y-107161920D02*
X159650000Y-107443080D01*
%TD*%
M02*
