%TF.GenerationSoftware,KiCad,Pcbnew,(5.99.0-11012-g5d9c1dd75a)*%
%TF.CreationDate,2021-06-14T21:45:01+02:00*%
%TF.ProjectId,Power-Supply,506f7765-722d-4537-9570-706c792e6b69,rev?*%
%TF.SameCoordinates,Original*%
%TF.FileFunction,Legend,Top*%
%TF.FilePolarity,Positive*%
%FSLAX46Y46*%
G04 Gerber Fmt 4.6, Leading zero omitted, Abs format (unit mm)*
G04 Created by KiCad (PCBNEW (5.99.0-11012-g5d9c1dd75a)) date 2021-06-14 21:45:01*
%MOMM*%
%LPD*%
G01*
G04 APERTURE LIST*
%ADD10C,0.150000*%
%ADD11C,0.120000*%
G04 APERTURE END LIST*
D10*
X109556904Y-83324880D02*
X109556904Y-83705833D01*
X109937857Y-83743928D01*
X109899761Y-83705833D01*
X109861666Y-83629642D01*
X109861666Y-83439166D01*
X109899761Y-83362976D01*
X109937857Y-83324880D01*
X110014047Y-83286785D01*
X110204523Y-83286785D01*
X110280714Y-83324880D01*
X110318809Y-83362976D01*
X110356904Y-83439166D01*
X110356904Y-83629642D01*
X110318809Y-83705833D01*
X110280714Y-83743928D01*
X109556904Y-83058214D02*
X110356904Y-82791547D01*
X109556904Y-82524880D01*
X109595000Y-87909523D02*
X109556904Y-87985714D01*
X109556904Y-88100000D01*
X109595000Y-88214285D01*
X109671190Y-88290476D01*
X109747380Y-88328571D01*
X109899761Y-88366666D01*
X110014047Y-88366666D01*
X110166428Y-88328571D01*
X110242619Y-88290476D01*
X110318809Y-88214285D01*
X110356904Y-88100000D01*
X110356904Y-88023809D01*
X110318809Y-87909523D01*
X110280714Y-87871428D01*
X110014047Y-87871428D01*
X110014047Y-88023809D01*
X110356904Y-87528571D02*
X109556904Y-87528571D01*
X110356904Y-87071428D01*
X109556904Y-87071428D01*
X110356904Y-86690476D02*
X109556904Y-86690476D01*
X109556904Y-86500000D01*
X109595000Y-86385714D01*
X109671190Y-86309523D01*
X109747380Y-86271428D01*
X109899761Y-86233333D01*
X110014047Y-86233333D01*
X110166428Y-86271428D01*
X110242619Y-86309523D01*
X110318809Y-86385714D01*
X110356904Y-86500000D01*
X110356904Y-86690476D01*
X109595000Y-95847023D02*
X109556904Y-95923214D01*
X109556904Y-96037500D01*
X109595000Y-96151785D01*
X109671190Y-96227976D01*
X109747380Y-96266071D01*
X109899761Y-96304166D01*
X110014047Y-96304166D01*
X110166428Y-96266071D01*
X110242619Y-96227976D01*
X110318809Y-96151785D01*
X110356904Y-96037500D01*
X110356904Y-95961309D01*
X110318809Y-95847023D01*
X110280714Y-95808928D01*
X110014047Y-95808928D01*
X110014047Y-95961309D01*
X110356904Y-95466071D02*
X109556904Y-95466071D01*
X110356904Y-95008928D01*
X109556904Y-95008928D01*
X110356904Y-94627976D02*
X109556904Y-94627976D01*
X109556904Y-94437500D01*
X109595000Y-94323214D01*
X109671190Y-94247023D01*
X109747380Y-94208928D01*
X109899761Y-94170833D01*
X110014047Y-94170833D01*
X110166428Y-94208928D01*
X110242619Y-94247023D01*
X110318809Y-94323214D01*
X110356904Y-94437500D01*
X110356904Y-94627976D01*
X110356904Y-103924166D02*
X110356904Y-104381309D01*
X110356904Y-104152738D02*
X109556904Y-104152738D01*
X109671190Y-104228928D01*
X109747380Y-104305119D01*
X109785476Y-104381309D01*
X109556904Y-103657500D02*
X109556904Y-103162261D01*
X109861666Y-103428928D01*
X109861666Y-103314642D01*
X109899761Y-103238452D01*
X109937857Y-103200357D01*
X110014047Y-103162261D01*
X110204523Y-103162261D01*
X110280714Y-103200357D01*
X110318809Y-103238452D01*
X110356904Y-103314642D01*
X110356904Y-103543214D01*
X110318809Y-103619404D01*
X110280714Y-103657500D01*
X110280714Y-102819404D02*
X110318809Y-102781309D01*
X110356904Y-102819404D01*
X110318809Y-102857500D01*
X110280714Y-102819404D01*
X110356904Y-102819404D01*
X109556904Y-102057500D02*
X109556904Y-102438452D01*
X109937857Y-102476547D01*
X109899761Y-102438452D01*
X109861666Y-102362261D01*
X109861666Y-102171785D01*
X109899761Y-102095595D01*
X109937857Y-102057500D01*
X110014047Y-102019404D01*
X110204523Y-102019404D01*
X110280714Y-102057500D01*
X110318809Y-102095595D01*
X110356904Y-102171785D01*
X110356904Y-102362261D01*
X110318809Y-102438452D01*
X110280714Y-102476547D01*
X109556904Y-101790833D02*
X110356904Y-101524166D01*
X109556904Y-101257500D01*
X110356904Y-100114166D02*
X110356904Y-100571309D01*
X110356904Y-100342738D02*
X109556904Y-100342738D01*
X109671190Y-100418928D01*
X109747380Y-100495119D01*
X109785476Y-100571309D01*
X109556904Y-99847500D02*
X109556904Y-99352261D01*
X109861666Y-99618928D01*
X109861666Y-99504642D01*
X109899761Y-99428452D01*
X109937857Y-99390357D01*
X110014047Y-99352261D01*
X110204523Y-99352261D01*
X110280714Y-99390357D01*
X110318809Y-99428452D01*
X110356904Y-99504642D01*
X110356904Y-99733214D01*
X110318809Y-99809404D01*
X110280714Y-99847500D01*
X110280714Y-99009404D02*
X110318809Y-98971309D01*
X110356904Y-99009404D01*
X110318809Y-99047500D01*
X110280714Y-99009404D01*
X110356904Y-99009404D01*
X109556904Y-98247500D02*
X109556904Y-98628452D01*
X109937857Y-98666547D01*
X109899761Y-98628452D01*
X109861666Y-98552261D01*
X109861666Y-98361785D01*
X109899761Y-98285595D01*
X109937857Y-98247500D01*
X110014047Y-98209404D01*
X110204523Y-98209404D01*
X110280714Y-98247500D01*
X110318809Y-98285595D01*
X110356904Y-98361785D01*
X110356904Y-98552261D01*
X110318809Y-98628452D01*
X110280714Y-98666547D01*
X109556904Y-97980833D02*
X110356904Y-97714166D01*
X109556904Y-97447500D01*
X109595000Y-92037023D02*
X109556904Y-92113214D01*
X109556904Y-92227500D01*
X109595000Y-92341785D01*
X109671190Y-92417976D01*
X109747380Y-92456071D01*
X109899761Y-92494166D01*
X110014047Y-92494166D01*
X110166428Y-92456071D01*
X110242619Y-92417976D01*
X110318809Y-92341785D01*
X110356904Y-92227500D01*
X110356904Y-92151309D01*
X110318809Y-92037023D01*
X110280714Y-91998928D01*
X110014047Y-91998928D01*
X110014047Y-92151309D01*
X110356904Y-91656071D02*
X109556904Y-91656071D01*
X110356904Y-91198928D01*
X109556904Y-91198928D01*
X110356904Y-90817976D02*
X109556904Y-90817976D01*
X109556904Y-90627500D01*
X109595000Y-90513214D01*
X109671190Y-90437023D01*
X109747380Y-90398928D01*
X109899761Y-90360833D01*
X110014047Y-90360833D01*
X110166428Y-90398928D01*
X110242619Y-90437023D01*
X110318809Y-90513214D01*
X110356904Y-90627500D01*
X110356904Y-90817976D01*
X110052142Y-109283452D02*
X110052142Y-108673928D01*
X110356904Y-107873928D02*
X110356904Y-108331071D01*
X110356904Y-108102500D02*
X109556904Y-108102500D01*
X109671190Y-108178690D01*
X109747380Y-108254880D01*
X109785476Y-108331071D01*
X109556904Y-107607261D02*
X109556904Y-107112023D01*
X109861666Y-107378690D01*
X109861666Y-107264404D01*
X109899761Y-107188214D01*
X109937857Y-107150119D01*
X110014047Y-107112023D01*
X110204523Y-107112023D01*
X110280714Y-107150119D01*
X110318809Y-107188214D01*
X110356904Y-107264404D01*
X110356904Y-107492976D01*
X110318809Y-107569166D01*
X110280714Y-107607261D01*
X110280714Y-106769166D02*
X110318809Y-106731071D01*
X110356904Y-106769166D01*
X110318809Y-106807261D01*
X110280714Y-106769166D01*
X110356904Y-106769166D01*
X109556904Y-106007261D02*
X109556904Y-106388214D01*
X109937857Y-106426309D01*
X109899761Y-106388214D01*
X109861666Y-106312023D01*
X109861666Y-106121547D01*
X109899761Y-106045357D01*
X109937857Y-106007261D01*
X110014047Y-105969166D01*
X110204523Y-105969166D01*
X110280714Y-106007261D01*
X110318809Y-106045357D01*
X110356904Y-106121547D01*
X110356904Y-106312023D01*
X110318809Y-106388214D01*
X110280714Y-106426309D01*
X109556904Y-105740595D02*
X110356904Y-105473928D01*
X109556904Y-105207261D01*
X109556904Y-79514880D02*
X109556904Y-79895833D01*
X109937857Y-79933928D01*
X109899761Y-79895833D01*
X109861666Y-79819642D01*
X109861666Y-79629166D01*
X109899761Y-79552976D01*
X109937857Y-79514880D01*
X110014047Y-79476785D01*
X110204523Y-79476785D01*
X110280714Y-79514880D01*
X110318809Y-79552976D01*
X110356904Y-79629166D01*
X110356904Y-79819642D01*
X110318809Y-79895833D01*
X110280714Y-79933928D01*
X109556904Y-79248214D02*
X110356904Y-78981547D01*
X109556904Y-78714880D01*
X189325595Y-123063333D02*
X189325595Y-122606190D01*
X189325595Y-122834761D02*
X190125595Y-122834761D01*
X190011309Y-122758571D01*
X189935119Y-122682380D01*
X189897023Y-122606190D01*
X190125595Y-123330000D02*
X190125595Y-123825238D01*
X189820833Y-123558571D01*
X189820833Y-123672857D01*
X189782738Y-123749047D01*
X189744642Y-123787142D01*
X189668452Y-123825238D01*
X189477976Y-123825238D01*
X189401785Y-123787142D01*
X189363690Y-123749047D01*
X189325595Y-123672857D01*
X189325595Y-123444285D01*
X189363690Y-123368095D01*
X189401785Y-123330000D01*
X189401785Y-124168095D02*
X189363690Y-124206190D01*
X189325595Y-124168095D01*
X189363690Y-124130000D01*
X189401785Y-124168095D01*
X189325595Y-124168095D01*
X190125595Y-124930000D02*
X190125595Y-124549047D01*
X189744642Y-124510952D01*
X189782738Y-124549047D01*
X189820833Y-124625238D01*
X189820833Y-124815714D01*
X189782738Y-124891904D01*
X189744642Y-124930000D01*
X189668452Y-124968095D01*
X189477976Y-124968095D01*
X189401785Y-124930000D01*
X189363690Y-124891904D01*
X189325595Y-124815714D01*
X189325595Y-124625238D01*
X189363690Y-124549047D01*
X189401785Y-124510952D01*
X190125595Y-125196666D02*
X189325595Y-125463333D01*
X190125595Y-125730000D01*
X190087500Y-115265476D02*
X190125595Y-115189285D01*
X190125595Y-115075000D01*
X190087500Y-114960714D01*
X190011309Y-114884523D01*
X189935119Y-114846428D01*
X189782738Y-114808333D01*
X189668452Y-114808333D01*
X189516071Y-114846428D01*
X189439880Y-114884523D01*
X189363690Y-114960714D01*
X189325595Y-115075000D01*
X189325595Y-115151190D01*
X189363690Y-115265476D01*
X189401785Y-115303571D01*
X189668452Y-115303571D01*
X189668452Y-115151190D01*
X189325595Y-115646428D02*
X190125595Y-115646428D01*
X189325595Y-116103571D01*
X190125595Y-116103571D01*
X189325595Y-116484523D02*
X190125595Y-116484523D01*
X190125595Y-116675000D01*
X190087500Y-116789285D01*
X190011309Y-116865476D01*
X189935119Y-116903571D01*
X189782738Y-116941666D01*
X189668452Y-116941666D01*
X189516071Y-116903571D01*
X189439880Y-116865476D01*
X189363690Y-116789285D01*
X189325595Y-116675000D01*
X189325595Y-116484523D01*
X189630357Y-117704047D02*
X189630357Y-118313571D01*
X189325595Y-119113571D02*
X189325595Y-118656428D01*
X189325595Y-118885000D02*
X190125595Y-118885000D01*
X190011309Y-118808809D01*
X189935119Y-118732619D01*
X189897023Y-118656428D01*
X190125595Y-119380238D02*
X190125595Y-119875476D01*
X189820833Y-119608809D01*
X189820833Y-119723095D01*
X189782738Y-119799285D01*
X189744642Y-119837380D01*
X189668452Y-119875476D01*
X189477976Y-119875476D01*
X189401785Y-119837380D01*
X189363690Y-119799285D01*
X189325595Y-119723095D01*
X189325595Y-119494523D01*
X189363690Y-119418333D01*
X189401785Y-119380238D01*
X189401785Y-120218333D02*
X189363690Y-120256428D01*
X189325595Y-120218333D01*
X189363690Y-120180238D01*
X189401785Y-120218333D01*
X189325595Y-120218333D01*
X190125595Y-120980238D02*
X190125595Y-120599285D01*
X189744642Y-120561190D01*
X189782738Y-120599285D01*
X189820833Y-120675476D01*
X189820833Y-120865952D01*
X189782738Y-120942142D01*
X189744642Y-120980238D01*
X189668452Y-121018333D01*
X189477976Y-121018333D01*
X189401785Y-120980238D01*
X189363690Y-120942142D01*
X189325595Y-120865952D01*
X189325595Y-120675476D01*
X189363690Y-120599285D01*
X189401785Y-120561190D01*
X190125595Y-121246904D02*
X189325595Y-121513571D01*
X190125595Y-121780238D01*
X190125595Y-111912619D02*
X190125595Y-111531666D01*
X189744642Y-111493571D01*
X189782738Y-111531666D01*
X189820833Y-111607857D01*
X189820833Y-111798333D01*
X189782738Y-111874523D01*
X189744642Y-111912619D01*
X189668452Y-111950714D01*
X189477976Y-111950714D01*
X189401785Y-111912619D01*
X189363690Y-111874523D01*
X189325595Y-111798333D01*
X189325595Y-111607857D01*
X189363690Y-111531666D01*
X189401785Y-111493571D01*
X190125595Y-112179285D02*
X189325595Y-112445952D01*
X190125595Y-112712619D01*
X189325595Y-104965833D02*
X189325595Y-104508690D01*
X189325595Y-104737261D02*
X190125595Y-104737261D01*
X190011309Y-104661071D01*
X189935119Y-104584880D01*
X189897023Y-104508690D01*
X190125595Y-105232500D02*
X190125595Y-105727738D01*
X189820833Y-105461071D01*
X189820833Y-105575357D01*
X189782738Y-105651547D01*
X189744642Y-105689642D01*
X189668452Y-105727738D01*
X189477976Y-105727738D01*
X189401785Y-105689642D01*
X189363690Y-105651547D01*
X189325595Y-105575357D01*
X189325595Y-105346785D01*
X189363690Y-105270595D01*
X189401785Y-105232500D01*
X189401785Y-106070595D02*
X189363690Y-106108690D01*
X189325595Y-106070595D01*
X189363690Y-106032500D01*
X189401785Y-106070595D01*
X189325595Y-106070595D01*
X190125595Y-106832500D02*
X190125595Y-106451547D01*
X189744642Y-106413452D01*
X189782738Y-106451547D01*
X189820833Y-106527738D01*
X189820833Y-106718214D01*
X189782738Y-106794404D01*
X189744642Y-106832500D01*
X189668452Y-106870595D01*
X189477976Y-106870595D01*
X189401785Y-106832500D01*
X189363690Y-106794404D01*
X189325595Y-106718214D01*
X189325595Y-106527738D01*
X189363690Y-106451547D01*
X189401785Y-106413452D01*
X190125595Y-107099166D02*
X189325595Y-107365833D01*
X190125595Y-107632500D01*
X190087500Y-97167976D02*
X190125595Y-97091785D01*
X190125595Y-96977500D01*
X190087500Y-96863214D01*
X190011309Y-96787023D01*
X189935119Y-96748928D01*
X189782738Y-96710833D01*
X189668452Y-96710833D01*
X189516071Y-96748928D01*
X189439880Y-96787023D01*
X189363690Y-96863214D01*
X189325595Y-96977500D01*
X189325595Y-97053690D01*
X189363690Y-97167976D01*
X189401785Y-97206071D01*
X189668452Y-97206071D01*
X189668452Y-97053690D01*
X189325595Y-97548928D02*
X190125595Y-97548928D01*
X189325595Y-98006071D01*
X190125595Y-98006071D01*
X189325595Y-98387023D02*
X190125595Y-98387023D01*
X190125595Y-98577500D01*
X190087500Y-98691785D01*
X190011309Y-98767976D01*
X189935119Y-98806071D01*
X189782738Y-98844166D01*
X189668452Y-98844166D01*
X189516071Y-98806071D01*
X189439880Y-98767976D01*
X189363690Y-98691785D01*
X189325595Y-98577500D01*
X189325595Y-98387023D01*
X189630357Y-99606547D02*
X189630357Y-100216071D01*
X189325595Y-101016071D02*
X189325595Y-100558928D01*
X189325595Y-100787500D02*
X190125595Y-100787500D01*
X190011309Y-100711309D01*
X189935119Y-100635119D01*
X189897023Y-100558928D01*
X190125595Y-101282738D02*
X190125595Y-101777976D01*
X189820833Y-101511309D01*
X189820833Y-101625595D01*
X189782738Y-101701785D01*
X189744642Y-101739880D01*
X189668452Y-101777976D01*
X189477976Y-101777976D01*
X189401785Y-101739880D01*
X189363690Y-101701785D01*
X189325595Y-101625595D01*
X189325595Y-101397023D01*
X189363690Y-101320833D01*
X189401785Y-101282738D01*
X189401785Y-102120833D02*
X189363690Y-102158928D01*
X189325595Y-102120833D01*
X189363690Y-102082738D01*
X189401785Y-102120833D01*
X189325595Y-102120833D01*
X190125595Y-102882738D02*
X190125595Y-102501785D01*
X189744642Y-102463690D01*
X189782738Y-102501785D01*
X189820833Y-102577976D01*
X189820833Y-102768452D01*
X189782738Y-102844642D01*
X189744642Y-102882738D01*
X189668452Y-102920833D01*
X189477976Y-102920833D01*
X189401785Y-102882738D01*
X189363690Y-102844642D01*
X189325595Y-102768452D01*
X189325595Y-102577976D01*
X189363690Y-102501785D01*
X189401785Y-102463690D01*
X190125595Y-103149404D02*
X189325595Y-103416071D01*
X190125595Y-103682738D01*
X190125595Y-93815119D02*
X190125595Y-93434166D01*
X189744642Y-93396071D01*
X189782738Y-93434166D01*
X189820833Y-93510357D01*
X189820833Y-93700833D01*
X189782738Y-93777023D01*
X189744642Y-93815119D01*
X189668452Y-93853214D01*
X189477976Y-93853214D01*
X189401785Y-93815119D01*
X189363690Y-93777023D01*
X189325595Y-93700833D01*
X189325595Y-93510357D01*
X189363690Y-93434166D01*
X189401785Y-93396071D01*
X190125595Y-94081785D02*
X189325595Y-94348452D01*
X190125595Y-94615119D01*
X189325595Y-86868333D02*
X189325595Y-86411190D01*
X189325595Y-86639761D02*
X190125595Y-86639761D01*
X190011309Y-86563571D01*
X189935119Y-86487380D01*
X189897023Y-86411190D01*
X190125595Y-87135000D02*
X190125595Y-87630238D01*
X189820833Y-87363571D01*
X189820833Y-87477857D01*
X189782738Y-87554047D01*
X189744642Y-87592142D01*
X189668452Y-87630238D01*
X189477976Y-87630238D01*
X189401785Y-87592142D01*
X189363690Y-87554047D01*
X189325595Y-87477857D01*
X189325595Y-87249285D01*
X189363690Y-87173095D01*
X189401785Y-87135000D01*
X189401785Y-87973095D02*
X189363690Y-88011190D01*
X189325595Y-87973095D01*
X189363690Y-87935000D01*
X189401785Y-87973095D01*
X189325595Y-87973095D01*
X190125595Y-88735000D02*
X190125595Y-88354047D01*
X189744642Y-88315952D01*
X189782738Y-88354047D01*
X189820833Y-88430238D01*
X189820833Y-88620714D01*
X189782738Y-88696904D01*
X189744642Y-88735000D01*
X189668452Y-88773095D01*
X189477976Y-88773095D01*
X189401785Y-88735000D01*
X189363690Y-88696904D01*
X189325595Y-88620714D01*
X189325595Y-88430238D01*
X189363690Y-88354047D01*
X189401785Y-88315952D01*
X190125595Y-89001666D02*
X189325595Y-89268333D01*
X190125595Y-89535000D01*
X190087500Y-79070476D02*
X190125595Y-78994285D01*
X190125595Y-78880000D01*
X190087500Y-78765714D01*
X190011309Y-78689523D01*
X189935119Y-78651428D01*
X189782738Y-78613333D01*
X189668452Y-78613333D01*
X189516071Y-78651428D01*
X189439880Y-78689523D01*
X189363690Y-78765714D01*
X189325595Y-78880000D01*
X189325595Y-78956190D01*
X189363690Y-79070476D01*
X189401785Y-79108571D01*
X189668452Y-79108571D01*
X189668452Y-78956190D01*
X189325595Y-79451428D02*
X190125595Y-79451428D01*
X189325595Y-79908571D01*
X190125595Y-79908571D01*
X189325595Y-80289523D02*
X190125595Y-80289523D01*
X190125595Y-80480000D01*
X190087500Y-80594285D01*
X190011309Y-80670476D01*
X189935119Y-80708571D01*
X189782738Y-80746666D01*
X189668452Y-80746666D01*
X189516071Y-80708571D01*
X189439880Y-80670476D01*
X189363690Y-80594285D01*
X189325595Y-80480000D01*
X189325595Y-80289523D01*
X189630357Y-81509047D02*
X189630357Y-82118571D01*
X189325595Y-82918571D02*
X189325595Y-82461428D01*
X189325595Y-82690000D02*
X190125595Y-82690000D01*
X190011309Y-82613809D01*
X189935119Y-82537619D01*
X189897023Y-82461428D01*
X190125595Y-83185238D02*
X190125595Y-83680476D01*
X189820833Y-83413809D01*
X189820833Y-83528095D01*
X189782738Y-83604285D01*
X189744642Y-83642380D01*
X189668452Y-83680476D01*
X189477976Y-83680476D01*
X189401785Y-83642380D01*
X189363690Y-83604285D01*
X189325595Y-83528095D01*
X189325595Y-83299523D01*
X189363690Y-83223333D01*
X189401785Y-83185238D01*
X189401785Y-84023333D02*
X189363690Y-84061428D01*
X189325595Y-84023333D01*
X189363690Y-83985238D01*
X189401785Y-84023333D01*
X189325595Y-84023333D01*
X190125595Y-84785238D02*
X190125595Y-84404285D01*
X189744642Y-84366190D01*
X189782738Y-84404285D01*
X189820833Y-84480476D01*
X189820833Y-84670952D01*
X189782738Y-84747142D01*
X189744642Y-84785238D01*
X189668452Y-84823333D01*
X189477976Y-84823333D01*
X189401785Y-84785238D01*
X189363690Y-84747142D01*
X189325595Y-84670952D01*
X189325595Y-84480476D01*
X189363690Y-84404285D01*
X189401785Y-84366190D01*
X190125595Y-85051904D02*
X189325595Y-85318571D01*
X190125595Y-85585238D01*
X190125595Y-75717619D02*
X190125595Y-75336666D01*
X189744642Y-75298571D01*
X189782738Y-75336666D01*
X189820833Y-75412857D01*
X189820833Y-75603333D01*
X189782738Y-75679523D01*
X189744642Y-75717619D01*
X189668452Y-75755714D01*
X189477976Y-75755714D01*
X189401785Y-75717619D01*
X189363690Y-75679523D01*
X189325595Y-75603333D01*
X189325595Y-75412857D01*
X189363690Y-75336666D01*
X189401785Y-75298571D01*
X190125595Y-75984285D02*
X189325595Y-76250952D01*
X190125595Y-76517619D01*
X188938333Y-73056904D02*
X188481190Y-73056904D01*
X188709761Y-73056904D02*
X188709761Y-72256904D01*
X188633571Y-72371190D01*
X188557380Y-72447380D01*
X188481190Y-72485476D01*
X189205000Y-72256904D02*
X189700238Y-72256904D01*
X189433571Y-72561666D01*
X189547857Y-72561666D01*
X189624047Y-72599761D01*
X189662142Y-72637857D01*
X189700238Y-72714047D01*
X189700238Y-72904523D01*
X189662142Y-72980714D01*
X189624047Y-73018809D01*
X189547857Y-73056904D01*
X189319285Y-73056904D01*
X189243095Y-73018809D01*
X189205000Y-72980714D01*
X190043095Y-72980714D02*
X190081190Y-73018809D01*
X190043095Y-73056904D01*
X190005000Y-73018809D01*
X190043095Y-72980714D01*
X190043095Y-73056904D01*
X190805000Y-72256904D02*
X190424047Y-72256904D01*
X190385952Y-72637857D01*
X190424047Y-72599761D01*
X190500238Y-72561666D01*
X190690714Y-72561666D01*
X190766904Y-72599761D01*
X190805000Y-72637857D01*
X190843095Y-72714047D01*
X190843095Y-72904523D01*
X190805000Y-72980714D01*
X190766904Y-73018809D01*
X190690714Y-73056904D01*
X190500238Y-73056904D01*
X190424047Y-73018809D01*
X190385952Y-72980714D01*
X191071666Y-72256904D02*
X191338333Y-73056904D01*
X191605000Y-72256904D01*
X181140476Y-72295000D02*
X181064285Y-72256904D01*
X180950000Y-72256904D01*
X180835714Y-72295000D01*
X180759523Y-72371190D01*
X180721428Y-72447380D01*
X180683333Y-72599761D01*
X180683333Y-72714047D01*
X180721428Y-72866428D01*
X180759523Y-72942619D01*
X180835714Y-73018809D01*
X180950000Y-73056904D01*
X181026190Y-73056904D01*
X181140476Y-73018809D01*
X181178571Y-72980714D01*
X181178571Y-72714047D01*
X181026190Y-72714047D01*
X181521428Y-73056904D02*
X181521428Y-72256904D01*
X181978571Y-73056904D01*
X181978571Y-72256904D01*
X182359523Y-73056904D02*
X182359523Y-72256904D01*
X182550000Y-72256904D01*
X182664285Y-72295000D01*
X182740476Y-72371190D01*
X182778571Y-72447380D01*
X182816666Y-72599761D01*
X182816666Y-72714047D01*
X182778571Y-72866428D01*
X182740476Y-72942619D01*
X182664285Y-73018809D01*
X182550000Y-73056904D01*
X182359523Y-73056904D01*
X183579047Y-72752142D02*
X184188571Y-72752142D01*
X184988571Y-73056904D02*
X184531428Y-73056904D01*
X184760000Y-73056904D02*
X184760000Y-72256904D01*
X184683809Y-72371190D01*
X184607619Y-72447380D01*
X184531428Y-72485476D01*
X185255238Y-72256904D02*
X185750476Y-72256904D01*
X185483809Y-72561666D01*
X185598095Y-72561666D01*
X185674285Y-72599761D01*
X185712380Y-72637857D01*
X185750476Y-72714047D01*
X185750476Y-72904523D01*
X185712380Y-72980714D01*
X185674285Y-73018809D01*
X185598095Y-73056904D01*
X185369523Y-73056904D01*
X185293333Y-73018809D01*
X185255238Y-72980714D01*
X186093333Y-72980714D02*
X186131428Y-73018809D01*
X186093333Y-73056904D01*
X186055238Y-73018809D01*
X186093333Y-72980714D01*
X186093333Y-73056904D01*
X186855238Y-72256904D02*
X186474285Y-72256904D01*
X186436190Y-72637857D01*
X186474285Y-72599761D01*
X186550476Y-72561666D01*
X186740952Y-72561666D01*
X186817142Y-72599761D01*
X186855238Y-72637857D01*
X186893333Y-72714047D01*
X186893333Y-72904523D01*
X186855238Y-72980714D01*
X186817142Y-73018809D01*
X186740952Y-73056904D01*
X186550476Y-73056904D01*
X186474285Y-73018809D01*
X186436190Y-72980714D01*
X187121904Y-72256904D02*
X187388571Y-73056904D01*
X187655238Y-72256904D01*
X177787619Y-72256904D02*
X177406666Y-72256904D01*
X177368571Y-72637857D01*
X177406666Y-72599761D01*
X177482857Y-72561666D01*
X177673333Y-72561666D01*
X177749523Y-72599761D01*
X177787619Y-72637857D01*
X177825714Y-72714047D01*
X177825714Y-72904523D01*
X177787619Y-72980714D01*
X177749523Y-73018809D01*
X177673333Y-73056904D01*
X177482857Y-73056904D01*
X177406666Y-73018809D01*
X177368571Y-72980714D01*
X178054285Y-72256904D02*
X178320952Y-73056904D01*
X178587619Y-72256904D01*
X160007619Y-72256904D02*
X159626666Y-72256904D01*
X159588571Y-72637857D01*
X159626666Y-72599761D01*
X159702857Y-72561666D01*
X159893333Y-72561666D01*
X159969523Y-72599761D01*
X160007619Y-72637857D01*
X160045714Y-72714047D01*
X160045714Y-72904523D01*
X160007619Y-72980714D01*
X159969523Y-73018809D01*
X159893333Y-73056904D01*
X159702857Y-73056904D01*
X159626666Y-73018809D01*
X159588571Y-72980714D01*
X160274285Y-72256904D02*
X160540952Y-73056904D01*
X160807619Y-72256904D01*
X165799047Y-72752142D02*
X166408571Y-72752142D01*
X167208571Y-73056904D02*
X166751428Y-73056904D01*
X166980000Y-73056904D02*
X166980000Y-72256904D01*
X166903809Y-72371190D01*
X166827619Y-72447380D01*
X166751428Y-72485476D01*
X167475238Y-72256904D02*
X167970476Y-72256904D01*
X167703809Y-72561666D01*
X167818095Y-72561666D01*
X167894285Y-72599761D01*
X167932380Y-72637857D01*
X167970476Y-72714047D01*
X167970476Y-72904523D01*
X167932380Y-72980714D01*
X167894285Y-73018809D01*
X167818095Y-73056904D01*
X167589523Y-73056904D01*
X167513333Y-73018809D01*
X167475238Y-72980714D01*
X168313333Y-72980714D02*
X168351428Y-73018809D01*
X168313333Y-73056904D01*
X168275238Y-73018809D01*
X168313333Y-72980714D01*
X168313333Y-73056904D01*
X169075238Y-72256904D02*
X168694285Y-72256904D01*
X168656190Y-72637857D01*
X168694285Y-72599761D01*
X168770476Y-72561666D01*
X168960952Y-72561666D01*
X169037142Y-72599761D01*
X169075238Y-72637857D01*
X169113333Y-72714047D01*
X169113333Y-72904523D01*
X169075238Y-72980714D01*
X169037142Y-73018809D01*
X168960952Y-73056904D01*
X168770476Y-73056904D01*
X168694285Y-73018809D01*
X168656190Y-72980714D01*
X169341904Y-72256904D02*
X169608571Y-73056904D01*
X169875238Y-72256904D01*
X163360476Y-72295000D02*
X163284285Y-72256904D01*
X163170000Y-72256904D01*
X163055714Y-72295000D01*
X162979523Y-72371190D01*
X162941428Y-72447380D01*
X162903333Y-72599761D01*
X162903333Y-72714047D01*
X162941428Y-72866428D01*
X162979523Y-72942619D01*
X163055714Y-73018809D01*
X163170000Y-73056904D01*
X163246190Y-73056904D01*
X163360476Y-73018809D01*
X163398571Y-72980714D01*
X163398571Y-72714047D01*
X163246190Y-72714047D01*
X163741428Y-73056904D02*
X163741428Y-72256904D01*
X164198571Y-73056904D01*
X164198571Y-72256904D01*
X164579523Y-73056904D02*
X164579523Y-72256904D01*
X164770000Y-72256904D01*
X164884285Y-72295000D01*
X164960476Y-72371190D01*
X164998571Y-72447380D01*
X165036666Y-72599761D01*
X165036666Y-72714047D01*
X164998571Y-72866428D01*
X164960476Y-72942619D01*
X164884285Y-73018809D01*
X164770000Y-73056904D01*
X164579523Y-73056904D01*
X171158333Y-73056904D02*
X170701190Y-73056904D01*
X170929761Y-73056904D02*
X170929761Y-72256904D01*
X170853571Y-72371190D01*
X170777380Y-72447380D01*
X170701190Y-72485476D01*
X171425000Y-72256904D02*
X171920238Y-72256904D01*
X171653571Y-72561666D01*
X171767857Y-72561666D01*
X171844047Y-72599761D01*
X171882142Y-72637857D01*
X171920238Y-72714047D01*
X171920238Y-72904523D01*
X171882142Y-72980714D01*
X171844047Y-73018809D01*
X171767857Y-73056904D01*
X171539285Y-73056904D01*
X171463095Y-73018809D01*
X171425000Y-72980714D01*
X172263095Y-72980714D02*
X172301190Y-73018809D01*
X172263095Y-73056904D01*
X172225000Y-73018809D01*
X172263095Y-72980714D01*
X172263095Y-73056904D01*
X173025000Y-72256904D02*
X172644047Y-72256904D01*
X172605952Y-72637857D01*
X172644047Y-72599761D01*
X172720238Y-72561666D01*
X172910714Y-72561666D01*
X172986904Y-72599761D01*
X173025000Y-72637857D01*
X173063095Y-72714047D01*
X173063095Y-72904523D01*
X173025000Y-72980714D01*
X172986904Y-73018809D01*
X172910714Y-73056904D01*
X172720238Y-73056904D01*
X172644047Y-73018809D01*
X172605952Y-72980714D01*
X173291666Y-72256904D02*
X173558333Y-73056904D01*
X173825000Y-72256904D01*
X127482976Y-72295000D02*
X127406785Y-72256904D01*
X127292500Y-72256904D01*
X127178214Y-72295000D01*
X127102023Y-72371190D01*
X127063928Y-72447380D01*
X127025833Y-72599761D01*
X127025833Y-72714047D01*
X127063928Y-72866428D01*
X127102023Y-72942619D01*
X127178214Y-73018809D01*
X127292500Y-73056904D01*
X127368690Y-73056904D01*
X127482976Y-73018809D01*
X127521071Y-72980714D01*
X127521071Y-72714047D01*
X127368690Y-72714047D01*
X127863928Y-73056904D02*
X127863928Y-72256904D01*
X128321071Y-73056904D01*
X128321071Y-72256904D01*
X128702023Y-73056904D02*
X128702023Y-72256904D01*
X128892500Y-72256904D01*
X129006785Y-72295000D01*
X129082976Y-72371190D01*
X129121071Y-72447380D01*
X129159166Y-72599761D01*
X129159166Y-72714047D01*
X129121071Y-72866428D01*
X129082976Y-72942619D01*
X129006785Y-73018809D01*
X128892500Y-73056904D01*
X128702023Y-73056904D01*
X135560119Y-72256904D02*
X135179166Y-72256904D01*
X135141071Y-72637857D01*
X135179166Y-72599761D01*
X135255357Y-72561666D01*
X135445833Y-72561666D01*
X135522023Y-72599761D01*
X135560119Y-72637857D01*
X135598214Y-72714047D01*
X135598214Y-72904523D01*
X135560119Y-72980714D01*
X135522023Y-73018809D01*
X135445833Y-73056904D01*
X135255357Y-73056904D01*
X135179166Y-73018809D01*
X135141071Y-72980714D01*
X135826785Y-72256904D02*
X136093452Y-73056904D01*
X136360119Y-72256904D01*
X131292976Y-72295000D02*
X131216785Y-72256904D01*
X131102500Y-72256904D01*
X130988214Y-72295000D01*
X130912023Y-72371190D01*
X130873928Y-72447380D01*
X130835833Y-72599761D01*
X130835833Y-72714047D01*
X130873928Y-72866428D01*
X130912023Y-72942619D01*
X130988214Y-73018809D01*
X131102500Y-73056904D01*
X131178690Y-73056904D01*
X131292976Y-73018809D01*
X131331071Y-72980714D01*
X131331071Y-72714047D01*
X131178690Y-72714047D01*
X131673928Y-73056904D02*
X131673928Y-72256904D01*
X132131071Y-73056904D01*
X132131071Y-72256904D01*
X132512023Y-73056904D02*
X132512023Y-72256904D01*
X132702500Y-72256904D01*
X132816785Y-72295000D01*
X132892976Y-72371190D01*
X132931071Y-72447380D01*
X132969166Y-72599761D01*
X132969166Y-72714047D01*
X132931071Y-72866428D01*
X132892976Y-72942619D01*
X132816785Y-73018809D01*
X132702500Y-73056904D01*
X132512023Y-73056904D01*
X139687619Y-72256904D02*
X139306666Y-72256904D01*
X139268571Y-72637857D01*
X139306666Y-72599761D01*
X139382857Y-72561666D01*
X139573333Y-72561666D01*
X139649523Y-72599761D01*
X139687619Y-72637857D01*
X139725714Y-72714047D01*
X139725714Y-72904523D01*
X139687619Y-72980714D01*
X139649523Y-73018809D01*
X139573333Y-73056904D01*
X139382857Y-73056904D01*
X139306666Y-73018809D01*
X139268571Y-72980714D01*
X139954285Y-72256904D02*
X140220952Y-73056904D01*
X140487619Y-72256904D01*
X117780119Y-72256904D02*
X117399166Y-72256904D01*
X117361071Y-72637857D01*
X117399166Y-72599761D01*
X117475357Y-72561666D01*
X117665833Y-72561666D01*
X117742023Y-72599761D01*
X117780119Y-72637857D01*
X117818214Y-72714047D01*
X117818214Y-72904523D01*
X117780119Y-72980714D01*
X117742023Y-73018809D01*
X117665833Y-73056904D01*
X117475357Y-73056904D01*
X117399166Y-73018809D01*
X117361071Y-72980714D01*
X118046785Y-72256904D02*
X118313452Y-73056904D01*
X118580119Y-72256904D01*
X113512976Y-72295000D02*
X113436785Y-72256904D01*
X113322500Y-72256904D01*
X113208214Y-72295000D01*
X113132023Y-72371190D01*
X113093928Y-72447380D01*
X113055833Y-72599761D01*
X113055833Y-72714047D01*
X113093928Y-72866428D01*
X113132023Y-72942619D01*
X113208214Y-73018809D01*
X113322500Y-73056904D01*
X113398690Y-73056904D01*
X113512976Y-73018809D01*
X113551071Y-72980714D01*
X113551071Y-72714047D01*
X113398690Y-72714047D01*
X113893928Y-73056904D02*
X113893928Y-72256904D01*
X114351071Y-73056904D01*
X114351071Y-72256904D01*
X114732023Y-73056904D02*
X114732023Y-72256904D01*
X114922500Y-72256904D01*
X115036785Y-72295000D01*
X115112976Y-72371190D01*
X115151071Y-72447380D01*
X115189166Y-72599761D01*
X115189166Y-72714047D01*
X115151071Y-72866428D01*
X115112976Y-72942619D01*
X115036785Y-73018809D01*
X114922500Y-73056904D01*
X114732023Y-73056904D01*
X109702976Y-72295000D02*
X109626785Y-72256904D01*
X109512500Y-72256904D01*
X109398214Y-72295000D01*
X109322023Y-72371190D01*
X109283928Y-72447380D01*
X109245833Y-72599761D01*
X109245833Y-72714047D01*
X109283928Y-72866428D01*
X109322023Y-72942619D01*
X109398214Y-73018809D01*
X109512500Y-73056904D01*
X109588690Y-73056904D01*
X109702976Y-73018809D01*
X109741071Y-72980714D01*
X109741071Y-72714047D01*
X109588690Y-72714047D01*
X110083928Y-73056904D02*
X110083928Y-72256904D01*
X110541071Y-73056904D01*
X110541071Y-72256904D01*
X110922023Y-73056904D02*
X110922023Y-72256904D01*
X111112500Y-72256904D01*
X111226785Y-72295000D01*
X111302976Y-72371190D01*
X111341071Y-72447380D01*
X111379166Y-72599761D01*
X111379166Y-72714047D01*
X111341071Y-72866428D01*
X111302976Y-72942619D01*
X111226785Y-73018809D01*
X111112500Y-73056904D01*
X110922023Y-73056904D01*
X121907619Y-72256904D02*
X121526666Y-72256904D01*
X121488571Y-72637857D01*
X121526666Y-72599761D01*
X121602857Y-72561666D01*
X121793333Y-72561666D01*
X121869523Y-72599761D01*
X121907619Y-72637857D01*
X121945714Y-72714047D01*
X121945714Y-72904523D01*
X121907619Y-72980714D01*
X121869523Y-73018809D01*
X121793333Y-73056904D01*
X121602857Y-73056904D01*
X121526666Y-73018809D01*
X121488571Y-72980714D01*
X122174285Y-72256904D02*
X122440952Y-73056904D01*
X122707619Y-72256904D01*
X165011904Y-82893154D02*
X165469047Y-82893154D01*
X165240476Y-83693154D02*
X165240476Y-82893154D01*
X165735714Y-83274107D02*
X166002380Y-83274107D01*
X166116666Y-83693154D02*
X165735714Y-83693154D01*
X165735714Y-82893154D01*
X166116666Y-82893154D01*
X166459523Y-83693154D02*
X166459523Y-82893154D01*
X166726190Y-83464583D01*
X166992857Y-82893154D01*
X166992857Y-83693154D01*
X167373809Y-83693154D02*
X167373809Y-82893154D01*
X167678571Y-82893154D01*
X167754761Y-82931250D01*
X167792857Y-82969345D01*
X167830952Y-83045535D01*
X167830952Y-83159821D01*
X167792857Y-83236011D01*
X167754761Y-83274107D01*
X167678571Y-83312202D01*
X167373809Y-83312202D01*
X168173809Y-83274107D02*
X168440476Y-83274107D01*
X168554761Y-83693154D02*
X168173809Y-83693154D01*
X168173809Y-82893154D01*
X168554761Y-82893154D01*
X169354761Y-83693154D02*
X169088095Y-83312202D01*
X168897619Y-83693154D02*
X168897619Y-82893154D01*
X169202380Y-82893154D01*
X169278571Y-82931250D01*
X169316666Y-82969345D01*
X169354761Y-83045535D01*
X169354761Y-83159821D01*
X169316666Y-83236011D01*
X169278571Y-83274107D01*
X169202380Y-83312202D01*
X168897619Y-83312202D01*
X169659523Y-83464583D02*
X170040476Y-83464583D01*
X169583333Y-83693154D02*
X169850000Y-82893154D01*
X170116666Y-83693154D01*
X170269047Y-82893154D02*
X170726190Y-82893154D01*
X170497619Y-83693154D02*
X170497619Y-82893154D01*
X170992857Y-82893154D02*
X170992857Y-83540773D01*
X171030952Y-83616964D01*
X171069047Y-83655059D01*
X171145238Y-83693154D01*
X171297619Y-83693154D01*
X171373809Y-83655059D01*
X171411904Y-83616964D01*
X171450000Y-83540773D01*
X171450000Y-82893154D01*
X172288095Y-83693154D02*
X172021428Y-83312202D01*
X171830952Y-83693154D02*
X171830952Y-82893154D01*
X172135714Y-82893154D01*
X172211904Y-82931250D01*
X172250000Y-82969345D01*
X172288095Y-83045535D01*
X172288095Y-83159821D01*
X172250000Y-83236011D01*
X172211904Y-83274107D01*
X172135714Y-83312202D01*
X171830952Y-83312202D01*
X172630952Y-83274107D02*
X172897619Y-83274107D01*
X173011904Y-83693154D02*
X172630952Y-83693154D01*
X172630952Y-82893154D01*
X173011904Y-82893154D01*
X144272380Y-73590357D02*
X144005714Y-73590357D01*
X144005714Y-74009404D02*
X144005714Y-73209404D01*
X144386666Y-73209404D01*
X144653333Y-73780833D02*
X145034285Y-73780833D01*
X144577142Y-74009404D02*
X144843809Y-73209404D01*
X145110476Y-74009404D01*
X145377142Y-74009404D02*
X145377142Y-73209404D01*
X145834285Y-74009404D01*
X145834285Y-73209404D01*
X141851071Y-107981904D02*
X141584404Y-107600952D01*
X141393928Y-107981904D02*
X141393928Y-107181904D01*
X141698690Y-107181904D01*
X141774880Y-107220000D01*
X141812976Y-107258095D01*
X141851071Y-107334285D01*
X141851071Y-107448571D01*
X141812976Y-107524761D01*
X141774880Y-107562857D01*
X141698690Y-107600952D01*
X141393928Y-107600952D01*
X142193928Y-107562857D02*
X142460595Y-107562857D01*
X142574880Y-107981904D02*
X142193928Y-107981904D01*
X142193928Y-107181904D01*
X142574880Y-107181904D01*
X142879642Y-107943809D02*
X142993928Y-107981904D01*
X143184404Y-107981904D01*
X143260595Y-107943809D01*
X143298690Y-107905714D01*
X143336785Y-107829523D01*
X143336785Y-107753333D01*
X143298690Y-107677142D01*
X143260595Y-107639047D01*
X143184404Y-107600952D01*
X143032023Y-107562857D01*
X142955833Y-107524761D01*
X142917738Y-107486666D01*
X142879642Y-107410476D01*
X142879642Y-107334285D01*
X142917738Y-107258095D01*
X142955833Y-107220000D01*
X143032023Y-107181904D01*
X143222500Y-107181904D01*
X143336785Y-107220000D01*
X143679642Y-107562857D02*
X143946309Y-107562857D01*
X144060595Y-107981904D02*
X143679642Y-107981904D01*
X143679642Y-107181904D01*
X144060595Y-107181904D01*
X144289166Y-107181904D02*
X144746309Y-107181904D01*
X144517738Y-107981904D02*
X144517738Y-107181904D01*
X118322023Y-112300000D02*
X118245833Y-112261904D01*
X118131547Y-112261904D01*
X118017261Y-112300000D01*
X117941071Y-112376190D01*
X117902976Y-112452380D01*
X117864880Y-112604761D01*
X117864880Y-112719047D01*
X117902976Y-112871428D01*
X117941071Y-112947619D01*
X118017261Y-113023809D01*
X118131547Y-113061904D01*
X118207738Y-113061904D01*
X118322023Y-113023809D01*
X118360119Y-112985714D01*
X118360119Y-112719047D01*
X118207738Y-112719047D01*
X118702976Y-113061904D02*
X118702976Y-112261904D01*
X119160119Y-113061904D01*
X119160119Y-112261904D01*
X119541071Y-113061904D02*
X119541071Y-112261904D01*
X119731547Y-112261904D01*
X119845833Y-112300000D01*
X119922023Y-112376190D01*
X119960119Y-112452380D01*
X119998214Y-112604761D01*
X119998214Y-112719047D01*
X119960119Y-112871428D01*
X119922023Y-112947619D01*
X119845833Y-113023809D01*
X119731547Y-113061904D01*
X119541071Y-113061904D01*
X117515476Y-108629642D02*
X118125000Y-108629642D01*
X118925000Y-108934404D02*
X118467857Y-108934404D01*
X118696428Y-108934404D02*
X118696428Y-108134404D01*
X118620238Y-108248690D01*
X118544047Y-108324880D01*
X118467857Y-108362976D01*
X119648809Y-108134404D02*
X119267857Y-108134404D01*
X119229761Y-108515357D01*
X119267857Y-108477261D01*
X119344047Y-108439166D01*
X119534523Y-108439166D01*
X119610714Y-108477261D01*
X119648809Y-108515357D01*
X119686904Y-108591547D01*
X119686904Y-108782023D01*
X119648809Y-108858214D01*
X119610714Y-108896309D01*
X119534523Y-108934404D01*
X119344047Y-108934404D01*
X119267857Y-108896309D01*
X119229761Y-108858214D01*
X119915476Y-108134404D02*
X120182142Y-108934404D01*
X120448809Y-108134404D01*
X118322023Y-104806904D02*
X117864880Y-104806904D01*
X118093452Y-104806904D02*
X118093452Y-104006904D01*
X118017261Y-104121190D01*
X117941071Y-104197380D01*
X117864880Y-104235476D01*
X119045833Y-104006904D02*
X118664880Y-104006904D01*
X118626785Y-104387857D01*
X118664880Y-104349761D01*
X118741071Y-104311666D01*
X118931547Y-104311666D01*
X119007738Y-104349761D01*
X119045833Y-104387857D01*
X119083928Y-104464047D01*
X119083928Y-104654523D01*
X119045833Y-104730714D01*
X119007738Y-104768809D01*
X118931547Y-104806904D01*
X118741071Y-104806904D01*
X118664880Y-104768809D01*
X118626785Y-104730714D01*
X119312500Y-104006904D02*
X119579166Y-104806904D01*
X119845833Y-104006904D01*
X126856428Y-84321904D02*
X126475476Y-84321904D01*
X126437380Y-84702857D01*
X126475476Y-84664761D01*
X126551666Y-84626666D01*
X126742142Y-84626666D01*
X126818333Y-84664761D01*
X126856428Y-84702857D01*
X126894523Y-84779047D01*
X126894523Y-84969523D01*
X126856428Y-85045714D01*
X126818333Y-85083809D01*
X126742142Y-85121904D01*
X126551666Y-85121904D01*
X126475476Y-85083809D01*
X126437380Y-85045714D01*
X127123095Y-84321904D02*
X127389761Y-85121904D01*
X127656428Y-84321904D01*
X123541785Y-95434404D02*
X124037023Y-95434404D01*
X123770357Y-95739166D01*
X123884642Y-95739166D01*
X123960833Y-95777261D01*
X123998928Y-95815357D01*
X124037023Y-95891547D01*
X124037023Y-96082023D01*
X123998928Y-96158214D01*
X123960833Y-96196309D01*
X123884642Y-96234404D01*
X123656071Y-96234404D01*
X123579880Y-96196309D01*
X123541785Y-96158214D01*
X124379880Y-96158214D02*
X124417976Y-96196309D01*
X124379880Y-96234404D01*
X124341785Y-96196309D01*
X124379880Y-96158214D01*
X124379880Y-96234404D01*
X124684642Y-95434404D02*
X125179880Y-95434404D01*
X124913214Y-95739166D01*
X125027500Y-95739166D01*
X125103690Y-95777261D01*
X125141785Y-95815357D01*
X125179880Y-95891547D01*
X125179880Y-96082023D01*
X125141785Y-96158214D01*
X125103690Y-96196309D01*
X125027500Y-96234404D01*
X124798928Y-96234404D01*
X124722738Y-96196309D01*
X124684642Y-96158214D01*
X125408452Y-95434404D02*
X125675119Y-96234404D01*
X125941785Y-95434404D01*
X162268333Y-123539404D02*
X161811190Y-123539404D01*
X162039761Y-123539404D02*
X162039761Y-122739404D01*
X161963571Y-122853690D01*
X161887380Y-122929880D01*
X161811190Y-122967976D01*
X162535000Y-122739404D02*
X163030238Y-122739404D01*
X162763571Y-123044166D01*
X162877857Y-123044166D01*
X162954047Y-123082261D01*
X162992142Y-123120357D01*
X163030238Y-123196547D01*
X163030238Y-123387023D01*
X162992142Y-123463214D01*
X162954047Y-123501309D01*
X162877857Y-123539404D01*
X162649285Y-123539404D01*
X162573095Y-123501309D01*
X162535000Y-123463214D01*
X163373095Y-123463214D02*
X163411190Y-123501309D01*
X163373095Y-123539404D01*
X163335000Y-123501309D01*
X163373095Y-123463214D01*
X163373095Y-123539404D01*
X164135000Y-122739404D02*
X163754047Y-122739404D01*
X163715952Y-123120357D01*
X163754047Y-123082261D01*
X163830238Y-123044166D01*
X164020714Y-123044166D01*
X164096904Y-123082261D01*
X164135000Y-123120357D01*
X164173095Y-123196547D01*
X164173095Y-123387023D01*
X164135000Y-123463214D01*
X164096904Y-123501309D01*
X164020714Y-123539404D01*
X163830238Y-123539404D01*
X163754047Y-123501309D01*
X163715952Y-123463214D01*
X164401666Y-122739404D02*
X164668333Y-123539404D01*
X164935000Y-122739404D01*
X133096547Y-123234642D02*
X133706071Y-123234642D01*
X134506071Y-123539404D02*
X134048928Y-123539404D01*
X134277500Y-123539404D02*
X134277500Y-122739404D01*
X134201309Y-122853690D01*
X134125119Y-122929880D01*
X134048928Y-122967976D01*
X134772738Y-122739404D02*
X135267976Y-122739404D01*
X135001309Y-123044166D01*
X135115595Y-123044166D01*
X135191785Y-123082261D01*
X135229880Y-123120357D01*
X135267976Y-123196547D01*
X135267976Y-123387023D01*
X135229880Y-123463214D01*
X135191785Y-123501309D01*
X135115595Y-123539404D01*
X134887023Y-123539404D01*
X134810833Y-123501309D01*
X134772738Y-123463214D01*
X135610833Y-123463214D02*
X135648928Y-123501309D01*
X135610833Y-123539404D01*
X135572738Y-123501309D01*
X135610833Y-123463214D01*
X135610833Y-123539404D01*
X136372738Y-122739404D02*
X135991785Y-122739404D01*
X135953690Y-123120357D01*
X135991785Y-123082261D01*
X136067976Y-123044166D01*
X136258452Y-123044166D01*
X136334642Y-123082261D01*
X136372738Y-123120357D01*
X136410833Y-123196547D01*
X136410833Y-123387023D01*
X136372738Y-123463214D01*
X136334642Y-123501309D01*
X136258452Y-123539404D01*
X136067976Y-123539404D01*
X135991785Y-123501309D01*
X135953690Y-123463214D01*
X136639404Y-122739404D02*
X136906071Y-123539404D01*
X137172738Y-122739404D01*
X147866428Y-130374404D02*
X147866428Y-131022023D01*
X147904523Y-131098214D01*
X147942619Y-131136309D01*
X148018809Y-131174404D01*
X148171190Y-131174404D01*
X148247380Y-131136309D01*
X148285476Y-131098214D01*
X148323571Y-131022023D01*
X148323571Y-130374404D01*
X142151428Y-130374404D02*
X142151428Y-131022023D01*
X142189523Y-131098214D01*
X142227619Y-131136309D01*
X142303809Y-131174404D01*
X142456190Y-131174404D01*
X142532380Y-131136309D01*
X142570476Y-131098214D01*
X142608571Y-131022023D01*
X142608571Y-130374404D01*
X102027380Y-97959047D02*
X102741666Y-97959047D01*
X102884523Y-98006666D01*
X102979761Y-98101904D01*
X103027380Y-98244761D01*
X103027380Y-98340000D01*
X103027380Y-97006666D02*
X103027380Y-97482857D01*
X102027380Y-97482857D01*
X102932142Y-96101904D02*
X102979761Y-96149523D01*
X103027380Y-96292380D01*
X103027380Y-96387619D01*
X102979761Y-96530476D01*
X102884523Y-96625714D01*
X102789285Y-96673333D01*
X102598809Y-96720952D01*
X102455952Y-96720952D01*
X102265476Y-96673333D01*
X102170238Y-96625714D01*
X102075000Y-96530476D01*
X102027380Y-96387619D01*
X102027380Y-96292380D01*
X102075000Y-96149523D01*
X102122619Y-96101904D01*
X102027380Y-95387619D02*
X102741666Y-95387619D01*
X102884523Y-95435238D01*
X102979761Y-95530476D01*
X103027380Y-95673333D01*
X103027380Y-95768571D01*
X103027380Y-94435238D02*
X103027380Y-94911428D01*
X102027380Y-94911428D01*
X102932142Y-93530476D02*
X102979761Y-93578095D01*
X103027380Y-93720952D01*
X103027380Y-93816190D01*
X102979761Y-93959047D01*
X102884523Y-94054285D01*
X102789285Y-94101904D01*
X102598809Y-94149523D01*
X102455952Y-94149523D01*
X102265476Y-94101904D01*
X102170238Y-94054285D01*
X102075000Y-93959047D01*
X102027380Y-93816190D01*
X102027380Y-93720952D01*
X102075000Y-93578095D01*
X102122619Y-93530476D01*
X102027380Y-92816190D02*
X102741666Y-92816190D01*
X102884523Y-92863809D01*
X102979761Y-92959047D01*
X103027380Y-93101904D01*
X103027380Y-93197142D01*
X103027380Y-91863809D02*
X103027380Y-92340000D01*
X102027380Y-92340000D01*
X102932142Y-90959047D02*
X102979761Y-91006666D01*
X103027380Y-91149523D01*
X103027380Y-91244761D01*
X102979761Y-91387619D01*
X102884523Y-91482857D01*
X102789285Y-91530476D01*
X102598809Y-91578095D01*
X102455952Y-91578095D01*
X102265476Y-91530476D01*
X102170238Y-91482857D01*
X102075000Y-91387619D01*
X102027380Y-91244761D01*
X102027380Y-91149523D01*
X102075000Y-91006666D01*
X102122619Y-90959047D01*
X102027380Y-90244761D02*
X102741666Y-90244761D01*
X102884523Y-90292380D01*
X102979761Y-90387619D01*
X103027380Y-90530476D01*
X103027380Y-90625714D01*
X103027380Y-89292380D02*
X103027380Y-89768571D01*
X102027380Y-89768571D01*
X102932142Y-88387619D02*
X102979761Y-88435238D01*
X103027380Y-88578095D01*
X103027380Y-88673333D01*
X102979761Y-88816190D01*
X102884523Y-88911428D01*
X102789285Y-88959047D01*
X102598809Y-89006666D01*
X102455952Y-89006666D01*
X102265476Y-88959047D01*
X102170238Y-88911428D01*
X102075000Y-88816190D01*
X102027380Y-88673333D01*
X102027380Y-88578095D01*
X102075000Y-88435238D01*
X102122619Y-88387619D01*
X150635000Y-131174404D02*
X150635000Y-130374404D01*
X153581428Y-130374404D02*
X153581428Y-131022023D01*
X153619523Y-131098214D01*
X153657619Y-131136309D01*
X153733809Y-131174404D01*
X153886190Y-131174404D01*
X153962380Y-131136309D01*
X154000476Y-131098214D01*
X154038571Y-131022023D01*
X154038571Y-130374404D01*
X138728809Y-125294404D02*
X138881190Y-125294404D01*
X138957380Y-125332500D01*
X139033571Y-125408690D01*
X139071666Y-125561071D01*
X139071666Y-125827738D01*
X139033571Y-125980119D01*
X138957380Y-126056309D01*
X138881190Y-126094404D01*
X138728809Y-126094404D01*
X138652619Y-126056309D01*
X138576428Y-125980119D01*
X138538333Y-125827738D01*
X138538333Y-125561071D01*
X138576428Y-125408690D01*
X138652619Y-125332500D01*
X138728809Y-125294404D01*
X139414523Y-126094404D02*
X139414523Y-125294404D01*
X139871666Y-126094404D02*
X139528809Y-125637261D01*
X139871666Y-125294404D02*
X139414523Y-125751547D01*
X143497619Y-125294404D02*
X143116666Y-125294404D01*
X143078571Y-125675357D01*
X143116666Y-125637261D01*
X143192857Y-125599166D01*
X143383333Y-125599166D01*
X143459523Y-125637261D01*
X143497619Y-125675357D01*
X143535714Y-125751547D01*
X143535714Y-125942023D01*
X143497619Y-126018214D01*
X143459523Y-126056309D01*
X143383333Y-126094404D01*
X143192857Y-126094404D01*
X143116666Y-126056309D01*
X143078571Y-126018214D01*
X143764285Y-125294404D02*
X144030952Y-126094404D01*
X144297619Y-125294404D01*
X148298333Y-126094404D02*
X147841190Y-126094404D01*
X148069761Y-126094404D02*
X148069761Y-125294404D01*
X147993571Y-125408690D01*
X147917380Y-125484880D01*
X147841190Y-125522976D01*
X148565000Y-125294404D02*
X149060238Y-125294404D01*
X148793571Y-125599166D01*
X148907857Y-125599166D01*
X148984047Y-125637261D01*
X149022142Y-125675357D01*
X149060238Y-125751547D01*
X149060238Y-125942023D01*
X149022142Y-126018214D01*
X148984047Y-126056309D01*
X148907857Y-126094404D01*
X148679285Y-126094404D01*
X148603095Y-126056309D01*
X148565000Y-126018214D01*
X149403095Y-126018214D02*
X149441190Y-126056309D01*
X149403095Y-126094404D01*
X149365000Y-126056309D01*
X149403095Y-126018214D01*
X149403095Y-126094404D01*
X150165000Y-125294404D02*
X149784047Y-125294404D01*
X149745952Y-125675357D01*
X149784047Y-125637261D01*
X149860238Y-125599166D01*
X150050714Y-125599166D01*
X150126904Y-125637261D01*
X150165000Y-125675357D01*
X150203095Y-125751547D01*
X150203095Y-125942023D01*
X150165000Y-126018214D01*
X150126904Y-126056309D01*
X150050714Y-126094404D01*
X149860238Y-126094404D01*
X149784047Y-126056309D01*
X149745952Y-126018214D01*
X150431666Y-125294404D02*
X150698333Y-126094404D01*
X150965000Y-125294404D01*
X159296428Y-130374404D02*
X159753571Y-130374404D01*
X159525000Y-131174404D02*
X159525000Y-130374404D01*
X156350000Y-131174404D02*
X156350000Y-130374404D01*
X153099047Y-125789642D02*
X153708571Y-125789642D01*
X154508571Y-126094404D02*
X154051428Y-126094404D01*
X154280000Y-126094404D02*
X154280000Y-125294404D01*
X154203809Y-125408690D01*
X154127619Y-125484880D01*
X154051428Y-125522976D01*
X154775238Y-125294404D02*
X155270476Y-125294404D01*
X155003809Y-125599166D01*
X155118095Y-125599166D01*
X155194285Y-125637261D01*
X155232380Y-125675357D01*
X155270476Y-125751547D01*
X155270476Y-125942023D01*
X155232380Y-126018214D01*
X155194285Y-126056309D01*
X155118095Y-126094404D01*
X154889523Y-126094404D01*
X154813333Y-126056309D01*
X154775238Y-126018214D01*
X155613333Y-126018214D02*
X155651428Y-126056309D01*
X155613333Y-126094404D01*
X155575238Y-126056309D01*
X155613333Y-126018214D01*
X155613333Y-126094404D01*
X156375238Y-125294404D02*
X155994285Y-125294404D01*
X155956190Y-125675357D01*
X155994285Y-125637261D01*
X156070476Y-125599166D01*
X156260952Y-125599166D01*
X156337142Y-125637261D01*
X156375238Y-125675357D01*
X156413333Y-125751547D01*
X156413333Y-125942023D01*
X156375238Y-126018214D01*
X156337142Y-126056309D01*
X156260952Y-126094404D01*
X156070476Y-126094404D01*
X155994285Y-126056309D01*
X155956190Y-126018214D01*
X156641904Y-125294404D02*
X156908571Y-126094404D01*
X157175238Y-125294404D01*
X144920000Y-131174404D02*
X144920000Y-130374404D01*
%TO.C,U1*%
X181623095Y-152412380D02*
X181623095Y-153221904D01*
X181670714Y-153317142D01*
X181718333Y-153364761D01*
X181813571Y-153412380D01*
X182004047Y-153412380D01*
X182099285Y-153364761D01*
X182146904Y-153317142D01*
X182194523Y-153221904D01*
X182194523Y-152412380D01*
X183194523Y-153412380D02*
X182623095Y-153412380D01*
X182908809Y-153412380D02*
X182908809Y-152412380D01*
X182813571Y-152555238D01*
X182718333Y-152650476D01*
X182623095Y-152698095D01*
%TO.C,U3*%
X116853095Y-152552380D02*
X116853095Y-153361904D01*
X116900714Y-153457142D01*
X116948333Y-153504761D01*
X117043571Y-153552380D01*
X117234047Y-153552380D01*
X117329285Y-153504761D01*
X117376904Y-153457142D01*
X117424523Y-153361904D01*
X117424523Y-152552380D01*
X117805476Y-152552380D02*
X118424523Y-152552380D01*
X118091190Y-152933333D01*
X118234047Y-152933333D01*
X118329285Y-152980952D01*
X118376904Y-153028571D01*
X118424523Y-153123809D01*
X118424523Y-153361904D01*
X118376904Y-153457142D01*
X118329285Y-153504761D01*
X118234047Y-153552380D01*
X117948333Y-153552380D01*
X117853095Y-153504761D01*
X117805476Y-153457142D01*
D11*
%TO.C,R14*%
X153710000Y-118959564D02*
X153710000Y-118505436D01*
X155180000Y-118959564D02*
X155180000Y-118505436D01*
%TO.C,R38*%
X147877500Y-81992936D02*
X147877500Y-82447064D01*
X146407500Y-81992936D02*
X146407500Y-82447064D01*
%TO.C,R36*%
X148630000Y-92289564D02*
X148630000Y-91835436D01*
X150100000Y-92289564D02*
X150100000Y-91835436D01*
%TO.C,C4*%
X190540000Y-134551252D02*
X190540000Y-134028748D01*
X192010000Y-134551252D02*
X192010000Y-134028748D01*
%TO.C,C6*%
X109000000Y-128498748D02*
X109000000Y-129921252D01*
X107180000Y-128498748D02*
X107180000Y-129921252D01*
%TO.C,C8*%
X107990000Y-133916252D02*
X107990000Y-133393748D01*
X109460000Y-133916252D02*
X109460000Y-133393748D01*
%TO.C,R1*%
X173595000Y-129617936D02*
X173595000Y-130072064D01*
X172125000Y-129617936D02*
X172125000Y-130072064D01*
%TO.C,R2*%
X190232064Y-130380000D02*
X189777936Y-130380000D01*
X190232064Y-131850000D02*
X189777936Y-131850000D01*
%TO.C,R5*%
X163235000Y-130072064D02*
X163235000Y-129617936D01*
X164705000Y-130072064D02*
X164705000Y-129617936D01*
%TO.C,R6*%
X184697936Y-127205000D02*
X185152064Y-127205000D01*
X184697936Y-128675000D02*
X185152064Y-128675000D01*
%TO.C,R8*%
X119927936Y-127205000D02*
X120382064Y-127205000D01*
X119927936Y-128675000D02*
X120382064Y-128675000D01*
%TO.C,R10*%
X119747064Y-126135000D02*
X119292936Y-126135000D01*
X119747064Y-124665000D02*
X119292936Y-124665000D01*
%TO.C,U1*%
X179845000Y-136070000D02*
X179845000Y-135206000D01*
X181115000Y-136070000D02*
X181115000Y-131405000D01*
X187505000Y-136070000D02*
X177265000Y-136070000D01*
X183655000Y-136070000D02*
X183655000Y-131405000D01*
X184925000Y-136070000D02*
X184925000Y-135206000D01*
X178575000Y-136070000D02*
X178575000Y-131405000D01*
X186195000Y-136070000D02*
X186195000Y-131390000D01*
X177265000Y-151960000D02*
X177265000Y-136070000D01*
X182385000Y-136070000D02*
X182385000Y-135206000D01*
X187505000Y-151960000D02*
X187505000Y-136070000D01*
X187505000Y-151960000D02*
X177265000Y-151960000D01*
%TO.C,U2*%
X146390000Y-96690000D02*
X146390000Y-96390000D01*
X153610000Y-103610000D02*
X153310000Y-103610000D01*
X153610000Y-103310000D02*
X153610000Y-103610000D01*
X146690000Y-103610000D02*
X146690000Y-104925000D01*
X153610000Y-96690000D02*
X153610000Y-96390000D01*
X153610000Y-96390000D02*
X153310000Y-96390000D01*
X146390000Y-96390000D02*
X146690000Y-96390000D01*
X146390000Y-103310000D02*
X146390000Y-103610000D01*
X146390000Y-103610000D02*
X146690000Y-103610000D01*
%TO.C,U3*%
X122735000Y-136210000D02*
X112495000Y-136210000D01*
X116345000Y-136210000D02*
X116345000Y-131545000D01*
X117615000Y-136210000D02*
X117615000Y-135346000D01*
X115075000Y-136210000D02*
X115075000Y-135346000D01*
X121425000Y-136210000D02*
X121425000Y-131530000D01*
X122735000Y-152100000D02*
X112495000Y-152100000D01*
X120155000Y-136210000D02*
X120155000Y-135346000D01*
X112495000Y-152100000D02*
X112495000Y-136210000D01*
X118885000Y-136210000D02*
X118885000Y-131545000D01*
X122735000Y-152100000D02*
X122735000Y-136210000D01*
X113805000Y-136210000D02*
X113805000Y-131545000D01*
%TO.C,C1*%
X176310000Y-133578748D02*
X176310000Y-135001252D01*
X174490000Y-133578748D02*
X174490000Y-135001252D01*
%TO.C,R3*%
X180252936Y-127205000D02*
X180707064Y-127205000D01*
X180252936Y-128675000D02*
X180707064Y-128675000D01*
%TO.C,R4*%
X188000000Y-134517064D02*
X188000000Y-134062936D01*
X189470000Y-134517064D02*
X189470000Y-134062936D01*
%TO.C,J5*%
X172860000Y-70110000D02*
X172860000Y-71810000D01*
X174860000Y-68300000D02*
X174260000Y-68000000D01*
X174860000Y-67700000D02*
X174860000Y-68300000D01*
X158060000Y-63090000D02*
X174060000Y-63090000D01*
X174260000Y-68000000D02*
X174860000Y-67700000D01*
X159260000Y-71810000D02*
X159260000Y-70110000D01*
X174060000Y-63090000D02*
X174060000Y-70110000D01*
X158060000Y-70110000D02*
X158060000Y-63090000D01*
X172860000Y-71810000D02*
X159260000Y-71810000D01*
X174060000Y-70110000D02*
X172860000Y-70110000D01*
X159260000Y-70110000D02*
X158060000Y-70110000D01*
%TO.C,J4*%
X176060000Y-70110000D02*
X176060000Y-63090000D01*
X192060000Y-63090000D02*
X192060000Y-70110000D01*
X190860000Y-71810000D02*
X177260000Y-71810000D01*
X192060000Y-70110000D02*
X190860000Y-70110000D01*
X177260000Y-70110000D02*
X176060000Y-70110000D01*
X176060000Y-63090000D02*
X192060000Y-63090000D01*
X177260000Y-71810000D02*
X177260000Y-70110000D01*
X192260000Y-68000000D02*
X192860000Y-67700000D01*
X192860000Y-68300000D02*
X192260000Y-68000000D01*
X192860000Y-67700000D02*
X192860000Y-68300000D01*
X190860000Y-70110000D02*
X190860000Y-71810000D01*
%TO.C,J3*%
X192340000Y-90000000D02*
X192340000Y-88800000D01*
X194750000Y-90800000D02*
X194150000Y-90800000D01*
X192340000Y-75200000D02*
X192340000Y-74000000D01*
X192340000Y-74000000D02*
X199360000Y-74000000D01*
X199360000Y-74000000D02*
X199360000Y-90000000D01*
X192340000Y-88800000D02*
X190640000Y-88800000D01*
X194150000Y-90800000D02*
X194450000Y-90200000D01*
X199360000Y-90000000D02*
X192340000Y-90000000D01*
X194450000Y-90200000D02*
X194750000Y-90800000D01*
X190640000Y-88800000D02*
X190640000Y-75200000D01*
X190640000Y-75200000D02*
X192340000Y-75200000D01*
%TO.C,R7*%
X115302064Y-127205000D02*
X114847936Y-127205000D01*
X115302064Y-128675000D02*
X114847936Y-128675000D01*
%TO.C,TP2*%
X164535000Y-125082500D02*
G75*
G03*
X164535000Y-125082500I-1200000J0D01*
G01*
%TO.C,TP3*%
X123010000Y-95872500D02*
G75*
G03*
X123010000Y-95872500I-950000J0D01*
G01*
%TO.C,TP4*%
X117227500Y-112700000D02*
G75*
G03*
X117227500Y-112700000I-1200000J0D01*
G01*
%TO.C,TP6*%
X136595000Y-125082500D02*
G75*
G03*
X136595000Y-125082500I-1200000J0D01*
G01*
%TO.C,R17*%
X110530000Y-133882064D02*
X110530000Y-133427936D01*
X112000000Y-133882064D02*
X112000000Y-133427936D01*
%TO.C,J6*%
X192390000Y-124800000D02*
X190690000Y-124800000D01*
X192390000Y-126000000D02*
X192390000Y-124800000D01*
X199410000Y-126000000D02*
X192390000Y-126000000D01*
X192390000Y-110000000D02*
X199410000Y-110000000D01*
X190690000Y-124800000D02*
X190690000Y-111200000D01*
X194200000Y-126800000D02*
X194500000Y-126200000D01*
X192390000Y-111200000D02*
X192390000Y-110000000D01*
X190690000Y-111200000D02*
X192390000Y-111200000D01*
X194800000Y-126800000D02*
X194200000Y-126800000D01*
X194500000Y-126200000D02*
X194800000Y-126800000D01*
X199410000Y-110000000D02*
X199410000Y-126000000D01*
%TO.C,JP1*%
X101200000Y-69600000D02*
X101800000Y-69600000D01*
X100500000Y-71700000D02*
X100500000Y-70300000D01*
X102500000Y-70300000D02*
X102500000Y-71700000D01*
X101800000Y-72400000D02*
X101200000Y-72400000D01*
X101200000Y-72400000D02*
G75*
G02*
X100500000Y-71700000I0J700000D01*
G01*
X101800000Y-69600000D02*
G75*
G02*
X102500000Y-70300000I0J-700000D01*
G01*
X102500000Y-71700000D02*
G75*
G02*
X101800000Y-72400000I-700000J0D01*
G01*
X100500000Y-70300000D02*
G75*
G02*
X101200000Y-69600000I700000J0D01*
G01*
%TO.C,C7*%
X125510000Y-132308748D02*
X125510000Y-133731252D01*
X123690000Y-132308748D02*
X123690000Y-133731252D01*
%TO.C,TP1*%
X117227500Y-104445000D02*
G75*
G03*
X117227500Y-104445000I-1200000J0D01*
G01*
%TO.C,L2*%
X178810378Y-116585000D02*
X179609622Y-116585000D01*
X178810378Y-117705000D02*
X179609622Y-117705000D01*
%TO.C,L3*%
X110394622Y-110235000D02*
X109595378Y-110235000D01*
X110394622Y-111355000D02*
X109595378Y-111355000D01*
%TO.C,C15*%
X183311651Y-125575000D02*
X183311651Y-122630000D01*
X180711651Y-123756000D02*
X180711651Y-119424000D01*
X180311651Y-122936000D02*
X180311651Y-120244000D01*
X180271651Y-122819000D02*
X180271651Y-120361000D01*
X182511651Y-125312000D02*
X182511651Y-122630000D01*
X184032651Y-125667000D02*
X184032651Y-117513000D01*
X182391651Y-125256000D02*
X182391651Y-122630000D01*
X180751651Y-123818000D02*
X180751651Y-119362000D01*
X181351651Y-124535000D02*
X181351651Y-118645000D01*
X183592651Y-125627000D02*
X183592651Y-117553000D01*
X183632651Y-125632000D02*
X183632651Y-117548000D01*
X181591651Y-120550000D02*
X181591651Y-118434000D01*
X182831651Y-125440000D02*
X182831651Y-122630000D01*
X181431651Y-124609000D02*
X181431651Y-122630000D01*
X183712651Y-125642000D02*
X183712651Y-117538000D01*
X181231651Y-124416000D02*
X181231651Y-118764000D01*
X181071651Y-124241000D02*
X181071651Y-118939000D01*
X180911651Y-124044000D02*
X180911651Y-119136000D01*
X182911651Y-125467000D02*
X182911651Y-122630000D01*
X182951651Y-125479000D02*
X182951651Y-122630000D01*
X182791651Y-125425000D02*
X182791651Y-122630000D01*
X182831651Y-120550000D02*
X182831651Y-117740000D01*
X184192651Y-125670000D02*
X184192651Y-117510000D01*
X182951651Y-120550000D02*
X182951651Y-117701000D01*
X182111651Y-120550000D02*
X182111651Y-118073000D01*
X182151651Y-125130000D02*
X182151651Y-122630000D01*
X184072651Y-125669000D02*
X184072651Y-117511000D01*
X180231651Y-122688000D02*
X180231651Y-120492000D01*
X181991651Y-125034000D02*
X181991651Y-122630000D01*
X181711651Y-120550000D02*
X181711651Y-118340000D01*
X180831651Y-123935000D02*
X180831651Y-119245000D01*
X182231651Y-125174000D02*
X182231651Y-122630000D01*
X183111651Y-125526000D02*
X183111651Y-122630000D01*
X180511651Y-123403000D02*
X180511651Y-119777000D01*
X182431651Y-120550000D02*
X182431651Y-117904000D01*
X182391651Y-120550000D02*
X182391651Y-117924000D01*
X182471651Y-125294000D02*
X182471651Y-122630000D01*
X181591651Y-124746000D02*
X181591651Y-122630000D01*
X181111651Y-124287000D02*
X181111651Y-118893000D01*
X183552651Y-125620000D02*
X183552651Y-117560000D01*
X181911651Y-124982000D02*
X181911651Y-122630000D01*
X182871651Y-125453000D02*
X182871651Y-122630000D01*
X183151651Y-125537000D02*
X183151651Y-122630000D01*
X182671651Y-120550000D02*
X182671651Y-117800000D01*
X183471651Y-120550000D02*
X183471651Y-117573000D01*
X181391651Y-124573000D02*
X181391651Y-118607000D01*
X182271651Y-120550000D02*
X182271651Y-117984000D01*
X180431651Y-123235000D02*
X180431651Y-119945000D01*
X181431651Y-120550000D02*
X181431651Y-118571000D01*
X182351651Y-120550000D02*
X182351651Y-117943000D01*
X180351651Y-123043000D02*
X180351651Y-120137000D01*
X181951651Y-125008000D02*
X181951651Y-122630000D01*
X182551651Y-125330000D02*
X182551651Y-122630000D01*
X182071651Y-125083000D02*
X182071651Y-122630000D01*
X180191651Y-122538000D02*
X180191651Y-120642000D01*
X181671651Y-124810000D02*
X181671651Y-122630000D01*
X181551651Y-124714000D02*
X181551651Y-122630000D01*
X182311651Y-120550000D02*
X182311651Y-117963000D01*
X181991651Y-120550000D02*
X181991651Y-118146000D01*
X182791651Y-120550000D02*
X182791651Y-117755000D01*
X180671651Y-123692000D02*
X180671651Y-119488000D01*
X181791651Y-124899000D02*
X181791651Y-122630000D01*
X181271651Y-124457000D02*
X181271651Y-118723000D01*
X180631651Y-123624000D02*
X180631651Y-119556000D01*
X182151651Y-120550000D02*
X182151651Y-118050000D01*
X182871651Y-120550000D02*
X182871651Y-117727000D01*
X183351651Y-120550000D02*
X183351651Y-117596000D01*
X184112651Y-125670000D02*
X184112651Y-117510000D01*
X181151651Y-124331000D02*
X181151651Y-118849000D01*
X181831651Y-124928000D02*
X181831651Y-122630000D01*
X183151651Y-120550000D02*
X183151651Y-117643000D01*
X180871651Y-123990000D02*
X180871651Y-119190000D01*
X188602349Y-123905000D02*
X187802349Y-123905000D01*
X181711651Y-124840000D02*
X181711651Y-122630000D01*
X182071651Y-120550000D02*
X182071651Y-118097000D01*
X183471651Y-125607000D02*
X183471651Y-122630000D01*
X183271651Y-120550000D02*
X183271651Y-117614000D01*
X180951651Y-124095000D02*
X180951651Y-119085000D01*
X181751651Y-120550000D02*
X181751651Y-118310000D01*
X182031651Y-125059000D02*
X182031651Y-122630000D01*
X182591651Y-120550000D02*
X182591651Y-117833000D01*
X183912651Y-125661000D02*
X183912651Y-117519000D01*
X180591651Y-123554000D02*
X180591651Y-119626000D01*
X181631651Y-124779000D02*
X181631651Y-122630000D01*
X181871651Y-120550000D02*
X181871651Y-118225000D01*
X183231651Y-120550000D02*
X183231651Y-117623000D01*
X182911651Y-120550000D02*
X182911651Y-117713000D01*
X183431651Y-125600000D02*
X183431651Y-122630000D01*
X182591651Y-125347000D02*
X182591651Y-122630000D01*
X180471651Y-123321000D02*
X180471651Y-119859000D01*
X182991651Y-120550000D02*
X182991651Y-117688000D01*
X180551651Y-123480000D02*
X180551651Y-119700000D01*
X181511651Y-120550000D02*
X181511651Y-118500000D01*
X182711651Y-120550000D02*
X182711651Y-117785000D01*
X182471651Y-120550000D02*
X182471651Y-117886000D01*
X183672651Y-125638000D02*
X183672651Y-117542000D01*
X180111651Y-122123000D02*
X180111651Y-121057000D01*
X182671651Y-125380000D02*
X182671651Y-122630000D01*
X182351651Y-125237000D02*
X182351651Y-122630000D01*
X183271651Y-125566000D02*
X183271651Y-122630000D01*
X182711651Y-125395000D02*
X182711651Y-122630000D01*
X183111651Y-120550000D02*
X183111651Y-117654000D01*
X181311651Y-124497000D02*
X181311651Y-118683000D01*
X183231651Y-125557000D02*
X183231651Y-122630000D01*
X181671651Y-120550000D02*
X181671651Y-118370000D01*
X182511651Y-120550000D02*
X182511651Y-117868000D01*
X181511651Y-124680000D02*
X181511651Y-122630000D01*
X181951651Y-120550000D02*
X181951651Y-118172000D01*
X182751651Y-120550000D02*
X182751651Y-117769000D01*
X183391651Y-120550000D02*
X183391651Y-117588000D01*
X183351651Y-125584000D02*
X183351651Y-122630000D01*
X188202349Y-124305000D02*
X188202349Y-123505000D01*
X181191651Y-124374000D02*
X181191651Y-118806000D01*
X183952651Y-125664000D02*
X183952651Y-117516000D01*
X181751651Y-124870000D02*
X181751651Y-122630000D01*
X183031651Y-125504000D02*
X183031651Y-122630000D01*
X183992651Y-125666000D02*
X183992651Y-117514000D01*
X183311651Y-120550000D02*
X183311651Y-117605000D01*
X183832651Y-125655000D02*
X183832651Y-117525000D01*
X182991651Y-125492000D02*
X182991651Y-122630000D01*
X181471651Y-124645000D02*
X181471651Y-122630000D01*
X182111651Y-125107000D02*
X182111651Y-122630000D01*
X182631651Y-125364000D02*
X182631651Y-122630000D01*
X181631651Y-120550000D02*
X181631651Y-118401000D01*
X183071651Y-125515000D02*
X183071651Y-122630000D01*
X181831651Y-120550000D02*
X181831651Y-118252000D01*
X183512651Y-125614000D02*
X183512651Y-117566000D01*
X183792651Y-125651000D02*
X183792651Y-117529000D01*
X181871651Y-124955000D02*
X181871651Y-122630000D01*
X183191651Y-125547000D02*
X183191651Y-122630000D01*
X183071651Y-120550000D02*
X183071651Y-117665000D01*
X183752651Y-125647000D02*
X183752651Y-117533000D01*
X180151651Y-122358000D02*
X180151651Y-120822000D01*
X183191651Y-120550000D02*
X183191651Y-117633000D01*
X183872651Y-125658000D02*
X183872651Y-117522000D01*
X182271651Y-125196000D02*
X182271651Y-122630000D01*
X183391651Y-125592000D02*
X183391651Y-122630000D01*
X181471651Y-120550000D02*
X181471651Y-118535000D01*
X182751651Y-125411000D02*
X182751651Y-122630000D01*
X182031651Y-120550000D02*
X182031651Y-118121000D01*
X180991651Y-124146000D02*
X180991651Y-119034000D01*
X182431651Y-125276000D02*
X182431651Y-122630000D01*
X182191651Y-125152000D02*
X182191651Y-122630000D01*
X182311651Y-125217000D02*
X182311651Y-122630000D01*
X182191651Y-120550000D02*
X182191651Y-118028000D01*
X182551651Y-120550000D02*
X182551651Y-117850000D01*
X183431651Y-120550000D02*
X183431651Y-117580000D01*
X180391651Y-123142000D02*
X180391651Y-120038000D01*
X181551651Y-120550000D02*
X181551651Y-118466000D01*
X182631651Y-120550000D02*
X182631651Y-117816000D01*
X184152651Y-125670000D02*
X184152651Y-117510000D01*
X180791651Y-123877000D02*
X180791651Y-119303000D01*
X182231651Y-120550000D02*
X182231651Y-118006000D01*
X181911651Y-120550000D02*
X181911651Y-118198000D01*
X181031651Y-124194000D02*
X181031651Y-118986000D01*
X183031651Y-120550000D02*
X183031651Y-117676000D01*
X181791651Y-120550000D02*
X181791651Y-118281000D01*
X188312651Y-121590000D02*
G75*
G03*
X188312651Y-121590000I-4120000J0D01*
G01*
%TO.C,C17*%
X102514000Y-118211000D02*
X102514000Y-115645000D01*
X100554000Y-115951000D02*
X100554000Y-113259000D01*
X103795000Y-118635000D02*
X103795000Y-110575000D01*
X103835000Y-118642000D02*
X103835000Y-110568000D01*
X102834000Y-118362000D02*
X102834000Y-115645000D01*
X101834000Y-113565000D02*
X101834000Y-111449000D01*
X100354000Y-115138000D02*
X100354000Y-114072000D01*
X102074000Y-113565000D02*
X102074000Y-111267000D01*
X103034000Y-113565000D02*
X103034000Y-110770000D01*
X103755000Y-118629000D02*
X103755000Y-110581000D01*
X102154000Y-117997000D02*
X102154000Y-115645000D01*
X101434000Y-117389000D02*
X101434000Y-111821000D01*
X102914000Y-113565000D02*
X102914000Y-110815000D01*
X104355000Y-118685000D02*
X104355000Y-110525000D01*
X101714000Y-117660000D02*
X101714000Y-115645000D01*
X101674000Y-113565000D02*
X101674000Y-111586000D01*
X102674000Y-118291000D02*
X102674000Y-115645000D01*
X101354000Y-117302000D02*
X101354000Y-111908000D01*
X103514000Y-118581000D02*
X103514000Y-115645000D01*
X103514000Y-113565000D02*
X103514000Y-110629000D01*
X102474000Y-113565000D02*
X102474000Y-111021000D01*
X102034000Y-117914000D02*
X102034000Y-115645000D01*
X103915000Y-118653000D02*
X103915000Y-110557000D01*
X103314000Y-118530000D02*
X103314000Y-115645000D01*
X102754000Y-113565000D02*
X102754000Y-110883000D01*
X101394000Y-117346000D02*
X101394000Y-111864000D01*
X102594000Y-113565000D02*
X102594000Y-110958000D01*
X102954000Y-118410000D02*
X102954000Y-115645000D01*
X100474000Y-115703000D02*
X100474000Y-113507000D01*
X101034000Y-116892000D02*
X101034000Y-112318000D01*
X102474000Y-118189000D02*
X102474000Y-115645000D01*
X103634000Y-113565000D02*
X103634000Y-110603000D01*
X103394000Y-118552000D02*
X103394000Y-115645000D01*
X102634000Y-113565000D02*
X102634000Y-110939000D01*
X102234000Y-113565000D02*
X102234000Y-111161000D01*
X108844698Y-116920000D02*
X108044698Y-116920000D01*
X102394000Y-118145000D02*
X102394000Y-115645000D01*
X102594000Y-118252000D02*
X102594000Y-115645000D01*
X101794000Y-113565000D02*
X101794000Y-111481000D01*
X103434000Y-118562000D02*
X103434000Y-115645000D01*
X103234000Y-113565000D02*
X103234000Y-110703000D01*
X103074000Y-113565000D02*
X103074000Y-110755000D01*
X101874000Y-113565000D02*
X101874000Y-111416000D01*
X102114000Y-117970000D02*
X102114000Y-115645000D01*
X101954000Y-113565000D02*
X101954000Y-111355000D01*
X102274000Y-113565000D02*
X102274000Y-111136000D01*
X100994000Y-116833000D02*
X100994000Y-112377000D01*
X102994000Y-113565000D02*
X102994000Y-110784000D01*
X100914000Y-116707000D02*
X100914000Y-112503000D01*
X101074000Y-116950000D02*
X101074000Y-112260000D01*
X101754000Y-113565000D02*
X101754000Y-111515000D01*
X100434000Y-115553000D02*
X100434000Y-113657000D01*
X102634000Y-118271000D02*
X102634000Y-115645000D01*
X102434000Y-118167000D02*
X102434000Y-115645000D01*
X101154000Y-117059000D02*
X101154000Y-112151000D01*
X101194000Y-117110000D02*
X101194000Y-112100000D01*
X103074000Y-118455000D02*
X103074000Y-115645000D01*
X102434000Y-113565000D02*
X102434000Y-111043000D01*
X101674000Y-117624000D02*
X101674000Y-115645000D01*
X103474000Y-113565000D02*
X103474000Y-110638000D01*
X101994000Y-117885000D02*
X101994000Y-115645000D01*
X103995000Y-118662000D02*
X103995000Y-110548000D01*
X102154000Y-113565000D02*
X102154000Y-111213000D01*
X103594000Y-113565000D02*
X103594000Y-110611000D01*
X102754000Y-118327000D02*
X102754000Y-115645000D01*
X103955000Y-118657000D02*
X103955000Y-110553000D01*
X101914000Y-117825000D02*
X101914000Y-115645000D01*
X104195000Y-118679000D02*
X104195000Y-110531000D01*
X102994000Y-118426000D02*
X102994000Y-115645000D01*
X102194000Y-113565000D02*
X102194000Y-111187000D01*
X100794000Y-116495000D02*
X100794000Y-112715000D01*
X103194000Y-118494000D02*
X103194000Y-115645000D01*
X103714000Y-118622000D02*
X103714000Y-115645000D01*
X102554000Y-118232000D02*
X102554000Y-115645000D01*
X102114000Y-113565000D02*
X102114000Y-111240000D01*
X101514000Y-117472000D02*
X101514000Y-111738000D01*
X104035000Y-118666000D02*
X104035000Y-110544000D01*
X104275000Y-118682000D02*
X104275000Y-110528000D01*
X102034000Y-113565000D02*
X102034000Y-111296000D01*
X103194000Y-113565000D02*
X103194000Y-110716000D01*
X102714000Y-118309000D02*
X102714000Y-115645000D01*
X103354000Y-113565000D02*
X103354000Y-110669000D01*
X103634000Y-118607000D02*
X103634000Y-115645000D01*
X101114000Y-117005000D02*
X101114000Y-112205000D01*
X101634000Y-117588000D02*
X101634000Y-111622000D01*
X103114000Y-113565000D02*
X103114000Y-110742000D01*
X102954000Y-113565000D02*
X102954000Y-110800000D01*
X100514000Y-115834000D02*
X100514000Y-113376000D01*
X102794000Y-113565000D02*
X102794000Y-110865000D01*
X102314000Y-118098000D02*
X102314000Y-115645000D01*
X103554000Y-118590000D02*
X103554000Y-115645000D01*
X102834000Y-113565000D02*
X102834000Y-110848000D01*
X101914000Y-113565000D02*
X101914000Y-111385000D01*
X103154000Y-113565000D02*
X103154000Y-110728000D01*
X101994000Y-113565000D02*
X101994000Y-111325000D01*
X103314000Y-113565000D02*
X103314000Y-110680000D01*
X101314000Y-117256000D02*
X101314000Y-111954000D01*
X100674000Y-116250000D02*
X100674000Y-112960000D01*
X103434000Y-113565000D02*
X103434000Y-110648000D01*
X100874000Y-116639000D02*
X100874000Y-112571000D01*
X102354000Y-118122000D02*
X102354000Y-115645000D01*
X102674000Y-113565000D02*
X102674000Y-110919000D01*
X103234000Y-118507000D02*
X103234000Y-115645000D01*
X103594000Y-118599000D02*
X103594000Y-115645000D01*
X100394000Y-115373000D02*
X100394000Y-113837000D01*
X104115000Y-118673000D02*
X104115000Y-110537000D01*
X100954000Y-116771000D02*
X100954000Y-112439000D01*
X104075000Y-118670000D02*
X104075000Y-110540000D01*
X102874000Y-118379000D02*
X102874000Y-115645000D01*
X104155000Y-118676000D02*
X104155000Y-110534000D01*
X101274000Y-117209000D02*
X101274000Y-112001000D01*
X103474000Y-118572000D02*
X103474000Y-115645000D01*
X104315000Y-118684000D02*
X104315000Y-110526000D01*
X102274000Y-118074000D02*
X102274000Y-115645000D01*
X102394000Y-113565000D02*
X102394000Y-111065000D01*
X101794000Y-117729000D02*
X101794000Y-115645000D01*
X102514000Y-113565000D02*
X102514000Y-110999000D01*
X102354000Y-113565000D02*
X102354000Y-111088000D01*
X102314000Y-113565000D02*
X102314000Y-111112000D01*
X101754000Y-117695000D02*
X101754000Y-115645000D01*
X100714000Y-116336000D02*
X100714000Y-112874000D01*
X101474000Y-117431000D02*
X101474000Y-111779000D01*
X102794000Y-118345000D02*
X102794000Y-115645000D01*
X103274000Y-113565000D02*
X103274000Y-110691000D01*
X102554000Y-113565000D02*
X102554000Y-110978000D01*
X100834000Y-116569000D02*
X100834000Y-112641000D01*
X101714000Y-113565000D02*
X101714000Y-111550000D01*
X104395000Y-118685000D02*
X104395000Y-110525000D01*
X103674000Y-118615000D02*
X103674000Y-115645000D01*
X103354000Y-118541000D02*
X103354000Y-115645000D01*
X101874000Y-117794000D02*
X101874000Y-115645000D01*
X104435000Y-118685000D02*
X104435000Y-110525000D01*
X101594000Y-117550000D02*
X101594000Y-111660000D01*
X102074000Y-117943000D02*
X102074000Y-115645000D01*
X103554000Y-113565000D02*
X103554000Y-110620000D01*
X103274000Y-118519000D02*
X103274000Y-115645000D01*
X100634000Y-116157000D02*
X100634000Y-113053000D01*
X108444698Y-117320000D02*
X108444698Y-116520000D01*
X102234000Y-118049000D02*
X102234000Y-115645000D01*
X101954000Y-117855000D02*
X101954000Y-115645000D01*
X103714000Y-113565000D02*
X103714000Y-110588000D01*
X102874000Y-113565000D02*
X102874000Y-110831000D01*
X103034000Y-118440000D02*
X103034000Y-115645000D01*
X100754000Y-116418000D02*
X100754000Y-112792000D01*
X101234000Y-117161000D02*
X101234000Y-112049000D01*
X102194000Y-118023000D02*
X102194000Y-115645000D01*
X103394000Y-113565000D02*
X103394000Y-110658000D01*
X103875000Y-118647000D02*
X103875000Y-110563000D01*
X103154000Y-118482000D02*
X103154000Y-115645000D01*
X104235000Y-118681000D02*
X104235000Y-110529000D01*
X101834000Y-117761000D02*
X101834000Y-115645000D01*
X103114000Y-118468000D02*
X103114000Y-115645000D01*
X102714000Y-113565000D02*
X102714000Y-110901000D01*
X101554000Y-117512000D02*
X101554000Y-111698000D01*
X103674000Y-113565000D02*
X103674000Y-110595000D01*
X102914000Y-118395000D02*
X102914000Y-115645000D01*
X100594000Y-116058000D02*
X100594000Y-113152000D01*
X108555000Y-114605000D02*
G75*
G03*
X108555000Y-114605000I-4120000J0D01*
G01*
%TO.C,J9*%
X109310000Y-78640000D02*
X109310000Y-108080000D01*
X100590000Y-77440000D02*
X107610000Y-77440000D01*
X100590000Y-109280000D02*
X100590000Y-77440000D01*
X107610000Y-109280000D02*
X100590000Y-109280000D01*
X107610000Y-108080000D02*
X107610000Y-109280000D01*
X105500000Y-77240000D02*
X105200000Y-76640000D01*
X107610000Y-77440000D02*
X107610000Y-78640000D01*
X105200000Y-76640000D02*
X105800000Y-76640000D01*
X109310000Y-108080000D02*
X107610000Y-108080000D01*
X107610000Y-78640000D02*
X109310000Y-78640000D01*
X105800000Y-76640000D02*
X105500000Y-77240000D01*
%TO.C,C14*%
X180911651Y-115154000D02*
X180911651Y-110246000D01*
X183191651Y-111660000D02*
X183191651Y-108743000D01*
X182791651Y-116535000D02*
X182791651Y-113740000D01*
X184192651Y-116780000D02*
X184192651Y-108620000D01*
X184112651Y-116780000D02*
X184112651Y-108620000D01*
X180791651Y-114987000D02*
X180791651Y-110413000D01*
X180871651Y-115100000D02*
X180871651Y-110300000D01*
X180591651Y-114664000D02*
X180591651Y-110736000D01*
X181351651Y-115645000D02*
X181351651Y-109755000D01*
X188202349Y-115415000D02*
X188202349Y-114615000D01*
X182231651Y-116284000D02*
X182231651Y-113740000D01*
X183111651Y-111660000D02*
X183111651Y-108764000D01*
X182191651Y-111660000D02*
X182191651Y-109138000D01*
X183552651Y-116730000D02*
X183552651Y-108670000D01*
X182271651Y-116306000D02*
X182271651Y-113740000D01*
X182111651Y-116217000D02*
X182111651Y-113740000D01*
X181831651Y-116038000D02*
X181831651Y-113740000D01*
X182311651Y-116327000D02*
X182311651Y-113740000D01*
X181631651Y-111660000D02*
X181631651Y-109511000D01*
X183271651Y-111660000D02*
X183271651Y-108724000D01*
X182191651Y-116262000D02*
X182191651Y-113740000D01*
X180231651Y-113798000D02*
X180231651Y-111602000D01*
X183431651Y-111660000D02*
X183431651Y-108690000D01*
X182431651Y-111660000D02*
X182431651Y-109014000D01*
X181431651Y-111660000D02*
X181431651Y-109681000D01*
X182711651Y-116505000D02*
X182711651Y-113740000D01*
X183351651Y-116694000D02*
X183351651Y-113740000D01*
X184032651Y-116777000D02*
X184032651Y-108623000D01*
X182511651Y-111660000D02*
X182511651Y-108978000D01*
X181951651Y-116118000D02*
X181951651Y-113740000D01*
X182151651Y-111660000D02*
X182151651Y-109160000D01*
X182671651Y-116490000D02*
X182671651Y-113740000D01*
X182111651Y-111660000D02*
X182111651Y-109183000D01*
X181751651Y-115980000D02*
X181751651Y-113740000D01*
X184152651Y-116780000D02*
X184152651Y-108620000D01*
X182711651Y-111660000D02*
X182711651Y-108895000D01*
X180711651Y-114866000D02*
X180711651Y-110534000D01*
X181511651Y-111660000D02*
X181511651Y-109610000D01*
X182671651Y-111660000D02*
X182671651Y-108910000D01*
X183632651Y-116742000D02*
X183632651Y-108658000D01*
X181071651Y-115351000D02*
X181071651Y-110049000D01*
X180191651Y-113648000D02*
X180191651Y-111752000D01*
X181711651Y-111660000D02*
X181711651Y-109450000D01*
X183872651Y-116768000D02*
X183872651Y-108632000D01*
X181951651Y-111660000D02*
X181951651Y-109282000D01*
X182511651Y-116422000D02*
X182511651Y-113740000D01*
X180551651Y-114590000D02*
X180551651Y-110810000D01*
X182791651Y-111660000D02*
X182791651Y-108865000D01*
X182831651Y-111660000D02*
X182831651Y-108850000D01*
X182471651Y-116404000D02*
X182471651Y-113740000D01*
X188602349Y-115015000D02*
X187802349Y-115015000D01*
X180511651Y-114513000D02*
X180511651Y-110887000D01*
X181391651Y-115683000D02*
X181391651Y-109717000D01*
X182631651Y-116474000D02*
X182631651Y-113740000D01*
X182311651Y-111660000D02*
X182311651Y-109073000D01*
X180631651Y-114734000D02*
X180631651Y-110666000D01*
X181911651Y-116092000D02*
X181911651Y-113740000D01*
X181111651Y-115397000D02*
X181111651Y-110003000D01*
X181991651Y-111660000D02*
X181991651Y-109256000D01*
X183231651Y-116667000D02*
X183231651Y-113740000D01*
X182591651Y-116457000D02*
X182591651Y-113740000D01*
X182071651Y-116193000D02*
X182071651Y-113740000D01*
X181671651Y-115920000D02*
X181671651Y-113740000D01*
X183031651Y-111660000D02*
X183031651Y-108786000D01*
X181631651Y-115889000D02*
X181631651Y-113740000D01*
X180991651Y-115256000D02*
X180991651Y-110144000D01*
X182831651Y-116550000D02*
X182831651Y-113740000D01*
X182231651Y-111660000D02*
X182231651Y-109116000D01*
X182871651Y-116563000D02*
X182871651Y-113740000D01*
X183512651Y-116724000D02*
X183512651Y-108676000D01*
X182471651Y-111660000D02*
X182471651Y-108996000D01*
X181671651Y-111660000D02*
X181671651Y-109480000D01*
X182991651Y-116602000D02*
X182991651Y-113740000D01*
X181911651Y-111660000D02*
X181911651Y-109308000D01*
X180311651Y-114046000D02*
X180311651Y-111354000D01*
X183231651Y-111660000D02*
X183231651Y-108733000D01*
X182391651Y-111660000D02*
X182391651Y-109034000D01*
X183391651Y-116702000D02*
X183391651Y-113740000D01*
X183752651Y-116757000D02*
X183752651Y-108643000D01*
X181271651Y-115567000D02*
X181271651Y-109833000D01*
X182911651Y-116577000D02*
X182911651Y-113740000D01*
X183672651Y-116748000D02*
X183672651Y-108652000D01*
X182271651Y-111660000D02*
X182271651Y-109094000D01*
X181751651Y-111660000D02*
X181751651Y-109420000D01*
X181991651Y-116144000D02*
X181991651Y-113740000D01*
X180351651Y-114153000D02*
X180351651Y-111247000D01*
X181831651Y-111660000D02*
X181831651Y-109362000D01*
X181591651Y-111660000D02*
X181591651Y-109544000D01*
X181591651Y-115856000D02*
X181591651Y-113740000D01*
X181471651Y-111660000D02*
X181471651Y-109645000D01*
X182431651Y-116386000D02*
X182431651Y-113740000D01*
X182551651Y-116440000D02*
X182551651Y-113740000D01*
X180951651Y-115205000D02*
X180951651Y-110195000D01*
X182751651Y-116521000D02*
X182751651Y-113740000D01*
X181711651Y-115950000D02*
X181711651Y-113740000D01*
X182391651Y-116366000D02*
X182391651Y-113740000D01*
X181551651Y-111660000D02*
X181551651Y-109576000D01*
X183271651Y-116676000D02*
X183271651Y-113740000D01*
X181311651Y-115607000D02*
X181311651Y-109793000D01*
X183992651Y-116776000D02*
X183992651Y-108624000D01*
X180271651Y-113929000D02*
X180271651Y-111471000D01*
X182351651Y-116347000D02*
X182351651Y-113740000D01*
X180831651Y-115045000D02*
X180831651Y-110355000D01*
X183311651Y-116685000D02*
X183311651Y-113740000D01*
X181471651Y-115755000D02*
X181471651Y-113740000D01*
X182951651Y-111660000D02*
X182951651Y-108811000D01*
X183151651Y-111660000D02*
X183151651Y-108753000D01*
X182951651Y-116589000D02*
X182951651Y-113740000D01*
X180431651Y-114345000D02*
X180431651Y-111055000D01*
X183071651Y-111660000D02*
X183071651Y-108775000D01*
X180471651Y-114431000D02*
X180471651Y-110969000D01*
X183111651Y-116636000D02*
X183111651Y-113740000D01*
X182991651Y-111660000D02*
X182991651Y-108798000D01*
X182871651Y-111660000D02*
X182871651Y-108837000D01*
X183471651Y-111660000D02*
X183471651Y-108683000D01*
X182351651Y-111660000D02*
X182351651Y-109053000D01*
X183311651Y-111660000D02*
X183311651Y-108715000D01*
X183952651Y-116774000D02*
X183952651Y-108626000D01*
X183431651Y-116710000D02*
X183431651Y-113740000D01*
X181791651Y-111660000D02*
X181791651Y-109391000D01*
X182031651Y-116169000D02*
X182031651Y-113740000D01*
X181871651Y-116065000D02*
X181871651Y-113740000D01*
X183832651Y-116765000D02*
X183832651Y-108635000D01*
X184072651Y-116779000D02*
X184072651Y-108621000D01*
X181191651Y-115484000D02*
X181191651Y-109916000D01*
X182631651Y-111660000D02*
X182631651Y-108926000D01*
X180151651Y-113468000D02*
X180151651Y-111932000D01*
X182071651Y-111660000D02*
X182071651Y-109207000D01*
X183031651Y-116614000D02*
X183031651Y-113740000D01*
X181551651Y-115824000D02*
X181551651Y-113740000D01*
X182551651Y-111660000D02*
X182551651Y-108960000D01*
X182591651Y-111660000D02*
X182591651Y-108943000D01*
X180111651Y-113233000D02*
X180111651Y-112167000D01*
X183592651Y-116737000D02*
X183592651Y-108663000D01*
X183391651Y-111660000D02*
X183391651Y-108698000D01*
X183191651Y-116657000D02*
X183191651Y-113740000D01*
X183792651Y-116761000D02*
X183792651Y-108639000D01*
X180391651Y-114252000D02*
X180391651Y-111148000D01*
X183071651Y-116625000D02*
X183071651Y-113740000D01*
X182911651Y-111660000D02*
X182911651Y-108823000D01*
X181871651Y-111660000D02*
X181871651Y-109335000D01*
X183471651Y-116717000D02*
X183471651Y-113740000D01*
X183712651Y-116752000D02*
X183712651Y-108648000D01*
X181791651Y-116009000D02*
X181791651Y-113740000D01*
X181511651Y-115790000D02*
X181511651Y-113740000D01*
X180671651Y-114802000D02*
X180671651Y-110598000D01*
X181031651Y-115304000D02*
X181031651Y-110096000D01*
X181231651Y-115526000D02*
X181231651Y-109874000D01*
X181431651Y-115719000D02*
X181431651Y-113740000D01*
X180751651Y-114928000D02*
X180751651Y-110472000D01*
X181151651Y-115441000D02*
X181151651Y-109959000D01*
X183912651Y-116771000D02*
X183912651Y-108629000D01*
X183151651Y-116647000D02*
X183151651Y-113740000D01*
X182031651Y-111660000D02*
X182031651Y-109231000D01*
X183351651Y-111660000D02*
X183351651Y-108706000D01*
X182151651Y-116240000D02*
X182151651Y-113740000D01*
X182751651Y-111660000D02*
X182751651Y-108879000D01*
X188312651Y-112700000D02*
G75*
G03*
X188312651Y-112700000I-4120000J0D01*
G01*
%TO.C,C16*%
X102994000Y-127316000D02*
X102994000Y-124535000D01*
X104155000Y-127566000D02*
X104155000Y-119424000D01*
X102914000Y-127285000D02*
X102914000Y-124535000D01*
X103114000Y-122455000D02*
X103114000Y-119632000D01*
X102754000Y-127217000D02*
X102754000Y-124535000D01*
X102194000Y-126913000D02*
X102194000Y-124535000D01*
X101794000Y-126619000D02*
X101794000Y-124535000D01*
X101074000Y-125840000D02*
X101074000Y-121150000D01*
X102954000Y-122455000D02*
X102954000Y-119690000D01*
X102754000Y-122455000D02*
X102754000Y-119773000D01*
X102074000Y-126833000D02*
X102074000Y-124535000D01*
X102594000Y-127142000D02*
X102594000Y-124535000D01*
X101594000Y-126440000D02*
X101594000Y-120550000D01*
X104235000Y-127571000D02*
X104235000Y-119419000D01*
X102674000Y-127181000D02*
X102674000Y-124535000D01*
X101794000Y-122455000D02*
X101794000Y-120371000D01*
X102154000Y-122455000D02*
X102154000Y-120103000D01*
X103114000Y-127358000D02*
X103114000Y-124535000D01*
X101874000Y-126684000D02*
X101874000Y-124535000D01*
X103835000Y-127532000D02*
X103835000Y-119458000D01*
X103154000Y-122455000D02*
X103154000Y-119618000D01*
X103234000Y-122455000D02*
X103234000Y-119593000D01*
X100674000Y-125140000D02*
X100674000Y-121850000D01*
X103354000Y-122455000D02*
X103354000Y-119559000D01*
X102394000Y-122455000D02*
X102394000Y-119955000D01*
X101674000Y-122455000D02*
X101674000Y-120476000D01*
X103314000Y-122455000D02*
X103314000Y-119570000D01*
X100754000Y-125308000D02*
X100754000Y-121682000D01*
X100954000Y-125661000D02*
X100954000Y-121329000D01*
X103234000Y-127397000D02*
X103234000Y-124535000D01*
X103674000Y-127505000D02*
X103674000Y-124535000D01*
X100434000Y-124443000D02*
X100434000Y-122547000D01*
X101914000Y-126715000D02*
X101914000Y-124535000D01*
X108444698Y-126210000D02*
X108444698Y-125410000D01*
X103074000Y-122455000D02*
X103074000Y-119645000D01*
X103554000Y-127480000D02*
X103554000Y-124535000D01*
X108844698Y-125810000D02*
X108044698Y-125810000D01*
X101834000Y-122455000D02*
X101834000Y-120339000D01*
X103034000Y-122455000D02*
X103034000Y-119660000D01*
X102434000Y-127057000D02*
X102434000Y-124535000D01*
X102714000Y-127199000D02*
X102714000Y-124535000D01*
X103514000Y-122455000D02*
X103514000Y-119519000D01*
X101714000Y-122455000D02*
X101714000Y-120440000D01*
X102674000Y-122455000D02*
X102674000Y-119809000D01*
X102634000Y-122455000D02*
X102634000Y-119829000D01*
X101554000Y-126402000D02*
X101554000Y-120588000D01*
X100994000Y-125723000D02*
X100994000Y-121267000D01*
X104435000Y-127575000D02*
X104435000Y-119415000D01*
X103875000Y-127537000D02*
X103875000Y-119453000D01*
X102834000Y-127252000D02*
X102834000Y-124535000D01*
X104075000Y-127560000D02*
X104075000Y-119430000D01*
X101874000Y-122455000D02*
X101874000Y-120306000D01*
X100634000Y-125047000D02*
X100634000Y-121943000D01*
X101514000Y-126362000D02*
X101514000Y-120628000D01*
X102434000Y-122455000D02*
X102434000Y-119933000D01*
X103034000Y-127330000D02*
X103034000Y-124535000D01*
X103554000Y-122455000D02*
X103554000Y-119510000D01*
X104355000Y-127575000D02*
X104355000Y-119415000D01*
X102274000Y-126964000D02*
X102274000Y-124535000D01*
X101954000Y-126745000D02*
X101954000Y-124535000D01*
X100834000Y-125459000D02*
X100834000Y-121531000D01*
X102514000Y-127101000D02*
X102514000Y-124535000D01*
X102634000Y-127161000D02*
X102634000Y-124535000D01*
X100474000Y-124593000D02*
X100474000Y-122397000D01*
X102994000Y-122455000D02*
X102994000Y-119674000D01*
X103795000Y-127525000D02*
X103795000Y-119465000D01*
X101434000Y-126279000D02*
X101434000Y-120711000D01*
X101194000Y-126000000D02*
X101194000Y-120990000D01*
X102354000Y-122455000D02*
X102354000Y-119978000D01*
X102874000Y-127269000D02*
X102874000Y-124535000D01*
X102714000Y-122455000D02*
X102714000Y-119791000D01*
X102114000Y-122455000D02*
X102114000Y-120130000D01*
X103154000Y-127372000D02*
X103154000Y-124535000D01*
X104315000Y-127574000D02*
X104315000Y-119416000D01*
X101834000Y-126651000D02*
X101834000Y-124535000D01*
X100714000Y-125226000D02*
X100714000Y-121764000D01*
X102314000Y-126988000D02*
X102314000Y-124535000D01*
X101234000Y-126051000D02*
X101234000Y-120939000D01*
X104115000Y-127563000D02*
X104115000Y-119427000D01*
X102074000Y-122455000D02*
X102074000Y-120157000D01*
X103194000Y-127384000D02*
X103194000Y-124535000D01*
X102274000Y-122455000D02*
X102274000Y-120026000D01*
X102234000Y-126939000D02*
X102234000Y-124535000D01*
X100554000Y-124841000D02*
X100554000Y-122149000D01*
X104395000Y-127575000D02*
X104395000Y-119415000D01*
X103674000Y-122455000D02*
X103674000Y-119485000D01*
X102474000Y-127079000D02*
X102474000Y-124535000D01*
X103354000Y-127431000D02*
X103354000Y-124535000D01*
X103915000Y-127543000D02*
X103915000Y-119447000D01*
X103634000Y-122455000D02*
X103634000Y-119493000D01*
X100394000Y-124263000D02*
X100394000Y-122727000D01*
X102914000Y-122455000D02*
X102914000Y-119705000D01*
X102154000Y-126887000D02*
X102154000Y-124535000D01*
X103394000Y-122455000D02*
X103394000Y-119548000D01*
X103474000Y-127462000D02*
X103474000Y-124535000D01*
X102874000Y-122455000D02*
X102874000Y-119721000D01*
X102034000Y-122455000D02*
X102034000Y-120186000D01*
X101954000Y-122455000D02*
X101954000Y-120245000D01*
X103634000Y-127497000D02*
X103634000Y-124535000D01*
X100514000Y-124724000D02*
X100514000Y-122266000D01*
X100914000Y-125597000D02*
X100914000Y-121393000D01*
X101754000Y-126585000D02*
X101754000Y-124535000D01*
X102034000Y-126804000D02*
X102034000Y-124535000D01*
X103995000Y-127552000D02*
X103995000Y-119438000D01*
X102794000Y-127235000D02*
X102794000Y-124535000D01*
X101714000Y-126550000D02*
X101714000Y-124535000D01*
X101114000Y-125895000D02*
X101114000Y-121095000D01*
X103594000Y-122455000D02*
X103594000Y-119501000D01*
X103074000Y-127345000D02*
X103074000Y-124535000D01*
X102514000Y-122455000D02*
X102514000Y-119889000D01*
X103314000Y-127420000D02*
X103314000Y-124535000D01*
X102354000Y-127012000D02*
X102354000Y-124535000D01*
X104035000Y-127556000D02*
X104035000Y-119434000D01*
X103714000Y-127512000D02*
X103714000Y-124535000D01*
X102954000Y-127300000D02*
X102954000Y-124535000D01*
X101474000Y-126321000D02*
X101474000Y-120669000D01*
X101274000Y-126099000D02*
X101274000Y-120891000D01*
X102834000Y-122455000D02*
X102834000Y-119738000D01*
X103755000Y-127519000D02*
X103755000Y-119471000D01*
X101994000Y-122455000D02*
X101994000Y-120215000D01*
X102554000Y-122455000D02*
X102554000Y-119868000D01*
X103194000Y-122455000D02*
X103194000Y-119606000D01*
X103274000Y-127409000D02*
X103274000Y-124535000D01*
X101354000Y-126192000D02*
X101354000Y-120798000D01*
X101394000Y-126236000D02*
X101394000Y-120754000D01*
X101034000Y-125782000D02*
X101034000Y-121208000D01*
X103434000Y-127452000D02*
X103434000Y-124535000D01*
X100354000Y-124028000D02*
X100354000Y-122962000D01*
X103594000Y-127489000D02*
X103594000Y-124535000D01*
X102594000Y-122455000D02*
X102594000Y-119848000D01*
X101914000Y-122455000D02*
X101914000Y-120275000D01*
X103274000Y-122455000D02*
X103274000Y-119581000D01*
X102474000Y-122455000D02*
X102474000Y-119911000D01*
X103714000Y-122455000D02*
X103714000Y-119478000D01*
X103434000Y-122455000D02*
X103434000Y-119538000D01*
X104275000Y-127572000D02*
X104275000Y-119418000D01*
X103514000Y-127471000D02*
X103514000Y-124535000D01*
X100874000Y-125529000D02*
X100874000Y-121461000D01*
X102114000Y-126860000D02*
X102114000Y-124535000D01*
X100594000Y-124948000D02*
X100594000Y-122042000D01*
X101154000Y-125949000D02*
X101154000Y-121041000D01*
X103955000Y-127547000D02*
X103955000Y-119443000D01*
X101754000Y-122455000D02*
X101754000Y-120405000D01*
X102194000Y-122455000D02*
X102194000Y-120077000D01*
X102314000Y-122455000D02*
X102314000Y-120002000D01*
X101314000Y-126146000D02*
X101314000Y-120844000D01*
X103474000Y-122455000D02*
X103474000Y-119528000D01*
X101634000Y-126478000D02*
X101634000Y-120512000D01*
X102234000Y-122455000D02*
X102234000Y-120051000D01*
X104195000Y-127569000D02*
X104195000Y-119421000D01*
X101994000Y-126775000D02*
X101994000Y-124535000D01*
X102394000Y-127035000D02*
X102394000Y-124535000D01*
X100794000Y-125385000D02*
X100794000Y-121605000D01*
X103394000Y-127442000D02*
X103394000Y-124535000D01*
X102794000Y-122455000D02*
X102794000Y-119755000D01*
X102554000Y-127122000D02*
X102554000Y-124535000D01*
X101674000Y-126514000D02*
X101674000Y-124535000D01*
X108555000Y-123495000D02*
G75*
G03*
X108555000Y-123495000I-4120000J0D01*
G01*
%TO.C,C3*%
X176310000Y-128498748D02*
X176310000Y-129921252D01*
X174490000Y-128498748D02*
X174490000Y-129921252D01*
%TO.C,D2*%
X135760000Y-121600000D02*
X135760000Y-117300000D01*
X133760000Y-117300000D02*
X133760000Y-121600000D01*
X133760000Y-121600000D02*
X135760000Y-121600000D01*
%TO.C,D3*%
X128400000Y-80585000D02*
X128400000Y-82585000D01*
X128400000Y-82585000D02*
X132700000Y-82585000D01*
X132700000Y-80585000D02*
X128400000Y-80585000D01*
%TO.C,D4*%
X140165000Y-126587500D02*
X138245000Y-126587500D01*
X140165000Y-129272500D02*
X140165000Y-126587500D01*
X138245000Y-126587500D02*
X138245000Y-129272500D01*
%TO.C,D5*%
X143340000Y-126587500D02*
X141420000Y-126587500D01*
X141420000Y-126587500D02*
X141420000Y-129272500D01*
X143340000Y-129272500D02*
X143340000Y-126587500D01*
%TO.C,R11*%
X177077936Y-124665000D02*
X177532064Y-124665000D01*
X177077936Y-126135000D02*
X177532064Y-126135000D01*
%TO.C,R12*%
X115302064Y-124665000D02*
X114847936Y-124665000D01*
X115302064Y-126135000D02*
X114847936Y-126135000D01*
%TO.C,R13*%
X112127064Y-95137500D02*
X111672936Y-95137500D01*
X112127064Y-96607500D02*
X111672936Y-96607500D01*
%TO.C,R24*%
X111672936Y-101052500D02*
X112127064Y-101052500D01*
X111672936Y-99582500D02*
X112127064Y-99582500D01*
%TO.C,C2*%
X173770000Y-133578748D02*
X173770000Y-135001252D01*
X171950000Y-133578748D02*
X171950000Y-135001252D01*
%TO.C,D1*%
X171860000Y-117300000D02*
X171860000Y-121600000D01*
X173860000Y-121600000D02*
X173860000Y-117300000D01*
X171860000Y-121600000D02*
X173860000Y-121600000D01*
%TO.C,C5*%
X111540000Y-128498748D02*
X111540000Y-129921252D01*
X109720000Y-128498748D02*
X109720000Y-129921252D01*
%TO.C,J8*%
X142260000Y-68000000D02*
X142860000Y-67700000D01*
X126060000Y-63090000D02*
X142060000Y-63090000D01*
X142860000Y-67700000D02*
X142860000Y-68300000D01*
X140860000Y-70110000D02*
X140860000Y-71810000D01*
X127260000Y-71810000D02*
X127260000Y-70110000D01*
X126060000Y-70110000D02*
X126060000Y-63090000D01*
X142060000Y-63090000D02*
X142060000Y-70110000D01*
X142860000Y-68300000D02*
X142260000Y-68000000D01*
X127260000Y-70110000D02*
X126060000Y-70110000D01*
X140860000Y-71810000D02*
X127260000Y-71810000D01*
X142060000Y-70110000D02*
X140860000Y-70110000D01*
%TO.C,TP5*%
X117227500Y-108572500D02*
G75*
G03*
X117227500Y-108572500I-1200000J0D01*
G01*
%TO.C,J7*%
X124860000Y-68350000D02*
X124260000Y-68050000D01*
X109260000Y-70160000D02*
X108060000Y-70160000D01*
X122860000Y-71860000D02*
X109260000Y-71860000D01*
X109260000Y-71860000D02*
X109260000Y-70160000D01*
X108060000Y-70160000D02*
X108060000Y-63140000D01*
X122860000Y-70160000D02*
X122860000Y-71860000D01*
X124860000Y-67750000D02*
X124860000Y-68350000D01*
X124060000Y-63140000D02*
X124060000Y-70160000D01*
X124060000Y-70160000D02*
X122860000Y-70160000D01*
X108060000Y-63140000D02*
X124060000Y-63140000D01*
X124260000Y-68050000D02*
X124860000Y-67750000D01*
%TO.C,J2*%
X194450000Y-108200000D02*
X194750000Y-108800000D01*
X192340000Y-93200000D02*
X192340000Y-92000000D01*
X192340000Y-106800000D02*
X190640000Y-106800000D01*
X199360000Y-92000000D02*
X199360000Y-108000000D01*
X194150000Y-108800000D02*
X194450000Y-108200000D01*
X190640000Y-106800000D02*
X190640000Y-93200000D01*
X192340000Y-108000000D02*
X192340000Y-106800000D01*
X192340000Y-92000000D02*
X199360000Y-92000000D01*
X199360000Y-108000000D02*
X192340000Y-108000000D01*
X194750000Y-108800000D02*
X194150000Y-108800000D01*
X190640000Y-93200000D02*
X192340000Y-93200000D01*
%TO.C,K3*%
X133451900Y-74511100D02*
X113208100Y-74511100D01*
X133451900Y-79768900D02*
X133451900Y-74511100D01*
X113208100Y-79768900D02*
X133451900Y-79768900D01*
X113208100Y-74511100D02*
X113208100Y-79768900D01*
%TO.C,R31*%
X110847500Y-87527064D02*
X110847500Y-87072936D01*
X112317500Y-87527064D02*
X112317500Y-87072936D01*
%TO.C,C22*%
X118623748Y-118515000D02*
X119146252Y-118515000D01*
X118623748Y-117045000D02*
X119146252Y-117045000D01*
%TO.C,U8*%
X114440000Y-91455000D02*
X115240000Y-91455000D01*
X114440000Y-94575000D02*
X113640000Y-94575000D01*
X114440000Y-94575000D02*
X116240000Y-94575000D01*
X114440000Y-91455000D02*
X113640000Y-91455000D01*
%TO.C,R32*%
X114212936Y-87235000D02*
X114667064Y-87235000D01*
X114212936Y-85765000D02*
X114667064Y-85765000D01*
%TO.C,D12*%
X140840000Y-79690000D02*
X140840000Y-75390000D01*
X138840000Y-79690000D02*
X140840000Y-79690000D01*
X138840000Y-75390000D02*
X138840000Y-79690000D01*
%TO.C,R30*%
X118340436Y-80850000D02*
X118794564Y-80850000D01*
X118340436Y-82320000D02*
X118794564Y-82320000D01*
%TO.C,R25*%
X114847936Y-122125000D02*
X115302064Y-122125000D01*
X114847936Y-123595000D02*
X115302064Y-123595000D01*
%TO.C,L4*%
X118175000Y-92615378D02*
X118175000Y-93414622D01*
X117055000Y-92615378D02*
X117055000Y-93414622D01*
%TO.C,C28*%
X110368748Y-75970000D02*
X110891252Y-75970000D01*
X110368748Y-74500000D02*
X110891252Y-74500000D01*
%TO.C,F4*%
X149875000Y-87763733D02*
X149875000Y-88106267D01*
X148855000Y-87763733D02*
X148855000Y-88106267D01*
%TO.C,J22*%
X130900000Y-105140000D02*
X130900000Y-103810000D01*
X133500000Y-105140000D02*
X133500000Y-102480000D01*
X133500000Y-105140000D02*
X141180000Y-105140000D01*
X132230000Y-105140000D02*
X130900000Y-105140000D01*
X141180000Y-105140000D02*
X141180000Y-102480000D01*
X133500000Y-102480000D02*
X141180000Y-102480000D01*
%TO.C,D6*%
X143960000Y-126587500D02*
X143960000Y-129272500D01*
X145880000Y-126587500D02*
X143960000Y-126587500D01*
X145880000Y-129272500D02*
X145880000Y-126587500D01*
%TO.C,R16*%
X171690000Y-113742936D02*
X171690000Y-114197064D01*
X170220000Y-113742936D02*
X170220000Y-114197064D01*
%TO.C,D8*%
X151595000Y-129272500D02*
X151595000Y-126587500D01*
X149675000Y-126587500D02*
X149675000Y-129272500D01*
X151595000Y-126587500D02*
X149675000Y-126587500D01*
%TO.C,Q2*%
X128130000Y-114920000D02*
X128130000Y-113070000D01*
X131190000Y-114900000D02*
X131190000Y-112470000D01*
X129180000Y-114920000D02*
X128130000Y-114920000D01*
X131180000Y-114920000D02*
X130180000Y-114920000D01*
%TO.C,C25*%
X114022500Y-96563748D02*
X114022500Y-97086252D01*
X115492500Y-96563748D02*
X115492500Y-97086252D01*
%TO.C,C29*%
X124065000Y-88308748D02*
X124065000Y-88831252D01*
X122595000Y-88308748D02*
X122595000Y-88831252D01*
%TO.C,J10*%
X179680000Y-82330000D02*
X179680000Y-74490000D01*
X174260000Y-80150000D02*
X173660000Y-80150000D01*
X173660000Y-76670000D02*
X174260000Y-76670000D01*
X174260000Y-76670000D02*
X174260000Y-75070000D01*
X173660000Y-79210000D02*
X174260000Y-79210000D01*
X178680000Y-80950000D02*
X178150000Y-80700000D01*
X179680000Y-80700000D02*
X178680000Y-80700000D01*
X174260000Y-77610000D02*
X173660000Y-77610000D01*
X174260000Y-81750000D02*
X174260000Y-80150000D01*
X174260000Y-75070000D02*
X173660000Y-75070000D01*
X178150000Y-76120000D02*
X178680000Y-75870000D01*
X179680000Y-76120000D02*
X178680000Y-76120000D01*
X179680000Y-74490000D02*
X173660000Y-74490000D01*
X173660000Y-81750000D02*
X174260000Y-81750000D01*
X178150000Y-80700000D02*
X178150000Y-76120000D01*
X179680000Y-80950000D02*
X178680000Y-80950000D01*
X174260000Y-79210000D02*
X174260000Y-77610000D01*
X178680000Y-75870000D02*
X179680000Y-75870000D01*
X174690000Y-82620000D02*
X178690000Y-82620000D01*
X173660000Y-82330000D02*
X179680000Y-82330000D01*
X178680000Y-80950000D02*
X178680000Y-75870000D01*
X173660000Y-74490000D02*
X173660000Y-82330000D01*
%TO.C,C30*%
X147954420Y-109967500D02*
X148235580Y-109967500D01*
X147954420Y-110987500D02*
X148235580Y-110987500D01*
%TO.C,J11*%
X171060000Y-75870000D02*
X172060000Y-75870000D01*
X172060000Y-74490000D02*
X166040000Y-74490000D01*
X166640000Y-77610000D02*
X166040000Y-77610000D01*
X167070000Y-82620000D02*
X171070000Y-82620000D01*
X171060000Y-80950000D02*
X170530000Y-80700000D01*
X172060000Y-80700000D02*
X171060000Y-80700000D01*
X166040000Y-79210000D02*
X166640000Y-79210000D01*
X166640000Y-76670000D02*
X166640000Y-75070000D01*
X170530000Y-80700000D02*
X170530000Y-76120000D01*
X170530000Y-76120000D02*
X171060000Y-75870000D01*
X172060000Y-80950000D02*
X171060000Y-80950000D01*
X166640000Y-80150000D02*
X166040000Y-80150000D01*
X172060000Y-76120000D02*
X171060000Y-76120000D01*
X166640000Y-75070000D02*
X166040000Y-75070000D01*
X166040000Y-74490000D02*
X166040000Y-82330000D01*
X171060000Y-80950000D02*
X171060000Y-75870000D01*
X166040000Y-82330000D02*
X172060000Y-82330000D01*
X166640000Y-81750000D02*
X166640000Y-80150000D01*
X166640000Y-79210000D02*
X166640000Y-77610000D01*
X166040000Y-81750000D02*
X166640000Y-81750000D01*
X172060000Y-82330000D02*
X172060000Y-74490000D01*
X166040000Y-76670000D02*
X166640000Y-76670000D01*
%TO.C,C23*%
X112000000Y-93276252D02*
X112000000Y-92753748D01*
X110530000Y-93276252D02*
X110530000Y-92753748D01*
%TO.C,C31*%
X144461920Y-104955000D02*
X144743080Y-104955000D01*
X144461920Y-103935000D02*
X144743080Y-103935000D01*
%TO.C,R9*%
X173267936Y-126135000D02*
X173722064Y-126135000D01*
X173267936Y-124665000D02*
X173722064Y-124665000D01*
%TO.C,K1*%
X165786100Y-136791900D02*
X171043900Y-136791900D01*
X171043900Y-136791900D02*
X171043900Y-116548100D01*
X171043900Y-116548100D02*
X165786100Y-116548100D01*
X165786100Y-116548100D02*
X165786100Y-136791900D01*
%TO.C,C27*%
X118467500Y-96563748D02*
X118467500Y-97086252D01*
X119937500Y-96563748D02*
X119937500Y-97086252D01*
%TO.C,J14*%
X162910000Y-90225000D02*
X162910000Y-85645000D01*
X163440000Y-90475000D02*
X163440000Y-85395000D01*
X163440000Y-90475000D02*
X162910000Y-90225000D01*
X159450000Y-92145000D02*
X163450000Y-92145000D01*
X163440000Y-85395000D02*
X164440000Y-85395000D01*
X158420000Y-84015000D02*
X158420000Y-91855000D01*
X164440000Y-90475000D02*
X163440000Y-90475000D01*
X164440000Y-90225000D02*
X163440000Y-90225000D01*
X159020000Y-91275000D02*
X159020000Y-89675000D01*
X164440000Y-85645000D02*
X163440000Y-85645000D01*
X158420000Y-88735000D02*
X159020000Y-88735000D01*
X164440000Y-84015000D02*
X158420000Y-84015000D01*
X158420000Y-91855000D02*
X164440000Y-91855000D01*
X162910000Y-85645000D02*
X163440000Y-85395000D01*
X159020000Y-87135000D02*
X158420000Y-87135000D01*
X159020000Y-88735000D02*
X159020000Y-87135000D01*
X159020000Y-86195000D02*
X159020000Y-84595000D01*
X159020000Y-84595000D02*
X158420000Y-84595000D01*
X159020000Y-89675000D02*
X158420000Y-89675000D01*
X158420000Y-91275000D02*
X159020000Y-91275000D01*
X164440000Y-91855000D02*
X164440000Y-84015000D01*
X158420000Y-86195000D02*
X159020000Y-86195000D01*
%TO.C,D10*%
X157310000Y-126587500D02*
X155390000Y-126587500D01*
X157310000Y-129272500D02*
X157310000Y-126587500D01*
X155390000Y-126587500D02*
X155390000Y-129272500D01*
%TO.C,F3*%
X110755000Y-103981267D02*
X110755000Y-103638733D01*
X111775000Y-103981267D02*
X111775000Y-103638733D01*
%TO.C,J18*%
X133425000Y-93665000D02*
X133425000Y-92335000D01*
X136025000Y-92335000D02*
X138625000Y-92335000D01*
X133425000Y-100075000D02*
X138625000Y-100075000D01*
X136025000Y-94935000D02*
X136025000Y-92335000D01*
X138625000Y-92335000D02*
X138625000Y-100075000D01*
X133425000Y-94935000D02*
X133425000Y-100075000D01*
X133425000Y-94935000D02*
X136025000Y-94935000D01*
X133425000Y-92335000D02*
X134755000Y-92335000D01*
%TO.C,R35*%
X136257064Y-78945000D02*
X135802936Y-78945000D01*
X136257064Y-80415000D02*
X135802936Y-80415000D01*
%TO.C,R23*%
X132120000Y-113742936D02*
X132120000Y-114197064D01*
X133590000Y-113742936D02*
X133590000Y-114197064D01*
%TO.C,C33*%
X151462500Y-107760580D02*
X151462500Y-107479420D01*
X150442500Y-107760580D02*
X150442500Y-107479420D01*
%TO.C,R34*%
X126097064Y-82320000D02*
X125642936Y-82320000D01*
X126097064Y-80850000D02*
X125642936Y-80850000D01*
%TO.C,J16*%
X187300000Y-91855000D02*
X187300000Y-84015000D01*
X181280000Y-91275000D02*
X181880000Y-91275000D01*
X181280000Y-88735000D02*
X181880000Y-88735000D01*
X181880000Y-86195000D02*
X181880000Y-84595000D01*
X181880000Y-91275000D02*
X181880000Y-89675000D01*
X181880000Y-88735000D02*
X181880000Y-87135000D01*
X187300000Y-90225000D02*
X186300000Y-90225000D01*
X187300000Y-90475000D02*
X186300000Y-90475000D01*
X186300000Y-90475000D02*
X185770000Y-90225000D01*
X185770000Y-90225000D02*
X185770000Y-85645000D01*
X186300000Y-85395000D02*
X187300000Y-85395000D01*
X181880000Y-89675000D02*
X181280000Y-89675000D01*
X181280000Y-84015000D02*
X181280000Y-91855000D01*
X187300000Y-85645000D02*
X186300000Y-85645000D01*
X185770000Y-85645000D02*
X186300000Y-85395000D01*
X181880000Y-87135000D02*
X181280000Y-87135000D01*
X181880000Y-84595000D02*
X181280000Y-84595000D01*
X182310000Y-92145000D02*
X186310000Y-92145000D01*
X187300000Y-84015000D02*
X181280000Y-84015000D01*
X181280000Y-86195000D02*
X181880000Y-86195000D01*
X181280000Y-91855000D02*
X187300000Y-91855000D01*
X186300000Y-90475000D02*
X186300000Y-85395000D01*
%TO.C,U9*%
X113197500Y-82855000D02*
X113197500Y-83655000D01*
X113197500Y-82855000D02*
X113197500Y-82055000D01*
X116317500Y-82855000D02*
X116317500Y-83655000D01*
X116317500Y-82855000D02*
X116317500Y-81055000D01*
%TO.C,Q4*%
X142720000Y-83730000D02*
X145150000Y-83730000D01*
X142700000Y-80670000D02*
X144550000Y-80670000D01*
X142700000Y-81720000D02*
X142700000Y-80670000D01*
X142700000Y-83720000D02*
X142700000Y-82720000D01*
%TO.C,D9*%
X154770000Y-129272500D02*
X154770000Y-126587500D01*
X154770000Y-126587500D02*
X152850000Y-126587500D01*
X152850000Y-126587500D02*
X152850000Y-129272500D01*
%TO.C,R28*%
X125135000Y-121362936D02*
X125135000Y-121817064D01*
X126605000Y-121362936D02*
X126605000Y-121817064D01*
%TO.C,R39*%
X139105000Y-82447064D02*
X139105000Y-81992936D01*
X140575000Y-82447064D02*
X140575000Y-81992936D01*
%TO.C,C34*%
X153592500Y-107358748D02*
X153592500Y-107881252D01*
X152122500Y-107358748D02*
X152122500Y-107881252D01*
%TO.C,C20*%
X135495000Y-134663748D02*
X135495000Y-135186252D01*
X134025000Y-134663748D02*
X134025000Y-135186252D01*
%TO.C,C19*%
X163235000Y-134663748D02*
X163235000Y-135186252D01*
X164705000Y-134663748D02*
X164705000Y-135186252D01*
%TO.C,D7*%
X149055000Y-129257500D02*
X149055000Y-126572500D01*
X149055000Y-126572500D02*
X147135000Y-126572500D01*
X147135000Y-126572500D02*
X147135000Y-129257500D01*
%TO.C,R18*%
X110857064Y-124665000D02*
X110402936Y-124665000D01*
X110857064Y-126135000D02*
X110402936Y-126135000D01*
%TO.C,J13*%
X173660000Y-88735000D02*
X174260000Y-88735000D01*
X174260000Y-88735000D02*
X174260000Y-87135000D01*
X174260000Y-87135000D02*
X173660000Y-87135000D01*
X174690000Y-92145000D02*
X178690000Y-92145000D01*
X178680000Y-90475000D02*
X178680000Y-85395000D01*
X173660000Y-91275000D02*
X174260000Y-91275000D01*
X179680000Y-85645000D02*
X178680000Y-85645000D01*
X174260000Y-89675000D02*
X173660000Y-89675000D01*
X174260000Y-86195000D02*
X174260000Y-84595000D01*
X173660000Y-91855000D02*
X179680000Y-91855000D01*
X179680000Y-84015000D02*
X173660000Y-84015000D01*
X178150000Y-90225000D02*
X178150000Y-85645000D01*
X173660000Y-84015000D02*
X173660000Y-91855000D01*
X178150000Y-85645000D02*
X178680000Y-85395000D01*
X174260000Y-84595000D02*
X173660000Y-84595000D01*
X173660000Y-86195000D02*
X174260000Y-86195000D01*
X179680000Y-90475000D02*
X178680000Y-90475000D01*
X174260000Y-91275000D02*
X174260000Y-89675000D01*
X178680000Y-85395000D02*
X179680000Y-85395000D01*
X179680000Y-91855000D02*
X179680000Y-84015000D01*
X178680000Y-90475000D02*
X178150000Y-90225000D01*
X179680000Y-90225000D02*
X178680000Y-90225000D01*
%TO.C,R15*%
X164705000Y-118007064D02*
X164705000Y-117552936D01*
X163235000Y-118007064D02*
X163235000Y-117552936D01*
%TO.C,J12*%
X186280000Y-75870000D02*
X187280000Y-75870000D01*
X186280000Y-80950000D02*
X185750000Y-80700000D01*
X186280000Y-80950000D02*
X186280000Y-75870000D01*
X181260000Y-81750000D02*
X181860000Y-81750000D01*
X181860000Y-76670000D02*
X181860000Y-75070000D01*
X181260000Y-76670000D02*
X181860000Y-76670000D01*
X187280000Y-76120000D02*
X186280000Y-76120000D01*
X181860000Y-81750000D02*
X181860000Y-80150000D01*
X185750000Y-76120000D02*
X186280000Y-75870000D01*
X185750000Y-80700000D02*
X185750000Y-76120000D01*
X187280000Y-74490000D02*
X181260000Y-74490000D01*
X187280000Y-80950000D02*
X186280000Y-80950000D01*
X187280000Y-82330000D02*
X187280000Y-74490000D01*
X181860000Y-75070000D02*
X181260000Y-75070000D01*
X187280000Y-80700000D02*
X186280000Y-80700000D01*
X181260000Y-79210000D02*
X181860000Y-79210000D01*
X182290000Y-82620000D02*
X186290000Y-82620000D01*
X181860000Y-79210000D02*
X181860000Y-77610000D01*
X181260000Y-74490000D02*
X181260000Y-82330000D01*
X181260000Y-82330000D02*
X187280000Y-82330000D01*
X181860000Y-80150000D02*
X181260000Y-80150000D01*
X181860000Y-77610000D02*
X181260000Y-77610000D01*
%TO.C,F2*%
X111775000Y-108031267D02*
X111775000Y-107688733D01*
X110755000Y-108031267D02*
X110755000Y-107688733D01*
%TO.C,U7*%
X120790000Y-124150000D02*
X122740000Y-124150000D01*
X120790000Y-124150000D02*
X118840000Y-124150000D01*
X120790000Y-119030000D02*
X117340000Y-119030000D01*
X120790000Y-119030000D02*
X122740000Y-119030000D01*
%TO.C,C32*%
X155538080Y-95045000D02*
X155256920Y-95045000D01*
X155538080Y-96065000D02*
X155256920Y-96065000D01*
%TO.C,SW1*%
X149110000Y-106220000D02*
X149110000Y-106520000D01*
X145810000Y-106520000D02*
X145810000Y-106220000D01*
X145810000Y-108720000D02*
X145810000Y-109020000D01*
X145810000Y-106220000D02*
X149110000Y-106220000D01*
X149110000Y-109020000D02*
X149110000Y-108720000D01*
X145810000Y-109020000D02*
X149110000Y-109020000D01*
%TO.C,K2*%
X132943900Y-136791900D02*
X132943900Y-116548100D01*
X127686100Y-136791900D02*
X132943900Y-136791900D01*
X132943900Y-116548100D02*
X127686100Y-116548100D01*
X127686100Y-116548100D02*
X127686100Y-136791900D01*
%TO.C,C24*%
X112161252Y-97360000D02*
X111638748Y-97360000D01*
X112161252Y-98830000D02*
X111638748Y-98830000D01*
%TO.C,J1*%
X141855000Y-89970000D02*
X142490000Y-89970000D01*
X141855000Y-90605000D02*
X141855000Y-89970000D01*
%TO.C,J17*%
X156820000Y-80950000D02*
X155820000Y-80950000D01*
X151830000Y-82620000D02*
X155830000Y-82620000D01*
X155820000Y-75870000D02*
X156820000Y-75870000D01*
X151400000Y-77610000D02*
X150800000Y-77610000D01*
X155290000Y-80700000D02*
X155290000Y-76120000D01*
X150800000Y-74490000D02*
X150800000Y-82330000D01*
X150800000Y-79210000D02*
X151400000Y-79210000D01*
X151400000Y-81750000D02*
X151400000Y-80150000D01*
X155290000Y-76120000D02*
X155820000Y-75870000D01*
X156820000Y-80700000D02*
X155820000Y-80700000D01*
X151400000Y-79210000D02*
X151400000Y-77610000D01*
X151400000Y-80150000D02*
X150800000Y-80150000D01*
X156820000Y-76120000D02*
X155820000Y-76120000D01*
X156820000Y-82330000D02*
X156820000Y-74490000D01*
X150800000Y-82330000D02*
X156820000Y-82330000D01*
X150800000Y-76670000D02*
X151400000Y-76670000D01*
X155820000Y-80950000D02*
X155290000Y-80700000D01*
X155820000Y-80950000D02*
X155820000Y-75870000D01*
X156820000Y-74490000D02*
X150800000Y-74490000D01*
X151400000Y-75070000D02*
X150800000Y-75070000D01*
X151400000Y-76670000D02*
X151400000Y-75070000D01*
X150800000Y-81750000D02*
X151400000Y-81750000D01*
%TO.C,R33*%
X116445000Y-88977936D02*
X116445000Y-89432064D01*
X114975000Y-88977936D02*
X114975000Y-89432064D01*
%TO.C,Q3*%
X135080000Y-78005000D02*
X135080000Y-77005000D01*
X135100000Y-78015000D02*
X137530000Y-78015000D01*
X135080000Y-74955000D02*
X136930000Y-74955000D01*
X135080000Y-76005000D02*
X135080000Y-74955000D01*
%TO.C,R29*%
X110672500Y-83582064D02*
X110672500Y-82127936D01*
X112492500Y-83582064D02*
X112492500Y-82127936D01*
%TO.C,U10*%
X122080000Y-86665000D02*
X122080000Y-88615000D01*
X116960000Y-86665000D02*
X116960000Y-84715000D01*
X122080000Y-86665000D02*
X122080000Y-83215000D01*
X116960000Y-86665000D02*
X116960000Y-88615000D01*
%TO.C,J19*%
X151400000Y-86195000D02*
X151400000Y-84595000D01*
X151400000Y-84595000D02*
X150800000Y-84595000D01*
X156820000Y-85645000D02*
X155820000Y-85645000D01*
X155820000Y-85395000D02*
X156820000Y-85395000D01*
X156820000Y-91855000D02*
X156820000Y-84015000D01*
X156820000Y-84015000D02*
X150800000Y-84015000D01*
X150800000Y-84015000D02*
X150800000Y-91855000D01*
X156820000Y-90475000D02*
X155820000Y-90475000D01*
X151400000Y-87135000D02*
X150800000Y-87135000D01*
X155290000Y-90225000D02*
X155290000Y-85645000D01*
X151400000Y-89675000D02*
X150800000Y-89675000D01*
X156820000Y-90225000D02*
X155820000Y-90225000D01*
X155820000Y-90475000D02*
X155820000Y-85395000D01*
X155820000Y-90475000D02*
X155290000Y-90225000D01*
X150800000Y-86195000D02*
X151400000Y-86195000D01*
X151830000Y-92145000D02*
X155830000Y-92145000D01*
X150800000Y-88735000D02*
X151400000Y-88735000D01*
X150800000Y-91275000D02*
X151400000Y-91275000D01*
X151400000Y-91275000D02*
X151400000Y-89675000D01*
X155290000Y-85645000D02*
X155820000Y-85395000D01*
X150800000Y-91855000D02*
X156820000Y-91855000D01*
X151400000Y-88735000D02*
X151400000Y-87135000D01*
%TO.C,J21*%
X146400000Y-78160000D02*
X146400000Y-76120000D01*
X141910000Y-79790000D02*
X147930000Y-79790000D01*
X142510000Y-75070000D02*
X141910000Y-75070000D01*
X147930000Y-78160000D02*
X146930000Y-78160000D01*
X142510000Y-76670000D02*
X142510000Y-75070000D01*
X146400000Y-76120000D02*
X146930000Y-75870000D01*
X147930000Y-78410000D02*
X146930000Y-78410000D01*
X146930000Y-78410000D02*
X146400000Y-78160000D01*
X147930000Y-74490000D02*
X141910000Y-74490000D01*
X142510000Y-77610000D02*
X141910000Y-77610000D01*
X146930000Y-75870000D02*
X147930000Y-75870000D01*
X141910000Y-74490000D02*
X141910000Y-79790000D01*
X142940000Y-80080000D02*
X146940000Y-80080000D01*
X141910000Y-79210000D02*
X142510000Y-79210000D01*
X141910000Y-76670000D02*
X142510000Y-76670000D01*
X142510000Y-79210000D02*
X142510000Y-77610000D01*
X147930000Y-76120000D02*
X146930000Y-76120000D01*
X146930000Y-78410000D02*
X146930000Y-75870000D01*
X147930000Y-79790000D02*
X147930000Y-74490000D01*
%TO.C,R22*%
X126605000Y-118007064D02*
X126605000Y-117552936D01*
X125135000Y-118007064D02*
X125135000Y-117552936D01*
%TO.C,TP7*%
X125800000Y-84760000D02*
G75*
G03*
X125800000Y-84760000I-1200000J0D01*
G01*
%TO.C,C26*%
X117715000Y-96563748D02*
X117715000Y-97086252D01*
X116245000Y-96563748D02*
X116245000Y-97086252D01*
%TO.C,J20*%
X166040000Y-91275000D02*
X166640000Y-91275000D01*
X167070000Y-92145000D02*
X171070000Y-92145000D01*
X170530000Y-90225000D02*
X170530000Y-85645000D01*
X172060000Y-91855000D02*
X172060000Y-84015000D01*
X166040000Y-84015000D02*
X166040000Y-91855000D01*
X166640000Y-91275000D02*
X166640000Y-89675000D01*
X172060000Y-84015000D02*
X166040000Y-84015000D01*
X172060000Y-85645000D02*
X171060000Y-85645000D01*
X170530000Y-85645000D02*
X171060000Y-85395000D01*
X171060000Y-85395000D02*
X172060000Y-85395000D01*
X166640000Y-86195000D02*
X166640000Y-84595000D01*
X166640000Y-87135000D02*
X166040000Y-87135000D01*
X166040000Y-88735000D02*
X166640000Y-88735000D01*
X171060000Y-90475000D02*
X170530000Y-90225000D01*
X172060000Y-90475000D02*
X171060000Y-90475000D01*
X166640000Y-88735000D02*
X166640000Y-87135000D01*
X166040000Y-86195000D02*
X166640000Y-86195000D01*
X172060000Y-90225000D02*
X171060000Y-90225000D01*
X166040000Y-91855000D02*
X172060000Y-91855000D01*
X171060000Y-90475000D02*
X171060000Y-85395000D01*
X166640000Y-89675000D02*
X166040000Y-89675000D01*
X166640000Y-84595000D02*
X166040000Y-84595000D01*
%TO.C,U4*%
X143035000Y-119050000D02*
X143035000Y-117100000D01*
X153155000Y-119050000D02*
X153155000Y-115600000D01*
X143035000Y-119050000D02*
X143035000Y-121000000D01*
X153155000Y-119050000D02*
X153155000Y-121000000D01*
%TO.C,C21*%
X122433748Y-117045000D02*
X122956252Y-117045000D01*
X122433748Y-118515000D02*
X122956252Y-118515000D01*
%TO.C,D11*%
X158565000Y-126587500D02*
X158565000Y-129272500D01*
X160485000Y-126587500D02*
X158565000Y-126587500D01*
X160485000Y-129272500D02*
X160485000Y-126587500D01*
%TO.C,J15*%
X164440000Y-76120000D02*
X163440000Y-76120000D01*
X163440000Y-75870000D02*
X164440000Y-75870000D01*
X159020000Y-79210000D02*
X159020000Y-77610000D01*
X159020000Y-75070000D02*
X158420000Y-75070000D01*
X163440000Y-80950000D02*
X162910000Y-80700000D01*
X158420000Y-76670000D02*
X159020000Y-76670000D01*
X164440000Y-80700000D02*
X163440000Y-80700000D01*
X159020000Y-76670000D02*
X159020000Y-75070000D01*
X159450000Y-82620000D02*
X163450000Y-82620000D01*
X158420000Y-74490000D02*
X158420000Y-82330000D01*
X159020000Y-80150000D02*
X158420000Y-80150000D01*
X164440000Y-82330000D02*
X164440000Y-74490000D01*
X162910000Y-80700000D02*
X162910000Y-76120000D01*
X164440000Y-74490000D02*
X158420000Y-74490000D01*
X162910000Y-76120000D02*
X163440000Y-75870000D01*
X158420000Y-79210000D02*
X159020000Y-79210000D01*
X158420000Y-82330000D02*
X164440000Y-82330000D01*
X164440000Y-80950000D02*
X163440000Y-80950000D01*
X159020000Y-77610000D02*
X158420000Y-77610000D01*
X163440000Y-80950000D02*
X163440000Y-75870000D01*
X158420000Y-81750000D02*
X159020000Y-81750000D01*
X159020000Y-81750000D02*
X159020000Y-80150000D01*
%TO.C,Q1*%
X169280000Y-114920000D02*
X168280000Y-114920000D01*
X167280000Y-114920000D02*
X166230000Y-114920000D01*
X166230000Y-114920000D02*
X166230000Y-113070000D01*
X169290000Y-114900000D02*
X169290000Y-112470000D01*
%TO.C,F1*%
X111775000Y-78581267D02*
X111775000Y-78238733D01*
X110755000Y-78581267D02*
X110755000Y-78238733D01*
%TO.C,R27*%
X115302064Y-119585000D02*
X114847936Y-119585000D01*
X115302064Y-121055000D02*
X114847936Y-121055000D01*
%TO.C,L5*%
X154202500Y-107220378D02*
X154202500Y-108019622D01*
X155322500Y-107220378D02*
X155322500Y-108019622D01*
%TO.C,R26*%
X123557064Y-126135000D02*
X123102936Y-126135000D01*
X123557064Y-124665000D02*
X123102936Y-124665000D01*
%TD*%
M02*
