%TF.GenerationSoftware,KiCad,Pcbnew,(5.1.9-0-10_14)*%
%TF.CreationDate,2021-03-28T17:01:51+02:00*%
%TF.ProjectId,Power-Supply,506f7765-722d-4537-9570-706c792e6b69,rev?*%
%TF.SameCoordinates,Original*%
%TF.FileFunction,Paste,Top*%
%TF.FilePolarity,Positive*%
%FSLAX46Y46*%
G04 Gerber Fmt 4.6, Leading zero omitted, Abs format (unit mm)*
G04 Created by KiCad (PCBNEW (5.1.9-0-10_14)) date 2021-03-28 17:01:51*
%MOMM*%
%LPD*%
G01*
G04 APERTURE LIST*
%ADD10R,2.000000X1.500000*%
%ADD11R,2.000000X3.800000*%
%ADD12R,4.550000X5.250000*%
%ADD13R,4.600000X0.800000*%
G04 APERTURE END LIST*
%TO.C,R2*%
G36*
G01*
X151480000Y-83215000D02*
X151480000Y-83765000D01*
G75*
G02*
X151280000Y-83965000I-200000J0D01*
G01*
X150880000Y-83965000D01*
G75*
G02*
X150680000Y-83765000I0J200000D01*
G01*
X150680000Y-83215000D01*
G75*
G02*
X150880000Y-83015000I200000J0D01*
G01*
X151280000Y-83015000D01*
G75*
G02*
X151480000Y-83215000I0J-200000D01*
G01*
G37*
G36*
G01*
X153130000Y-83215000D02*
X153130000Y-83765000D01*
G75*
G02*
X152930000Y-83965000I-200000J0D01*
G01*
X152530000Y-83965000D01*
G75*
G02*
X152330000Y-83765000I0J200000D01*
G01*
X152330000Y-83215000D01*
G75*
G02*
X152530000Y-83015000I200000J0D01*
G01*
X152930000Y-83015000D01*
G75*
G02*
X153130000Y-83215000I0J-200000D01*
G01*
G37*
%TD*%
%TO.C,C13*%
G36*
G01*
X140105000Y-77790001D02*
X140105000Y-76489999D01*
G75*
G02*
X140354999Y-76240000I249999J0D01*
G01*
X141005001Y-76240000D01*
G75*
G02*
X141255000Y-76489999I0J-249999D01*
G01*
X141255000Y-77790001D01*
G75*
G02*
X141005001Y-78040000I-249999J0D01*
G01*
X140354999Y-78040000D01*
G75*
G02*
X140105000Y-77790001I0J249999D01*
G01*
G37*
G36*
G01*
X137155000Y-77790001D02*
X137155000Y-76489999D01*
G75*
G02*
X137404999Y-76240000I249999J0D01*
G01*
X138055001Y-76240000D01*
G75*
G02*
X138305000Y-76489999I0J-249999D01*
G01*
X138305000Y-77790001D01*
G75*
G02*
X138055001Y-78040000I-249999J0D01*
G01*
X137404999Y-78040000D01*
G75*
G02*
X137155000Y-77790001I0J249999D01*
G01*
G37*
%TD*%
%TO.C,R4*%
G36*
G01*
X147567500Y-82812500D02*
X147567500Y-82262500D01*
G75*
G02*
X147767500Y-82062500I200000J0D01*
G01*
X148167500Y-82062500D01*
G75*
G02*
X148367500Y-82262500I0J-200000D01*
G01*
X148367500Y-82812500D01*
G75*
G02*
X148167500Y-83012500I-200000J0D01*
G01*
X147767500Y-83012500D01*
G75*
G02*
X147567500Y-82812500I0J200000D01*
G01*
G37*
G36*
G01*
X145917500Y-82812500D02*
X145917500Y-82262500D01*
G75*
G02*
X146117500Y-82062500I200000J0D01*
G01*
X146517500Y-82062500D01*
G75*
G02*
X146717500Y-82262500I0J-200000D01*
G01*
X146717500Y-82812500D01*
G75*
G02*
X146517500Y-83012500I-200000J0D01*
G01*
X146117500Y-83012500D01*
G75*
G02*
X145917500Y-82812500I0J200000D01*
G01*
G37*
%TD*%
%TO.C,R10*%
G36*
G01*
X160902500Y-112975000D02*
X160902500Y-112425000D01*
G75*
G02*
X161102500Y-112225000I200000J0D01*
G01*
X161502500Y-112225000D01*
G75*
G02*
X161702500Y-112425000I0J-200000D01*
G01*
X161702500Y-112975000D01*
G75*
G02*
X161502500Y-113175000I-200000J0D01*
G01*
X161102500Y-113175000D01*
G75*
G02*
X160902500Y-112975000I0J200000D01*
G01*
G37*
G36*
G01*
X159252500Y-112975000D02*
X159252500Y-112425000D01*
G75*
G02*
X159452500Y-112225000I200000J0D01*
G01*
X159852500Y-112225000D01*
G75*
G02*
X160052500Y-112425000I0J-200000D01*
G01*
X160052500Y-112975000D01*
G75*
G02*
X159852500Y-113175000I-200000J0D01*
G01*
X159452500Y-113175000D01*
G75*
G02*
X159252500Y-112975000I0J200000D01*
G01*
G37*
%TD*%
%TO.C,C6*%
G36*
G01*
X166775000Y-107000001D02*
X166775000Y-105699999D01*
G75*
G02*
X167024999Y-105450000I249999J0D01*
G01*
X167675001Y-105450000D01*
G75*
G02*
X167925000Y-105699999I0J-249999D01*
G01*
X167925000Y-107000001D01*
G75*
G02*
X167675001Y-107250000I-249999J0D01*
G01*
X167024999Y-107250000D01*
G75*
G02*
X166775000Y-107000001I0J249999D01*
G01*
G37*
G36*
G01*
X163825000Y-107000001D02*
X163825000Y-105699999D01*
G75*
G02*
X164074999Y-105450000I249999J0D01*
G01*
X164725001Y-105450000D01*
G75*
G02*
X164975000Y-105699999I0J-249999D01*
G01*
X164975000Y-107000001D01*
G75*
G02*
X164725001Y-107250000I-249999J0D01*
G01*
X164074999Y-107250000D01*
G75*
G02*
X163825000Y-107000001I0J249999D01*
G01*
G37*
%TD*%
%TO.C,R24*%
G36*
G01*
X140115000Y-69095000D02*
X139565000Y-69095000D01*
G75*
G02*
X139365000Y-68895000I0J200000D01*
G01*
X139365000Y-68495000D01*
G75*
G02*
X139565000Y-68295000I200000J0D01*
G01*
X140115000Y-68295000D01*
G75*
G02*
X140315000Y-68495000I0J-200000D01*
G01*
X140315000Y-68895000D01*
G75*
G02*
X140115000Y-69095000I-200000J0D01*
G01*
G37*
G36*
G01*
X140115000Y-70745000D02*
X139565000Y-70745000D01*
G75*
G02*
X139365000Y-70545000I0J200000D01*
G01*
X139365000Y-70145000D01*
G75*
G02*
X139565000Y-69945000I200000J0D01*
G01*
X140115000Y-69945000D01*
G75*
G02*
X140315000Y-70145000I0J-200000D01*
G01*
X140315000Y-70545000D01*
G75*
G02*
X140115000Y-70745000I-200000J0D01*
G01*
G37*
%TD*%
%TO.C,R14*%
G36*
G01*
X162975000Y-133547500D02*
X162425000Y-133547500D01*
G75*
G02*
X162225000Y-133347500I0J200000D01*
G01*
X162225000Y-132947500D01*
G75*
G02*
X162425000Y-132747500I200000J0D01*
G01*
X162975000Y-132747500D01*
G75*
G02*
X163175000Y-132947500I0J-200000D01*
G01*
X163175000Y-133347500D01*
G75*
G02*
X162975000Y-133547500I-200000J0D01*
G01*
G37*
G36*
G01*
X162975000Y-135197500D02*
X162425000Y-135197500D01*
G75*
G02*
X162225000Y-134997500I0J200000D01*
G01*
X162225000Y-134597500D01*
G75*
G02*
X162425000Y-134397500I200000J0D01*
G01*
X162975000Y-134397500D01*
G75*
G02*
X163175000Y-134597500I0J-200000D01*
G01*
X163175000Y-134997500D01*
G75*
G02*
X162975000Y-135197500I-200000J0D01*
G01*
G37*
%TD*%
%TO.C,R13*%
G36*
G01*
X115667500Y-123387500D02*
X115117500Y-123387500D01*
G75*
G02*
X114917500Y-123187500I0J200000D01*
G01*
X114917500Y-122787500D01*
G75*
G02*
X115117500Y-122587500I200000J0D01*
G01*
X115667500Y-122587500D01*
G75*
G02*
X115867500Y-122787500I0J-200000D01*
G01*
X115867500Y-123187500D01*
G75*
G02*
X115667500Y-123387500I-200000J0D01*
G01*
G37*
G36*
G01*
X115667500Y-125037500D02*
X115117500Y-125037500D01*
G75*
G02*
X114917500Y-124837500I0J200000D01*
G01*
X114917500Y-124437500D01*
G75*
G02*
X115117500Y-124237500I200000J0D01*
G01*
X115667500Y-124237500D01*
G75*
G02*
X115867500Y-124437500I0J-200000D01*
G01*
X115867500Y-124837500D01*
G75*
G02*
X115667500Y-125037500I-200000J0D01*
G01*
G37*
%TD*%
%TO.C,R12*%
G36*
G01*
X164647500Y-111855000D02*
X165197500Y-111855000D01*
G75*
G02*
X165397500Y-112055000I0J-200000D01*
G01*
X165397500Y-112455000D01*
G75*
G02*
X165197500Y-112655000I-200000J0D01*
G01*
X164647500Y-112655000D01*
G75*
G02*
X164447500Y-112455000I0J200000D01*
G01*
X164447500Y-112055000D01*
G75*
G02*
X164647500Y-111855000I200000J0D01*
G01*
G37*
G36*
G01*
X164647500Y-110205000D02*
X165197500Y-110205000D01*
G75*
G02*
X165397500Y-110405000I0J-200000D01*
G01*
X165397500Y-110805000D01*
G75*
G02*
X165197500Y-111005000I-200000J0D01*
G01*
X164647500Y-111005000D01*
G75*
G02*
X164447500Y-110805000I0J200000D01*
G01*
X164447500Y-110405000D01*
G75*
G02*
X164647500Y-110205000I200000J0D01*
G01*
G37*
%TD*%
%TO.C,R11*%
G36*
G01*
X164562500Y-80525000D02*
X164012500Y-80525000D01*
G75*
G02*
X163812500Y-80325000I0J200000D01*
G01*
X163812500Y-79925000D01*
G75*
G02*
X164012500Y-79725000I200000J0D01*
G01*
X164562500Y-79725000D01*
G75*
G02*
X164762500Y-79925000I0J-200000D01*
G01*
X164762500Y-80325000D01*
G75*
G02*
X164562500Y-80525000I-200000J0D01*
G01*
G37*
G36*
G01*
X164562500Y-82175000D02*
X164012500Y-82175000D01*
G75*
G02*
X163812500Y-81975000I0J200000D01*
G01*
X163812500Y-81575000D01*
G75*
G02*
X164012500Y-81375000I200000J0D01*
G01*
X164562500Y-81375000D01*
G75*
G02*
X164762500Y-81575000I0J-200000D01*
G01*
X164762500Y-81975000D01*
G75*
G02*
X164562500Y-82175000I-200000J0D01*
G01*
G37*
%TD*%
%TO.C,D5*%
G36*
G01*
X139583750Y-66695000D02*
X140096250Y-66695000D01*
G75*
G02*
X140315000Y-66913750I0J-218750D01*
G01*
X140315000Y-67351250D01*
G75*
G02*
X140096250Y-67570000I-218750J0D01*
G01*
X139583750Y-67570000D01*
G75*
G02*
X139365000Y-67351250I0J218750D01*
G01*
X139365000Y-66913750D01*
G75*
G02*
X139583750Y-66695000I218750J0D01*
G01*
G37*
G36*
G01*
X139583750Y-65120000D02*
X140096250Y-65120000D01*
G75*
G02*
X140315000Y-65338750I0J-218750D01*
G01*
X140315000Y-65776250D01*
G75*
G02*
X140096250Y-65995000I-218750J0D01*
G01*
X139583750Y-65995000D01*
G75*
G02*
X139365000Y-65776250I0J218750D01*
G01*
X139365000Y-65338750D01*
G75*
G02*
X139583750Y-65120000I218750J0D01*
G01*
G37*
%TD*%
%TO.C,D4*%
G36*
G01*
X162443750Y-131147500D02*
X162956250Y-131147500D01*
G75*
G02*
X163175000Y-131366250I0J-218750D01*
G01*
X163175000Y-131803750D01*
G75*
G02*
X162956250Y-132022500I-218750J0D01*
G01*
X162443750Y-132022500D01*
G75*
G02*
X162225000Y-131803750I0J218750D01*
G01*
X162225000Y-131366250D01*
G75*
G02*
X162443750Y-131147500I218750J0D01*
G01*
G37*
G36*
G01*
X162443750Y-129572500D02*
X162956250Y-129572500D01*
G75*
G02*
X163175000Y-129791250I0J-218750D01*
G01*
X163175000Y-130228750D01*
G75*
G02*
X162956250Y-130447500I-218750J0D01*
G01*
X162443750Y-130447500D01*
G75*
G02*
X162225000Y-130228750I0J218750D01*
G01*
X162225000Y-129791250D01*
G75*
G02*
X162443750Y-129572500I218750J0D01*
G01*
G37*
%TD*%
%TO.C,D3*%
G36*
G01*
X115136250Y-120987500D02*
X115648750Y-120987500D01*
G75*
G02*
X115867500Y-121206250I0J-218750D01*
G01*
X115867500Y-121643750D01*
G75*
G02*
X115648750Y-121862500I-218750J0D01*
G01*
X115136250Y-121862500D01*
G75*
G02*
X114917500Y-121643750I0J218750D01*
G01*
X114917500Y-121206250D01*
G75*
G02*
X115136250Y-120987500I218750J0D01*
G01*
G37*
G36*
G01*
X115136250Y-119412500D02*
X115648750Y-119412500D01*
G75*
G02*
X115867500Y-119631250I0J-218750D01*
G01*
X115867500Y-120068750D01*
G75*
G02*
X115648750Y-120287500I-218750J0D01*
G01*
X115136250Y-120287500D01*
G75*
G02*
X114917500Y-120068750I0J218750D01*
G01*
X114917500Y-119631250D01*
G75*
G02*
X115136250Y-119412500I218750J0D01*
G01*
G37*
%TD*%
%TO.C,D2*%
G36*
G01*
X167083750Y-111080000D02*
X166571250Y-111080000D01*
G75*
G02*
X166352500Y-110861250I0J218750D01*
G01*
X166352500Y-110423750D01*
G75*
G02*
X166571250Y-110205000I218750J0D01*
G01*
X167083750Y-110205000D01*
G75*
G02*
X167302500Y-110423750I0J-218750D01*
G01*
X167302500Y-110861250D01*
G75*
G02*
X167083750Y-111080000I-218750J0D01*
G01*
G37*
G36*
G01*
X167083750Y-112655000D02*
X166571250Y-112655000D01*
G75*
G02*
X166352500Y-112436250I0J218750D01*
G01*
X166352500Y-111998750D01*
G75*
G02*
X166571250Y-111780000I218750J0D01*
G01*
X167083750Y-111780000D01*
G75*
G02*
X167302500Y-111998750I0J-218750D01*
G01*
X167302500Y-112436250D01*
G75*
G02*
X167083750Y-112655000I-218750J0D01*
G01*
G37*
%TD*%
%TO.C,D1*%
G36*
G01*
X166448750Y-80600000D02*
X165936250Y-80600000D01*
G75*
G02*
X165717500Y-80381250I0J218750D01*
G01*
X165717500Y-79943750D01*
G75*
G02*
X165936250Y-79725000I218750J0D01*
G01*
X166448750Y-79725000D01*
G75*
G02*
X166667500Y-79943750I0J-218750D01*
G01*
X166667500Y-80381250D01*
G75*
G02*
X166448750Y-80600000I-218750J0D01*
G01*
G37*
G36*
G01*
X166448750Y-82175000D02*
X165936250Y-82175000D01*
G75*
G02*
X165717500Y-81956250I0J218750D01*
G01*
X165717500Y-81518750D01*
G75*
G02*
X165936250Y-81300000I218750J0D01*
G01*
X166448750Y-81300000D01*
G75*
G02*
X166667500Y-81518750I0J-218750D01*
G01*
X166667500Y-81956250D01*
G75*
G02*
X166448750Y-82175000I-218750J0D01*
G01*
G37*
%TD*%
%TO.C,C7*%
G36*
G01*
X139787500Y-110810001D02*
X139787500Y-109509999D01*
G75*
G02*
X140037499Y-109260000I249999J0D01*
G01*
X140687501Y-109260000D01*
G75*
G02*
X140937500Y-109509999I0J-249999D01*
G01*
X140937500Y-110810001D01*
G75*
G02*
X140687501Y-111060000I-249999J0D01*
G01*
X140037499Y-111060000D01*
G75*
G02*
X139787500Y-110810001I0J249999D01*
G01*
G37*
G36*
G01*
X136837500Y-110810001D02*
X136837500Y-109509999D01*
G75*
G02*
X137087499Y-109260000I249999J0D01*
G01*
X137737501Y-109260000D01*
G75*
G02*
X137987500Y-109509999I0J-249999D01*
G01*
X137987500Y-110810001D01*
G75*
G02*
X137737501Y-111060000I-249999J0D01*
G01*
X137087499Y-111060000D01*
G75*
G02*
X136837500Y-110810001I0J249999D01*
G01*
G37*
%TD*%
%TO.C,L2*%
G36*
G01*
X129035000Y-98476250D02*
X129035000Y-97713750D01*
G75*
G02*
X129253750Y-97495000I218750J0D01*
G01*
X129691250Y-97495000D01*
G75*
G02*
X129910000Y-97713750I0J-218750D01*
G01*
X129910000Y-98476250D01*
G75*
G02*
X129691250Y-98695000I-218750J0D01*
G01*
X129253750Y-98695000D01*
G75*
G02*
X129035000Y-98476250I0J218750D01*
G01*
G37*
G36*
G01*
X126910000Y-98476250D02*
X126910000Y-97713750D01*
G75*
G02*
X127128750Y-97495000I218750J0D01*
G01*
X127566250Y-97495000D01*
G75*
G02*
X127785000Y-97713750I0J-218750D01*
G01*
X127785000Y-98476250D01*
G75*
G02*
X127566250Y-98695000I-218750J0D01*
G01*
X127128750Y-98695000D01*
G75*
G02*
X126910000Y-98476250I0J218750D01*
G01*
G37*
%TD*%
%TO.C,L3*%
G36*
G01*
X129035000Y-100381250D02*
X129035000Y-99618750D01*
G75*
G02*
X129253750Y-99400000I218750J0D01*
G01*
X129691250Y-99400000D01*
G75*
G02*
X129910000Y-99618750I0J-218750D01*
G01*
X129910000Y-100381250D01*
G75*
G02*
X129691250Y-100600000I-218750J0D01*
G01*
X129253750Y-100600000D01*
G75*
G02*
X129035000Y-100381250I0J218750D01*
G01*
G37*
G36*
G01*
X126910000Y-100381250D02*
X126910000Y-99618750D01*
G75*
G02*
X127128750Y-99400000I218750J0D01*
G01*
X127566250Y-99400000D01*
G75*
G02*
X127785000Y-99618750I0J-218750D01*
G01*
X127785000Y-100381250D01*
G75*
G02*
X127566250Y-100600000I-218750J0D01*
G01*
X127128750Y-100600000D01*
G75*
G02*
X126910000Y-100381250I0J218750D01*
G01*
G37*
%TD*%
%TO.C,C12*%
G36*
G01*
X122032501Y-111507500D02*
X120182499Y-111507500D01*
G75*
G02*
X119932500Y-111257501I0J249999D01*
G01*
X119932500Y-110432499D01*
G75*
G02*
X120182499Y-110182500I249999J0D01*
G01*
X122032501Y-110182500D01*
G75*
G02*
X122282500Y-110432499I0J-249999D01*
G01*
X122282500Y-111257501D01*
G75*
G02*
X122032501Y-111507500I-249999J0D01*
G01*
G37*
G36*
G01*
X122032501Y-114582500D02*
X120182499Y-114582500D01*
G75*
G02*
X119932500Y-114332501I0J249999D01*
G01*
X119932500Y-113507499D01*
G75*
G02*
X120182499Y-113257500I249999J0D01*
G01*
X122032501Y-113257500D01*
G75*
G02*
X122282500Y-113507499I0J-249999D01*
G01*
X122282500Y-114332501D01*
G75*
G02*
X122032501Y-114582500I-249999J0D01*
G01*
G37*
%TD*%
%TO.C,C11*%
G36*
G01*
X125842501Y-111507500D02*
X123992499Y-111507500D01*
G75*
G02*
X123742500Y-111257501I0J249999D01*
G01*
X123742500Y-110432499D01*
G75*
G02*
X123992499Y-110182500I249999J0D01*
G01*
X125842501Y-110182500D01*
G75*
G02*
X126092500Y-110432499I0J-249999D01*
G01*
X126092500Y-111257501D01*
G75*
G02*
X125842501Y-111507500I-249999J0D01*
G01*
G37*
G36*
G01*
X125842501Y-114582500D02*
X123992499Y-114582500D01*
G75*
G02*
X123742500Y-114332501I0J249999D01*
G01*
X123742500Y-113507499D01*
G75*
G02*
X123992499Y-113257500I249999J0D01*
G01*
X125842501Y-113257500D01*
G75*
G02*
X126092500Y-113507499I0J-249999D01*
G01*
X126092500Y-114332501D01*
G75*
G02*
X125842501Y-114582500I-249999J0D01*
G01*
G37*
%TD*%
%TO.C,C5*%
G36*
G01*
X166775000Y-104460001D02*
X166775000Y-103159999D01*
G75*
G02*
X167024999Y-102910000I249999J0D01*
G01*
X167675001Y-102910000D01*
G75*
G02*
X167925000Y-103159999I0J-249999D01*
G01*
X167925000Y-104460001D01*
G75*
G02*
X167675001Y-104710000I-249999J0D01*
G01*
X167024999Y-104710000D01*
G75*
G02*
X166775000Y-104460001I0J249999D01*
G01*
G37*
G36*
G01*
X163825000Y-104460001D02*
X163825000Y-103159999D01*
G75*
G02*
X164074999Y-102910000I249999J0D01*
G01*
X164725001Y-102910000D01*
G75*
G02*
X164975000Y-103159999I0J-249999D01*
G01*
X164975000Y-104460001D01*
G75*
G02*
X164725001Y-104710000I-249999J0D01*
G01*
X164074999Y-104710000D01*
G75*
G02*
X163825000Y-104460001I0J249999D01*
G01*
G37*
%TD*%
%TO.C,C3*%
G36*
G01*
X139787500Y-95570001D02*
X139787500Y-94269999D01*
G75*
G02*
X140037499Y-94020000I249999J0D01*
G01*
X140687501Y-94020000D01*
G75*
G02*
X140937500Y-94269999I0J-249999D01*
G01*
X140937500Y-95570001D01*
G75*
G02*
X140687501Y-95820000I-249999J0D01*
G01*
X140037499Y-95820000D01*
G75*
G02*
X139787500Y-95570001I0J249999D01*
G01*
G37*
G36*
G01*
X136837500Y-95570001D02*
X136837500Y-94269999D01*
G75*
G02*
X137087499Y-94020000I249999J0D01*
G01*
X137737501Y-94020000D01*
G75*
G02*
X137987500Y-94269999I0J-249999D01*
G01*
X137987500Y-95570001D01*
G75*
G02*
X137737501Y-95820000I-249999J0D01*
G01*
X137087499Y-95820000D01*
G75*
G02*
X136837500Y-95570001I0J249999D01*
G01*
G37*
%TD*%
%TO.C,C2*%
G36*
G01*
X161414999Y-86930000D02*
X162715001Y-86930000D01*
G75*
G02*
X162965000Y-87179999I0J-249999D01*
G01*
X162965000Y-87830001D01*
G75*
G02*
X162715001Y-88080000I-249999J0D01*
G01*
X161414999Y-88080000D01*
G75*
G02*
X161165000Y-87830001I0J249999D01*
G01*
X161165000Y-87179999D01*
G75*
G02*
X161414999Y-86930000I249999J0D01*
G01*
G37*
G36*
G01*
X161414999Y-83980000D02*
X162715001Y-83980000D01*
G75*
G02*
X162965000Y-84229999I0J-249999D01*
G01*
X162965000Y-84880001D01*
G75*
G02*
X162715001Y-85130000I-249999J0D01*
G01*
X161414999Y-85130000D01*
G75*
G02*
X161165000Y-84880001I0J249999D01*
G01*
X161165000Y-84229999D01*
G75*
G02*
X161414999Y-83980000I249999J0D01*
G01*
G37*
%TD*%
%TO.C,C1*%
G36*
G01*
X162715001Y-80050000D02*
X161414999Y-80050000D01*
G75*
G02*
X161165000Y-79800001I0J249999D01*
G01*
X161165000Y-79149999D01*
G75*
G02*
X161414999Y-78900000I249999J0D01*
G01*
X162715001Y-78900000D01*
G75*
G02*
X162965000Y-79149999I0J-249999D01*
G01*
X162965000Y-79800001D01*
G75*
G02*
X162715001Y-80050000I-249999J0D01*
G01*
G37*
G36*
G01*
X162715001Y-83000000D02*
X161414999Y-83000000D01*
G75*
G02*
X161165000Y-82750001I0J249999D01*
G01*
X161165000Y-82099999D01*
G75*
G02*
X161414999Y-81850000I249999J0D01*
G01*
X162715001Y-81850000D01*
G75*
G02*
X162965000Y-82099999I0J-249999D01*
G01*
X162965000Y-82750001D01*
G75*
G02*
X162715001Y-83000000I-249999J0D01*
G01*
G37*
%TD*%
%TO.C,R21*%
G36*
G01*
X152330000Y-126310000D02*
X152330000Y-125760000D01*
G75*
G02*
X152530000Y-125560000I200000J0D01*
G01*
X152930000Y-125560000D01*
G75*
G02*
X153130000Y-125760000I0J-200000D01*
G01*
X153130000Y-126310000D01*
G75*
G02*
X152930000Y-126510000I-200000J0D01*
G01*
X152530000Y-126510000D01*
G75*
G02*
X152330000Y-126310000I0J200000D01*
G01*
G37*
G36*
G01*
X150680000Y-126310000D02*
X150680000Y-125760000D01*
G75*
G02*
X150880000Y-125560000I200000J0D01*
G01*
X151280000Y-125560000D01*
G75*
G02*
X151480000Y-125760000I0J-200000D01*
G01*
X151480000Y-126310000D01*
G75*
G02*
X151280000Y-126510000I-200000J0D01*
G01*
X150880000Y-126510000D01*
G75*
G02*
X150680000Y-126310000I0J200000D01*
G01*
G37*
%TD*%
%TO.C,R20*%
G36*
G01*
X123120000Y-126310000D02*
X123120000Y-125760000D01*
G75*
G02*
X123320000Y-125560000I200000J0D01*
G01*
X123720000Y-125560000D01*
G75*
G02*
X123920000Y-125760000I0J-200000D01*
G01*
X123920000Y-126310000D01*
G75*
G02*
X123720000Y-126510000I-200000J0D01*
G01*
X123320000Y-126510000D01*
G75*
G02*
X123120000Y-126310000I0J200000D01*
G01*
G37*
G36*
G01*
X121470000Y-126310000D02*
X121470000Y-125760000D01*
G75*
G02*
X121670000Y-125560000I200000J0D01*
G01*
X122070000Y-125560000D01*
G75*
G02*
X122270000Y-125760000I0J-200000D01*
G01*
X122270000Y-126310000D01*
G75*
G02*
X122070000Y-126510000I-200000J0D01*
G01*
X121670000Y-126510000D01*
G75*
G02*
X121470000Y-126310000I0J200000D01*
G01*
G37*
%TD*%
%TO.C,R19*%
G36*
G01*
X119945000Y-126310000D02*
X119945000Y-125760000D01*
G75*
G02*
X120145000Y-125560000I200000J0D01*
G01*
X120545000Y-125560000D01*
G75*
G02*
X120745000Y-125760000I0J-200000D01*
G01*
X120745000Y-126310000D01*
G75*
G02*
X120545000Y-126510000I-200000J0D01*
G01*
X120145000Y-126510000D01*
G75*
G02*
X119945000Y-126310000I0J200000D01*
G01*
G37*
G36*
G01*
X118295000Y-126310000D02*
X118295000Y-125760000D01*
G75*
G02*
X118495000Y-125560000I200000J0D01*
G01*
X118895000Y-125560000D01*
G75*
G02*
X119095000Y-125760000I0J-200000D01*
G01*
X119095000Y-126310000D01*
G75*
G02*
X118895000Y-126510000I-200000J0D01*
G01*
X118495000Y-126510000D01*
G75*
G02*
X118295000Y-126310000I0J200000D01*
G01*
G37*
%TD*%
%TO.C,L1*%
G36*
G01*
X115328750Y-113117500D02*
X116091250Y-113117500D01*
G75*
G02*
X116310000Y-113336250I0J-218750D01*
G01*
X116310000Y-113773750D01*
G75*
G02*
X116091250Y-113992500I-218750J0D01*
G01*
X115328750Y-113992500D01*
G75*
G02*
X115110000Y-113773750I0J218750D01*
G01*
X115110000Y-113336250D01*
G75*
G02*
X115328750Y-113117500I218750J0D01*
G01*
G37*
G36*
G01*
X115328750Y-110992500D02*
X116091250Y-110992500D01*
G75*
G02*
X116310000Y-111211250I0J-218750D01*
G01*
X116310000Y-111648750D01*
G75*
G02*
X116091250Y-111867500I-218750J0D01*
G01*
X115328750Y-111867500D01*
G75*
G02*
X115110000Y-111648750I0J218750D01*
G01*
X115110000Y-111211250D01*
G75*
G02*
X115328750Y-110992500I218750J0D01*
G01*
G37*
%TD*%
D10*
%TO.C,U5*%
X156150000Y-134685000D03*
X156150000Y-130085000D03*
X156150000Y-132385000D03*
D11*
X149850000Y-132385000D03*
%TD*%
%TO.C,C10*%
G36*
G01*
X159975000Y-132860000D02*
X159975000Y-131910000D01*
G75*
G02*
X160225000Y-131660000I250000J0D01*
G01*
X160725000Y-131660000D01*
G75*
G02*
X160975000Y-131910000I0J-250000D01*
G01*
X160975000Y-132860000D01*
G75*
G02*
X160725000Y-133110000I-250000J0D01*
G01*
X160225000Y-133110000D01*
G75*
G02*
X159975000Y-132860000I0J250000D01*
G01*
G37*
G36*
G01*
X158075000Y-132860000D02*
X158075000Y-131910000D01*
G75*
G02*
X158325000Y-131660000I250000J0D01*
G01*
X158825000Y-131660000D01*
G75*
G02*
X159075000Y-131910000I0J-250000D01*
G01*
X159075000Y-132860000D01*
G75*
G02*
X158825000Y-133110000I-250000J0D01*
G01*
X158325000Y-133110000D01*
G75*
G02*
X158075000Y-132860000I0J250000D01*
G01*
G37*
%TD*%
%TO.C,C9*%
G36*
G01*
X159975000Y-130560000D02*
X159975000Y-129610000D01*
G75*
G02*
X160225000Y-129360000I250000J0D01*
G01*
X160725000Y-129360000D01*
G75*
G02*
X160975000Y-129610000I0J-250000D01*
G01*
X160975000Y-130560000D01*
G75*
G02*
X160725000Y-130810000I-250000J0D01*
G01*
X160225000Y-130810000D01*
G75*
G02*
X159975000Y-130560000I0J250000D01*
G01*
G37*
G36*
G01*
X158075000Y-130560000D02*
X158075000Y-129610000D01*
G75*
G02*
X158325000Y-129360000I250000J0D01*
G01*
X158825000Y-129360000D01*
G75*
G02*
X159075000Y-129610000I0J-250000D01*
G01*
X159075000Y-130560000D01*
G75*
G02*
X158825000Y-130810000I-250000J0D01*
G01*
X158325000Y-130810000D01*
G75*
G02*
X158075000Y-130560000I0J250000D01*
G01*
G37*
%TD*%
%TO.C,R17*%
G36*
G01*
X161472500Y-107727500D02*
X162022500Y-107727500D01*
G75*
G02*
X162222500Y-107927500I0J-200000D01*
G01*
X162222500Y-108327500D01*
G75*
G02*
X162022500Y-108527500I-200000J0D01*
G01*
X161472500Y-108527500D01*
G75*
G02*
X161272500Y-108327500I0J200000D01*
G01*
X161272500Y-107927500D01*
G75*
G02*
X161472500Y-107727500I200000J0D01*
G01*
G37*
G36*
G01*
X161472500Y-106077500D02*
X162022500Y-106077500D01*
G75*
G02*
X162222500Y-106277500I0J-200000D01*
G01*
X162222500Y-106677500D01*
G75*
G02*
X162022500Y-106877500I-200000J0D01*
G01*
X161472500Y-106877500D01*
G75*
G02*
X161272500Y-106677500I0J200000D01*
G01*
X161272500Y-106277500D01*
G75*
G02*
X161472500Y-106077500I200000J0D01*
G01*
G37*
%TD*%
%TO.C,R7*%
G36*
G01*
X164497500Y-108297500D02*
X164497500Y-108847500D01*
G75*
G02*
X164297500Y-109047500I-200000J0D01*
G01*
X163897500Y-109047500D01*
G75*
G02*
X163697500Y-108847500I0J200000D01*
G01*
X163697500Y-108297500D01*
G75*
G02*
X163897500Y-108097500I200000J0D01*
G01*
X164297500Y-108097500D01*
G75*
G02*
X164497500Y-108297500I0J-200000D01*
G01*
G37*
G36*
G01*
X166147500Y-108297500D02*
X166147500Y-108847500D01*
G75*
G02*
X165947500Y-109047500I-200000J0D01*
G01*
X165547500Y-109047500D01*
G75*
G02*
X165347500Y-108847500I0J200000D01*
G01*
X165347500Y-108297500D01*
G75*
G02*
X165547500Y-108097500I200000J0D01*
G01*
X165947500Y-108097500D01*
G75*
G02*
X166147500Y-108297500I0J-200000D01*
G01*
G37*
%TD*%
%TO.C,R5*%
G36*
G01*
X145980000Y-99322500D02*
X145980000Y-98772500D01*
G75*
G02*
X146180000Y-98572500I200000J0D01*
G01*
X146580000Y-98572500D01*
G75*
G02*
X146780000Y-98772500I0J-200000D01*
G01*
X146780000Y-99322500D01*
G75*
G02*
X146580000Y-99522500I-200000J0D01*
G01*
X146180000Y-99522500D01*
G75*
G02*
X145980000Y-99322500I0J200000D01*
G01*
G37*
G36*
G01*
X144330000Y-99322500D02*
X144330000Y-98772500D01*
G75*
G02*
X144530000Y-98572500I200000J0D01*
G01*
X144930000Y-98572500D01*
G75*
G02*
X145130000Y-98772500I0J-200000D01*
G01*
X145130000Y-99322500D01*
G75*
G02*
X144930000Y-99522500I-200000J0D01*
G01*
X144530000Y-99522500D01*
G75*
G02*
X144330000Y-99322500I0J200000D01*
G01*
G37*
%TD*%
%TO.C,C4*%
G36*
G01*
X147467500Y-84692500D02*
X147467500Y-84192500D01*
G75*
G02*
X147692500Y-83967500I225000J0D01*
G01*
X148142500Y-83967500D01*
G75*
G02*
X148367500Y-84192500I0J-225000D01*
G01*
X148367500Y-84692500D01*
G75*
G02*
X148142500Y-84917500I-225000J0D01*
G01*
X147692500Y-84917500D01*
G75*
G02*
X147467500Y-84692500I0J225000D01*
G01*
G37*
G36*
G01*
X145917500Y-84692500D02*
X145917500Y-84192500D01*
G75*
G02*
X146142500Y-83967500I225000J0D01*
G01*
X146592500Y-83967500D01*
G75*
G02*
X146817500Y-84192500I0J-225000D01*
G01*
X146817500Y-84692500D01*
G75*
G02*
X146592500Y-84917500I-225000J0D01*
G01*
X146142500Y-84917500D01*
G75*
G02*
X145917500Y-84692500I0J225000D01*
G01*
G37*
%TD*%
D12*
%TO.C,U2*%
X150950000Y-95155000D03*
X155800000Y-89605000D03*
X150950000Y-89605000D03*
X155800000Y-95155000D03*
D13*
X144225000Y-96190000D03*
X144225000Y-94920000D03*
X144225000Y-93650000D03*
X144225000Y-92380000D03*
X144225000Y-91110000D03*
X144225000Y-89840000D03*
X144225000Y-88570000D03*
%TD*%
D12*
%TO.C,U3*%
X149050000Y-107385000D03*
X144200000Y-112935000D03*
X149050000Y-112935000D03*
X144200000Y-107385000D03*
D13*
X155775000Y-106350000D03*
X155775000Y-107620000D03*
X155775000Y-108890000D03*
X155775000Y-110160000D03*
X155775000Y-111430000D03*
X155775000Y-112700000D03*
X155775000Y-113970000D03*
%TD*%
D12*
%TO.C,U1*%
X150950000Y-77375000D03*
X155800000Y-71825000D03*
X150950000Y-71825000D03*
X155800000Y-77375000D03*
D13*
X144225000Y-78410000D03*
X144225000Y-77140000D03*
X144225000Y-75870000D03*
X144225000Y-74600000D03*
X144225000Y-73330000D03*
X144225000Y-72060000D03*
X144225000Y-70790000D03*
%TD*%
%TO.C,R8*%
G36*
G01*
X160052500Y-114012500D02*
X160052500Y-114562500D01*
G75*
G02*
X159852500Y-114762500I-200000J0D01*
G01*
X159452500Y-114762500D01*
G75*
G02*
X159252500Y-114562500I0J200000D01*
G01*
X159252500Y-114012500D01*
G75*
G02*
X159452500Y-113812500I200000J0D01*
G01*
X159852500Y-113812500D01*
G75*
G02*
X160052500Y-114012500I0J-200000D01*
G01*
G37*
G36*
G01*
X161702500Y-114012500D02*
X161702500Y-114562500D01*
G75*
G02*
X161502500Y-114762500I-200000J0D01*
G01*
X161102500Y-114762500D01*
G75*
G02*
X160902500Y-114562500I0J200000D01*
G01*
X160902500Y-114012500D01*
G75*
G02*
X161102500Y-113812500I200000J0D01*
G01*
X161502500Y-113812500D01*
G75*
G02*
X161702500Y-114012500I0J-200000D01*
G01*
G37*
%TD*%
%TO.C,R6*%
G36*
G01*
X143630000Y-81542500D02*
X143630000Y-80992500D01*
G75*
G02*
X143830000Y-80792500I200000J0D01*
G01*
X144230000Y-80792500D01*
G75*
G02*
X144430000Y-80992500I0J-200000D01*
G01*
X144430000Y-81542500D01*
G75*
G02*
X144230000Y-81742500I-200000J0D01*
G01*
X143830000Y-81742500D01*
G75*
G02*
X143630000Y-81542500I0J200000D01*
G01*
G37*
G36*
G01*
X141980000Y-81542500D02*
X141980000Y-80992500D01*
G75*
G02*
X142180000Y-80792500I200000J0D01*
G01*
X142580000Y-80792500D01*
G75*
G02*
X142780000Y-80992500I0J-200000D01*
G01*
X142780000Y-81542500D01*
G75*
G02*
X142580000Y-81742500I-200000J0D01*
G01*
X142180000Y-81742500D01*
G75*
G02*
X141980000Y-81542500I0J200000D01*
G01*
G37*
%TD*%
%TO.C,R3*%
G36*
G01*
X140265000Y-75510000D02*
X140265000Y-74960000D01*
G75*
G02*
X140465000Y-74760000I200000J0D01*
G01*
X140865000Y-74760000D01*
G75*
G02*
X141065000Y-74960000I0J-200000D01*
G01*
X141065000Y-75510000D01*
G75*
G02*
X140865000Y-75710000I-200000J0D01*
G01*
X140465000Y-75710000D01*
G75*
G02*
X140265000Y-75510000I0J200000D01*
G01*
G37*
G36*
G01*
X138615000Y-75510000D02*
X138615000Y-74960000D01*
G75*
G02*
X138815000Y-74760000I200000J0D01*
G01*
X139215000Y-74760000D01*
G75*
G02*
X139415000Y-74960000I0J-200000D01*
G01*
X139415000Y-75510000D01*
G75*
G02*
X139215000Y-75710000I-200000J0D01*
G01*
X138815000Y-75710000D01*
G75*
G02*
X138615000Y-75510000I0J200000D01*
G01*
G37*
%TD*%
%TO.C,R1*%
G36*
G01*
X164497500Y-83215000D02*
X164497500Y-83765000D01*
G75*
G02*
X164297500Y-83965000I-200000J0D01*
G01*
X163897500Y-83965000D01*
G75*
G02*
X163697500Y-83765000I0J200000D01*
G01*
X163697500Y-83215000D01*
G75*
G02*
X163897500Y-83015000I200000J0D01*
G01*
X164297500Y-83015000D01*
G75*
G02*
X164497500Y-83215000I0J-200000D01*
G01*
G37*
G36*
G01*
X166147500Y-83215000D02*
X166147500Y-83765000D01*
G75*
G02*
X165947500Y-83965000I-200000J0D01*
G01*
X165547500Y-83965000D01*
G75*
G02*
X165347500Y-83765000I0J200000D01*
G01*
X165347500Y-83215000D01*
G75*
G02*
X165547500Y-83015000I200000J0D01*
G01*
X165947500Y-83015000D01*
G75*
G02*
X166147500Y-83215000I0J-200000D01*
G01*
G37*
%TD*%
%TO.C,C8*%
G36*
G01*
X159910000Y-107627500D02*
X160410000Y-107627500D01*
G75*
G02*
X160635000Y-107852500I0J-225000D01*
G01*
X160635000Y-108302500D01*
G75*
G02*
X160410000Y-108527500I-225000J0D01*
G01*
X159910000Y-108527500D01*
G75*
G02*
X159685000Y-108302500I0J225000D01*
G01*
X159685000Y-107852500D01*
G75*
G02*
X159910000Y-107627500I225000J0D01*
G01*
G37*
G36*
G01*
X159910000Y-106077500D02*
X160410000Y-106077500D01*
G75*
G02*
X160635000Y-106302500I0J-225000D01*
G01*
X160635000Y-106752500D01*
G75*
G02*
X160410000Y-106977500I-225000J0D01*
G01*
X159910000Y-106977500D01*
G75*
G02*
X159685000Y-106752500I0J225000D01*
G01*
X159685000Y-106302500D01*
G75*
G02*
X159910000Y-106077500I225000J0D01*
G01*
G37*
%TD*%
M02*
