M48
; DRILL file {KiCad (5.99.0-11012-g5d9c1dd75a)} date Monday, June 14, 2021 at 09:45:04 PM
; FORMAT={-:-/ absolute / inch / decimal}
; #@! TF.CreationDate,2021-06-14T21:45:04+02:00
; #@! TF.GenerationSoftware,Kicad,Pcbnew,(5.99.0-11012-g5d9c1dd75a)
; #@! TF.FileFunction,MixedPlating,1,4
FMAT,2
INCH
; #@! TA.AperFunction,Plated,PTH,ViaDrill
T1C0.0118
; #@! TA.AperFunction,Plated,PTH,ComponentDrill
T2C0.0315
; #@! TA.AperFunction,Plated,PTH,ComponentDrill
T3C0.0354
; #@! TA.AperFunction,Plated,PTH,ComponentDrill
T4C0.0394
; #@! TA.AperFunction,Plated,PTH,ComponentDrill
T5C0.0433
; #@! TA.AperFunction,Plated,PTH,ComponentDrill
T6C0.0469
; #@! TA.AperFunction,Plated,PTH,ComponentDrill
T7C0.0669
; #@! TA.AperFunction,Plated,PTH,ComponentDrill
T8C0.1260
; #@! TA.AperFunction,NonPlated,NPTH,ComponentDrill
T9C0.0390
; #@! TA.AperFunction,NonPlated,NPTH,ComponentDrill
T10C0.0454
; #@! TA.AperFunction,NonPlated,NPTH,ComponentDrill
T11C0.1378
%
G90
G05
T1
X3.9764Y-2.7165
X3.9961Y-2.8543
X4.2305Y-5.112
X4.2555Y-4.337
X4.2555Y-4.387
X4.2805Y-2.962
X4.2805Y-4.937
X4.2805Y-5.112
X4.2805Y-5.337
X4.3055Y-4.337
X4.3055Y-4.387
X4.3305Y-5.112
X4.3556Y-3.6745
X4.3805Y-5.112
X4.3805Y-5.337
X4.4055Y-3.6745
X4.4291Y-4.0945
X4.4291Y-4.1339
X4.4488Y-3.4646
X4.4488Y-3.5039
X4.4685Y-4.0945
X4.4685Y-4.1339
X4.4805Y-3.9495
X4.4882Y-3.4646
X4.4882Y-3.5039
X4.5055Y-3.5495
X4.518Y-3.1745
X4.518Y-3.887
X4.5305Y-4.687
X4.5555Y-3.3495
X4.5555Y-3.511
X4.568Y-4.437
X4.593Y-3.662
X4.6055Y-3.887
X4.6305Y-3.3745
X4.6305Y-3.4495
X4.6305Y-4.937
X4.6805Y-3.4495
X4.685Y-3.6811
X4.685Y-3.7205
X4.693Y-3.887
X4.7055Y-4.812
X4.7244Y-3.6811
X4.7244Y-3.7205
X4.7305Y-3.212
X4.7555Y-3.3745
X4.7555Y-4.637
X4.7805Y-3.4495
X4.7805Y-4.937
X4.8055Y-4.862
X4.8555Y-3.412
X4.8805Y-3.187
X4.8805Y-3.237
X4.8805Y-4.587
X4.8805Y-5.212
X4.8805Y-5.262
X4.9055Y-4.762
X4.9305Y-4.562
X4.9305Y-5.212
X4.9305Y-5.262
X4.9805Y-4.562
X5.0394Y-5.315
X5.0394Y-5.3543
X5.068Y-4.387
X5.0787Y-5.315
X5.0787Y-5.3543
X5.1181Y-5.315
X5.1181Y-5.3543
X5.2305Y-4.562
X5.2805Y-3.137
X5.3055Y-5.237
X5.368Y-2.9745
X5.4305Y-3.137
X5.4805Y-3.2371
X5.5305Y-3.2371
X5.5413Y-3.5693
X5.5413Y-3.6671
X5.6305Y-4.112
X5.668Y-3.1995
X5.685Y-4.0315
X5.7055Y-4.237
X5.7555Y-4.112
X5.768Y-4.3495
X5.793Y-3.312
X5.8268Y-3.9528
X5.8268Y-4.0157
X5.8425Y-3.9213
X5.8425Y-3.9843
X5.843Y-3.1995
X5.8555Y-4.5245
X5.8555Y-4.7245
X5.8805Y-3.387
X5.8805Y-3.537
X5.8898Y-3.8268
X5.9055Y-4.5245
X5.9213Y-3.8189
X5.9528Y-3.8307
X5.9555Y-4.5245
X5.9843Y-3.8189
X6.0055Y-4.537
X6.0055Y-4.6495
X6.0157Y-4.1496
X6.018Y-3.8268
X6.018Y-4.312
X6.0555Y-3.762
X6.0805Y-4.5995
X6.093Y-4.2495
X6.1181Y-3.9213
X6.1181Y-4.0472
X6.126Y-3.8898
X6.1339Y-4.0157
X6.143Y-4.4702
X6.1805Y-3.762
X6.4305Y-4.562
X6.4555Y-5.037
X6.4555Y-5.237
X6.4805Y-4.562
X6.5354Y-5.315
X6.5354Y-5.3543
X6.568Y-4.387
X6.5748Y-5.315
X6.5748Y-5.3543
X6.6142Y-5.315
X6.6142Y-5.3543
X6.7305Y-4.562
X6.7805Y-5.312
X6.8305Y-5.312
X6.8805Y-5.062
X6.8805Y-5.312
X6.9055Y-4.937
X6.9291Y-4.5669
X6.9291Y-4.6063
X6.9305Y-5.062
X6.9305Y-5.312
X6.9685Y-4.5669
X6.9685Y-4.6063
X7.0305Y-5.037
X7.0555Y-4.937
X7.1066Y-5.037
X7.2055Y-5.037
X7.3555Y-5.037
X7.4305Y-5.362
X7.5305Y-5.362
T2
X4.0427Y-4.512
X4.0427Y-4.862
X4.1805Y-4.512
X4.1805Y-4.862
X7.1828Y-4.437
X7.1828Y-4.787
X7.3206Y-4.437
X7.3206Y-4.787
T3
X5.114Y-3.0942
X5.1877Y-4.6285
X5.1877Y-4.7285
X5.214Y-3.0942
X6.6877Y-4.6285
X6.6877Y-4.7285
T4
X5.2059Y-4.087
X5.3053Y-3.6876
X5.3053Y-3.7876
X5.3053Y-3.8876
X5.3059Y-4.087
X5.4053Y-3.6876
X5.4053Y-3.7876
X5.4053Y-3.8876
X5.4059Y-4.087
X5.5059Y-4.087
T5
X4.4805Y-5.137
X4.514Y-3.0942
X4.5305Y-5.2866
X4.5805Y-5.137
X4.6305Y-5.2866
X4.6805Y-5.137
X4.7305Y-5.2866
X4.7805Y-5.137
X4.814Y-3.0942
X5.1877Y-5.0285
X5.1877Y-5.3285
X6.6877Y-5.0285
X6.6877Y-5.3285
X7.0305Y-5.1315
X7.0805Y-5.2811
X7.1305Y-5.1315
X7.1805Y-5.2811
X7.2305Y-5.1315
X7.2805Y-5.2811
X7.3305Y-5.1315
T6
X5.7063Y-2.987
X5.7063Y-3.087
X6.0563Y-2.987
X6.0563Y-3.087
X6.0563Y-3.187
X6.0563Y-3.362
X6.0563Y-3.462
X6.0563Y-3.562
X6.3563Y-2.987
X6.3563Y-3.087
X6.3563Y-3.187
X6.3563Y-3.362
X6.3563Y-3.462
X6.3563Y-3.562
X6.6563Y-2.987
X6.6563Y-3.087
X6.6563Y-3.187
X6.6563Y-3.362
X6.6563Y-3.462
X6.6563Y-3.562
X6.9563Y-2.987
X6.9563Y-3.087
X6.9563Y-3.187
X6.9563Y-3.362
X6.9563Y-3.462
X6.9563Y-3.562
X7.2555Y-2.987
X7.2555Y-3.087
X7.2555Y-3.187
X7.2563Y-3.362
X7.2563Y-3.462
X7.2563Y-3.562
T7
X4.1535Y-3.1299
X4.1535Y-3.2858
X4.1535Y-3.4417
X4.1535Y-3.5976
X4.1535Y-3.7535
X4.1535Y-3.9094
X4.1535Y-4.0654
X4.1535Y-4.2213
X4.3354Y-2.6791
X4.4913Y-2.6791
X4.6472Y-2.6791
X4.8031Y-2.6791
X5.0441Y-2.6772
X5.2Y-2.6772
X5.3559Y-2.6772
X5.5118Y-2.6772
X6.3039Y-2.6772
X6.4598Y-2.6772
X6.6157Y-2.6772
X6.7717Y-2.6772
X7.0126Y-2.6772
X7.1685Y-2.6772
X7.3244Y-2.6772
X7.4803Y-2.6772
X7.6555Y-2.9945
X7.6555Y-3.1504
X7.6555Y-3.3063
X7.6555Y-3.4622
X7.6555Y-3.7031
X7.6555Y-3.8591
X7.6555Y-4.015
X7.6555Y-4.1709
X7.6575Y-4.4118
X7.6575Y-4.5677
X7.6575Y-4.7236
X7.6575Y-4.8795
T8
X4.0945Y-2.6181
X4.0945Y-5.2559
X7.7165Y-2.6181
X7.7165Y-5.2559
T9
X5.5948Y-3.7171
X5.6348Y-3.5171
X5.6748Y-3.7171
T10
X4.0157Y-3.9495
X7.7165Y-2.7953
X7.7165Y-5.0787
T11
X4.6305Y-5.8732
X7.1805Y-5.8677
T0
M30
